<?xml version="1.0" encoding="UTF-8"?>
<svg width="24px" height="22px" viewBox="0 0 24 22" version="1.1" xmlns="http://www.w3.org/2000/svg" xmlns:xlink="http://www.w3.org/1999/xlink">
    <title>icon_detect</title>
    <g id="咨询师-直播间" stroke="none" stroke-width="1" fill="none" fill-rule="evenodd">
        <g id="直播-摄像头检测" transform="translate(-842.000000, -171.000000)" fill="#FFFFFF">
            <g id="detect" transform="translate(452.000000, 130.000000)">
                <g transform="translate(374.000000, 28.000000)" id="icon_detect-">
                    <g transform="translate(16.000000, 13.000000)">
                        <g id="icon_detect">
                            <path d="M21.8181818,14.6666667 C21.8181818,15.2444286 21.3289091,15.7142857 20.7272727,15.7142857 L3.27272727,15.7142857 C2.67109091,15.7142857 2.18181818,15.2444286 2.18181818,14.6666667 L2.18181818,3.14285714 C2.18181818,2.56509524 2.67109091,2.0952381 3.27272727,2.0952381 L20.7272727,2.0952381 C21.3289091,2.0952381 21.8181818,2.56509524 21.8181818,3.14285714 L21.8181818,14.6666667 Z M20.7272727,0 L3.27272727,0 C1.46781818,0 0,1.40957143 0,3.14285714 L0,14.6666667 C0,16.3999524 1.46781818,17.8095238 3.27272727,17.8095238 L10.9090909,17.8095238 L10.9090909,19.9047619 L7.63636364,19.9047619 C7.03418182,19.9047619 6.54545455,20.3740952 6.54545455,20.952381 C6.54545455,21.5306667 7.03418182,22 7.63636364,22 L16.3636364,22 C16.9658182,22 17.4545455,21.5306667 17.4545455,20.952381 C17.4545455,20.3740952 16.9658182,19.9047619 16.3636364,19.9047619 L13.0909091,19.9047619 L13.0909091,17.8095238 L20.7272727,17.8095238 C22.5321818,17.8095238 24,16.3999524 24,14.6666667 L24,3.14285714 C24,1.40957143 22.5321818,0 20.7272727,0 L20.7272727,0 Z" id="Fill-1"></path>
                            <path d="M18,9.23814267 L14.914,9.23814267 L11.207,5.53110164 C10.9915,5.31559926 10.691,5.21009809 10.3865,5.24459847 C10.084,5.27909885 9.8135,5.44960074 9.652,5.7081036 L7.446,9.23814267 L6,9.23814267 C5.448,9.23814267 5,9.68614763 5,10.2381537 C5,10.7901598 5.448,11.2381648 6,11.2381648 L8,11.2381648 C8.3445,11.2381648 8.665,11.0606628 8.848,10.7681596 L10.6815,7.83412713 L13.793,10.9451616 C13.9805,11.1326636 14.235,11.2381648 14.5,11.2381648 L18,11.2381648 C18.552,11.2381648 19,10.7901598 19,10.2381537 C19,9.68614763 18.552,9.23814267 18,9.23814267" id="Fill-3"></path>
                        </g>
                    </g>
                </g>
            </g>
        </g>
    </g>
</svg>