<?xml version="1.0" encoding="UTF-8"?>
<svg width="18px" height="22px" viewBox="0 0 18 22" version="1.1" xmlns="http://www.w3.org/2000/svg" xmlns:xlink="http://www.w3.org/1999/xlink">
    <title>icon_camera</title>
    <g id="咨询师-直播间" stroke="none" stroke-width="1" fill="none" fill-rule="evenodd">
        <g id="直播-摄像头检测" transform="translate(-577.000000, -171.000000)" fill="#FFFFFF">
            <g id="detect" transform="translate(452.000000, 130.000000)">
                <g id="camera" transform="translate(92.000000, 28.000000)">
                    <g id="icon_camera-" transform="translate(33.000000, 13.000000)">
                        <g id="icon_camera">
                            <path d="M13,9 C13,11.209 11.209,13 9,13 C6.791,13 5,11.209 5,9 C5,6.791 6.791,5 9,5 C11.209,5 13,6.791 13,9" id="Fill-1"></path>
                            <path d="M2,9 C2,5.14 5.14,2 9,2 C12.86,2 16,5.14 16,9 C16,12.86 12.86,16 9,16 C5.14,16 2,12.86 2,9 M18,9 C18,4.0375 13.9625,0 9,0 C4.0375,0 0,4.0375 0,9 C0,13.624 3.507,17.4415 8,17.941 L8,20 L5,20 C4.448,20 4,20.448 4,21 C4,21.552 4.448,22 5,22 L13,22 C13.552,22 14,21.552 14,21 C14,20.448 13.552,20 13,20 L10,20 L10,17.941 C14.493,17.4415 18,13.624 18,9" id="Fill-3"></path>
                        </g>
                    </g>
                </g>
            </g>
        </g>
    </g>
</svg>