<?xml version="1.0" encoding="UTF-8"?>
<svg width="24px" height="33px" viewBox="0 0 24 33" version="1.1" xmlns="http://www.w3.org/2000/svg" xmlns:xlink="http://www.w3.org/1999/xlink">
    <title>btn_volume</title>
    <g id="咨询师-直播间" stroke="none" stroke-width="1" fill="none" fill-rule="evenodd">
        <g id="直播-检测完成" transform="translate(-138.000000, -726.000000)" fill="#FFFFFF">
            <g id="btn_volume-" transform="translate(138.000000, 726.000000)">
                <g id="btn_volume">
                    <path d="M12,21.75 C15.72825,21.75 18.75,18.72825 18.75,15 L18.75,6.75 C18.75,3.02175 15.72825,0 12,0 C8.27175,0 5.25,3.02175 5.25,6.75 L5.25,15 C5.25,18.72825 8.27175,21.75 12,21.75" id="Fill-1"></path>
                    <path d="M24,15 C24,14.172 23.328,13.5 22.5,13.5 C21.672,13.5 21,14.172 21,15 C21,19.96275 16.96275,24 12,24 C7.03725,24 3,19.96275 3,15 C3,14.172 2.328,13.5 1.5,13.5 C0.672,13.5 0,14.172 0,15 C0,21.108 4.59,26.154 10.5,26.89575 L10.5,30 L7.5,30 C6.672,30 6,30.672 6,31.5 C6,32.328 6.672,33 7.5,33 L16.5,33 C17.328,33 18,32.328 18,31.5 C18,30.672 17.328,30 16.5,30 L13.5,30 L13.5,26.89575 C19.41,26.154 24,21.108 24,15" id="Fill-3"></path>
                </g>
            </g>
        </g>
    </g>
</svg>