<?xml version="1.0" encoding="UTF-8"?>
<svg width="20px" height="15px" viewBox="0 0 20 15" version="1.1" xmlns="http://www.w3.org/2000/svg" xmlns:xlink="http://www.w3.org/1999/xlink">
    <title>icon_user</title>
    <g id="咨询师-直播间" stroke="none" stroke-width="1" fill="none" fill-rule="evenodd">
        <g id="直播-检测完成" transform="translate(-1287.000000, -20.000000)" fill="#888888">
            <g id="live-stream" transform="translate(1287.000000, 18.000000)">
                <g id="icon_user-" transform="translate(0.000000, 2.000000)">
                    <g id="icon_user">
                        <path d="M6.57422173,1.61963459 C8.27795453,1.61963459 9.66389684,2.99395892 9.66389684,4.68328324 C9.66389684,6.37220216 8.27795453,7.74612108 6.57422173,7.74612108 C4.87008047,7.74612108 3.48413815,6.37220216 3.48413815,4.68328324 C3.48413815,2.99395892 4.87008047,1.61963459 6.57422173,1.61963459 M9.39593983,8.43004 C10.5482367,7.57463459 11.2977811,6.21612108 11.2977811,4.68328324 C11.2977811,2.10085081 9.17904169,4e-05 6.57422173,4e-05 C3.96940177,4e-05 1.85025391,2.10085081 1.85025391,4.68328324 C1.85025391,6.19017514 2.57488157,7.52963459 3.69368381,8.38666162 C1.51244834,9.4277427 -0.00012,11.6339589 -0.00012,14.19004 C-0.00012,14.6372022 0.365870071,15.00004 0.816822123,15.00004 C1.26818265,15.00004 1.63376425,14.6372022 1.63376425,14.19004 C1.63376425,11.5297697 3.8166336,9.36612108 6.49988,9.36612108 C9.18353487,9.36612108 11.3659958,11.5297697 11.3659958,14.19004 C11.3659958,14.6372022 11.7319858,15.00004 12.1829379,15.00004 C12.6342984,15.00004 12.99988,14.6372022 12.99988,14.19004 C12.99988,11.6692292 11.5289757,9.48814811 9.39593983,8.43004" id="Fill-1"></path>
                        <path d="M16.5525596,8.43 C17.6541618,7.57540541 18.3720203,6.21608108 18.3720203,4.68324324 C18.3720203,2.10121622 16.3446659,9.05941988e-14 13.8526768,9.05941988e-14 C13.4208675,9.05941988e-14 13.0711215,0.362837838 13.0711215,0.81 C13.0711215,1.25716216 13.4208675,1.61959459 13.8526768,1.61959459 C15.4830012,1.61959459 16.8089097,2.99391892 16.8089097,4.68324324 C16.8089097,6.37216216 15.4830012,7.74608108 13.8526768,7.74608108 C13.8444705,7.74608108 13.8370457,7.74851351 13.8288394,7.74891892 C13.8128175,7.74851351 13.7975772,7.74608108 13.7815553,7.74608108 C13.3501368,7.74608108 13,8.10891892 13,8.55648649 C13,9.00364865 13.3501368,9.36648649 13.7815553,9.36648649 C16.3489644,9.36648649 18.4368894,11.5297297 18.4368894,14.19 C18.4368894,14.6375676 18.7870262,15 19.2184447,15 C19.650254,15 20,14.6375676 20,14.19 C20,11.6691892 18.5928097,9.48810811 16.5525596,8.43" id="Fill-3"></path>
                    </g>
                </g>
            </g>
        </g>
    </g>
</svg>