<?xml version="1.0" encoding="UTF-8"?>
<svg width="18px" height="18px" viewBox="0 0 18 18" version="1.1" xmlns="http://www.w3.org/2000/svg" xmlns:xlink="http://www.w3.org/1999/xlink">
    <title>icon_success</title>
    <g id="咨询师-直播间" stroke="none" stroke-width="1" fill="none" fill-rule="evenodd">
        <g id="直播-麦克风" transform="translate(-596.000000, -188.000000)">
            <g id="detect" transform="translate(452.000000, 130.000000)">
                <g id="camera" transform="translate(110.000000, 28.000000)">
                    <g id="icon_success-" transform="translate(34.000000, 30.000000)">
                        <g id="icon_success">
                            <path d="M9,0 C4.03731818,0 0,4.03731818 0,9 C0,13.9626818 4.03731818,18 9,18 C13.9626818,18 18,13.9626818 18,9 C18,4.03731818 13.9626818,0 9,0" id="Fill-1" fill="#53C41B"></path>
                            <path d="M7.59575455,12.6214773 C7.3863,12.6214773 7.17766364,12.5421136 7.01770909,12.3821591 L4.20970909,9.57906818 C3.8898,9.25956818 3.88898182,8.74206818 4.20889091,8.42175 C4.52798182,8.10184091 5.04589091,8.10102273 5.3658,8.42093182 L7.59575455,10.6472045 L12.6341182,5.61784091 C12.9540273,5.29915909 13.4715273,5.29834091 13.7914364,5.61865909 C14.1109364,5.93856818 14.1101182,6.45647727 13.7906182,6.77556818 L8.1738,12.3821591 C8.01384545,12.5417045 7.80520909,12.6214773 7.59575455,12.6214773" id="Fill-3" fill="#FFFFFF"></path>
                        </g>
                    </g>
                </g>
            </g>
        </g>
    </g>
</svg>