<?xml version="1.0" encoding="UTF-8"?>
<svg width="24px" height="33px" viewBox="0 0 24 33" version="1.1" xmlns="http://www.w3.org/2000/svg" xmlns:xlink="http://www.w3.org/1999/xlink">
    <title>btn_volume_pre</title>
    <g id="咨询师-直播间" stroke="none" stroke-width="1" fill="none" fill-rule="evenodd">
        <g id="禁音" transform="translate(-138.000000, -726.000000)">
            <rect fill="#000000" x="0" y="0" width="1440" height="900"></rect>
            <rect id="bg_live" fill="#000000" x="82" y="60" width="1036" height="840"></rect>
            <g id="btn_volume_pre-" transform="translate(138.000000, 726.000000)">
                <g id="btn_volume_pre">
                    <path d="M17.602275,2.99265 C17.363025,2.62515 17.077275,2.28765 16.770525,1.9794 C15.555525,0.75765 13.860525,0.00015 11.999775,0.00015 C8.273025,0.00015 5.249775,3.02265 5.249775,6.75015 L5.249775,15.00015 C5.249775,15.11265 5.249775,15.22515 5.257275,15.33765 L17.602275,2.99265 Z" id="Fill-1" fill="#FFFFFF"></path>
                    <path d="M12,21.75 C15.7275,21.75 18.75,18.7275 18.75,15 L18.75,7.155 L6.7125,19.1925 C7.95,20.7525 9.855,21.75 12,21.75" id="Fill-3" fill="#FFFFFF"></path>
                    <path d="M3,15 C3,14.175 2.325,13.5 1.5,13.5 C0.675,13.5 0,14.175 0,15 C0,16.65 0.3375,18.225 0.9375,19.6575 L3.3,17.29575 C3.105,16.56 3,15.79575 3,15" id="Fill-5" fill="#FFFFFF"></path>
                    <path d="M24,15 C24,14.175 23.325,13.5 22.5,13.5 C21.675,13.5 21,14.175 21,15 C21,19.965 16.965,24 12,24 C9.24,24 6.765,22.755 5.115,20.79 L2.9925,22.9125 C4.878,25.062 7.5225,26.52375 10.5,26.898 L10.5,30 L7.5,30 C6.672,30 6,30.672 6,31.5 C6,32.328 6.672,33 7.5,33 L16.5,33 C17.328,33 18,32.328 18,31.5 C18,30.672 17.328,30 16.5,30 L13.5,30 L13.5,26.89575 C19.4085,26.15325 24,21.1065 24,15" id="Fill-7" fill="#FFFFFF"></path>
                    <path d="M2.25,25.5 C1.866,25.5 1.48275,25.35375 1.1895,25.0605 C0.60375,24.47475 0.60375,23.52525 1.1895,22.9395 L20.6895,3.4395 C21.27525,2.85375 22.22475,2.85375 22.8105,3.4395 C23.39625,4.02525 23.39625,4.97475 22.8105,5.5605 L3.3105,25.0605 C3.01725,25.35375 2.634,25.5 2.25,25.5" id="Fill-9" fill="#FF4D4F"></path>
                </g>
            </g>
        </g>
    </g>
</svg>