<?xml version="1.0" encoding="UTF-8"?>
<svg width="22px" height="21px" viewBox="0 0 22 21" version="1.1" xmlns="http://www.w3.org/2000/svg" xmlns:xlink="http://www.w3.org/1999/xlink">
    <title>icon_share</title>
    <g id="咨询师-直播间" stroke="none" stroke-width="1" fill="none" fill-rule="evenodd">
        <g id="屏幕共享" transform="translate(-28.000000, -146.000000)" fill="#FFFFFF">
            <g id="share" transform="translate(0.000000, 132.000000)">
                <g id="icon_share-" transform="translate(28.000000, 14.000000)">
                    <g id="icon_share">
                        <path d="M7.5,8 L14.4,8 C14.78,8 15.127,7.7845 15.296,7.4445 C15.4645,7.104 15.426,6.6975 15.1965,6.395 L13.2965,3.895 C12.963,3.456 12.3355,3.369 11.895,3.7035 C11.455,4.038 11.3695,4.6655 11.7035,5.105 L12.384,6 L7.5,6 C6.948,6 6.5,6.448 6.5,7 C6.5,7.552 6.948,8 7.5,8" id="Fill-1"></path>
                        <path d="M14.3999,9 L7.4999,9 C7.1159,9 6.7649,9.22 6.5984,9.567 C6.4319,9.913 6.4789,10.3245 6.7194,10.6245 L8.7194,13.1245 C8.9164,13.3715 9.2069,13.5 9.5004,13.5 C9.7199,13.5 9.9404,13.428 10.1244,13.281 C10.5564,12.936 10.6259,12.3065 10.2809,11.8755 L9.5804,11 L14.3999,11 C14.9519,11 15.3999,10.552 15.3999,10 C15.3999,9.448 14.9519,9 14.3999,9" id="Fill-3"></path>
                        <path d="M20,14 C20,14.5515 19.5515,15 19,15 L3,15 C2.4485,15 2,14.5515 2,14 L2,3 C2,2.4485 2.4485,2 3,2 L19,2 C19.5515,2 20,2.4485 20,3 L20,14 Z M19,0 L3,0 C1.3455,0 0,1.3455 0,3 L0,14 C0,15.6545 1.3455,17 3,17 L10,17 L10,19 L6.5,19 C5.948,19 5.5,19.448 5.5,20 C5.5,20.552 5.948,21 6.5,21 L15.5,21 C16.052,21 16.5,20.552 16.5,20 C16.5,19.448 16.052,19 15.5,19 L12,19 L12,17 L19,17 C20.6545,17 22,15.6545 22,14 L22,3 C22,1.3455 20.6545,0 19,0 L19,0 Z" id="Fill-5"></path>
                    </g>
                </g>
            </g>
        </g>
    </g>
</svg>