<?xml version="1.0" encoding="UTF-8"?>
<svg width="22px" height="20px" viewBox="0 0 22 20" version="1.1" xmlns="http://www.w3.org/2000/svg" xmlns:xlink="http://www.w3.org/1999/xlink">
    <title>icon_set up</title>
    <g id="咨询师-直播间" stroke="none" stroke-width="1" fill="none" fill-rule="evenodd">
        <g id="设置-关闭摄像头" transform="translate(-28.000000, -218.000000)" fill="#FFFFFF">
            <g id="set-up" transform="translate(0.000000, 204.000000)">
                <g id="icon_set-up-" transform="translate(28.000000, 14.000000)">
                    <g id="icon_set-up">
                        <path d="M6.98833675,2 C6.63496496,2 6.30541598,2.192 6.12873008,2.5005 L2.11756314,9.5 C1.94038093,9.8085 1.94038093,10.1915 2.11706683,10.4995 L6.12922639,17.5 C6.30541598,17.808 6.63496496,18 6.98833675,18 L15.0116632,18 C15.365035,18 15.694584,17.808 15.8712699,17.4995 L19.8824369,10.5 C20.0596191,10.1915 20.0596191,9.8085 19.8829332,9.5005 L15.8707736,2.5 C15.694584,2.192 15.365035,2 15.0116632,2 L6.98833675,2 Z M15.0116632,20 L6.98833675,20 C5.92822136,20 4.94007074,19.4255 4.41001304,18.5005 L0.397853486,11.5 C-0.132700518,10.5745 -0.132700518,9.4255 0.398349795,8.4995 L4.40951673,1.5 C4.94007074,0.5745 5.92822136,0 6.98833675,0 L15.0116632,0 C16.0717786,0 17.0599293,0.5745 17.589987,1.4995 L21.6021465,8.5 C22.1327005,9.4255 22.1327005,10.5745 21.6016502,11.5005 L17.5904833,18.5 C17.0599293,19.4255 16.0717786,20 15.0116632,20 L15.0116632,20 Z" id="Fill-1"></path>
                        <path d="M11,7.22222222 C9.46833333,7.22222222 8.22222222,8.46833333 8.22222222,10 C8.22222222,11.5316667 9.46833333,12.7777778 11,12.7777778 C12.5316667,12.7777778 13.7777778,11.5316667 13.7777778,10 C13.7777778,8.46833333 12.5316667,7.22222222 11,7.22222222 M11,15 C8.24277778,15 6,12.7572222 6,10 C6,7.24277778 8.24277778,5 11,5 C13.7572222,5 16,7.24277778 16,10 C16,12.7572222 13.7572222,15 11,15" id="Fill-3"></path>
                    </g>
                </g>
            </g>
        </g>
    </g>
</svg>