<?xml version="1.0" encoding="UTF-8"?>
<svg width="18px" height="22px" viewBox="0 0 18 22" version="1.1" xmlns="http://www.w3.org/2000/svg" xmlns:xlink="http://www.w3.org/1999/xlink">
    <title>icon_mike</title>
    <g id="咨询师-直播间" stroke="none" stroke-width="1" fill="none" fill-rule="evenodd">
        <g id="直播-摄像头检测" transform="translate(-711.000000, -171.000000)" fill="#FFFFFF">
            <g id="detect" transform="translate(452.000000, 130.000000)">
                <g id="mike" transform="translate(244.000000, 28.000000)">
                    <g id="icon_mike-" transform="translate(15.000000, 13.000000)">
                        <g id="icon_mike">
                            <path d="M17,8 C16.448,8 16,8.43255172 16,8.96551724 L16,10.0517241 C16,13.712 12.86,16.6896552 9,16.6896552 C5.14,16.6896552 2,13.712 2,10.0517241 L2,8.96551724 C2,8.43255172 1.552,8 1,8 C0.448,8 0,8.43255172 0,8.96551724 L0,10.0517241 C0,14.4544828 3.507,18.0886897 8,18.5646897 L8,20.0689655 L5.5,20.0689655 C4.948,20.0689655 4.5,20.5015172 4.5,21.0344828 C4.5,21.5674483 4.948,22 5.5,22 L12.5,22 C13.052,22 13.5,21.5674483 13.5,21.0344828 C13.5,20.5015172 13.052,20.0689655 12.5,20.0689655 L10,20.0689655 L10,18.5646897 C14.493,18.0886897 18,14.4544828 18,10.0517241 L18,8.96551724 C18,8.43255172 17.552,8 17,8" id="Fill-1"></path>
                            <path d="M5.42222222,5.32258065 C5.42222222,3.45532258 6.99272222,1.93548387 8.92222222,1.93548387 C10.8517222,1.93548387 12.4222222,3.45532258 12.4222222,5.32258065 L12.4222222,9.67741935 C12.4222222,11.5446774 10.8517222,13.0645161 8.92222222,13.0645161 C6.99272222,13.0645161 5.42222222,11.5446774 5.42222222,9.67741935 L5.42222222,5.32258065 Z M8.92222222,15 C11.9547222,15 14.4222222,12.6120968 14.4222222,9.67741935 L14.4222222,5.32258065 C14.4222222,2.38790323 11.9547222,0 8.92222222,0 C5.88972222,0 3.42222222,2.38790323 3.42222222,5.32258065 L3.42222222,9.67741935 C3.42222222,12.6120968 5.88972222,15 8.92222222,15 L8.92222222,15 Z" id="Fill-3"></path>
                        </g>
                    </g>
                </g>
            </g>
        </g>
    </g>
</svg>