<?xml version="1.0" encoding="UTF-8"?>
<svg width="16px" height="16px" viewBox="0 0 16 16" version="1.1" xmlns="http://www.w3.org/2000/svg" xmlns:xlink="http://www.w3.org/1999/xlink">
    <title>checkbox_pre</title>
    <g id="课程管理" stroke="none" stroke-width="1" fill="none" fill-rule="evenodd">
        <g id="课程管理-研讨会小节编辑" transform="translate(-980.000000, -402.000000)">
            <g id="check" transform="translate(422.000000, 345.000000)">
                <g id="test" transform="translate(108.000000, 44.000000)">
                    <g id="checkbox_pre" transform="translate(450.000000, 13.000000)">
                        <path d="M8,7.27272727e-05 C3.58872727,7.27272727e-05 0,3.5888 0,8.00007273 C0,12.4113455 3.58872727,16.0000727 8,16.0000727 C12.4112727,16.0000727 16,12.4113455 16,8.00007273 C16,3.5888 12.4112727,7.27272727e-05 8,7.27272727e-05" id="Fill-1" fill="#4B78F6"></path>
                        <path d="M6.75178182,11.2191636 C6.5656,11.2191636 6.38014545,11.1486182 6.23796364,11.0064364 L3.74196364,8.5148 C3.4576,8.2308 3.45687273,7.7708 3.74123636,7.48607273 C4.02487273,7.20170909 4.48523636,7.20098182 4.7696,7.48534545 L6.75178182,9.46425455 L11.2303273,4.99370909 C11.5146909,4.71043636 11.9746909,4.70970909 12.2590545,4.99443636 C12.5430545,5.2788 12.5423273,5.73916364 12.2583273,6.0228 L7.2656,11.0064364 C7.12341818,11.1482545 6.93796364,11.2191636 6.75178182,11.2191636" id="Fill-3" fill="#FFFFFF"></path>
                    </g>
                </g>
            </g>
        </g>
    </g>
</svg>