<?xml version="1.0" standalone="no"?><!DOCTYPE svg PUBLIC "-//W3C//DTD SVG 1.1//EN" "http://www.w3.org/Graphics/SVG/1.1/DTD/svg11.dtd"><svg t="1610959726964" class="icon" viewBox="0 0 1024 1024" version="1.1" xmlns="http://www.w3.org/2000/svg" p-id="2134" xmlns:xlink="http://www.w3.org/1999/xlink" width="200" height="200"><defs><style type="text/css"></style></defs><path d="M787.626667 484.053333a36.906667 36.906667 0 0 0-31.573334 15.786667 79.146667 79.146667 0 0 0-11.306666 46.293333 72.746667 72.746667 0 0 0 11.306666 42.666667 36.48 36.48 0 0 0 31.36 15.36 40.533333 40.533333 0 0 0 38.4-23.466667v-73.813333a40.96 40.96 0 0 0-38.186666-22.826667zM514.986667 483.413333a39.68 39.68 0 0 0-33.066667 16.213334A74.88 74.88 0 0 0 469.333333 546.133333a68.906667 68.906667 0 0 0 12.586667 42.666667 42.666667 42.666667 0 0 0 66.773333 0 76.373333 76.373333 0 0 0 12.373334-46.08 69.333333 69.333333 0 0 0-12.586667-42.666667 39.893333 39.893333 0 0 0-33.493333-16.64z" p-id="2135"></path><path d="M853.333333 85.333333H170.666667a85.333333 85.333333 0 0 0-85.333334 85.333334v682.666666a85.333333 85.333333 0 0 0 85.333334 85.333334h682.666666a85.333333 85.333333 0 0 0 85.333334-85.333334V170.666667a85.333333 85.333333 0 0 0-85.333334-85.333334zM373.546667 625.066667h-26.24l-44.8-158.293334-3.84-16.64-3.413334 16.64-45.866666 158.293334h-26.24L170.666667 407.893333h28.586666l34.346667 149.333334 4.266667 28.586666 5.973333-25.813333 42.666667-151.466667h24.106666l42.666667 151.466667 5.973333 26.453333 3.413334-30.08 33.706666-149.333333H426.666667z m215.04-78.933334a96 96 0 0 1-8.96 42.666667A67.626667 67.626667 0 0 1 554.666667 618.666667a71.253333 71.253333 0 0 1-38.613334 10.453333 66.986667 66.986667 0 0 1-53.12-22.826667 87.04 87.04 0 0 1-21.333333-60.373333v-1.92a95.786667 95.786667 0 0 1 9.386667-42.666667 68.266667 68.266667 0 0 1 26.026666-29.226666 73.813333 73.813333 0 0 1 91.306667 12.373333 88.96 88.96 0 0 1 20.266667 60.8z m112.64-57.813333a88.96 88.96 0 0 0-13.44 0 36.266667 36.266667 0 0 0-36.906667 23.04v113.706667h-27.733333v-161.493334h26.88v18.773334a42.666667 42.666667 0 0 1 38.613333-21.333334 29.653333 29.653333 0 0 1 12.16 2.133334zM853.333333 625.066667h-25.386666l-1.28-17.28a56.533333 56.533333 0 0 1-46.08 21.333333 55.466667 55.466667 0 0 1-45.866667-23.04 95.36 95.36 0 0 1-17.706667-59.946667v-2.133333a94.72 94.72 0 0 1 17.706667-59.733333 59.946667 59.946667 0 0 1 91.093333-3.2v-85.12H853.333333z" p-id="2136"></path></svg>