<?xml version="1.0" standalone="no"?><!DOCTYPE svg PUBLIC "-//W3C//DTD SVG 1.1//EN" "http://www.w3.org/Graphics/SVG/1.1/DTD/svg11.dtd"><svg t="1610959722296" class="icon" viewBox="0 0 1024 1024" version="1.1" xmlns="http://www.w3.org/2000/svg" p-id="1993" xmlns:xlink="http://www.w3.org/1999/xlink" width="200" height="200"><defs><style type="text/css"></style></defs><path d="M722.56 482.773333a37.333333 37.333333 0 0 0-28.586667 12.373334 59.733333 59.733333 0 0 0-14.293333 34.773333h82.346667v-2.133333a54.4 54.4 0 0 0-11.52-33.28 35.84 35.84 0 0 0-27.946667-11.733334z" p-id="1994"></path><path d="M853.333333 85.333333H170.666667a85.333333 85.333333 0 0 0-85.333334 85.333334v682.666666a85.333333 85.333333 0 0 0 85.333334 85.333334h682.666666a85.333333 85.333333 0 0 0 85.333334-85.333334V170.666667a85.333333 85.333333 0 0 0-85.333334-85.333334zM311.466667 627.2H170.666667V405.333333h139.093333v23.893334H199.893333v71.466666h96v23.893334h-96v78.506666h111.573334z m125.44 0l-37.973334-61.44-37.973333 61.44h-32.64L384 544l-53.76-81.28H362.666667l36.053333 60.16 36.48-60.16h32.853333l-53.973333 81.28L469.333333 627.2z m90.24-35.2a39.68 39.68 0 0 0 33.493333 15.36 40.746667 40.746667 0 0 0 26.453333-10.026667 32 32 0 0 0 12.373334-21.333333h26.666666a52.48 52.48 0 0 1-9.813333 27.093333 65.493333 65.493333 0 0 1-23.893333 21.333334 69.12 69.12 0 0 1-31.786667 7.68 67.626667 67.626667 0 0 1-53.333333-22.4 89.813333 89.813333 0 0 1-20.053334-61.44v-6.4a98.773333 98.773333 0 0 1 8.96-42.666667 67.2 67.2 0 0 1 25.386667-29.866667 71.68 71.68 0 0 1 38.826667-10.24 66.56 66.56 0 0 1 46.08 16.426667 60.16 60.16 0 0 1 19.626666 42.666667H599.466667a39.04 39.04 0 0 0-12.16-26.24 37.76 37.76 0 0 0-26.88-10.24 38.826667 38.826667 0 0 0-33.066667 15.36 72.746667 72.746667 0 0 0-11.946667 44.8v5.333333a71.68 71.68 0 0 0 11.733334 44.8zM789.333333 553.173333h-110.72a59.093333 59.093333 0 0 0 14.293334 39.253334 44.8 44.8 0 0 0 34.56 14.933333 49.706667 49.706667 0 0 0 25.386666-5.973333 68.48 68.48 0 0 0 18.133334-16.213334l17.066666 13.44A69.12 69.12 0 0 1 725.333333 630.4a72.746667 72.746667 0 0 1-54.4-21.333333 81.493333 81.493333 0 0 1-21.333333-58.88v-5.12a98.986667 98.986667 0 0 1 9.173333-43.733334 75.306667 75.306667 0 0 1 26.24-30.08 65.92 65.92 0 0 1 36.48-10.88 61.866667 61.866667 0 0 1 49.92 21.333334 92.373333 92.373333 0 0 1 17.92 59.733333z m64 74.026667h-28.16V393.6H853.333333z" p-id="1995"></path></svg>