<?xml version="1.0" encoding="UTF-8"?>
<svg width="48px" height="48px" viewBox="0 0 48 48" version="1.1" xmlns="http://www.w3.org/2000/svg" xmlns:xlink="http://www.w3.org/1999/xlink">
    <title>icon_pdf</title>
    <g id="学生端-知识中心&amp;系统通知" stroke="none" stroke-width="1" fill="none" fill-rule="evenodd">
        <g id="知识中心" transform="translate(-294.000000, -254.000000)">
            <g id="news-1__pull-down" transform="translate(264.000000, 145.000000)">
                <g id="pdf" transform="translate(30.000000, 109.000000)">
                    <g id="icon_pdf-">
                        <g id="icon_pdf">
                            <path d="M43.2,48 L4.8,48 C2.1492,48 0,45.8508 0,43.2 L0,4.8 C0,2.1492 2.1492,0 4.8,0 L43.2,0 C45.8508,0 48,2.1492 48,4.8 L48,43.2 C48,45.8508 45.8508,48 43.2,48" id="Fill-1" fill="#F36666"></path>
                            <path d="M6.88476,24.01056 L10.62996,24.01056 C11.74476,24.01056 12.59916,23.74776 13.19196,23.22336 C13.78596,22.69656 14.08236,21.93696 14.08236,20.94216 C14.08236,20.00016 13.78596,19.24656 13.19196,18.68016 C12.59916,18.11616 11.78436,17.82336 10.74996,17.80056 L6.88476,17.80056 L6.88476,24.01056 Z M6.88476,25.71576 L6.88476,31.90296 L4.80036,31.90296 L4.80036,16.09656 L10.62996,16.09656 C12.35916,16.09656 13.71516,16.53696 14.69556,17.42136 C15.67596,18.30216 16.16676,19.47336 16.16676,20.92776 C16.16676,22.46016 15.68676,23.64336 14.72796,24.47136 C13.76916,25.30056 12.39636,25.71576 10.60836,25.71576 L6.88476,25.71576 Z" id="Fill-3" fill="#FFFFFF"></path>
                            <path d="M20.91096,17.8008 L20.91096,30.1992 L23.10456,30.1992 C24.71136,30.1992 25.96176,29.7 26.85576,28.6992 C27.74856,27.6996 28.19616,26.2752 28.19616,24.4272 L28.19616,23.5056 C28.19616,21.7092 27.77496,20.3136 26.93136,19.3164 C26.08776,18.3204 24.89256,17.814 23.34336,17.8008 L20.91096,17.8008 Z M18.82776,31.9032 L18.82776,16.0968 L23.28816,16.0968 C24.66456,16.0968 25.88136,16.4004 26.93616,17.0088 C27.99216,17.6172 28.80936,18.48 29.38536,19.6032 C29.96016,20.724 30.25056,22.014 30.25896,23.4684 L30.25896,24.4776 C30.25896,25.968 29.97096,27.2748 29.39496,28.3968 C28.82016,29.5176 27.99816,30.3792 26.93136,30.9804 C25.86456,31.5792 24.62136,31.8876 23.20176,31.9032 L18.82776,31.9032 Z" id="Fill-5" fill="#FFFFFF"></path>
                            <polygon id="Fill-7" fill="#FFFFFF" points="42.1254 24.92232 35.4918 24.92232 35.4918 31.90272 33.4074 31.90272 33.4074 16.09752 43.2006 16.09752 43.2006 17.80032 35.4918 17.80032 35.4918 23.21832 42.1254 23.21832"></polygon>
                        </g>
                    </g>
                </g>
            </g>
        </g>
    </g>
</svg>