<?xml version="1.0" standalone="no"?><!DOCTYPE svg PUBLIC "-//W3C//DTD SVG 1.1//EN" "http://www.w3.org/Graphics/SVG/1.1/DTD/svg11.dtd"><svg t="1610959729884" class="icon" viewBox="0 0 1024 1024" version="1.1" xmlns="http://www.w3.org/2000/svg" p-id="2275" xmlns:xlink="http://www.w3.org/1999/xlink" width="200" height="200"><defs><style type="text/css"></style></defs><path d="M507.733333 396.16h-40.96v126.933333h40.96c55.466667 0 73.173333-14.506667 73.173334-65.066666 0-45.653333-17.706667-61.866667-73.173334-61.866667zM250.453333 396.16H209.493333v126.933333h40.96c55.466667 0 73.173333-14.506667 73.173334-65.066666 0-45.653333-17.706667-61.866667-73.173334-61.866667z" p-id="2276"></path><path d="M853.333333 85.333333H170.666667a85.333333 85.333333 0 0 0-85.333334 85.333334v682.666666a85.333333 85.333333 0 0 0 85.333334 85.333334h682.666666a85.333333 85.333333 0 0 0 85.333334-85.333334V170.666667a85.333333 85.333333 0 0 0-85.333334-85.333334zM253.866667 554.666667H209.493333v106.666666H170.666667V362.666667h83.2c85.333333 0 109.44 29.226667 109.44 95.573333C362.666667 528.426667 331.52 554.666667 253.866667 554.666667zM512 554.666667h-45.226667v106.666666h-38.826666V362.666667H512c85.333333 0 109.44 29.226667 109.44 95.573333C620.586667 528.426667 588.8 554.666667 512 554.666667z m341.333333-157.866667h-87.04V661.333333H727.466667V396.8H640V362.666667h213.333333z" p-id="2277"></path></svg>