<?xml version="1.0" encoding="UTF-8"?>
<svg width="10px" height="10px" viewBox="0 0 10 10" version="1.1" xmlns="http://www.w3.org/2000/svg" xmlns:xlink="http://www.w3.org/1999/xlink">
    <title>icon_add</title>
    <g id="课程管理" stroke="none" stroke-width="1" fill="none" fill-rule="evenodd">
        <g id="课程管理-创建课程目录" transform="translate(-317.000000, -357.000000)" fill="#4B77F6">
            <g id="btn_add" transform="translate(300.000000, 344.000000)">
                <g id="icon_add-" transform="translate(17.000000, 13.000000)">
                    <path d="M9.28571429,4.28571429 L5.71428571,4.28571429 L5.71428571,0.714285714 C5.71428571,0.32 5.39428571,0 5,0 C4.60571429,0 4.28571429,0.32 4.28571429,0.714285714 L4.28571429,4.28571429 L0.714285714,4.28571429 C0.32,4.28571429 0,4.60571429 0,5 C0,5.39428571 0.32,5.71428571 0.714285714,5.71428571 L4.28571429,5.71428571 L4.28571429,9.28571429 C4.28571429,9.68 4.60571429,10 5,10 C5.39428571,10 5.71428571,9.68 5.71428571,9.28571429 L5.71428571,5.71428571 L9.28571429,5.71428571 C9.68,5.71428571 10,5.39428571 10,5 C10,4.60571429 9.68,4.28571429 9.28571429,4.28571429" id="icon_add"></path>
                </g>
            </g>
        </g>
    </g>
</svg>