<?xml version="1.0" encoding="UTF-8"?>
<svg width="12px" height="13px" viewBox="0 0 12 13" version="1.1" xmlns="http://www.w3.org/2000/svg" xmlns:xlink="http://www.w3.org/1999/xlink">
    <title>icon_personal center</title>
    <g id="学生端-个人中心" stroke="none" stroke-width="1" fill="none" fill-rule="evenodd">
        <g id="个人中心" transform="translate(-1242.000000, -81.000000)" fill="#4B77F6">
            <g id="personal-center" transform="translate(1230.000000, 66.000000)">
                <g id="personal-center-" transform="translate(0.000000, 4.000000)">
                    <g id="icon_personal-center-" transform="translate(12.000000, 11.000000)">
                        <path d="M3.3,3.84090909 C3.3,2.37456818 4.5111,1.18181818 6,1.18181818 C7.4889,1.18181818 8.7,2.37456818 8.7,3.84090909 C8.7,5.30725 7.4889,6.5 6,6.5 C4.5111,6.5 3.3,5.30725 3.3,3.84090909 M8.2842,6.94761364 C9.261,6.24856818 9.9,5.11815909 9.9,3.84090909 C9.9,1.72309091 8.1504,0 6,0 C3.8496,0 2.1,1.72309091 2.1,3.84090909 C2.1,5.11815909 2.739,6.24856818 3.7158,6.94761364 C1.5375,7.83427273 0,9.94706818 0,12.4090909 C0,12.7352727 0.2688,13 0.6,13 C0.9312,13 1.2,12.7352727 1.2,12.4090909 C1.2,9.80259091 3.3534,7.68181818 6,7.68181818 C8.6466,7.68181818 10.8,9.80259091 10.8,12.4090909 C10.8,12.7352727 11.0688,13 11.4,13 C11.7312,13 12,12.7352727 12,12.4090909 C12,9.94706818 10.4625,7.83427273 8.2842,6.94761364" id="icon_personal-center"></path>
                    </g>
                </g>
            </g>
        </g>
    </g>
</svg>