<?xml version="1.0" encoding="UTF-8"?>
<svg width="5px" height="9px" viewBox="0 0 5 9" version="1.1" xmlns="http://www.w3.org/2000/svg" xmlns:xlink="http://www.w3.org/1999/xlink">
    <title>icon_view</title>
    <g id="学生端-生涯辅导" stroke="none" stroke-width="1" fill="none" fill-rule="evenodd">
        <g id="生涯辅导-填写学生基本信息" transform="translate(-367.000000, -26.000000)" fill="#333333">
            <g id="id" transform="translate(264.000000, 0.000000)">
                <g id="icon_view-" transform="translate(103.000000, 26.000000)">
                    <path d="M4.50005,9.0001625 C4.3720468,9.0001625 4.24429361,8.95141129 4.14654116,8.85365884 L0.146441161,4.85355884 C-0.0488137203,4.65830396 -0.0488137203,4.34179604 0.146441161,4.14654116 L4.14654116,0.146441161 C4.34179604,-0.0488137203 4.65830396,-0.0488137203 4.85355884,0.146441161 C5.04881372,0.341696042 5.04881372,0.658203955 4.85355884,0.853458836 L1.20696767,4.50005 L4.85355884,8.14664117 C5.04881372,8.34189605 5.04881372,8.65840396 4.85355884,8.85365884 C4.7558064,8.95141129 4.6280532,9.0001625 4.50005,9.0001625" id="icon_view" transform="translate(2.500000, 4.500081) scale(-1, 1) translate(-2.500000, -4.500081) "></path>
                </g>
            </g>
        </g>
    </g>
</svg>