<?xml version="1.0" encoding="UTF-8"?>
<svg width="14px" height="13px" viewBox="0 0 14 13" version="1.1" xmlns="http://www.w3.org/2000/svg" xmlns:xlink="http://www.w3.org/1999/xlink">
    <title>icon_student file</title>
    <g id="咨询师-学生档案" stroke="none" stroke-width="1" fill="none" fill-rule="evenodd">
        <g id="学生档案" transform="translate(-20.000000, -159.000000)" fill="#FFFFFF">
            <g id="course-management" transform="translate(0.000000, 144.000000)">
                <g id="icon_student-file-" transform="translate(20.000000, 15.000000)">
                    <path d="M1.27272727,11.7 L1.27272727,1.3 L5.23822727,1.3 L6.25895455,5.209425 C6.40722727,5.77785 6.91313636,6.175 7.48872727,6.175 L12.7272727,6.175 L12.7282273,11.7 L1.27272727,11.7 Z M11.4545455,2.6 L11.4545455,4.875 L7.48872727,4.874675 L6.895,2.6 L11.4545455,2.6 Z M12.7272727,4.875 L12.7272727,2.6 C12.7272727,1.88305 12.1564545,1.3 11.4545455,1.3 L6.5555,1.3 L6.468,0.96525 C6.31972727,0.396825 5.81381818,0 5.23822727,0 L1.27272727,0 C0.570818182,0 0,0.58305 0,1.3 L0,11.7 C0,12.41695 0.570818182,13 1.27272727,13 L12.7272727,13 C13.4291818,13 14,12.41695 14,11.7 L14,6.175 C14,5.45805 13.4291818,4.875 12.7272727,4.875 L12.7272727,4.875 Z" id="icon_student-file"></path>
                </g>
            </g>
        </g>
    </g>
</svg>