<?xml version="1.0" encoding="UTF-8"?>
<svg width="14px" height="14px" viewBox="0 0 14 14" version="1.1" xmlns="http://www.w3.org/2000/svg" xmlns:xlink="http://www.w3.org/1999/xlink">
    <title>icon_student </title>
    <g id="学校端-学生管理" stroke="none" stroke-width="1" fill="none" fill-rule="evenodd">
        <g id="学生管理-状态下拉" transform="translate(-20.000000, -116.000000)" fill="#FFFFFF">
            <g id="student-management" transform="translate(0.000000, 102.000000)">
                <g id="icon_student-" transform="translate(20.000000, 14.000000)">
                    <path d="M1.27272727,12.7272727 C1.27272727,10.2709091 3.27090909,8.27272727 5.72727273,8.27272727 L8.27272727,8.27272727 C10.7290909,8.27272727 12.7272727,10.2709091 12.7282273,12.7272727 L1.27272727,12.7272727 Z M6.99936364,1.27272727 C8.5785,1.27272727 9.863,2.55722727 9.863,4.13636364 C9.863,5.7155 8.5785,7 6.99936364,7 C5.42022727,7 4.13572727,5.7155 4.13572727,4.13636364 C4.13572727,2.55722727 5.42022727,1.27272727 6.99936364,1.27272727 L6.99936364,1.27272727 Z M9.76404545,7.20395455 C10.6040455,6.44636364 11.1357273,5.35340909 11.1357273,4.13636364 C11.1357273,1.85563636 9.28009091,0 6.99936364,0 C4.71863636,0 2.863,1.85563636 2.863,4.13636364 C2.863,5.35372727 3.395,6.44668182 4.23468182,7.20427273 C1.79931818,7.86354545 0,10.0863636 0,12.7272727 C0,13.4291818 0.570818182,14 1.27272727,14 L12.7272727,14 C13.4291818,14 14,13.4291818 14,12.7272727 C14,10.0860455 12.2000455,7.86290909 9.76404545,7.20395455 L9.76404545,7.20395455 Z"></path>
                </g>
            </g>
        </g>
    </g>
</svg>