<?xml version="1.0" encoding="UTF-8"?>
<svg width="14px" height="12px" viewBox="0 0 14 12" version="1.1" xmlns="http://www.w3.org/2000/svg" xmlns:xlink="http://www.w3.org/1999/xlink">
    <title>icon_course management</title>
    <g id="学生端-生涯辅导" stroke="none" stroke-width="1" fill="none" fill-rule="evenodd">
        <g id="生涯辅导-填写学生基本信息" transform="translate(-20.000000, -117.000000)" fill="#FFFFFF">
            <g id="cecp" transform="translate(0.000000, 102.000000)">
                <g id="icon_course-management-" transform="translate(20.000000, 15.000000)">
                    <g id="icon_course-management">
                        <path d="M12.7238682,9.58749474 L9.79341364,9.58749474 C9.02436818,9.58749474 8.28523182,9.79023158 7.63645909,10.1685474 L7.63645909,1.66149474 L7.81145909,1.57528421 C8.22414091,1.37096842 8.68582273,1.26328421 9.14559545,1.26328421 L12.7273682,1.27086316 L12.7238682,9.58749474 Z M4.20645909,9.58749474 L1.27282273,9.57991579 L1.27282273,1.26328421 L4.85459545,1.26328421 C5.31436818,1.26328421 5.77573182,1.37096842 6.18873182,1.57528421 L6.36373182,1.66149474 L6.36373182,10.1682316 C5.71495909,9.79023158 4.97582273,9.58749474 4.20645909,9.58749474 L4.20645909,9.58749474 Z M12.7273682,0.000126315789 L9.14559545,0.000126315789 C8.48982273,0.000126315789 7.83214091,0.153915789 7.24382273,0.444757895 L7.00009545,0.565389474 L6.75605,0.444757895 C6.16805,0.153915789 5.51005,0.000126315789 4.85459545,0.000126315789 L1.27282273,0.000126315789 C0.570913636,0.000126315789 9.54545455e-05,0.570126316 9.54545455e-05,1.27086316 L9.54545455e-05,9.57991579 C9.54545455e-05,10.2803368 0.570913636,10.8506526 1.27282273,10.8506526 L4.20645909,10.8506526 C5.00477727,10.8506526 5.75791364,11.1607579 6.32745909,11.7238105 C6.51295909,11.9072842 6.75668636,11.9991789 7.00009545,11.9991789 C7.24350455,11.9991789 7.48691364,11.9076 7.67209545,11.7241263 C8.24195909,11.1607579 8.99509545,10.8506526 9.79341364,10.8506526 L12.7273682,10.8506526 C13.4292773,10.8506526 14.0000955,10.2803368 14.0000955,9.57991579 L14.0000955,1.27086316 C14.0000955,0.570126316 13.4292773,0.000126315789 12.7273682,0.000126315789 L12.7273682,0.000126315789 Z" id="Fill-1"></path>
                        <path d="M5.09090909,3.22174737 L2.54545455,3.22174737 C2.19418182,3.22174737 1.90909091,3.50469474 1.90909091,3.85332632 C1.90909091,4.20195789 2.19418182,4.48490526 2.54545455,4.48490526 L5.09090909,4.48490526 C5.44218182,4.48490526 5.72727273,4.20195789 5.72727273,3.85332632 C5.72727273,3.50469474 5.44218182,3.22174737 5.09090909,3.22174737" id="Fill-3"></path>
                        <path d="M5.09090909,6.37964211 L2.54545455,6.37964211 C2.19418182,6.37964211 1.90909091,6.66258947 1.90909091,7.01122105 C1.90909091,7.35985263 2.19418182,7.6428 2.54545455,7.6428 L5.09090909,7.6428 C5.44218182,7.6428 5.72727273,7.35985263 5.72727273,7.01122105 C5.72727273,6.66258947 5.44218182,6.37964211 5.09090909,6.37964211" id="Fill-5"></path>
                        <path d="M8.27272727,3.85332632 C8.27272727,4.20195789 8.55781818,4.48490526 8.90909091,4.48490526 L11.4545455,4.48490526 C11.8058182,4.48490526 12.0909091,4.20195789 12.0909091,3.85332632 C12.0909091,3.50469474 11.8058182,3.22174737 11.4545455,3.22174737 L8.90909091,3.22174737 C8.55781818,3.22174737 8.27272727,3.50469474 8.27272727,3.85332632" id="Fill-7"></path>
                        <path d="M11.4545455,6.37964211 L8.90909091,6.37964211 C8.55781818,6.37964211 8.27272727,6.66258947 8.27272727,7.01122105 C8.27272727,7.35985263 8.55781818,7.6428 8.90909091,7.6428 L11.4545455,7.6428 C11.8058182,7.6428 12.0909091,7.35985263 12.0909091,7.01122105 C12.0909091,6.66258947 11.8058182,6.37964211 11.4545455,6.37964211" id="Fill-9"></path>
                    </g>
                </g>
            </g>
        </g>
    </g>
</svg>