<?xml version="1.0" encoding="UTF-8"?>
<svg width="14px" height="13px" viewBox="0 0 14 13" version="1.1" xmlns="http://www.w3.org/2000/svg" xmlns:xlink="http://www.w3.org/1999/xlink">
    <title>icon_live course</title>
    <g id="咨询师-工作台" stroke="none" stroke-width="1" fill="none" fill-rule="evenodd">
        <g id="工作台" transform="translate(-20.000000, -117.000000)" fill="#CCCCCC">
            <g id="live-course" transform="translate(0.000000, 102.000000)">
                <g id="icon_live-course-" transform="translate(20.000000, 15.000000)">
                    <g id="icon_live-course">
                        <path d="M5.72727273,4.16225952 L5.72727273,6.98047381 L8.26254545,5.57152143 L5.72727273,4.16225952 Z M5.09090909,8.66645 C4.9805,8.66645 4.87040909,8.63859286 4.77145455,8.58256905 C4.57545455,8.47206905 4.45454545,8.26809286 4.45454545,8.04740238 L4.45454545,3.09564048 C4.45454545,2.87495 4.57545455,2.67097381 4.77145455,2.56016429 C4.96809091,2.44935476 5.20990909,2.44904524 5.40654545,2.55799762 L9.86077273,5.03387857 C10.059,5.14406905 10.1815,5.34928333 10.1815,5.57152143 C10.1815,5.79375952 10.059,5.99897381 9.86077273,6.10885476 L5.40654545,8.58473571 C5.30886364,8.6392119 5.20004545,8.66645 5.09090909,8.66645 L5.09090909,8.66645 Z" id="Fill-1"></path>
                        <path d="M11.4545455,13 L2.54545455,13 C2.19418182,13 1.90909091,12.7226667 1.90909091,12.3809524 C1.90909091,12.0392381 2.19418182,11.7619048 2.54545455,11.7619048 L11.4545455,11.7619048 C11.8058182,11.7619048 12.0909091,12.0392381 12.0909091,12.3809524 C12.0909091,12.7226667 11.8058182,13 11.4545455,13" id="Fill-3"></path>
                        <path d="M1.27272727,1.23809524 L1.27272727,9.9047619 L12.7282273,9.9047619 L12.7272727,1.23809524 L1.27272727,1.23809524 Z M12.7272727,11.1428571 L1.27272727,11.1428571 C0.570818182,11.1428571 0,10.5875714 0,9.9047619 L0,1.23809524 C0,0.555285714 0.570818182,0 1.27272727,0 L12.7272727,0 C13.4291818,0 14,0.555285714 14,1.23809524 L14,9.9047619 C14,10.5875714 13.4291818,11.1428571 12.7272727,11.1428571 L12.7272727,11.1428571 Z" id="Fill-5"></path>
                    </g>
                </g>
            </g>
        </g>
    </g>
</svg>