<?xml version="1.0" encoding="UTF-8"?>
<svg width="12px" height="12px" viewBox="0 0 12 12" version="1.1" xmlns="http://www.w3.org/2000/svg" xmlns:xlink="http://www.w3.org/1999/xlink">
    <title>icon_logout</title>
    <g id="学生端-个人中心" stroke="none" stroke-width="1" fill="none" fill-rule="evenodd">
        <g id="个人中心" transform="translate(-1242.000000, -116.000000)" fill="#666666">
            <g id="personal-center" transform="translate(1230.000000, 66.000000)">
                <g id="logout" transform="translate(0.000000, 39.000000)">
                    <g id="icon_logout-" transform="translate(12.000000, 11.000000)">
                        <g id="icon_logout">
                            <path d="M6,12 C2.69154545,12 0,9.30845455 0,6 C0,2.69154545 2.69154545,0 6,0 C7.60254545,0 9.10909091,0.624272727 10.2428182,1.75718182 C10.4558182,1.97045455 10.4558182,2.31572727 10.2428182,2.52872727 C10.0295455,2.74172727 9.68454545,2.74172727 9.47154545,2.52872727 C8.544,1.60172727 7.31127273,1.09090909 6,1.09090909 C3.29318182,1.09090909 1.09090909,3.29318182 1.09090909,6 C1.09090909,8.70681818 3.29318182,10.9090909 6,10.9090909 C7.30690909,10.9090909 8.53690909,10.4012727 9.46309091,9.47945455 C9.67690909,9.267 10.0221818,9.26754545 10.2343636,9.48109091 C10.4470909,9.69463636 10.4462727,10.0399091 10.233,10.2523636 C9.10063636,11.3795455 7.59736364,12 6,12" id="Fill-1"></path>
                            <path d="M11.8801364,6.33717273 C11.8967727,6.31644545 11.9115,6.29462727 11.9251364,6.27144545 C11.9319545,6.25917273 11.9387727,6.24744545 11.9447727,6.2349 C11.9570455,6.20926364 11.9665909,6.18280909 11.9750455,6.15526364 C11.9780455,6.14408182 11.9826818,6.13317273 11.9854091,6.12144545 C11.9941364,6.08217273 11.9998636,6.04180909 11.9998636,6.00008182 C11.9998636,5.95780909 11.9941364,5.91744545 11.9851364,5.87817273 C11.9826818,5.86699091 11.9783182,5.85662727 11.9753182,5.84571818 C11.9668636,5.81762727 11.9570455,5.79062727 11.9445,5.76444545 C11.9387727,5.75244545 11.9322273,5.74126364 11.9256818,5.72953636 C11.9117727,5.70580909 11.8967727,5.68344545 11.8793182,5.6619 C11.8711364,5.65153636 11.8632273,5.64117273 11.8545,5.63162727 C11.8324091,5.60762727 11.8081364,5.58635455 11.7825,5.56644545 C11.7773182,5.56262727 11.7735,5.55771818 11.7683182,5.5539 L9.85922727,4.21126364 C9.69259091,4.09371818 9.47440909,4.07926364 9.29413636,4.17308182 C9.11331818,4.2669 8.99986364,4.45371818 8.99986364,4.65717273 L8.99986364,5.45462727 L4.09077273,5.45462727 C3.78968182,5.45462727 3.54531818,5.69871818 3.54531818,6.00008182 C3.54531818,6.30117273 3.78968182,6.54553636 4.09077273,6.54553636 L8.99986364,6.54553636 L8.99986364,7.34299091 C8.99986364,7.54644545 9.11331818,7.73299091 9.29413636,7.82708182 C9.37322727,7.86799091 9.45940909,7.88817273 9.54531818,7.88817273 C9.65577273,7.88817273 9.76568182,7.85462727 9.85922727,7.7889 L11.7683182,6.44599091 C11.7735,6.44244545 11.7773182,6.43699091 11.7827727,6.43317273 C11.8081364,6.41380909 11.8321364,6.39253636 11.8539545,6.36908182 C11.8632273,6.35871818 11.8716818,6.34808182 11.8801364,6.33717273" id="Fill-3"></path>
                        </g>
                    </g>
                </g>
            </g>
        </g>
    </g>
</svg>