<?xml version="1.0" encoding="UTF-8"?>
<svg width="22px" height="18px" viewBox="0 0 22 18" version="1.1" xmlns="http://www.w3.org/2000/svg" xmlns:xlink="http://www.w3.org/1999/xlink">
    <title>icon_close</title>
    <g id="档案管理" stroke="none" stroke-width="1" fill="none" fill-rule="evenodd">
        <g transform="translate(-288.000000, -22.000000)" fill="#4E4E4E" id="id">
            <g transform="translate(264.000000, 0.000000)">
                <g id="icon_close-" transform="translate(24.000000, 22.000000)">
                    <g id="icon_close">
                        <path d="M1,2 L21,2 C21.552,2 22,1.552 22,1 C22,0.448 21.552,0 21,0 L1,0 C0.448,0 0,0.448 0,1 C0,1.552 0.448,2 1,2" id="Fill-1"></path>
                        <path d="M21,8 L3.414,8 L5.707,5.707 C6.0975,5.3165 6.0975,4.6835 5.707,4.293 C5.3165,3.9025 4.6835,3.9025 4.293,4.293 L0.2935,8.2925 C0.247,8.339 0.205,8.3905 0.1685,8.446 C0.1525,8.469 0.1415,8.495 0.128,8.52 C0.1105,8.552 0.091,8.5835 0.076,8.6175 C0.063,8.6505 0.055,8.684 0.0455,8.718 C0.037,8.7465 0.026,8.7745 0.0195,8.804 C-0.006,8.9335 -0.006,9.0665 0.0195,9.196 C0.026,9.2255 0.037,9.2535 0.0455,9.282 C0.055,9.316 0.063,9.3495 0.076,9.3825 C0.091,9.4165 0.1105,9.448 0.128,9.48 C0.1415,9.505 0.1525,9.531 0.1685,9.554 C0.205,9.6095 0.247,9.661 0.2935,9.7075 L4.293,13.707 C4.4885,13.9025 4.744,14 5,14 C5.256,14 5.5115,13.9025 5.707,13.707 C6.0975,13.3165 6.0975,12.6835 5.707,12.293 L3.414,10 L21,10 C21.552,10 22,9.552 22,9 C22,8.448 21.552,8 21,8" id="Fill-3"></path>
                        <path d="M21,16 L1,16 C0.448,16 0,16.448 0,17 C0,17.552 0.448,18 1,18 L21,18 C21.552,18 22,17.552 22,17 C22,16.448 21.552,16 21,16" id="Fill-5"></path>
                    </g>
                </g>
            </g>
        </g>
    </g>
</svg>