<?xml version="1.0" encoding="UTF-8"?>
<svg width="14px" height="15px" viewBox="0 0 14 15" version="1.1" xmlns="http://www.w3.org/2000/svg" xmlns:xlink="http://www.w3.org/1999/xlink">
    <title>icon_knowledge center</title>
    <g id="学生端-生涯辅导" stroke="none" stroke-width="1" fill="none" fill-rule="evenodd">
        <g id="生涯辅导-填写学生基本信息" transform="translate(-20.000000, -157.000000)" fill="#CCCCCC">
            <g id="knowledge-center" transform="translate(0.000000, 144.000000)">
                <g id="icon_knowledge-center-" transform="translate(20.000000, 13.000000)">
                    <g id="icon_knowledge-center">
                        <path d="M12.6,12.9545455 C12.6,13.3305682 12.28605,13.6363636 11.9,13.6363636 L2.1,13.6363636 C1.71395,13.6363636 1.4,13.3305682 1.4,12.9545455 L1.4,2.04545455 C1.4,1.66943182 1.71395,1.36363636 2.1,1.36363636 L6.65,1.36363636 L6.65,5.11363636 C6.65,5.36488636 6.7921,5.59602273 7.01995,5.715 C7.2464,5.83329545 7.52325,5.81965909 7.73815,5.68090909 L8.925,4.91011364 L10.11185,5.68090909 C10.2291,5.75727273 10.3642,5.79545455 10.5,5.79545455 C10.61305,5.79545455 10.7268,5.76886364 10.83005,5.715 C11.0579,5.59602273 11.2,5.36488636 11.2,5.11363636 L11.2,1.36363636 L11.9,1.36363636 C12.28605,1.36363636 12.6,1.66943182 12.6,2.04545455 L12.6,12.9545455 Z M9.8,1.36363636 L9.8,3.83965909 L9.31315,3.52363636 C9.19555,3.44727273 9.06045,3.40909091 8.925,3.40909091 C8.78955,3.40909091 8.65445,3.44727273 8.53685,3.52363636 L8.05,3.83965909 L8.05,1.36363636 L9.8,1.36363636 Z M11.9,0 L10.5,0 L7.35,0 L2.1,0 C0.94185,0 0,0.917386364 0,2.04545455 L0,12.9545455 C0,14.0826136 0.94185,15 2.1,15 L11.9,15 C13.05815,15 14,14.0826136 14,12.9545455 L14,2.04545455 C14,0.917386364 13.05815,0 11.9,0 L11.9,0 Z" id="Fill-1"></path>
                        <path d="M9.8,8.52272727 L3.5,8.52272727 C3.1136,8.52272727 2.8,8.21727273 2.8,7.84090909 C2.8,7.46454545 3.1136,7.15909091 3.5,7.15909091 L9.8,7.15909091 C10.1864,7.15909091 10.5,7.46454545 10.5,7.84090909 C10.5,8.21727273 10.1864,8.52272727 9.8,8.52272727" id="Fill-3"></path>
                        <path d="M7,11.25 L3.5,11.25 C3.1136,11.25 2.8,10.9445455 2.8,10.5681818 C2.8,10.1918182 3.1136,9.88636364 3.5,9.88636364 L7,9.88636364 C7.3864,9.88636364 7.7,10.1918182 7.7,10.5681818 C7.7,10.9445455 7.3864,11.25 7,11.25" id="Fill-5"></path>
                    </g>
                </g>
            </g>
        </g>
    </g>
</svg>