<?xml version="1.0" encoding="UTF-8"?>
<svg width="14px" height="14px" viewBox="0 0 14 14" version="1.1" xmlns="http://www.w3.org/2000/svg" xmlns:xlink="http://www.w3.org/1999/xlink">
    <title>icon_template</title>
    <g id="管理员-模板设置" stroke="none" stroke-width="1" fill="none" fill-rule="evenodd">
        <g id="模板设置" transform="translate(-20.000000, -158.000000)" fill="#CCCCCC">
            <g id="template-settings" transform="translate(0.000000, 144.000000)">
                <g id="icon_template-" transform="translate(20.000000, 14.000000)">
                    <g id="icon_template">
                        <path d="M12.0909091,12.7272727 L1.90909091,12.7272727 C1.55813636,12.7272727 1.27272727,12.4418636 1.27272727,12.0909091 L1.27272727,8.90909091 L4.45454545,8.90909091 C4.45454545,10.3125909 5.5965,11.4545455 7,11.4545455 C8.4035,11.4545455 9.54545455,10.3125909 9.54545455,8.90909091 L12.7272727,8.90909091 L12.7272727,12.0909091 C12.7272727,12.4418636 12.4418636,12.7272727 12.0909091,12.7272727 M1.90909091,1.27272727 L12.0909091,1.27272727 C12.4418636,1.27272727 12.7272727,1.55813636 12.7272727,1.90909091 L12.7272727,7.63636364 L9.54545455,7.63636364 C8.84354545,7.63636364 8.27272727,8.20718182 8.27272727,8.90909091 C8.27272727,9.611 7.70190909,10.1818182 7,10.1818182 C6.29809091,10.1818182 5.72727273,9.611 5.72727273,8.90909091 C5.72727273,8.20718182 5.15645455,7.63636364 4.45454545,7.63636364 L1.27272727,7.63636364 L1.27272727,1.90909091 C1.27272727,1.55813636 1.55813636,1.27272727 1.90909091,1.27272727 M12.0909091,0 L1.90909091,0 C0.856227273,0 0,0.856227273 0,1.90909091 L0,12.0909091 C0,13.1437727 0.856227273,14 1.90909091,14 L12.0909091,14 C13.1437727,14 14,13.1437727 14,12.0909091 L14,1.90909091 C14,0.856227273 13.1437727,0 12.0909091,0" id="Fill-1"></path>
                        <path d="M3.81818182,3.81818182 L10.1818182,3.81818182 C10.5330909,3.81818182 10.8181818,3.53309091 10.8181818,3.18181818 C10.8181818,2.83054545 10.5330909,2.54545455 10.1818182,2.54545455 L3.81818182,2.54545455 C3.46690909,2.54545455 3.18181818,2.83054545 3.18181818,3.18181818 C3.18181818,3.53309091 3.46690909,3.81818182 3.81818182,3.81818182" id="Fill-3"></path>
                        <path d="M3.81818182,6.36363636 L10.1818182,6.36363636 C10.5330909,6.36363636 10.8181818,6.07854545 10.8181818,5.72727273 C10.8181818,5.376 10.5330909,5.09090909 10.1818182,5.09090909 L3.81818182,5.09090909 C3.46690909,5.09090909 3.18181818,5.376 3.18181818,5.72727273 C3.18181818,6.07854545 3.46690909,6.36363636 3.81818182,6.36363636" id="Fill-5"></path>
                    </g>
                </g>
            </g>
        </g>
    </g>
</svg>