<?xml version="1.0" encoding="UTF-8"?>
<svg width="14px" height="16px" viewBox="0 0 14 16" version="1.1" xmlns="http://www.w3.org/2000/svg" xmlns:xlink="http://www.w3.org/1999/xlink">
    <title>icon_plan</title>
    <g id="管理员-菁英计划" stroke="none" stroke-width="1" fill="none" fill-rule="evenodd">
        <g id="咨询记录" transform="translate(-20.000000, -241.000000)" fill="#CCCCCC">
            <g id="plan" transform="translate(0.000000, 228.000000)">
                <g id="icon_plan-" transform="translate(20.000000, 13.000000)">
                    <g id="icon_plan">
                        <path d="M12.6,13.779185 L7.56245,12.379885 C7.1946,12.276985 6.8054,12.276985 6.43825,12.379885 L1.4,13.779185 L1.4,1.400035 L12.6,1.400035 L12.6,13.779185 Z M12.6,3.5e-05 L1.4,3.5e-05 C0.6279,3.5e-05 0,0.627935 0,1.400035 L0,14.700035 C0,14.918785 0.1022,15.124935 0.2765,15.257235 C0.45045,15.389535 0.6776,15.433285 0.88725,15.374485 L6.81345,13.728435 C6.9363,13.694135 7.0651,13.694835 7.18725,13.728435 L13.11275,15.374485 C13.17435,15.391285 13.23735,15.400111 13.3,15.400111 C13.45155,15.400111 13.6003,15.350685 13.7235,15.257235 C13.8978,15.124935 14,14.918785 14,14.700035 L14,1.400035 C14,0.627935 13.3721,3.5e-05 12.6,3.5e-05 L12.6,3.5e-05 Z" id="Fill-1"></path>
                        <path d="M5.14745,6.48319 L4.76945,8.55484 C4.7453,8.68924 4.88705,8.79354 5.0106,8.73194 L7,7.74879 L8.9894,8.73194 C9.11295,8.79354 9.2547,8.68924 9.23055,8.55484 L8.85255,6.48319 L10.44645,5.02299 C10.55005,4.92779 10.4951,4.75664 10.3544,4.73774 L8.14485,4.43569 L7.1498,2.53939 C7.0868,2.42039 6.9132,2.42039 6.8502,2.53939 L5.8548,4.43569 L3.6456,4.73774 C3.5049,4.75664 3.44995,4.92779 3.55355,5.02299 L5.14745,6.48319 Z" id="Fill-3"></path>
                        <path d="M4.2,11.2 L9.8,11.2 C10.1864,11.2 10.5,10.8864 10.5,10.5 C10.5,10.1136 10.1864,9.8 9.8,9.8 L4.2,9.8 C3.8136,9.8 3.5,10.1136 3.5,10.5 C3.5,10.8864 3.8136,11.2 4.2,11.2" id="Fill-5"></path>
                    </g>
                </g>
            </g>
        </g>
    </g>
</svg>