<?xml version="1.0" encoding="UTF-8"?>
<svg width="12px" height="13px" viewBox="0 0 12 13" version="1.1" xmlns="http://www.w3.org/2000/svg" xmlns:xlink="http://www.w3.org/1999/xlink">
    <title>icon_close</title>
    <g id="学生端-生涯辅导" stroke="none" stroke-width="1" fill="none" fill-rule="evenodd">
        <g id="生涯辅导-点击取消" transform="translate(-1108.000000, -320.000000)" fill="#333333">
            <g id="tips" transform="translate(540.000000, 300.000000)">
                <g id="icon_close-" transform="translate(568.000000, 20.000000)">
                    <path d="M6.94267976,6 L11.8047473,1.13793247 C12.0650842,0.877595522 12.0650842,0.455589661 11.8047473,0.195252712 C11.5444103,-0.0650842373 11.1224045,-0.0650842373 10.8620675,0.195252712 L6,5.05732024 L1.13793247,0.195252712 C0.877595522,-0.0650842373 0.455589661,-0.0650842373 0.195252712,0.195252712 C-0.0650842373,0.455589661 -0.0650842373,0.877595522 0.195252712,1.13793247 L5.05732024,6 L0.195252712,10.8620675 C-0.0650842373,11.1224045 -0.0650842373,11.5444103 0.195252712,11.8047473 C0.325254517,11.9350824 0.495923554,12.0000833 0.666592592,12.0000833 C0.837261629,12.0000833 1.00759733,11.9350824 1.13793247,11.8047473 L6,6.94267976 L10.8620675,11.8047473 C10.9920693,11.9350824 11.1627384,12.0000833 11.3334074,12.0000833 C11.5040764,12.0000833 11.6744121,11.9350824 11.8047473,11.8047473 C12.0650842,11.5444103 12.0650842,11.1224045 11.8047473,10.8620675 L6.94267976,6 Z" id="icon_close"></path>
                </g>
            </g>
        </g>
    </g>
</svg>