<?xml version="1.0" encoding="UTF-8"?>
<svg width="14px" height="14px" viewBox="0 0 14 14" version="1.1" xmlns="http://www.w3.org/2000/svg" xmlns:xlink="http://www.w3.org/1999/xlink">
    <title>icon_file</title>
    <g id="学校端-学生管理" stroke="none" stroke-width="1" fill="none" fill-rule="evenodd">
        <g id="学生管理-查看详情" transform="translate(-20.000000, -158.000000)" fill="#CCCCCC">
            <g id="cecp-file" transform="translate(0.000000, 144.000000)">
                <g id="icon_file" transform="translate(20.000000, 14.000000)">
                    <g>
                        <path d="M4.45454545,3.81818182 L9.54545455,3.81818182 C9.89672727,3.81818182 10.1818182,3.53309091 10.1818182,3.18181818 C10.1818182,2.83054545 9.89672727,2.54545455 9.54545455,2.54545455 L4.45454545,2.54545455 C4.10327273,2.54545455 3.81818182,2.83054545 3.81818182,3.18181818 C3.81818182,3.53309091 4.10327273,3.81818182 4.45454545,3.81818182" id="Fill-1"></path>
                        <path d="M4.45454545,6.04545455 L9.54545455,6.04545455 C9.89672727,6.04545455 10.1818182,5.76036364 10.1818182,5.40909091 C10.1818182,5.05781818 9.89672727,4.77272727 9.54545455,4.77272727 L4.45454545,4.77272727 C4.10327273,4.77272727 3.81818182,5.05781818 3.81818182,5.40909091 C3.81818182,5.76036364 4.10327273,6.04545455 4.45454545,6.04545455" id="Fill-3"></path>
                        <path d="M12.7272727,12.0909091 C12.7272727,12.4418636 12.4418636,12.7272727 12.0909091,12.7272727 L1.90909091,12.7272727 C1.55813636,12.7272727 1.27272727,12.4418636 1.27272727,12.0909091 L1.27272727,7.18804545 L6.51636364,8.56131818 C6.83263636,8.64404545 7.16640909,8.64404545 7.48395455,8.56131818 L12.7272727,7.18804545 L12.7272727,12.0909091 Z M2.86363636,1.27272727 L11.1363636,1.27272727 C11.4873182,1.27272727 11.7727273,1.55813636 11.7727273,1.90909091 L11.7727273,6.12245455 L7.16163636,7.33027273 C7.056,7.35763636 6.94368182,7.35763636 6.83868182,7.33027273 L2.22727273,6.12245455 L2.22727273,1.90909091 C2.22727273,1.55813636 2.51268182,1.27272727 2.86363636,1.27272727 L2.86363636,1.27272727 Z M13.6286818,6.02031818 C13.4584545,5.88859091 13.2538636,5.82304545 13.0454545,5.82368182 L13.0454545,1.90909091 C13.0454545,0.856227273 12.1892273,0 11.1363636,0 L2.86363636,0 C1.81077273,0 0.954545455,0.856227273 0.954545455,1.90909091 L0.954545455,5.82368182 C0.746136364,5.82336364 0.541545455,5.88890909 0.371318182,6.02031818 C0.135545455,6.20231818 0,6.47754545 0,6.776 L0,12.0909091 C0,13.1437727 0.856227273,14 1.90909091,14 L12.0909091,14 C13.1437727,14 14,13.1437727 14,12.0909091 L14,6.776 C14,6.47754545 13.8644545,6.20231818 13.6286818,6.02031818 L13.6286818,6.02031818 Z" id="Fill-5"></path>
                    </g>
                </g>
            </g>
        </g>
    </g>
</svg>