<?xml version="1.0" encoding="UTF-8"?>
<svg width="24px" height="24px" viewBox="0 0 24 24" version="1.1" xmlns="http://www.w3.org/2000/svg" xmlns:xlink="http://www.w3.org/1999/xlink">
    <title>icon_language</title>
    <g id="学生端-生涯辅导" stroke="none" stroke-width="1" fill="none" fill-rule="evenodd">
        <g id="工作台" transform="translate(-1392.000000, -18.000000)" fill="#666666">
            <g id="id" transform="translate(264.000000, 0.000000)">
                <g id="icon_language-" transform="translate(1128.000000, 18.000000)">
                    <g id="icon_language">
                        <path d="M12,2.18181818 C6.58636364,2.18181818 2.18181818,6.58636364 2.18181818,12 C2.18181818,17.4136364 6.58636364,21.8181818 12,21.8181818 C17.4136364,21.8181818 21.8181818,17.4136364 21.8181818,12 C21.8181818,6.58636364 17.4136364,2.18181818 12,2.18181818 M12,24 C5.38309091,24 0,18.6169091 0,12 C0,5.38309091 5.38309091,0 12,0 C18.6169091,0 24,5.38309091 24,12 C24,18.6169091 18.6169091,24 12,24" id="Fill-1"></path>
                        <path d="M10.3394182,20.6110364 C9.99250909,20.6110364 9.6576,20.4735818 9.41050909,20.2259455 L6.5196,17.3344909 C5.79032727,16.6052182 5.49250909,15.5312182 5.74287273,14.5308545 C5.81596364,14.2395818 5.71123636,13.9292182 5.47614545,13.7415818 C4.51232727,12.9703091 3.30087273,12.5454 2.06596364,12.5454 L1.63614545,12.5454 C1.03396364,12.5454 0.545236364,12.0572182 0.545236364,11.4544909 C0.545236364,10.8523091 1.03396364,10.3635818 1.63614545,10.3635818 L2.06596364,10.3635818 C3.79450909,10.3635818 5.49032727,10.9586727 6.83923636,12.0381273 C7.73814545,12.7575818 8.13796364,13.9434 7.85978182,15.0594 C7.79378182,15.3212182 7.87178182,15.6021273 8.06214545,15.7919455 L10.2456,17.9754 L12.1786909,15.3986727 C12.3303273,15.1957636 12.3728727,14.9323091 12.2932364,14.6928545 L12.0145091,13.8555818 C11.7510545,13.0674 11.2694182,12.3763091 10.6203273,11.8564909 C9.99578182,11.3568545 9.60741818,10.6439455 9.52669091,9.84812727 C9.44650909,9.05230909 9.68378182,8.27558182 10.1965091,7.66085455 L10.6890545,7.06849091 C10.9334182,6.77558182 10.9290545,6.35449091 10.6781455,6.06812727 L7.90669091,2.90012727 C7.5096,2.44630909 7.55541818,1.7574 8.00869091,1.36085455 C8.46250909,0.963763636 9.15141818,1.01067273 9.54796364,1.4634 L12.3188727,4.63030909 C13.2821455,5.7294 13.3012364,7.34230909 12.3652364,8.4654 L11.8726909,9.05776364 C11.7385091,9.21758182 11.6768727,9.42103636 11.6976,9.62830909 C11.7188727,9.83612727 11.8197818,10.0226727 11.9828727,10.1530364 C12.9608727,10.9352182 13.6874182,11.9770364 14.0845091,13.1661273 L14.3626909,14.0028545 C14.6692364,14.9214 14.5050545,15.9326727 13.9236,16.7077636 L11.3899636,20.0852182 C11.1641455,20.3884909 10.8156,20.5799455 10.4348727,20.6072182 C10.4032364,20.6094 10.3710545,20.6110364 10.3394182,20.6110364 L10.3394182,20.6110364 Z" id="Fill-3"></path>
                        <path d="M17.9989091,21.8181818 C17.4447273,21.8181818 16.9707273,21.3981818 16.9145455,20.8358182 L16.4378182,16.0685455 C16.3647273,15.3403636 16.5769091,14.6247273 17.034,14.0525455 L18.0409091,12.7930909 L16.3281818,11.6509091 C15.5841818,11.1550909 15.2623636,10.2163636 15.5449091,9.36927273 L16.1929091,7.42472727 C16.4274545,6.72163636 16.9423636,6.12709091 17.6061818,5.79545455 L20.2390909,4.47872727 C20.7796364,4.20927273 21.4336364,4.428 21.7030909,4.96636364 C21.9725455,5.50581818 21.7543636,6.16090909 21.2149091,6.43036364 L18.5825455,7.74654545 C18.4325455,7.82181818 18.3158182,7.956 18.2629091,8.11527273 L17.6618182,9.91854545 L20.2412727,11.6378182 C20.496,11.8069091 20.6678182,12.0758182 20.7147273,12.378 C20.7610909,12.6801818 20.6792727,12.9883636 20.4878182,13.2267273 L18.7374545,15.4150909 C18.6387273,15.5389091 18.5929091,15.6932727 18.6087273,15.8509091 L19.0854545,20.6187273 C19.1454545,21.2181818 18.708,21.7527273 18.1085455,21.8127273 C18.072,21.8165455 18.0349091,21.8181818 17.9989091,21.8181818" id="Fill-5"></path>
                    </g>
                </g>
            </g>
        </g>
    </g>
</svg>