<?xml version="1.0" encoding="UTF-8"?>
<svg width="20px" height="25px" viewBox="0 0 20 25" version="1.1" xmlns="http://www.w3.org/2000/svg" xmlns:xlink="http://www.w3.org/1999/xlink">
    <title>icon_news</title>
    <g id="学生端-生涯辅导" stroke="none" stroke-width="1" fill="none" fill-rule="evenodd">
        <g id="工作台" transform="translate(-1254.000000, -18.000000)" fill="#666666">
            <g id="id" transform="translate(264.000000, 0.000000)">
                <g id="icon_news-" transform="translate(990.000000, 18.000000)">
                    <g id="icon_news">
                        <path d="M11.6666667,22.1111111 L8.33333333,22.1111111 C7.72,22.1111111 7.22222222,22.6088889 7.22222222,23.2222222 C7.22222222,23.8355556 7.72,24.3333333 8.33333333,24.3333333 L11.6666667,24.3333333 C12.28,24.3333333 12.7777778,23.8355556 12.7777778,23.2222222 C12.7777778,22.6088889 12.28,22.1111111 11.6666667,22.1111111" id="Fill-1"></path>
                        <path d="M3.88888889,18.8888889 L3.88888889,10.5555556 C3.88888889,7.18611111 6.63055556,4.44444444 10,4.44444444 C13.3694444,4.44444444 16.1111111,7.18611111 16.1111111,10.5555556 L16.1111111,18.8888889 L3.88888889,18.8888889 Z M18.8888889,18.8888889 L18.3333333,18.8888889 L18.3333333,10.5555556 C18.3333333,6.33777778 15.1816667,2.85111111 11.1111111,2.305 L11.1111111,1.11111111 C11.1111111,0.497777778 10.6133333,-1.77635684e-15 10,-1.77635684e-15 C9.38666667,-1.77635684e-15 8.88888889,0.497777778 8.88888889,1.11111111 L8.88888889,2.305 C4.81833333,2.85111111 1.66666667,6.33777778 1.66666667,10.5555556 L1.66666667,18.8888889 L1.11111111,18.8888889 C0.497777778,18.8888889 0,19.3866667 0,20 C0,20.6133333 0.497777778,21.1111111 1.11111111,21.1111111 L1.66666667,21.1111111 L18.3333333,21.1111111 L18.8888889,21.1111111 C19.5022222,21.1111111 20,20.6133333 20,20 C20,19.3866667 19.5022222,18.8888889 18.8888889,18.8888889 L18.8888889,18.8888889 Z" id="Fill-3"></path>
                    </g>
                </g>
            </g>
        </g>
    </g>
</svg>