<?xml version="1.0" encoding="UTF-8"?>
<svg width="14px" height="14px" viewBox="0 0 14 14" version="1.1" xmlns="http://www.w3.org/2000/svg" xmlns:xlink="http://www.w3.org/1999/xlink">
    <title>icon_school</title>
    <g id="管理员-咨询师管理" stroke="none" stroke-width="1" fill="none" fill-rule="evenodd">
        <g id="咨询师管理" transform="translate(-20.000000, -116.000000)" fill="#CCCCCC">
            <g id="school-management" transform="translate(0.000000, 102.000000)">
                <g id="icon_school-" transform="translate(20.000000, 14.000000)">
                    <path d="M12.7272727,12.7234709 L9.22727273,12.7237891 L9.22727273,10.7691982 C9.22727273,9.53783453 8.22786364,8.53587999 7,8.53587999 C5.77213636,8.53587999 4.77272727,9.53783453 4.77272727,10.7691982 L4.77272727,12.7244254 L1.27272727,12.7244254 L1.27272727,9.78410726 L3.18181818,9.78410726 C3.53309091,9.78410726 3.81818182,9.4980618 3.81818182,9.14583453 L3.81818182,7.21415271 L6.93127273,5.0985618 C6.95418182,5.10110726 6.97645455,5.10587999 7,5.10587999 C7.02354545,5.10587999 7.04581818,5.10110726 7.06872727,5.0985618 L10.1818182,7.21447089 L10.1818182,9.14583453 C10.1818182,9.4980618 10.4669091,9.78410726 10.8181818,9.78410726 L12.7272727,9.78410726 L12.7272727,12.7234709 Z M7.95454545,12.7241073 L6.04545455,12.7241073 L6.04545455,10.7691982 C6.04545455,10.2413345 6.47372727,9.81210726 7,9.81210726 C7.52627273,9.81210726 7.95454545,10.2413345 7.95454545,10.7691982 L7.95454545,12.7241073 Z M7.63636364,1.30678908 C7.65131818,1.29947089 7.66818182,1.29215271 7.68631818,1.28769817 C7.86831818,1.23774362 8.1935,1.35515271 8.55272727,1.5985618 C9.14009091,1.99692544 9.68640909,2.17574362 10.1818182,2.1340618 L10.1818182,2.84169817 C10.1668636,2.84933453 10.15,2.85633453 10.1318636,2.86110726 C9.94986364,2.91042544 9.62468182,2.79397089 9.26545455,2.55024362 C8.73409091,2.1900618 8.23613636,2.00901635 7.77922727,2.00901635 C7.73118182,2.00901635 7.68345455,2.01092544 7.63636364,2.0150618 L7.63636364,1.34019817 L7.63636364,1.30678908 Z M12.7272727,8.5075618 L11.4545455,8.5075618 L11.4545455,7.21447089 C11.4545455,6.79097089 11.2461364,6.39610726 10.8958182,6.15747089 L7.71368182,3.99542544 C7.68886364,3.9785618 7.66213636,3.96615271 7.63636364,3.95119817 L7.63636364,3.31674362 C7.6545,3.30687999 7.6755,3.29860726 7.70063636,3.29287999 C7.79068182,3.2750618 8.05127273,3.26742544 8.55272727,3.60787999 C9.08440909,3.96774362 9.58204545,4.14910726 10.0389545,4.14910726 C10.1827727,4.14910726 10.3224545,4.13097089 10.458,4.09533453 C10.9422727,3.96647089 11.2620455,3.61933453 11.389,3.36128908 C11.4322727,3.27347089 11.4545455,3.17674362 11.4545455,3.07874362 L11.4545455,1.06974362 C11.4545455,0.761743622 11.2534545,0.457243622 10.9511818,0.401561804 C10.6466818,0.346516349 10.3689091,0.475698167 10.2600909,0.763970895 C10.2527727,0.775743622 10.2104545,0.836198167 10.1175455,0.855607258 C10.0278182,0.874698167 9.76722727,0.881379986 9.26545455,0.541243622 C8.56640909,0.0674708948 7.92590909,-0.0960745598 7.36018182,0.0537890766 C6.87590909,0.182334531 6.55613636,0.529470895 6.42918182,0.787516349 C6.38590909,0.875652713 6.36363636,0.971743622 6.36363636,1.06974362 L6.36363636,1.34019817 L6.36363636,3.07874362 L6.36363636,3.95119817 C6.33786364,3.96615271 6.31113636,3.97887999 6.286,3.99574362 L3.10354545,6.15778908 C2.75386364,6.39610726 2.54545455,6.79097089 2.54545455,7.21447089 L2.54545455,8.5075618 L1.27272727,8.5075618 C0.570818182,8.5075618 0,9.08028908 0,9.78410726 L0,12.7234709 C0,13.4276073 0.570818182,14.0000163 1.27272727,14.0000163 L12.7272727,14.0000163 C13.4291818,14.0000163 14,13.4276073 14,12.7234709 L14,9.78410726 C14,9.08028908 13.4291818,8.5075618 12.7272727,8.5075618 L12.7272727,8.5075618 Z" id="icon_school"></path>
                </g>
            </g>
        </g>
    </g>
</svg>