<?xml version="1.0" encoding="UTF-8"?>
<svg width="12px" height="6px" viewBox="0 0 12 6" version="1.1" xmlns="http://www.w3.org/2000/svg" xmlns:xlink="http://www.w3.org/1999/xlink">
    <title>icon_pull down</title>
    <g id="个人中心&amp;设置" stroke="none" stroke-width="1" fill="none" fill-rule="evenodd">
        <g id="个人设置-修改手机号码" transform="translate(-208.000000, -204.000000)" fill="#CCCCCC">
            <g id="material" transform="translate(0.000000, 186.000000)">
                <g id="icon_pull-down" transform="translate(214.000000, 21.000000) scale(1, -1) translate(-214.000000, -21.000000) translate(208.000000, 18.000000)">
                    <path d="M6,6 C5.84333069,6 5.68666138,5.94500051 5.5609926,5.83500153 L0.227569355,1.16837801 C-0.0494353152,0.925713589 -0.0774357873,0.505050812 0.164901631,0.227720043 C0.407572389,-0.0486107353 0.828246147,-0.0769438066 1.10558416,0.165053956 L6,4.44768102 L10.8944158,0.165053956 C11.1720872,-0.0779437973 11.5924276,-0.0489440655 11.8350984,0.227720043 C12.0774358,0.505050812 12.0494353,0.925713589 11.7724306,1.16837801 L6.4390074,5.83500153 C6.31333862,5.94500051 6.15666931,6 6,6" transform="translate(6.000000, 3.000000) scale(1, -1) translate(-6.000000, -3.000000) "></path>
                </g>
            </g>
        </g>
    </g>
</svg>