<?xml version="1.0" encoding="UTF-8"?>
<svg width="14px" height="14px" viewBox="0 0 14 14" version="1.1" xmlns="http://www.w3.org/2000/svg" xmlns:xlink="http://www.w3.org/1999/xlink">
    <title>icon_teacher</title>
    <g id="管理员-咨询师管理" stroke="none" stroke-width="1" fill="none" fill-rule="evenodd">
        <g id="咨询师管理" transform="translate(-20.000000, -158.000000)" fill="#FFFFFF">
            <g id="teacher-management" transform="translate(0.000000, 144.000000)">
                <g id="icon_teacher-" transform="translate(20.000000, 14.000000)">
                    <path d="M1.27272727,12.7272727 C1.27272727,9.97531818 3.46945455,7.7315 6.20104545,7.64431818 L5.50836364,10.1423636 C5.44695455,10.3631818 5.50931818,10.6002273 5.67159091,10.7625 L6.77504545,11.8659545 C6.89945455,11.9903636 7.10054545,11.9903636 7.22495455,11.8659545 L8.32840909,10.7625 C8.49068182,10.6002273 8.55304545,10.3631818 8.49163636,10.1423636 L7.79895455,7.64431818 C10.5305455,7.7315 12.7272727,9.97531818 12.7282273,12.7272727 L1.27272727,12.7272727 Z M7,1.27272727 C8.4035,1.27272727 9.54545455,2.41468182 9.54545455,3.81818182 C9.54545455,5.22168182 8.4035,6.36363636 7,6.36363636 C5.5965,6.36363636 4.45454545,5.22168182 4.45454545,3.81818182 C4.45454545,2.41468182 5.5965,1.27272727 7,1.27272727 L7,1.27272727 Z M9.5445,6.657 C10.3240455,5.95731818 10.8181818,4.9455 10.8181818,3.81818182 C10.8181818,1.71277273 9.10540909,0 7,0 C4.89459091,0 3.18181818,1.71277273 3.18181818,3.81818182 C3.18181818,4.9455 3.67595455,5.95731818 4.4555,6.657 C1.876,7.46963636 0,9.88304545 0,12.7272727 C0,13.4291818 0.570818182,14 1.27272727,14 L12.7272727,14 C13.4291818,14 14,13.4291818 14,12.7272727 C14,9.88304545 12.124,7.46963636 9.5445,6.657 L9.5445,6.657 Z" id="icon_teacher"></path>
                </g>
            </g>
        </g>
    </g>
</svg>