<?xml version="1.0" encoding="UTF-8"?>
<svg width="30px" height="24px" viewBox="0 0 30 24" version="1.1" xmlns="http://www.w3.org/2000/svg" xmlns:xlink="http://www.w3.org/1999/xlink">
    <title>logo</title>
    <g id="档案管理" stroke="none" stroke-width="1" fill="none" fill-rule="evenodd">
        <g id="档案管理-侧边栏收起" transform="translate(-11.000000, -18.000000)">
            <g id="logo-" transform="translate(11.000000, 18.000000)">
                <g id="logo">
                    <path d="M15,24 C14.0271171,24 13.0546847,23.7532775 12.187027,23.2596491 L9.75198198,21.8745384 C9.44162162,21.6979283 9.08945946,21.6046283 8.73342342,21.6046283 L2.9045045,21.6046283 C1.30297297,21.6046283 0,20.2818399 0,18.6558723 L0,2.94893934 C0,1.32288011 1.30297297,0 2.9045045,0 L7.52927928,0 C8.34747748,0 9.01072072,0.674729345 9.01072072,1.50718882 C9.01072072,2.33955664 8.34747748,3.01428599 7.52927928,3.01428599 L2.96297297,3.01428599 L2.96297297,18.590434 L8.73342342,18.590434 C9.59459459,18.590434 10.4468468,18.8162603 11.198018,19.2436255 L13.6330631,20.6288278 C14.4762162,21.1083421 15.5238739,21.1083421 16.3669369,20.6288278 L18.801982,19.2436255 C19.5531532,18.8162603 20.4054955,18.590434 21.2666667,18.590434 L27.0371171,18.590434 L27.0371171,3.01428599 L22.4708108,3.01428599 C21.6525225,3.01428599 20.9892793,2.33955664 20.9892793,1.50718882 C20.9892793,0.674729345 21.6525225,0 22.4708108,0 L27.0954955,0 C28.697027,0 30,1.32288011 30,2.94893934 L30,18.6558723 C30,20.2818399 28.697027,21.6046283 27.0954955,21.6046283 L21.2666667,21.6046283 C20.9106306,21.6046283 20.5583784,21.6979283 20.248018,21.8745384 L17.812973,23.2596491 C16.9455856,23.7531858 15.9727027,24 15,24 L15,24 Z" id="Fill-10" fill="#FFFFFF"></path>
                    <path d="M15,17.6470588 C14.2029437,17.6470588 13.5568383,16.966295 13.5568383,16.1264829 L13.5568383,7.39426754 C13.5568383,6.14832736 12.9582123,5.0100222 11.9557047,4.34932437 L11.8122135,4.25482007 C10.6074139,3.46078056 9.21980571,3.0411519 7.79902338,3.0411519 L7.72231922,3.0411519 C6.92526288,3.0411519 6.27906977,2.36048056 6.27906977,1.52057595 C6.27906977,0.680763814 6.92526288,0 7.72231922,0 L7.79902338,0 C9.76173732,0 11.6786394,0.579601683 13.342523,1.67620289 L13.4860142,1.77070718 C14.0681409,2.15436503 14.5764596,2.6250371 15,3.1618252 C15.4233649,2.62522204 15.9316836,2.1544575 16.5137225,1.77089212 L16.6579158,1.67592548 C18.3213606,0.579601683 20.2382627,0 22.2009766,0 L22.2776808,0 C23.0747371,0 23.7209302,0.680763814 23.7209302,1.52057595 C23.7209302,2.36048056 23.0747371,3.0411519 22.2776808,3.0411519 L22.2009766,3.0411519 C20.7801943,3.0411519 19.3925861,3.46078056 18.1882254,4.25445019 L18.0439443,4.34950931 C17.0417877,5.0100222 16.4431617,6.14832736 16.4431617,7.39426754 L16.4431617,16.1264829 C16.4431617,16.966295 15.7970563,17.6470588 15,17.6470588" id="Fill-11" fill="#FFB706"></path>
                </g>
            </g>
        </g>
    </g>
</svg>