<?xml version="1.0" encoding="UTF-8"?>
<svg width="152px" height="34px" viewBox="0 0 152 34" version="1.1" xmlns="http://www.w3.org/2000/svg" xmlns:xlink="http://www.w3.org/1999/xlink">
    <title>logo</title>
    <g id="学生端-生涯辅导" stroke="none" stroke-width="1" fill="none" fill-rule="evenodd">
        <g id="工作台" transform="translate(-20.000000, -13.000000)">
            <g id="logo-" transform="translate(20.000000, 13.000000)">
                <g id="logo">
                    <path d="M139.237304,31 L137,31 L137,24.8723404 L139.237304,24.8723404 C140.397991,24.8723404 141.342382,23.956 141.342382,22.8297872 L141.342382,15.1702128 C141.342382,10.6651064 145.119682,7 149.762696,7 L152,7 L152,13.1276596 L149.762696,13.1276596 C148.602009,13.1276596 147.657618,14.044 147.657618,15.1702128 L147.657618,22.8297872 C147.657618,27.3348936 143.880318,31 139.237304,31" id="Fill-1" fill="#FFB706"></path>
                    <path d="M71.3286271,19 C71.3286271,15.7625532 74.0499368,13.1276596 77.3935615,13.1276596 C78.2202384,13.1276596 79.0192276,13.2924681 79.7509751,13.593617 L71.3681811,19.6676596 C71.3418118,19.4482128 71.3286271,19.2260851 71.3286271,19 L71.3286271,19 Z M83.086689,21.0660426 C83.0800967,21.063617 83.0728451,21.0668085 83.0704719,21.0731915 C82.1838049,23.3455319 79.9049717,24.8723404 77.3935615,24.8723404 C76.644674,24.8723404 75.9274295,24.7395745 75.2642422,24.4982979 L86.2655057,16.527234 L88.926166,14.6009787 C88.1271768,12.64 86.8139867,10.9523404 85.1672252,9.6706383 C83.0115366,7.98808511 80.2862715,7 77.3935615,7 C70.5599626,7 65,12.3834043 65,19 C65,20.6276596 65.3362083,22.18 65.9453387,23.5957447 C66.7733341,25.5235319 68.1076196,27.1995745 69.7860243,28.467234 C71.8863374,30.0540426 74.5285393,31 77.3935615,31 C82.5316157,31 87.1963413,27.8710638 89,23.2141702 L83.086689,21.0660426 Z" id="Fill-3" fill="#FFB706"></path>
                    <polygon id="Fill-5" fill="#FFB706" points="92 31 98 31 98 0 92 0"></polygon>
                    <polygon id="Fill-7" fill="#FFB706" points="101 31.0001298 107 31.0001298 107 0.000129770992 101 0.000129770992"></polygon>
                    <path d="M125.31914,31 L122.156115,31 C115.639598,31 110.084102,25.6718667 110.000996,19.1559874 C109.914953,12.4159377 115.41581,6.91495317 122.155987,7.00099581 C128.671867,7.08422995 134,12.6397252 134,19.1561151 L134,31 L127.872334,31 L127.872334,19.1053065 C127.872334,15.8322392 125.240246,13.1097683 121.967179,13.1277683 C118.755133,13.1453853 116.145385,15.7552604 116.127768,18.9671787 C116.109641,22.2403737 118.832239,24.8723339 122.105179,24.8723339 L125.31914,24.8723339 L125.31914,31 Z" id="Fill-8" fill="#FFB706"></path>
                    <path d="M58.7889908,6.30516261 L62,6.30516261 L62,7.78625954e-05 L58.7889908,7.78625954e-05 C52.8398899,7.78625954e-05 48,4.94996346 48,11.0339762 L48,31.0000779 L54.1651376,31.0000779 L54.1651376,18.2585524 L62,18.2585524 L62,11.9534677 L54.1651376,11.9534677 L54.1651376,11.0339762 C54.1651376,8.42642956 56.2393211,6.30516261 58.7889908,6.30516261" id="Fill-9" fill="#FFB706"></path>
                    <path d="M21.5,34 C20.1055345,34 18.7117147,33.6504764 17.4680721,32.9511695 L13.9778408,30.9889294 C13.532991,30.7387318 13.0282252,30.6065568 12.5179069,30.6065568 L4.16312312,30.6065568 C1.86759459,30.6065568 0,28.7326065 0,26.4291524 L0,4.17766406 C0,1.87408016 1.86759459,0 4.16312312,0 L10.791967,0 C11.9647177,0 12.9153664,0.955866572 12.9153664,2.13518416 C12.9153664,3.31437191 11.9647177,4.27023848 10.791967,4.27023848 L4.24692793,4.27023848 L4.24692793,26.3364482 L12.5179069,26.3364482 C13.7522523,26.3364482 14.9738138,26.6563687 16.0504925,27.2618028 L19.5407237,29.2241728 C20.7492432,29.9034846 22.2508859,29.9034846 23.4592763,29.2241728 L26.9495075,27.2618028 C28.0261862,26.6563687 29.2478769,26.3364482 30.4822222,26.3364482 L38.7532012,26.3364482 L38.7532012,4.27023848 L32.2081622,4.27023848 C31.0352823,4.27023848 30.0846336,3.31437191 30.0846336,2.13518416 C30.0846336,0.955866572 31.0352823,0 32.2081622,0 L38.8368769,0 C41.1324054,0 43,1.87408016 43,4.17766406 L43,26.4291524 C43,28.7326065 41.1324054,30.6065568 38.8368769,30.6065568 L30.4822222,30.6065568 C29.9719039,30.6065568 29.467009,30.7387318 29.0221592,30.9889294 L25.5319279,32.9511695 C24.2886727,33.6503466 22.8942072,34 21.5,34 L21.5,34 Z" id="Fill-10" fill="#FFFFFF"></path>
                    <path d="M21.5,25 C20.3575526,25 19.4314682,24.0355846 19.4314682,22.8458507 L19.4314682,10.4752123 C19.4314682,8.71013042 18.5734377,7.09753145 17.13651,6.16154286 L16.9308393,6.02766177 C15.2039599,4.90277247 13.2150548,4.30829853 11.1786002,4.30829853 L11.0686575,4.30829853 C9.92621012,4.30829853 9,3.34401413 9,2.15414927 C9,0.964415403 9.92621012,0 11.0686575,0 L11.1786002,0 C13.9918235,0 16.7393831,0.821102384 19.124283,2.37462076 L19.3299537,2.50850184 C20.1643353,3.05201712 20.8929254,3.71880256 21.5,4.47925236 C22.106823,3.71906456 22.8354131,3.05214812 23.6696689,2.50876384 L23.876346,2.37422776 C26.2606169,0.821102384 29.0081765,0 31.8213998,0 L31.9313425,0 C33.0737899,0 34,0.964415403 34,2.15414927 C34,3.34401413 33.0737899,4.30829853 31.9313425,4.30829853 L31.8213998,4.30829853 C29.7849452,4.30829853 27.7960401,4.90277247 26.0697897,6.02713777 L25.8629868,6.16180485 C24.4265623,7.09753145 23.5685318,8.71013042 23.5685318,10.4752123 L23.5685318,22.8458507 C23.5685318,24.0355846 22.6424474,25 21.5,25" id="Fill-11" fill="#FFB706"></path>
                </g>
            </g>
        </g>
    </g>
</svg>