<?xml version="1.0" encoding="UTF-8"?>
<svg width="149px" height="33px" viewBox="0 0 149 33" version="1.1" xmlns="http://www.w3.org/2000/svg" xmlns:xlink="http://www.w3.org/1999/xlink">
    <title>logo</title>
    <g id="学生端-生涯辅导" stroke="none" stroke-width="1" fill="none" fill-rule="evenodd">
        <g id="工作台" transform="translate(-20.000000, -14.000000)">
            <g id="logo">
                <rect id="bg" fill="#191A23" x="0" y="0" width="240" height="60"></rect>
                <g transform="translate(20.000000, 14.000000)">
                    <path d="M29.0201006,0 C30.0352265,0 30.8590582,0.824977908 30.8590582,1.83620306 C30.8590582,2.85274114 30.0352265,3.67771904 29.0201006,3.67771904 L29.0201006,3.69897071 L36.8702301,3.69897071 C36.9766355,3.69897071 37.0827462,3.74147404 37.1570237,3.81615004 C37.2369015,3.89584379 37.2793458,3.99708437 37.2793458,4.10865563 L37.3326959,26.2446281 C37.3326959,26.3508865 37.2849461,26.452127 37.2103738,26.532116 C37.1360963,26.606792 37.0296909,26.6490001 36.9232854,26.6490001 L27.8186916,26.6490001 C27.0800431,26.6490001 26.351711,26.8352474 25.7035514,27.1920983 L24.5820201,27.8252209 C22.1794968,29.1614194 19.2670525,29.2092357 16.8167793,27.9586341 L15.1956434,27.1336562 C14.5843278,26.8142909 13.9040403,26.6546082 13.2184472,26.6490001 L4.08202013,26.6490001 C3.97561467,26.6490001 3.86950395,26.606792 3.7949317,26.532116 C3.72065421,26.452127 3.67791517,26.3508865 3.67791517,26.2446281 L3.67791517,4.08740396 C3.67791517,3.85865338 3.85889288,3.67771904 4.08202013,3.67771904 L11.9536664,3.67771904 C10.9488569,3.66178029 10.1412365,2.8421153 10.1412365,1.83620306 C10.1412365,0.824977908 10.9650683,0 11.9798994,0 L4.08202013,0 C1.82864127,0 0,1.83089015 0,4.08740396 L0,26.2446281 C0,28.5014371 1.82864127,30.3267192 4.08202013,30.3267192 L12.34156,30.3267192 C13.0324587,30.3323273 13.7074407,30.4920099 14.3187563,30.8057672 L16.8698347,32.0885414 C19.2988857,33.3341252 22.1848023,33.3022477 24.5820201,31.9979267 L26.6175773,30.8698173 C27.2660316,30.5132616 27.9943638,30.3267192 28.7330122,30.3323273 L36.9232854,30.3323273 C39.176959,30.3267192 41,28.5014371 41,26.2446281 L41,4.08740396 C41,1.83089015 39.1716535,0 36.9232854,0 L29.0201006,0 Z" id="Fill-1" fill="#FFFFFF"></path>
                    <path d="M29.138745,0 L27.9432271,0 C26.4856574,0.00150573523 25.0675299,0.476715773 23.8992032,1.35486056 L22.6002988,2.32605978 C21.3686255,3.24696744 19.6839641,3.2466663 18.4528884,2.32515634 L17.1566733,1.35486056 C15.9883466,0.476715773 14.5705179,0.00150573523 13.1126494,0 L11.9033865,0.00421605863 C11.8890438,0.00391491159 11.8755976,0 11.861255,0 C10.8330677,0 10,0.839899109 10,1.87584495 C10,2.91179078 10.8330677,3.75168989 11.861255,3.75168989 C13.3277888,3.75440021 14.7539841,4.23653663 15.9255976,5.12582386 C17.6419323,6.41804583 18.6521912,7.12724712 18.6521912,9.29490355 L18.6521912,24.0038287 C18.6229084,24.9503338 19.2728088,25.7811985 20.1928287,25.9736315 C20.7342629,26.0660837 21.288247,25.9127998 21.7068725,25.5550371 C22.1257968,25.1975756 22.3666335,24.6717728 22.3648406,24.1185657 L22.3648406,9.29701158 C22.3648406,7.13959415 23.399004,6.42045501 25.0950199,5.12793189 C26.2633466,4.2497871 27.6814741,3.77457707 29.138745,3.77307133 L29.138745,3.75168989 C30.1666335,3.75168989 31,2.91179078 31,1.87584495 C31,0.839899109 30.1666335,0 29.138745,0" id="Fill-3" fill="#FFB706"></path>
                    <path d="M137.087994,30 L135,30 L135,23.872253 L137.087994,23.872253 C138.171494,23.872253 139.052966,22.9558777 139.052966,21.8297685 L139.052966,14.1702315 C139.052966,9.66520814 142.57829,6 146.911724,6 L149,6 L149,12.127747 L146.911724,12.127747 C145.828506,12.127747 144.947034,13.0441223 144.947034,14.1702315 L144.947034,21.8297685 C144.947034,26.3350852 141.421428,30 137.087994,30" id="Fill-5" fill="#FFB706"></path>
                    <path d="M70.0650088,18 C70.0650088,14.7627661 72.6727594,12.127747 75.8774299,12.127747 C76.6694522,12.127747 77.4353446,12.2923073 78.1364933,12.5938547 L70.1030422,18.6676282 C70.0774931,18.4482143 70.0650088,18.2261605 70.0650088,18 L70.0650088,18 Z M81.3330346,20.0662446 C81.3266473,20.0636046 81.3199697,20.0668313 81.3176471,20.0729913 C80.467849,22.3454497 78.2839813,23.8725464 75.8774299,23.8725464 C75.1594421,23.8725464 74.4722292,23.7396661 73.8366953,23.4982522 L84.3794749,15.5274878 L86.9291593,13.6008702 C86.1635572,11.6402259 84.9049735,9.95238212 83.327026,8.67080594 C81.2610326,6.9882422 78.6492174,6 75.8774299,6 C69.3284398,6 64,11.3835586 64,18 C64,19.6277103 64.3222671,21.1800337 64.9061222,22.5959569 C65.6995961,24.5234545 66.9782126,26.1995649 68.5866448,27.467061 C70.5995077,29.0542912 73.1317723,30 75.8774299,30 C80.801439,30 85.2713709,26.8710064 87,22.214036 L81.3330346,20.0662446 Z" id="Fill-7" fill="#FFB706"></path>
                    <polygon id="Fill-9" fill="#FFB706" points="90 30 96 30 96 0 90 0"></polygon>
                    <polygon id="Fill-11" fill="#FFB706" points="99 30 105 30 105 0 99 0"></polygon>
                    <path d="M123.319305,30 L120.156262,30 C113.6398,30 108.084015,24.6718416 108.001,18.155965 C107.91476,11.4159796 113.415691,5.91504614 120.155968,6.00099364 C126.671843,6.08400778 132,11.6395017 132,18.155965 L132,30 L125.872502,30 L125.872502,18.1052178 C125.872502,14.8321727 123.240104,12.1097196 119.96706,12.1276131 C116.755323,12.1452133 114.145512,14.7550253 114.127618,17.9670565 C114.109725,21.2403949 116.832177,23.8722072 120.105221,23.8722072 L123.319305,23.8722072 L123.319305,30 Z" id="Fill-12" fill="#FFB706"></path>
                    <path d="M57.7890044,6.10153154 L61,6.10153154 L61,-1.13686838e-13 L57.7890044,-1.13686838e-13 C51.8398086,-1.13686838e-13 47,4.79003379 47,10.6777532 L47,30 L53.1652297,30 L53.1652297,17.6692923 L61,17.6692923 L61,11.5677607 L53.1652297,11.5677607 L53.1652297,10.6777532 C53.1652297,8.15436144 55.2393912,6.10153154 57.7890044,6.10153154" id="Fill-13" fill="#FFB706"></path>
                </g>
            </g>
        </g>
    </g>
</svg>