<?xml version="1.0" encoding="UTF-8"?>
<svg width="16px" height="16px" viewBox="0 0 16 16" version="1.1" xmlns="http://www.w3.org/2000/svg" xmlns:xlink="http://www.w3.org/1999/xlink">
    <title>icon_search</title>
    <g id="页面-1" stroke="none" stroke-width="1" fill="none" fill-rule="evenodd">
        <g id="封底" transform="translate(-324.000000, -764.000000)" fill="#FFFFFF">
            <g id="search" transform="translate(320.000000, 760.000000)">
                <g id="icon_search-" transform="translate(4.000000, 4.000000)">
                    <path d="M1.56098513,6.63418679 C1.56098513,3.83690144 3.83690144,1.56098513 6.63418679,1.56098513 C9.43147214,1.56098513 11.7073885,3.83690144 11.7073885,6.63418679 C11.7073885,9.43147214 9.43147214,11.7073885 6.63418679,11.7073885 C3.83690144,11.7073885 1.56098513,9.43147214 1.56098513,6.63418679 M15.7714132,14.6677968 L11.8389015,10.735285 C12.7310045,9.60513174 13.2683736,8.18268404 13.2683736,6.63418679 C13.2683736,2.97601815 10.2923554,-7.99360578e-14 6.63418679,-7.99360578e-14 C2.97601815,-7.99360578e-14 0,2.97601815 0,6.63418679 C0,10.2923554 2.97601815,13.2683736 6.63418679,13.2683736 C8.18268404,13.2683736 9.60513174,12.7310045 10.735285,11.8389015 L14.6677968,15.7714132 C14.8203831,15.9239995 15.0197989,16.0000976 15.219605,16.0000976 C15.4194111,16.0000976 15.6188269,15.9239995 15.7714132,15.7714132 C16.0761956,15.4666309 16.0761956,14.9725791 15.7714132,14.6677968" id="icon_search"></path>
                </g>
            </g>
        </g>
    </g>
</svg>