<?xml version="1.0" encoding="UTF-8"?>
<svg width="338px" height="76px" viewBox="0 0 338 76" version="1.1" xmlns="http://www.w3.org/2000/svg" xmlns:xlink="http://www.w3.org/1999/xlink">
    <title>logo</title>
    <g id="页面-1" stroke="none" stroke-width="1" fill="none" fill-rule="evenodd">
        <g id="封底" transform="translate(-129.000000, -356.000000)">
            <g id="logo-" transform="translate(129.000000, 356.000000)">
                <g id="logo">
                    <path d="M309.190527,68.7483095 L304.285586,68.7483095 L304.285586,54.7800556 L309.190527,54.7800556 C311.735155,54.7800556 313.805586,52.6912196 313.805586,50.1239709 L313.805586,32.6636534 C313.805586,22.3940767 322.086731,14.0393148 332.265819,14.0393148 L337.170761,14.0393148 L337.170761,28.0075688 L332.265819,28.0075688 C329.721191,28.0075688 327.650761,30.0964048 327.650761,32.6636534 L327.650761,50.1239709 C327.650761,60.3935476 319.369615,68.7483095 309.190527,68.7483095" id="Fill-1" fill="#FFB706"></path>
                    <path d="M158.975718,41.5 C158.975718,34.0808511 164.985277,28.0425532 172.369115,28.0425532 C174.194693,28.0425532 175.959128,28.4202394 177.57507,29.1103723 L159.063067,43.0300532 C159.004834,42.5271543 158.975718,42.0181117 158.975718,41.5 L158.975718,41.5 Z M184.941438,46.2346809 C184.92688,46.2291223 184.910866,46.2364362 184.905625,46.2510638 C182.947569,51.4585106 177.915146,54.9574468 172.369115,54.9574468 C170.715322,54.9574468 169.131407,54.6531915 167.666868,54.100266 L191.961325,35.8332447 L197.83695,31.4189096 C196.072516,26.925 193.172554,23.0574468 189.535956,20.1202128 C184.775477,16.2643617 178.757183,14 172.369115,14 C157.278251,14 145,26.3369681 145,41.5 C145,45.2300532 145.74246,48.7875 147.087623,52.0319149 C148.916113,56.4497606 151.86266,60.2906915 155.569137,63.1957447 C160.207328,66.8321809 166.042191,69 172.369115,69 C183.715651,69 194.01692,61.8295213 198,51.1574734 L184.941438,46.2346809 Z" id="Fill-3" fill="#FFB706"></path>
                    <polygon id="Fill-5" fill="#FFB706" points="204 69 218 69 218 0 204 0"></polygon>
                    <polygon id="Fill-7" fill="#FFB706" points="224 69 238 69 238 0 224 0"></polygon>
                    <path d="M279.106362,69 L271.857764,69 C256.924078,69 244.192734,56.7896945 244.002282,41.8574712 C243.805101,26.411524 256.411231,13.805101 271.857471,14.0022821 C286.789695,14.193027 299,26.9243703 299,41.8577638 L299,69 L284.957432,69 L284.957432,41.7413275 C284.957432,34.2405482 278.925564,28.0015522 271.424785,28.0428023 C264.063846,28.0831747 258.083175,34.0641385 258.042802,41.4247846 C258.00126,48.9258564 264.240548,54.9574319 271.741035,54.9574319 L279.106362,54.9574319 L279.106362,69 Z" id="Fill-8" fill="#FFB706"></path>
                    <path d="M131.889908,14.0338983 L139,14.0338983 L139,0 L131.889908,0 C118.716899,0 108,11.0174873 108,24.559322 L108,69 L121.651376,69 L121.651376,40.6398305 L139,40.6398305 L139,26.6059322 L121.651376,26.6059322 L121.651376,24.559322 C121.651376,18.755428 126.244211,14.0338983 131.889908,14.0338983" id="Fill-9" fill="#FFB706"></path>
                    <path d="M48.5,76 C45.3543453,76 42.2101471,75.2187119 39.4047207,73.6555553 L31.5314084,69.2693716 C30.5279099,68.7101064 29.3892523,68.4146564 28.2380691,68.4146564 L9.39123123,68.4146564 C4.21294595,68.4146564 0,64.2258263 0,59.076929 L0,9.33830791 C0,4.18912035 4.21294595,0 9.39123123,0 L24.3446697,0 C26.9901772,0 29.1346637,2.13664293 29.1346637,4.77276459 C29.1346637,7.40859603 26.9901772,9.54523896 24.3446697,9.54523896 L9.58027928,9.54523896 L9.58027928,58.8697077 L28.2380691,58.8697077 C31.0225225,58.8697077 33.7781381,59.5848242 36.2069249,60.9381475 L44.0802372,65.3246215 C46.8064324,66.8430833 50.1938589,66.8430833 52.9197628,65.3246215 L60.7930751,60.9381475 C63.2218619,59.5848242 65.9777688,58.8697077 68.7622222,58.8697077 L87.420012,58.8697077 L87.420012,9.54523896 L72.6556216,9.54523896 C70.0098228,9.54523896 67.8653363,7.40859603 67.8653363,4.77276459 C67.8653363,2.13664293 70.0098228,0 72.6556216,0 L87.6087688,0 C92.7870541,0 97,4.18912035 97,9.33830791 L97,59.076929 C97,64.2258263 92.7870541,68.4146564 87.6087688,68.4146564 L68.7622222,68.4146564 C67.611039,68.4146564 66.4720901,68.7101064 65.4685916,69.2693716 L57.5952793,73.6555553 C54.7907267,75.2184217 51.6450721,76 48.5,76 L48.5,76 Z" id="Fill-10" fill="#013047"></path>
                    <path d="M48,55 C45.349522,55 43.2010063,52.8782861 43.2010063,50.2608716 L43.2010063,23.0454672 C43.2010063,19.1622869 41.2103754,15.6145692 37.8767032,13.5553943 L37.3995471,13.2608559 C33.3931871,10.7860994 28.7789272,9.47825677 24.0543524,9.47825677 L23.7992855,9.47825677 C21.1488075,9.47825677 19,7.35683108 19,4.73912838 C19,2.12171389 21.1488075,0 23.7992855,0 L24.0543524,0 C30.5810305,0 36.9553688,1.80642524 42.4883365,5.22416567 L42.9654926,5.51870405 C44.9012579,6.71443767 46.591587,8.18136564 48,9.8543552 C49.4078293,8.18194204 51.0981584,6.71472587 53.0336319,5.51928045 L53.5131227,5.22330107 C59.0446312,1.80642524 65.4189695,0 71.9456476,0 L72.2007145,0 C74.8511925,0 77,2.12171389 77,4.73912838 C77,7.35683108 74.8511925,9.47825677 72.2007145,9.47825677 L71.9456476,9.47825677 C67.2210728,9.47825677 62.6068129,10.7860994 58.601912,13.2597031 L58.1221294,13.5559707 C54.7896246,15.6145692 52.7989937,19.1622869 52.7989937,23.0454672 L52.7989937,50.2608716 C52.7989937,52.8782861 50.650478,55 48,55" id="Fill-11" fill="#FFB706"></path>
                </g>
            </g>
        </g>
    </g>
</svg>