<?xml version="1.0" encoding="UTF-8"?>
<svg width="12px" height="11px" viewBox="0 0 12 11" version="1.1" xmlns="http://www.w3.org/2000/svg" xmlns:xlink="http://www.w3.org/1999/xlink">
    <title>icon_upload</title>
    <g id="学生端-个人中心" stroke="none" stroke-width="1" fill="none" fill-rule="evenodd">
        <g id="个人中心" transform="translate(-544.000000, -336.000000)" fill="#666666">
            <g id="btn_upload" transform="translate(529.000000, 325.000000)">
                <g id="icon_upload-" transform="translate(15.000000, 11.000000)">
                    <g id="icon_upload">
                        <path d="M2.9739484,4.08308824 L5.42925411,1.80476471 L5.42925411,8.47058824 C5.42925411,8.76308824 5.68488436,9 5.99985735,9 C6.31511564,9 6.57046058,8.76308824 6.57046058,8.47058824 L6.57046058,1.80476471 L9.0260516,4.08308824 C9.13760454,4.18658824 9.28339366,4.23820588 9.42946809,4.23820588 C9.57554252,4.23820588 9.72133165,4.18658824 9.83288458,4.08308824 C10.0557051,3.87635294 10.0557051,3.54123529 9.83288458,3.3345 L6.40355914,0.152205882 C6.3616198,0.113558824 6.31254792,0.0847058824 6.26090833,0.0611470588 C6.18216508,0.0232941176 6.09457749,0 5.99985735,0 C5.90542251,0 5.81783492,0.0232941176 5.73909167,0.0611470588 C5.68745208,0.0847058824 5.6383802,0.113558824 5.59644086,0.152205882 L2.16711542,3.3345 C1.94429486,3.54123529 1.94429486,3.87635294 2.16711542,4.08308824 C2.38993599,4.28982353 2.75112783,4.28982353 2.9739484,4.08308824" id="Fill-1"></path>
                        <path d="M11.4545455,6.000075 C11.1534545,6.000075 10.9090909,6.224075 10.9090909,6.500075 L10.9090909,9.500075 C10.9090909,9.775825 10.6644545,10.000075 10.3636364,10.000075 L1.63636364,10.000075 C1.33554545,10.000075 1.09090909,9.775825 1.09090909,9.500075 L1.09090909,6.500075 C1.09090909,6.224075 0.846545455,6.000075 0.545454545,6.000075 C0.244363636,6.000075 0,6.224075 0,6.500075 L0,9.500075 C0,10.327325 0.733909091,11.000075 1.63636364,11.000075 L10.3636364,11.000075 C11.2660909,11.000075 12,10.327325 12,9.500075 L12,6.500075 C12,6.224075 11.7556364,6.000075 11.4545455,6.000075" id="Fill-3"></path>
                    </g>
                </g>
            </g>
        </g>
    </g>
</svg>