<?xml version="1.0" encoding="UTF-8"?>
<svg width="14px" height="14px" viewBox="0 0 14 14" version="1.1" xmlns="http://www.w3.org/2000/svg" xmlns:xlink="http://www.w3.org/1999/xlink">
    <title>icon_account</title>
    <g id="学校端-个人中心" stroke="none" stroke-width="1" fill="none" fill-rule="evenodd">
        <g id="个人中心-基本设置" transform="translate(-20.000000, -200.000000)" fill="#666666">
            <g id="account-management" transform="translate(0.000000, 186.000000)">
                <g id="icon_account-" transform="translate(20.000000, 14.000000)">
                    <path d="M11.4545455,12.7272727 C10.7526364,12.7272727 10.1818182,12.1564545 10.1818182,11.4545455 C10.1818182,10.7526364 10.7526364,10.1818182 11.4545455,10.1818182 C12.1564545,10.1818182 12.7272727,10.7526364 12.7272727,11.4545455 C12.7272727,12.1564545 12.1564545,12.7272727 11.4545455,12.7272727 M3.81818182,11.4545455 C3.81818182,12.1564545 3.24736364,12.7272727 2.54545455,12.7272727 C1.84354545,12.7272727 1.27272727,12.1564545 1.27272727,11.4545455 C1.27272727,10.7526364 1.84354545,10.1818182 2.54545455,10.1818182 C3.24736364,10.1818182 3.81818182,10.7526364 3.81818182,11.4545455 M5.72727273,2.54545455 C5.72727273,1.84354545 6.29809091,1.27272727 7,1.27272727 C7.70190909,1.27272727 8.27272727,1.84354545 8.27272727,2.54545455 C8.27272727,3.24736364 7.70190909,3.81818182 7,3.81818182 C6.29809091,3.81818182 5.72727273,3.24736364 5.72727273,2.54545455 M12.0909091,8.99309091 L12.0909091,7 C12.0909091,6.64872727 11.8058182,6.36363636 11.4545455,6.36363636 L7.63636364,6.36363636 L7.63636364,5.00690909 C8.73218182,4.72340909 9.54545455,3.72909091 9.54545455,2.54545455 C9.54545455,1.14195455 8.4035,0 7,0 C5.5965,0 4.45454545,1.14195455 4.45454545,2.54545455 C4.45454545,3.72909091 5.26781818,4.72340909 6.36363636,5.00690909 L6.36363636,6.36363636 L2.54545455,6.36363636 C2.19418182,6.36363636 1.90909091,6.64872727 1.90909091,7 L1.90909091,8.99309091 C0.813272727,9.27659091 0,10.2709091 0,11.4545455 C0,12.8580455 1.14195455,14 2.54545455,14 C3.94895455,14 5.09090909,12.8580455 5.09090909,11.4545455 C5.09090909,10.2709091 4.27763636,9.27659091 3.18181818,8.99309091 L3.18181818,7.63636364 L10.8181818,7.63636364 L10.8181818,8.99309091 C9.72236364,9.27659091 8.90909091,10.2709091 8.90909091,11.4545455 C8.90909091,12.8580455 10.0510455,14 11.4545455,14 C12.8580455,14 14,12.8580455 14,11.4545455 C14,10.2709091 13.1867273,9.27659091 12.0909091,8.99309091" id="icon_account"></path>
                </g>
            </g>
        </g>
    </g>
</svg>