<?xml version="1.0" encoding="UTF-8"?>
<svg width="14px" height="13px" viewBox="0 0 14 13" version="1.1" xmlns="http://www.w3.org/2000/svg" xmlns:xlink="http://www.w3.org/1999/xlink">
    <title>icon_workbench</title>
    <g id="学生端-生涯辅导" stroke="none" stroke-width="1" fill="none" fill-rule="evenodd">
        <g id="工作台" transform="translate(-20.000000, -75.000000)" fill="#FFFFFF">
            <g id="workbench" transform="translate(0.000000, 60.000000)">
                <g id="icon_workbench-" transform="translate(20.000000, 15.000000)">
                    <g id="icon_workbench">
                        <path d="M12.7272727,8.66666667 C12.7272727,9.00807143 12.4418636,9.28571429 12.0909091,9.28571429 L1.90909091,9.28571429 C1.55813636,9.28571429 1.27272727,9.00807143 1.27272727,8.66666667 L1.27272727,1.85714286 C1.27272727,1.5157381 1.55813636,1.23809524 1.90909091,1.23809524 L12.0909091,1.23809524 C12.4418636,1.23809524 12.7272727,1.5157381 12.7272727,1.85714286 L12.7272727,8.66666667 Z M12.0909091,0 L1.90909091,0 C0.856227273,0 0,0.832928571 0,1.85714286 L0,8.66666667 C0,9.69088095 0.856227273,10.5238095 1.90909091,10.5238095 L6.36363636,10.5238095 L6.36363636,11.7619048 L4.13636364,11.7619048 C3.78509091,11.7619048 3.5,12.0392381 3.5,12.3809524 C3.5,12.7226667 3.78509091,13 4.13636364,13 L9.86363636,13 C10.2149091,13 10.5,12.7226667 10.5,12.3809524 C10.5,12.0392381 10.2149091,11.7619048 9.86363636,11.7619048 L7.63636364,11.7619048 L7.63636364,10.5238095 L12.0909091,10.5238095 C13.1437727,10.5238095 14,9.69088095 14,8.66666667 L14,1.85714286 C14,0.832928571 13.1437727,0 12.0909091,0 L12.0909091,0 Z" id="Fill-1"></path>
                        <path d="M5.72727273,2.16666667 C5.376,2.16666667 5.09090909,2.444 5.09090909,2.78571429 L5.09090909,7.73809524 C5.09090909,8.07980952 5.376,8.35714286 5.72727273,8.35714286 C6.07854545,8.35714286 6.36363636,8.07980952 6.36363636,7.73809524 L6.36363636,2.78571429 C6.36363636,2.444 6.07854545,2.16666667 5.72727273,2.16666667" id="Fill-3"></path>
                        <path d="M10.8181818,2.16666667 C10.4669091,2.16666667 10.1818182,2.444 10.1818182,2.78571429 L10.1818182,7.73809524 C10.1818182,8.07980952 10.4669091,8.35714286 10.8181818,8.35714286 C11.1694545,8.35714286 11.4545455,8.07980952 11.4545455,7.73809524 L11.4545455,2.78571429 C11.4545455,2.444 11.1694545,2.16666667 10.8181818,2.16666667" id="Fill-5"></path>
                        <path d="M3.18181818,4.02380952 C2.83054545,4.02380952 2.54545455,4.30114286 2.54545455,4.64285714 L2.54545455,7.73809524 C2.54545455,8.07980952 2.83054545,8.35714286 3.18181818,8.35714286 C3.53309091,8.35714286 3.81818182,8.07980952 3.81818182,7.73809524 L3.81818182,4.64285714 C3.81818182,4.30114286 3.53309091,4.02380952 3.18181818,4.02380952" id="Fill-7"></path>
                        <path d="M8.27272727,4.02380952 C7.92145455,4.02380952 7.63636364,4.30114286 7.63636364,4.64285714 L7.63636364,7.73809524 C7.63636364,8.07980952 7.92145455,8.35714286 8.27272727,8.35714286 C8.624,8.35714286 8.90909091,8.07980952 8.90909091,7.73809524 L8.90909091,4.64285714 C8.90909091,4.30114286 8.624,4.02380952 8.27272727,4.02380952" id="Fill-9"></path>
                    </g>
                </g>
            </g>
        </g>
    </g>
</svg>