<?xml version="1.0" encoding="UTF-8"?>
<svg width="337px" height="347px" viewBox="0 0 337 347" version="1.1" xmlns="http://www.w3.org/2000/svg" xmlns:xlink="http://www.w3.org/1999/xlink">
    <title>img</title>
    <defs>
        <linearGradient x1="28.5450848%" y1="32.3003855%" x2="100%" y2="52.3818084%" id="linearGradient-1">
            <stop stop-color="#6D93FF" offset="0%"></stop>
            <stop stop-color="#89ACFF" offset="100%"></stop>
        </linearGradient>
        <linearGradient x1="0%" y1="43.1988515%" x2="100%" y2="57.847526%" id="linearGradient-2">
            <stop stop-color="#85AAFF" offset="0%"></stop>
            <stop stop-color="#4B77F6" offset="100%"></stop>
        </linearGradient>
        <linearGradient x1="0.39958657%" y1="46.8126086%" x2="99.6001826%" y2="53.1884434%" id="linearGradient-3">
            <stop stop-color="#FFFFFF" offset="0%"></stop>
            <stop stop-color="#E4EDFF" offset="100%"></stop>
        </linearGradient>
        <linearGradient x1="72.5988716%" y1="14.3882145%" x2="50%" y2="63.56364%" id="linearGradient-4">
            <stop stop-color="#619AFF" stop-opacity="0.801764642" offset="0%"></stop>
            <stop stop-color="#FFFFFF" stop-opacity="0" offset="100%"></stop>
        </linearGradient>
        <linearGradient x1="73.4670365%" y1="3.02590914%" x2="54.6284003%" y2="63.6310323%" id="linearGradient-5">
            <stop stop-color="#619AFF" stop-opacity="0.807145979" offset="0%"></stop>
            <stop stop-color="#FFFFFF" stop-opacity="0" offset="100%"></stop>
        </linearGradient>
        <linearGradient x1="5.34911702%" y1="39.2545962%" x2="100%" y2="54.0084708%" id="linearGradient-6">
            <stop stop-color="#6D93FF" offset="0%"></stop>
            <stop stop-color="#89ACFF" offset="100%"></stop>
        </linearGradient>
    </defs>
    <g id="404" stroke="none" stroke-width="1" fill="none" fill-rule="evenodd">
        <g transform="translate(-673.000000, -245.000000)" id="img-">
            <g transform="translate(665.000000, 244.000000)">
                <g id="img">
                    <g id="编组-2" transform="translate(104.000000, 0.000000)">
                        <path d="M150.265791,79.4535622 C147.342172,91.5986988 130.240679,97.9121414 112.060828,93.5510485 C102.882097,91.3451469 95.1870597,86.8446004 90.1891866,81.3615403 C85.2915373,75.9862398 82.9889254,69.6664583 84.435194,63.6509392 C86.9344478,53.2426332 99.8366866,47.1256933 114.908963,48.3237261 C117.439299,48.5202288 120.027358,48.9259119 122.634448,49.5534529 C140.814933,53.9145458 153.184336,67.3020868 150.265791,79.4535622" id="Fill-1" fill="#89ACFF"></path>
                        <path d="M150.265791,79.4535622 C147.342172,91.5986988 130.240679,97.9121414 112.060828,93.5510485 C102.882097,91.3451469 95.1870597,86.8446004 90.1891866,81.3615403 C93.1001194,73.2098463 99.8690373,59.6701742 114.908963,48.3237261 C117.439299,48.5202288 120.027358,48.9259119 122.634448,49.5534529 C140.814933,53.9145458 153.184336,67.3020868 150.265791,79.4535622" id="Fill-3" fill="url(#linearGradient-1)"></path>
                        <path d="M168.814377,112.765973 C164.306205,130.981776 134.598071,139.309689 102.45919,131.366541 C70.3203097,123.42276 47.921541,102.216946 52.4297127,84.0017764 C56.9385187,65.7853392 86.646653,57.4580605 118.785534,65.4012081 C150.924414,73.3443556 173.322549,94.5501698 168.814377,112.765973" id="Fill-5" fill="url(#linearGradient-2)"></path>
                        <path d="M144.183343,120.13977 C141.993007,128.989365 123.643791,132.066852 103.199388,127.014196 C82.7543507,121.96154 67.9567388,110.691158 70.1464403,101.841562 C72.3367761,92.9919665 90.6859925,89.9138463 111.13103,94.9671359 C131.575433,100.019792 146.373679,111.290174 144.183343,120.13977" id="Fill-7" fill="#4F7AF7"></path>
                        <path d="M69.141791,76.6137807 C69.141791,78.7138245 67.4373507,80.4170594 65.3358209,80.4170594 C63.234291,80.4170594 61.5298507,78.7138245 61.5298507,76.6137807 C61.5298507,74.513737 63.234291,72.8105021 65.3358209,72.8105021 C67.4373507,72.8105021 69.141791,74.513737 69.141791,76.6137807" id="Fill-11" fill="url(#linearGradient-3)"></path>
                        <path d="M91.9776119,70.2749829 C91.9776119,72.3750266 90.2731716,74.0782616 88.1716418,74.0782616 C86.0701119,74.0782616 84.3656716,72.3750266 84.3656716,70.2749829 C84.3656716,68.1749392 86.0701119,66.4717042 88.1716418,66.4717042 C90.2731716,66.4717042 91.9776119,68.1749392 91.9776119,70.2749829" id="Fill-13" fill="url(#linearGradient-3)"></path>
                        <path d="M121.156716,72.8105021 C121.156716,74.9105458 119.452276,76.6137807 117.350746,76.6137807 C115.249216,76.6137807 113.544776,74.9105458 113.544776,72.8105021 C113.544776,70.7104583 115.249216,69.0072234 117.350746,69.0072234 C119.452276,69.0072234 121.156716,70.7104583 121.156716,72.8105021" id="Fill-15" fill="url(#linearGradient-3)"></path>
                        <path d="M147.798507,84.8542179 C147.798507,86.9542616 146.094067,88.6574966 143.992537,88.6574966 C141.891007,88.6574966 140.186567,86.9542616 140.186567,84.8542179 C140.186567,82.7541742 141.891007,81.0509392 143.992537,81.0509392 C146.094067,81.0509392 147.798507,82.7541742 147.798507,84.8542179" id="Fill-17" fill="url(#linearGradient-3)"></path>
                        <path d="M164.925373,101.968972 C164.925373,104.069016 163.220933,105.772251 161.119403,105.772251 C159.017873,105.772251 157.313433,104.069016 157.313433,101.968972 C157.313433,99.8689283 159.017873,98.1656933 161.119403,98.1656933 C163.220933,98.1656933 164.925373,99.8689283 164.925373,101.968972" id="Fill-19" fill="url(#linearGradient-3)"></path>
                        <polygon id="Fill-21" fill="url(#linearGradient-4)" points="81.8283582 104.504491 0 195.749963 150.970149 231.914327 132.574627 115.631988"></polygon>
                        <polygon id="Fill-23" fill="url(#linearGradient-5)" points="92.108347 107.04001 16.7970784 199.807202 137.921444 228.744928 122.636034 113.715941"></polygon>
                        <path d="M132.554201,117.265632 C131.052112,123.335031 118.467037,125.445851 104.445209,121.98043 C90.4233806,118.515009 80.2741269,110.785479 81.7762164,104.71608 C83.278306,98.6460474 95.8633806,96.5352277 109.885209,100.001282 C123.907037,103.466069 134.056291,111.196233 132.554201,117.265632" id="Fill-9" fill="#92B9FF"></path>
                        <polygon id="Fill-1" fill="#6E95FF" transform="translate(125.104965, 47.976959) rotate(4.000000) translate(-125.104965, -47.976959) " points="122.822515 50.8948302 126.421655 51.4385238 127.387414 45.0584544 123.787005 44.5153947"></polygon>
                        <path d="M132.716896,40.9869832 C132.716738,44.2071036 130.104454,46.8181919 126.881442,46.8183505 C123.659065,46.8185091 121.047039,44.2076778 121.047197,40.9875575 C121.047356,37.7668032 123.65964,35.1563487 126.882017,35.1561901 C130.105028,35.1560315 132.717055,37.7662289 132.716896,40.9869832" id="Fill-2" fill="url(#linearGradient-6)" transform="translate(126.882047, 40.987270) rotate(4.000000) translate(-126.882047, -40.987270) "></path>
                        <path d="M143.617138,32.7860176 C142.704975,32.7860176 141.823271,32.292903 141.369114,31.4289353 C139.659046,28.1765375 136.831275,25.6379166 133.406573,24.2827649 C128.85151,22.4794877 123.839675,22.9163549 119.658122,25.4817717 C118.463665,26.2139329 116.901325,25.8399821 116.168706,24.6470374 C115.435452,23.4534588 115.809744,21.8922023 117.004202,21.1594072 C122.560363,17.7515295 129.221454,17.1713647 135.275419,19.5679169 C139.827311,21.3699264 143.586889,24.7439787 145.861481,29.0707897 C146.512905,30.3100097 146.035853,31.8433779 144.795092,32.4944036 C144.418931,32.6921836 144.015496,32.7860176 143.617138,32.7860176" id="Fill-4" fill="#6E95FF" transform="translate(130.973209, 25.448484) rotate(2.000000) translate(-130.973209, -25.448484) "></path>
                        <path d="M160.957132,26.0804173 C160.037991,26.0804173 159.149944,25.5790625 158.699593,24.7062204 C154.944552,17.4236619 148.672459,11.74932 141.040301,8.72780068 C130.501682,4.55586029 118.627032,5.9056844 109.274344,12.3347294 C108.119848,13.1290099 106.540379,12.8361961 105.745594,11.6831874 C104.951444,10.5295448 105.243909,8.95117558 106.39777,8.15752895 C117.147906,0.767486946 130.796776,-0.780785461 142.908513,4.0135866 C151.682449,7.48640051 158.892693,14.010119 163.21099,22.3829377 C163.852264,23.627229 163.36316,25.1561604 162.117324,25.7983119 C161.745603,25.9891191 161.348512,26.0804173 160.957132,26.0804173" id="Fill-6" fill="#6E95FF" transform="translate(134.395829, 13.674154) rotate(2.000000) translate(-134.395829, -13.674154) "></path>
                    </g>
                    <g id="编组" transform="translate(0.000000, 182.000000)">
                        <ellipse id="椭圆形" fill="#E2ECFF" cx="169" cy="159" rx="24" ry="2"></ellipse>
                        <text id="4" font-family="Bahnschrift_Bold, Bahnschrift" font-size="150" font-weight="bold" fill="#88ACF5">
                            <tspan x="0.672851562" y="157">4</tspan>
                        </text>
                        <text id="0" transform="translate(170.500000, 82.000000) rotate(10.000000) translate(-170.500000, -82.000000) " font-family="Bahnschrift_Bold, Bahnschrift" font-size="150" font-weight="bold" fill="#88ACF5">
                            <tspan x="129.236328" y="126">0</tspan>
                        </text>
                        <text id="4" font-family="Bahnschrift_Bold, Bahnschrift" font-size="150" font-weight="bold" fill="#88ACF5">
                            <tspan x="265.672852" y="157">4</tspan>
                        </text>
                    </g>
                </g>
            </g>
        </g>
    </g>
</svg>