<?xml version="1.0" encoding="UTF-8"?>
<svg width="501px" height="462px" viewBox="0 0 501 462" version="1.1" xmlns="http://www.w3.org/2000/svg" xmlns:xlink="http://www.w3.org/1999/xlink">
    <title>img</title>
    <g id="页面-1" stroke="none" stroke-width="1" fill="none" fill-rule="evenodd">
        <g id="生涯模式" transform="translate(-1059.000000, -1217.000000)">
            <g id="track" transform="translate(360.000000, 1208.000000)">
                <g id="img-" transform="translate(699.000000, 9.000000)">
                    <g id="img" transform="translate(0.000000, 4.000000)">
                        <ellipse id="椭圆形" fill="#E6EBF2" fill-rule="nonzero" cx="304.67" cy="414.09" rx="74.04" ry="43.12"></ellipse>
                        <ellipse id="椭圆形" fill="#FFFFFF" fill-rule="nonzero" cx="303.26" cy="413.27" rx="50.18" ry="29.22"></ellipse>
                        <path d="M415.19,203.28 C415.19,203.34 415.19,203.41 415.19,203.47 C414.97,206.01 414.65,208.41 414.25,210.67 C413.805663,213.256405 413.221473,215.816827 412.5,218.34 C412.11,219.7 411.69,220.99 411.25,222.22 L407.72,229.07 L404.72,234.99 L404.49,235.41 C402.972035,237.559684 401.236164,239.546888 399.31,241.34 C398.095333,242.512199 396.753705,243.545252 395.31,244.42 C334.1,183.01 253.7,175.15 190.75,185.54 C131.53,195.32 87.82,221.68 87.82,221.68 L87.82,119.26 C214.44,59.4 336.01,86.88 383.6,136.55 C399.97,153.66 407.91,169.61 411.73,181.63 C412.926424,185.333229 413.845628,189.120351 414.48,192.96 C415.10951,196.36166 415.347726,199.82418 415.19,203.28 Z" id="路径" fill="#2150F5" fill-rule="nonzero"></path>
                        <path d="M415.19,203.28 C415.19,203.34 415.19,203.41 415.19,203.47 C415.07,204.87 414.93,206.22 414.75,207.53 C414.59,208.61 414.43,209.65 414.25,210.67 C414.03,211.94 413.78,213.16 413.52,214.34 C413.2,215.73 412.87,217.06 412.52,218.34 C412.17,219.62 411.71,220.99 411.27,222.22 L407.74,229.07 L406.8,230.89 L404.7,234.99 L404.47,235.41 C404.19,235.82 403.89,236.21 403.6,236.58 C402.305287,238.289645 400.863092,239.882417 399.29,241.34 L358.98,205.88 L358.98,126.72 C378.62,139.39 399.24,164.72 411.73,181.63 C412.62,184.43 413.29,187.01 413.8,189.34 L413.8,189.34 C414.07,190.63 414.3,191.82 414.48,192.95 C414.85,195.23 415.05,197.18 415.16,198.75 L415.16,198.75 C415.275614,200.257453 415.285639,201.771148 415.19,203.28 Z" id="路径" fill="#FFD000" fill-rule="nonzero"></path>
                        <ellipse id="椭圆形" fill="#FFFFFF" fill-rule="nonzero" transform="translate(376.655405, 167.211415) rotate(-16.750000) translate(-376.655405, -167.211415) " cx="376.655405" cy="167.211415" rx="8.93" ry="19.69"></ellipse>
                        <path d="M131.19,125.13 L131.19,134.88 C149.230867,128.95172 167.735112,124.539735 186.51,121.69 L186.51,112.04 C167.826767,115.302607 149.354144,119.673659 131.19,125.13 L131.19,125.13 Z" id="路径" fill="#FFFFFF" fill-rule="nonzero"></path>
                        <path d="M131.19,140.1 L131.19,149.69 C131.19,149.69 161.68,140.76 168.44,139.82 L168.44,130.51 C155.859302,133.031812 143.424423,136.233167 131.19,140.1 Z" id="路径" fill="#C0D7FF" fill-rule="nonzero"></path>
                        <path d="M131.19,155.21 L131.19,164.79 C131.19,164.79 179.97,152.51 186.73,151.57 L186.73,142.26 C186.73,142.26 149.27,147.8 131.19,155.21 Z" id="路径" fill="#FFFFFF" fill-rule="nonzero"></path>
                        <path d="M209.12,124.25 L209.12,134.06 C232.266034,132.651497 255.492309,133.357758 278.51,136.17 L278.51,126.7 C278.51,126.7 242.37,121.64 209.12,124.25 Z" id="路径" fill="#FFFFFF" fill-rule="nonzero"></path>
                        <path d="M209.12,109.95 L209.12,119.76 C232.266298,118.352139 255.492818,119.061755 278.51,121.88 L278.51,112.4 C278.51,112.4 242.37,107.34 209.12,109.95 Z" id="路径" fill="#C0D7FF" fill-rule="nonzero"></path>
                        <path d="M209.12,139.04 L209.12,148.88 C232.266298,147.472139 255.492818,148.181755 278.51,151 L278.51,141.53 C278.51,141.53 242.37,136.44 209.12,139.04 Z" id="路径" fill="#C0D7FF" fill-rule="nonzero"></path>
                        <path d="M415.16,198.76 L390.54,175.07 L390.99,166.37 L413.8,189.37 L413.8,189.37 C414.07,190.66 414.3,191.85 414.48,192.98 C414.85,195.24 415.05,197.19 415.16,198.76 Z" id="路径" fill="#FCB800" fill-rule="nonzero"></path>
                        <path d="M406.76,230.88 L404.66,234.98 L404.43,235.4 C404.15,235.81 403.85,236.2 403.56,236.57 L364.41,201.72 L364.31,192.94 L406.76,230.88 Z" id="路径" fill="#FCB800" fill-rule="nonzero"></path>
                        <path d="M414.73,207.53 C414.57,208.61 414.41,209.65 414.23,210.67 C414.01,211.94 413.76,213.16 413.5,214.34 L389.5,192.03 L389.77,183.26 L414.73,207.53 Z" id="路径" fill="#FCB800" fill-rule="nonzero"></path>
                        <path d="M305.42,412.55 C305.42,412.55 300.79,426.3 307.77,426.68 C320.07,427.37 324.67,426.57 331.28,425.49 C336.76,424.6 337.28,417.49 332.82,416.08 C328.36,414.67 317.41,415.32 313.65,410.45 L305.42,412.55 Z" id="路径" fill="#57536C" fill-rule="nonzero"></path>
                        <path d="M315.93,427.44 C313.6,427.44 310.93,427.36 307.74,427.18 C306.432633,427.164513 305.215354,426.511066 304.48,425.43 C301.89,421.6 304.82,412.77 304.94,412.43 L305.03,412.18 L313.84,409.92 L314.04,410.18 C316.54,413.41 322.55,414.18 327.38,414.71 C329.265817,414.870626 331.135365,415.185004 332.97,415.65 C335.167611,416.323462 336.57475,418.465673 336.32,420.75 C336.119092,423.474235 334.02926,425.681098 331.32,426.03 L331.02,426.08 C326.043142,427.000912 320.991318,427.456213 315.93,427.44 Z M305.81,412.97 C305.35,414.43 303.22,421.78 305.31,424.86 C305.866535,425.69054 306.800236,426.189264 307.8,426.19 C319.86,426.86 324.49,426.1 330.9,425.05 L331.2,425 C333.442821,424.72594 335.173229,422.894731 335.32,420.64 C335.521918,418.825312 334.418087,417.119391 332.68,416.56 C330.898764,416.123019 329.086872,415.822152 327.26,415.66 C322.37,415.07 316.31,414.35 313.46,411.01 L305.81,412.97 Z" id="形状" fill="#30314F" fill-rule="nonzero"></path>
                        <path d="M275.85,397.2 C275.85,397.2 271.75,405.79 274.13,409.78 C276.37,413.53 283.44,411.85 287.01,407.96 C287.673052,407.226957 288.377538,406.532487 289.12,405.88 L293.44,402.06 C295.292916,400.692708 296.354838,398.501561 296.28,396.2 C296.17,394.34 295.19,392.73 291.8,393.52 C290.112274,393.93133 288.537433,394.713626 287.19,395.81 L284.05,398.31 L281.61,394.82 L275.85,397.2 Z" id="路径" fill="#57536C" fill-rule="nonzero"></path>
                        <path d="M278.46,412.38 C278.193551,412.395251 277.926449,412.395251 277.66,412.38 C276.031477,412.311155 274.538734,411.452828 273.66,410.08 C271.17,405.9 275.18,397.38 275.36,397.02 L275.44,396.85 L281.75,394.24 L284.11,397.62 L286.84,395.46 C288.243687,394.318354 289.883019,393.502103 291.64,393.07 C292.919864,392.632015 294.32751,392.778264 295.49,393.47 C296.301955,394.145497 296.76205,395.154026 296.74,396.21 C296.840932,398.673607 295.718034,401.027951 293.74,402.5 L289.44,406.29 C288.73,406.93 288.03,407.61 287.36,408.34 C285.031795,410.793098 281.83924,412.242302 278.46,412.38 L278.46,412.38 Z M276.27,397.59 C275.72,398.8 272.57,406.11 274.61,409.52 C275.322302,410.606997 276.511922,411.287311 277.81,411.35 C281.169947,411.448371 284.408124,410.088191 286.69,407.62 C287.368878,406.876008 288.086543,406.168357 288.84,405.5 L293.16,401.69 C294.901266,400.426135 295.901652,398.380402 295.83,396.23 C295.857724,395.470187 295.546275,394.737364 294.98,394.23 C294.056637,393.733899 292.965858,393.653909 291.98,394.01 C290.363404,394.397393 288.855635,395.146149 287.57,396.2 L284.01,399.03 L281.5,395.43 L276.27,397.59 Z" id="形状" fill="#30314F" fill-rule="nonzero"></path>
                        <path d="M308.62,279.42 L303.68,315.5 C300.15,320.99 287.76,394.2 285.48,397.17 C285.208235,397.510807 284.867439,397.79026 284.48,397.99 C284.162446,398.159822 283.827071,398.293972 283.48,398.39 C280.03,399.39 274.23,397.97 274.05,396.09 C271.17,359.73 275.49,335.23 277.38,326.25 C279.27,317.27 279.59,267.7 279.59,267.7 L308.62,279.42 Z" id="路径" fill="#3C6DF3" fill-rule="nonzero"></path>
                        <path d="M304.43,300.15 C297.49,331.15 284.74,389.86 284.49,397.99 C284.172446,398.159822 283.837071,398.293972 283.49,398.39 C283.38,389.55 302.62,303.65 303.49,299.93 L304.43,300.15 Z" id="路径" fill="#3B5ACD" fill-rule="nonzero"></path>
                        <path d="M336.81,263.88 C336.81,270.97 317.81,411.88 317.81,411.88 C317.338929,412.312959 316.833986,412.707551 316.3,413.06 C315.930873,413.303684 315.542988,413.517689 315.14,413.7 C309.14,416.57 303.6,411.13 303.6,411.13 L303.76,283.02 C303.76,283.02 295.56,282.02 289.76,278.84 C282.76,275.02 281.69,272.75 280.58,270.78 C277.92,266.08 279.58,253.85 279.58,253.85 L336.81,263.88 Z" id="路径" fill="#5586FF" fill-rule="nonzero"></path>
                        <path d="M271.74,178.27 C271.74,178.27 262.47,183.67 262.05,189.75 C261.33,200.11 275.05,232.87 281.16,235.39 L282.73,206.39 C282.73,206.39 278.86,198.39 282.56,196.59 L271.74,178.27 Z" id="路径" fill="#FFADAE" fill-rule="nonzero"></path>
                        <path d="M361.34,238.52 C356.02,241.52 344.21,254.14 336.81,242.09 L324.54,211.75 L345.54,207.75 L349.04,218.3 L349.09,218.45 L351.19,224.79 C351.19,224.79 355.46,222.9 360.37,220.11 L360.37,220.11 C365.94,216.95 372.37,212.65 374.29,208.67 C377.94,201.19 381.52,201.52 381.52,203.19 C381.52,204.86 379.61,208.19 380.69,208.09 C381.77,207.99 388.69,202.35 393.07,203.02 C397.45,203.69 366.66,235.53 361.34,238.52 Z" id="路径" fill="#FFADAE" fill-rule="nonzero"></path>
                        <path d="M321.71,178.81 C320.77,180.57 315.51,180.59 309.24,178.56 C302.97,176.53 298.38,173.34 298.99,171.44 C299.6,169.54 304.99,169.65 311.06,171.56 L311.46,171.69 C316.05,173.17 320.15,174.91 321.46,176.75 C321.967758,177.31599 322.067636,178.138987 321.71,178.81 Z" id="路径" fill="#FF9E8A" fill-rule="nonzero"></path>
                        <path d="M326.49,167.27 C326.418726,168.210352 325.828375,169.032213 324.96,169.4 C323.525014,170.118945 321.834986,170.118945 320.4,169.4 C320.050104,169.1952 319.635507,169.130866 319.24,169.22 L319.24,169.22 C318.877284,169.310461 318.558391,169.5266 318.34,169.83 C317.516194,170.933332 317.008051,172.239985 316.87,173.61 L304.12,170.76 L304.12,170.15 L304.12,168.86 L304.2,164.94 L304.3,160.48 L322.35,140.61 C322.35,140.61 328.15,144.46 326.49,167.27 Z" id="路径" fill="#FF9E8A" fill-rule="nonzero"></path>
                        <path d="M314.38,128.61 C314.38,128.61 314.38,122.61 320.38,123.61 C326.38,124.61 329.38,136.61 320.38,143.61 C320.38,143.61 322.38,148.61 319.38,150.61 L322.38,158.61 L320.38,159.61 C320.38,159.61 316.38,152.61 314.38,153.61 C312.38,154.61 311.38,156.61 312.38,159.61 C313.38,162.61 310.68,168.88 305.27,167.88 C304.734449,167.769393 304.25583,167.471586 303.92,167.04 L294.38,154.64 C294.38,154.64 287.38,148.64 293.38,143.64 C293.38,143.64 292.38,132.64 302.38,134.64 C302.38,134.61 300.38,125.61 314.38,128.61 Z" id="路径" fill="#42444D" fill-rule="nonzero"></path>
                        <path d="M326.18,215.88 L326,215.88 L331.78,229.88 L336.78,242.13 L336.78,263.88 C334.555328,265.137756 332.210295,266.16957 329.78,266.96 C329.45,267.08 329.09,267.19 328.78,267.29 C303.57,274.88 278.19,254.63 279.06,252.88 C281.825041,234.279828 283.02924,215.480945 282.66,196.68 L282.56,196.68 C270.56,192.27 271.74,178.32 271.74,178.32 C276.344783,175.884321 280.772393,173.127507 284.99,170.07 C286.122873,169.273637 287.365996,168.647023 288.68,168.21 C295.87,165.78 304.11,168.9 304.11,168.9 L304.16,168.9 L304.16,170.19 C301.36,169.97 299.39,170.39 299.03,171.48 C298.42,173.38 303.03,176.56 309.28,178.6 C315.53,180.64 320.82,180.6 321.76,178.85 C322.120327,178.181027 322.024466,177.35822 321.52,176.79 C328.46,180.65 334.4,184.79 336.85,187.35 C341.27,192 345.58,207.8 345.58,207.8 C339.5,218.31 327.76,216.21 326.18,215.88 Z" id="路径" fill="#515861" fill-rule="nonzero"></path>
                        <path d="M283.15,181.16 L282.56,196.63 C270.56,192.22 271.74,178.27 271.74,178.27 C276.344783,175.834321 280.772393,173.077507 284.99,170.02 C286.120611,169.219868 287.364312,168.592962 288.68,168.16 C285.96,169.65 282.59,173.13 283.15,181.16 Z" id="路径" fill="#3A4049" fill-rule="nonzero"></path>
                        <path d="M336.81,242.46 L336.81,254.65 C322.65,236.03 319.19,198.36 319.19,198.36 L326.19,215.86 L331.78,229.86 L336.81,242.46 Z" id="路径" fill="#3A4049" fill-rule="nonzero"></path>
                        <path d="M360.37,220.12 C357.37,223.12 353.88,227.12 352.9,229.87 L351.19,224.8 C351.19,224.8 355.46,222.88 360.37,220.12 Z" id="路径" fill="#FF9395" fill-rule="nonzero"></path>
                        <path d="M329.81,266.99 C329.29,274.16 321.15,387.99 316.26,413.05 C315.890873,413.293684 315.502988,413.507689 315.1,413.69 C319.88,390.87 328.04,277.69 328.79,267.32 C329.12,267.22 329.48,267.11 329.81,266.99 Z" id="路径" fill="#3B5ACD" fill-rule="nonzero"></path>
                        <line x1="290.95" y1="186.77" x2="312.73" y2="194.64" id="路径" stroke="#72797E" stroke-width="3" stroke-linecap="round"></line>
                        <path d="M414.85,340.73 C414.926675,340.689188 415.007031,340.655706 415.09,340.63 C414.15,341.2 406.16,345.57 359.41,370.63 L358.98,370.86 C351.92,374.65 344.98,377.98 338.04,380.86 C322.93449,387.271673 307.226594,392.159244 291.15,395.45 C282.35,397.27 273.63,398.6 264.98,399.57 C235.91,402.82 207.49,401.96 178.84,401.63 C149.92,401.29 115.06,387.21 87.84,373.46 C74.15,366.65 62.41,359.88 54.27,354.88 C46.68,350.27 42.2,347.25 42.2,347.25 L42.2,237.48 C56.2,251.28 148.39,321.22 278.31,300.6 C408.23,279.98 415.21,203.28 415.21,203.28 L414.85,340.73 Z" id="路径" fill="#4B78F6" fill-rule="nonzero"></path>
                        <path d="M87.79,297.5 L87.79,373.5 C74.15,366.65 62.41,359.88 54.27,354.88 L63.7,284.88 L87.79,297.5 Z" id="路径" fill="#2150F5" fill-rule="nonzero"></path>
                        <path d="M76.76,345.4 C76.5688962,345.399958 76.3793072,345.366103 76.2,345.3 C73.82,344.3 72.48,343.77 72.48,343.77 C71.965908,343.575196 71.5995735,343.114766 71.5252745,342.570047 C71.4509754,342.025328 71.6806177,341.483608 72.1237586,341.158238 C72.5668996,340.832869 73.1525284,340.775989 73.65,341.01 C73.65,341.01 74.97,341.57 77.32,342.51 C77.7009351,342.658204 78.0048914,342.955445 78.1615663,343.332975 C78.3182413,343.710505 78.3140637,344.135622 78.15,344.51 C77.9104594,345.061468 77.3611006,345.413216 76.76,345.4 L76.76,345.4 Z" id="路径" fill="#2150F5" fill-rule="nonzero"></path>
                        <path d="M145.39,366.27 L145.13,366.27 C142.62,365.83 139.97,365.27 137.24,364.72 C136.69566,364.628348 136.245643,364.24513 136.068442,363.722343 C135.891241,363.199556 136.015493,362.621687 136.391915,362.217939 C136.768337,361.81419 137.336096,361.649811 137.87,361.79 C140.56,362.37 143.18,362.88 145.65,363.31 C146.478427,363.381797 147.091797,364.111573 147.02,364.94 C146.948203,365.768427 146.218427,366.381797 145.39,366.31 L145.39,366.27 Z M127.85,362.43 C127.723718,362.443954 127.596282,362.443954 127.47,362.43 C124.98,361.79 122.38,361.08 119.73,360.33 C118.981865,360.066908 118.567792,359.266923 118.784959,358.50419 C119.002126,357.741457 119.775485,357.279559 120.55,357.45 C123.17,358.19 125.75,358.89 128.22,359.52 C128.755898,359.586094 129.215828,359.933066 129.426538,360.430215 C129.637248,360.927363 129.566726,361.49916 129.241538,361.930215 C128.91635,362.361269 128.385898,362.586094 127.85,362.52 L127.85,362.43 Z M110.59,357.430044 C110.437198,357.431205 110.285216,357.407563 110.14,357.36 C107.67,356.59 105.14,355.76 102.52,354.89 C101.981957,354.745003 101.568635,354.313693 101.446676,353.769965 C101.324717,353.226237 101.514224,352.659712 101.938791,352.298801 C102.363359,351.937889 102.953005,351.842079 103.47,352.05 C106.04,352.9 108.59,353.73 111.04,354.5 C111.74491,354.72324 112.181991,355.426863 112.069745,356.157708 C111.957499,356.888553 111.329413,357.428585 110.59,357.430044 L110.59,357.430044 Z M93.59,351.71 C93.4161033,351.709395 93.2436001,351.678953 93.08,351.62 C90.37,350.62 87.85,349.72 85.56,348.86 C84.839189,348.533307 84.4961838,347.702827 84.7763752,346.962699 C85.0565666,346.222571 85.863551,345.827445 86.62,346.06 C88.89,346.91 91.4,347.83 94.09,348.8 C94.7724847,349.047641 95.1796441,349.748516 95.0566993,350.464055 C94.9337545,351.179594 94.3160024,351.704367 93.59,351.71 L93.59,351.71 Z" id="形状" fill="#2150F5" fill-rule="nonzero"></path>
                        <path d="M159.27,368 L159.17,368 C157.87,367.91 156.51,367.8 155.17,367.65 C154.341573,367.567157 153.737157,366.828427 153.82,366 C153.902843,365.171573 154.641573,364.567157 155.47,364.65 C156.82,364.79 158.15,364.9 159.41,364.99 C159.945898,365.007863 160.431559,365.310268 160.684038,365.783301 C160.936517,366.256335 160.917457,366.828131 160.634038,367.283301 C160.350619,367.738471 159.845898,368.007863 159.31,367.99 L159.27,368 Z" id="路径" fill="#2150F5" fill-rule="nonzero"></path>
                        <path d="M147.97,360.69 L147.8,360.69 C145.31,360.41 142.6,359.98 139.8,359.42 C139.25323,359.338694 138.79549,358.963256 138.60878,358.44296 C138.42207,357.922664 138.536654,357.341846 138.906971,356.93144 C139.277289,356.521034 139.843317,356.347563 140.38,356.48 C143.13,357.03 145.75,357.48 148.16,357.71 C148.695898,357.738581 149.175841,358.05089 149.419038,358.529282 C149.662235,359.007674 149.631739,359.579471 149.339038,360.029282 C149.046337,360.479093 148.535898,360.738581 148,360.71 L147.97,360.69 Z M129.34,356.88 C129.210728,356.89946 129.079272,356.89946 128.95,356.88 C126.48,356.2 123.88,355.43 121.21,354.59 C120.447405,354.321207 120.035098,353.496337 120.277812,352.725046 C120.520526,351.953754 121.330903,351.513645 122.11,351.73 C124.74,352.56 127.31,353.32 129.74,353.99 C130.453199,354.197781 130.90689,354.896278 130.806744,355.632346 C130.706599,356.368414 130.082786,356.920312 129.34,356.93 L129.34,356.88 Z M111.27,351.09 C111.096103,351.089395 110.9236,351.058953 110.76,351 C108.3,350.12 105.76,349.17 103.22,348.19 C102.446801,347.891766 102.061766,347.023199 102.36,346.25 C102.658234,345.476801 103.526801,345.091766 104.3,345.39 C106.82,346.39 109.3,347.3 111.77,348.17 C112.467889,348.407384 112.889856,349.116679 112.765441,349.843261 C112.641027,350.569842 112.007109,351.098335 111.27,351.09 L111.27,351.09 Z M93.53,344.19 C93.3345027,344.192409 93.1405624,344.154982 92.96,344.08 C90.52,343.08 88.03,342 85.56,340.93 C84.8006085,340.598629 84.4536293,339.714392 84.7850001,338.955 C85.1163709,338.195609 86.0006085,337.848629 86.76,338.18 C89.21,339.25 91.69,340.3 94.11,341.31 C94.7644309,341.58876 95.1330813,342.288831 94.9926474,342.986158 C94.8522135,343.683485 94.2413177,344.186287 93.53,344.19 L93.53,344.19 Z M76.11,336.520024 C75.8932197,336.521199 75.6785984,336.476913 75.48,336.39 C70.96,334.29 68.21,332.91 68.18,332.9 C67.483371,332.507486 67.2171,331.637529 67.5746917,330.922346 C67.9322834,330.207162 68.7880114,329.898205 69.52,330.22 C69.52,330.22 72.27,331.59 76.74,333.66 C77.3774353,333.956578 77.7233567,334.656094 77.5721145,335.342686 C77.4208722,336.029278 76.8130511,336.518703 76.11,336.520024 L76.11,336.520024 Z" id="形状" fill="#FFD000" fill-rule="nonzero"></path>
                        <polygon id="路径" fill="#F8F9FF" fill-rule="nonzero" points="75.99 402.92 1 359.36 1 237.48 75.99 280.88"></polygon>
                        <ellipse id="椭圆形" fill="#4B78F6" fill-rule="nonzero" transform="translate(21.675339, 282.355460) rotate(-22.680000) translate(-21.675339, -282.355460) " cx="21.6753385" cy="282.35546" rx="13.33" ry="22.43"></ellipse>
                        <path d="M69.55,304.750046 C69.285666,304.748706 69.0265716,304.67616 68.8,304.54 L43.94,290.02 C43.2501859,289.607982 43.0112991,288.723217 43.4,288.02 C43.8208887,287.309956 44.7339298,287.069448 45.45,287.48 L70.27,301.95 C70.8606268,302.28994 71.1478814,302.9853 70.9693704,303.642972 C70.7908593,304.300644 70.1914475,304.755337 69.51,304.750046 L69.55,304.750046 Z" id="路径" fill="#4B78F6" fill-rule="nonzero"></path>
                        <path d="M56.51,336.930046 C56.2458707,336.927257 55.9871492,336.854815 55.76,336.72 L15.76,313.38 C15.0447915,312.960263 14.805264,312.040209 15.2250003,311.325 C15.6447367,310.609792 16.5647913,310.370264 17.28,310.79 L57.28,334.13 C57.8706268,334.46994 58.1578814,335.1653 57.9793704,335.822972 C57.8008593,336.480644 57.2014475,336.935337 56.52,336.930046 L56.51,336.930046 Z" id="路径" fill="#4B78F6" fill-rule="nonzero"></path>
                        <path d="M56.51,346.310017 C56.2466588,346.311246 55.9877542,346.242205 55.76,346.11 L15.76,322.77 C15.0777622,322.338411 14.8594692,321.444278 15.266072,320.746861 C15.6726747,320.049443 16.5583166,319.798917 17.27,320.18 L57.27,343.52 C57.8501441,343.864227 58.1291375,344.553382 57.9518409,345.204247 C57.7745442,345.855112 57.1845767,346.30756 56.51,346.310017 L56.51,346.310017 Z" id="路径" fill="#4B78F6" fill-rule="nonzero"></path>
                        <path d="M51.1,362.580001 C50.8324725,362.579027 50.5700734,362.506522 50.34,362.37 L15.79,342.2 C15.0747915,341.780263 14.835264,340.860209 15.2550003,340.145 C15.6747366,339.429792 16.5947913,339.190264 17.31,339.61 L51.85,359.78 C52.4389674,360.119032 52.7264234,360.811669 52.5505922,361.468105 C52.374761,362.124541 51.7795769,362.580757 51.1,362.580001 L51.1,362.580001 Z" id="路径" fill="#4B78F6" fill-rule="nonzero"></path>
                        <path d="M56.51,376.740017 C56.2466588,376.741246 55.9877542,376.672205 55.76,376.54 L15.76,353.2 C15.0447914,352.780264 14.8052639,351.860209 15.2250003,351.145 C15.6447366,350.429792 16.5647913,350.190264 17.28,350.61 L57.28,373.95 C57.9698141,374.362018 58.2087009,375.246783 57.82,375.95 C57.5589033,376.431407 57.0576175,376.733709 56.51,376.740017 L56.51,376.740017 Z" id="路径" fill="#4B78F6" fill-rule="nonzero"></path>
                        <path d="M44.33,349.28 C44.0633335,349.282547 43.8008707,349.213477 43.57,349.08 L15.79,332.88 C15.0747912,332.460264 14.8352636,331.540209 15.255,330.825 C15.6747364,330.109791 16.5947912,329.870264 17.31,330.29 L45.08,346.52 C45.6586185,346.863252 45.9379167,347.549774 45.7632646,348.19948 C45.5886124,348.849186 45.0027365,349.303134 44.33,349.31 L44.33,349.28 Z" id="路径" fill="#4B78F6" fill-rule="nonzero"></path>
                        <path d="M62.34,310.26 C62.076342,310.263757 61.816779,310.19454 61.59,310.06 L43.94,299.75 C43.2577622,299.318411 43.0394692,298.424278 43.446072,297.726861 C43.8526747,297.029443 44.7383166,296.778917 45.45,297.16 L63.1,307.47 C63.6801441,307.814227 63.9591375,308.503382 63.7818409,309.154247 C63.6045442,309.805112 63.0145767,310.25756 62.34,310.26 L62.34,310.26 Z" id="路径" fill="#4B78F6" fill-rule="nonzero"></path>
                        <path d="M291.15,331.25 L291.15,395.52 C282.35,397.34 273.63,398.67 264.98,399.64 L269.69,334.08 L291.15,331.25 Z" id="路径" fill="#2150F5" fill-rule="nonzero"></path>
                        <path d="M145.33,312.09 L145.33,429.19 C145.33,429.19 217.49,447.31 280.84,433.51 L280.84,316.79 C280.84,316.79 218.98,330.59 145.33,312.09 Z" id="路径" fill="#F8F9FF" fill-rule="nonzero"></path>
                        <ellipse id="椭圆形" fill="#4B78F6" fill-rule="nonzero" transform="translate(162.379498, 337.569987) rotate(-26.870000) translate(-162.379498, -337.569987) " cx="162.379498" cy="337.569987" rx="11.05" ry="13.18"></ellipse>
                        <ellipse id="椭圆形" fill="#FCD100" fill-rule="nonzero" transform="translate(264.949340, 411.694593) rotate(-85.110000) translate(-264.949340, -411.694593) " cx="264.94934" cy="411.694593" rx="12.78" ry="11.63"></ellipse>
                        <path d="M196.12,399.51 L196.12,424.95 C196.12,424.95 214.91,427.02 247.12,424.95 L247.12,399.51 C247.12,399.51 218.82,401.88 196.12,399.51 Z" id="路径" fill="#FCD100" fill-rule="nonzero"></path>
                        <path d="M178.83,329.34 L178.83,354.34 C178.83,354.34 202.58,359.27 235.74,357.55 L235.74,332.08 C235.74,332.08 206.57,333.14 178.83,329.34 Z" id="路径" fill="#4B78F6" fill-rule="nonzero"></path>
                        <path d="M150.65,357.27 L150.65,381.97 C150.65,381.97 181.53,389.86 212.42,389.86 L212.42,365.03 C212.42,365.03 173.84,363.43 150.65,357.27 Z" id="路径" fill="#4B78F6" fill-rule="nonzero"></path>
                        <path d="M359.41,370.65 L358.98,370.88 C351.92,374.67 344.98,378 338.04,380.88 L338.04,313.39 L358.63,301.99 L359.41,370.65 Z" id="路径" fill="#2150F5" fill-rule="nonzero"></path>
                        <path d="M288.87,359.390013 C288.155416,359.385312 287.541958,358.880357 287.4,358.18 C287.320977,357.788447 287.402479,357.38156 287.626218,357.050653 C287.849956,356.719746 288.197192,356.492531 288.59,356.42 C288.59,356.42 291.59,355.82 296.39,354.73 C296.923378,354.577803 297.497209,354.732366 297.881983,355.131872 C298.266757,355.531378 298.399663,356.110608 298.227543,356.637894 C298.055423,357.165181 297.606375,357.554446 297.06,357.65 C292.25,358.75 289.19,359.35 289.16,359.36 C289.064688,359.380362 288.967462,359.39042 288.87,359.390013 Z M307.43,355.08 C306.745899,355.086672 306.146378,354.623594 305.98,353.96 C305.777264,353.157049 306.259084,352.340632 307.06,352.13 C309.65,351.46 312.25,350.77 314.77,350.06 C315.14661,349.948384 315.552142,349.99106 315.897267,350.178628 C316.242392,350.366196 316.498797,350.683268 316.61,351.06 C316.837128,351.846206 316.392177,352.669365 315.61,352.91 C313.07,353.62 310.45,354.32 307.84,355 C307.707302,355.044034 307.569518,355.070919 307.43,355.08 L307.43,355.08 Z M325.72,349.85 C324.899857,349.974264 324.134264,349.410143 324.01,348.59 C323.885736,347.769857 324.449857,347.004264 325.27,346.88 C327.88,346.05 330.42,345.2 332.82,344.35 C333.325531,344.171367 333.88796,344.276001 334.295426,344.624487 C334.702892,344.972973 334.893491,345.512368 334.795426,346.039487 C334.697361,346.566606 334.325531,347.001367 333.82,347.18 C331.39,348.04 328.82,348.9 326.18,349.74 C326.03539,349.811598 325.879978,349.858897 325.72,349.88 L325.72,349.85 Z M343.6,343.340002 C342.886813,343.341011 342.271525,342.839719 342.128393,342.141041 C341.985261,341.442363 342.353866,340.73951 343.01,340.46 C345.6,339.36 348.01,338.25 350.2,337.16 C350.940062,336.787208 351.842208,337.084938 352.215,337.825 C352.587792,338.565062 352.290062,339.467208 351.55,339.84 C349.31,340.96 346.83,342.1 344.18,343.22 C343.996484,343.297896 343.799359,343.338681 343.6,343.340002 L343.6,343.340002 Z" id="形状" fill="#FFD000" fill-rule="nonzero"></path>
                        <path d="M288.87,366.620043 C288.121597,366.625048 287.483984,366.077654 287.375674,365.337112 C287.267363,364.596571 287.721499,363.889499 288.44,363.68 L296.14,361.36 C296.66206,361.174 297.24414,361.291013 297.653769,361.664305 C298.063397,362.037597 298.233821,362.606337 298.096976,363.143381 C297.960131,363.680425 297.538318,364.098256 297,364.23 L289.31,366.55 C289.168222,366.597541 289.019531,366.621197 288.87,366.620043 Z M306.17,361.410044 C305.421597,361.415048 304.783984,360.867654 304.675674,360.127112 C304.567363,359.386571 305.021499,358.679499 305.74,358.47 L313.42,356.17 C313.94206,355.984 314.52414,356.101013 314.933769,356.474305 C315.343397,356.847597 315.513821,357.416337 315.376976,357.953381 C315.240131,358.490425 314.818318,358.908256 314.28,359.04 L306.6,361.34 C306.461672,361.387543 306.316265,361.411214 306.17,361.410044 L306.17,361.410044 Z M323.45,356.230006 C322.703524,356.230006 322.070643,355.681105 321.965076,354.942132 C321.859508,354.203159 322.313383,353.499013 323.03,353.29 C326.32,352.29 329.03,351.51 330.74,351.02 C331.520748,350.831004 332.311799,351.290626 332.534251,352.062508 C332.756703,352.834389 332.331583,353.644505 331.57,353.9 L323.88,356.17 C323.740219,356.210206 323.595448,356.230406 323.45,356.230006 Z" id="形状" fill="#2150F5" fill-rule="nonzero"></path>
                        <path d="M354.11,296.05 L354.11,413.67 C354.11,413.67 430.37,384.4 437.91,322.55 L438.79,202.17 C438.79,202.17 440.35,259.34 354.11,296.05 Z" id="路径" fill="#FFD000" fill-rule="nonzero"></path>
                        <ellipse id="椭圆形" fill="#FFFFFF" fill-rule="nonzero" transform="translate(374.825312, 313.384312) rotate(-65.640000) translate(-374.825312, -313.384312) " cx="374.825312" cy="313.384312" rx="19.59" ry="11.15"></ellipse>
                        <path d="M391.13,295.06 L391.13,314.24 C391.13,314.24 415.63,299.05 430.37,270.56 L430.37,252.16 C430.37,252.16 419.36,276.45 391.13,295.06 Z" id="路径" fill="#FCB800" fill-rule="nonzero"></path>
                        <path d="M362.86,350.48 L362.86,390.39 C362.86,390.39 414.52,367.78 430.37,327.54 L430.37,291.07 C430.37,291.07 415.52,324.99 362.86,350.48 Z" id="路径" fill="#FCB800" fill-rule="nonzero"></path>
                        <polyline id="路径" stroke="#C1F6CF" stroke-width="10" stroke-linecap="round" stroke-linejoin="round" points="301.26 71.38 316.63 57.57 301.26 43.76"></polyline>
                        <circle id="椭圆形" stroke="#FCD1E1" stroke-width="8" cx="162.36" cy="11.96" r="11.96"></circle>
                        <line x1="7.08" y1="81.02" x2="57.03" y2="76.45" id="路径" stroke="#97A7FE" stroke-linecap="round" stroke-dasharray="2"></line>
                        <line x1="7.08" y1="90.3" x2="57.03" y2="85.73" id="路径" stroke="#97A7FE" stroke-linecap="round" stroke-dasharray="2"></line>
                        <line x1="7.08" y1="99.59" x2="57.03" y2="95.02" id="路径" stroke="#97A7FE" stroke-linecap="round" stroke-dasharray="2"></line>
                        <line x1="7.08" y1="108.87" x2="57.03" y2="104.3" id="路径" stroke="#97A7FE" stroke-linecap="round" stroke-dasharray="2"></line>
                        <path d="M374.11,144.62 L374.11,80.64 L438.57,73.64" id="路径" stroke="#97A7FE" stroke-linecap="round" stroke-dasharray="2"></path>
                        <circle id="椭圆形" fill="#97A7FE" fill-rule="nonzero" cx="131.19" cy="122.59" r="1.79"></circle>
                        <circle id="椭圆形" fill="#97A7FE" fill-rule="nonzero" cx="374.11" cy="146.01" r="1.79"></circle>
                        <polygon id="路径" fill="#97A7FE" fill-rule="nonzero" points="453.26 76.24 448.2 76.7 448.2 71.59 453.26 71.13"></polygon>
                        <polygon id="路径" fill="#97A7FE" fill-rule="nonzero" points="464.96 75.3 459.91 75.75 459.91 70.64 464.96 70.18"></polygon>
                        <polygon id="路径" fill="#97A7FE" fill-rule="nonzero" points="476.67 74.17 471.62 74.63 471.62 69.52 476.67 69.06"></polygon>
                        <polygon id="路径" fill="#97A7FE" fill-rule="nonzero" points="488.37 73.05 483.32 73.51 483.32 68.4 488.37 67.94"></polygon>
                        <polygon id="路径" fill="#97A7FE" fill-rule="nonzero" points="500.08 71.93 495.03 72.39 495.03 67.28 500.08 66.81"></polygon>
                        <polygon id="路径" fill="#97A7FE" fill-rule="nonzero" points="453.26 85.18 448.2 85.64 448.2 80.53 453.26 80.07"></polygon>
                        <polygon id="路径" fill="#97A7FE" fill-rule="nonzero" points="464.96 84.24 459.91 84.69 459.91 79.58 464.96 79.12"></polygon>
                        <polygon id="路径" fill="#97A7FE" fill-rule="nonzero" points="476.67 83.11 471.62 83.57 471.62 78.46 476.67 78"></polygon>
                        <polygon id="路径" fill="#97A7FE" fill-rule="nonzero" points="488.37 81.99 483.32 82.45 483.32 77.34 488.37 76.88"></polygon>
                        <polygon id="路径" fill="#97A7FE" fill-rule="nonzero" points="500.08 80.87 495.03 81.33 495.03 76.22 500.08 75.75"></polygon>
                        <polygon id="路径" fill="#97A7FE" fill-rule="nonzero" points="453.26 94.12 448.2 94.58 448.2 89.47 453.26 89.01"></polygon>
                        <polygon id="路径" fill="#97A7FE" fill-rule="nonzero" points="464.96 93.18 459.91 93.63 459.91 88.52 464.96 88.06"></polygon>
                        <polygon id="路径" fill="#97A7FE" fill-rule="nonzero" points="476.67 92.05 471.62 92.51 471.62 87.4 476.67 86.94"></polygon>
                        <polygon id="路径" fill="#97A7FE" fill-rule="nonzero" points="488.37 90.93 483.32 91.39 483.32 86.28 488.37 85.82"></polygon>
                        <polygon id="路径" fill="#97A7FE" fill-rule="nonzero" points="500.08 89.81 495.03 90.27 495.03 85.16 500.08 84.69"></polygon>
                        <polygon id="路径" fill="#97A7FE" fill-rule="nonzero" points="453.26 103.06 448.2 103.52 448.2 98.41 453.26 97.95"></polygon>
                        <polygon id="路径" fill="#97A7FE" fill-rule="nonzero" points="464.96 102.12 459.91 102.57 459.91 97.46 464.96 97"></polygon>
                        <polygon id="路径" fill="#97A7FE" fill-rule="nonzero" points="476.67 100.99 471.62 101.45 471.62 96.34 476.67 95.88"></polygon>
                        <path d="M131.19,120.8 L131.19,70.33 L70.01,75.79" id="路径" stroke="#97A7FE" stroke-linecap="round" stroke-dasharray="2"></path>
                        <circle id="椭圆形" fill="#FB4E8A" fill-rule="nonzero" cx="70.01" cy="75.86" r="1.79"></circle>
                        <circle id="椭圆形" fill="#FB4E8A" fill-rule="nonzero" cx="439.68" cy="73.64" r="1.79"></circle>
                    </g>
                </g>
            </g>
        </g>
    </g>
</svg>