<?xml version="1.0" encoding="UTF-8"?>
<svg width="609px" height="287px" viewBox="0 0 609 287" version="1.1" xmlns="http://www.w3.org/2000/svg" xmlns:xlink="http://www.w3.org/1999/xlink">
    <title>img</title>
    <g id="页面-1" stroke="none" stroke-width="1" fill="none" fill-rule="evenodd">
        <g id="生涯模式" transform="translate(-360.000000, -788.000000)">
            <g id="travel" transform="translate(360.000000, 782.000000)">
                <g id="img-" transform="translate(0.000000, 6.000000)">
                    <g id="img" transform="translate(3.000000, 0.000000)">
                        <path d="M42.4433036,283.374107 C42.4433036,283.374107 -1.61517857,232.720313 86.68125,160.620536 C174.977679,88.5207589 199.115625,0.269196429 295.802009,0.179432201 C359.781027,0.134598214 392.308929,47.1542411 425.240625,78.4707589 C446.686607,98.8848214 469.478571,115.664732 492.180804,126.791518 C551.448884,155.954464 583.707589,186.463393 539.828571,283.329241 L42.4433036,283.329241 L42.4433036,283.374107 Z" id="路径" fill="#E5F1FF" fill-rule="nonzero"></path>
                        <g id="编组" transform="translate(306.883929, 185.745536)" fill-rule="nonzero">
                            <path d="M90.7640625,96.1479911 L5.11473214,96.1479911 C2.46763393,96.1479911 0.3140625,93.9944196 0.3140625,91.3473214 L0.3140625,4.89040179 C0.3140625,2.24330357 2.46763393,0.0897321429 5.11473214,0.0897321429 L90.7640625,0.0897321429 C93.4111607,0.0897321429 95.5647321,2.24330357 95.5647321,4.89040179 L95.5647321,91.3473214 C95.5647321,93.9944196 93.4111607,96.1479911 90.7640625,96.1479911 Z" id="路径" fill="#FFFFFF"></path>
                            <path d="M44.6417411,20.5486607 C44.6417411,20.4589286 44.596875,20.3691964 44.596875,20.3243304 C42.9368304,13.6392857 37.9566964,8.25535714 31.4959821,6.05691964 C29.4321429,5.3390625 27.2337054,4.98013393 24.9904018,4.98013393 C13.8636161,4.98013393 4.75580357,14.0430804 4.75580357,25.2147321 C4.75580357,28.4002232 5.47366071,31.40625 6.81964286,34.0533482 C8.21049107,36.9247768 10.3191964,39.4372768 12.8765625,41.3665179 C16.2415179,43.9238839 20.4589286,45.4044643 24.9904018,45.4044643 C31.6305804,45.4044643 37.5080357,42.2189732 41.1870536,37.2837054 C43.6995536,33.91875 45.1801339,29.7462054 45.1801339,25.2147321 C45.1801339,23.5995536 45.0006696,22.0741071 44.6417411,20.5486607 Z M24.9455357,37.6426339 C21.984375,37.6426339 19.2475446,36.6107143 17.1388393,34.8609375 C15.703125,33.6944196 14.5814732,32.2587054 13.7738839,30.5986607 C12.9662946,28.9386161 12.5176339,27.0991071 12.5176339,25.1698661 C12.5176339,18.3053571 18.1258929,12.6970982 24.9904018,12.6970982 C26.4261161,12.6970982 27.8169643,12.9214286 29.0732143,13.3700893 C33.0214286,14.7609375 36.0723214,18.0810268 37.059375,22.2087054 C37.059375,22.2535714 37.1042411,22.3433036 37.1042411,22.3881696 C37.3285714,23.2854911 37.4183036,24.1828125 37.4183036,25.125 C37.4183036,27.7720982 36.5658482,30.2397321 35.175,32.2587054 C32.8868304,35.5787946 29.1629464,37.6426339 24.9455357,37.6426339 Z" id="形状" fill="#4B69FD"></path>
                            <path d="M44.6417411,20.5486607 L37.1042411,22.4330357 C37.1042411,22.3881696 37.059375,22.2984375 37.059375,22.2535714 C36.0723214,18.1258929 33.0214286,14.8058036 29.0732143,13.4149554 L31.4959821,6.05691964 C37.9566964,8.25535714 42.9368304,13.6392857 44.596875,20.3243304 C44.596875,20.4140625 44.596875,20.5037946 44.6417411,20.5486607 Z" id="路径" fill="#FF5F7A"></path>
                            <path d="M17.1388393,34.9058036 L12.8316964,41.3665179 C10.2743304,39.4372768 8.21049107,36.9247768 6.77477679,34.0533482 L13.7290179,30.6435268 C14.5366071,32.3035714 15.703125,33.7392857 17.1388393,34.9058036 Z" id="路径" fill="#5ADAAF"></path>
                            <path d="M45.1801339,25.2147321 C45.1801339,29.7462054 43.6995536,33.91875 41.1870536,37.2837054 L35.175,32.3484375 C36.6107143,30.3294643 37.4183036,27.8618304 37.4183036,25.2147321 C37.4183036,24.2725446 37.3285714,23.3303571 37.1042411,22.4779018 C37.1042411,22.4330357 37.059375,22.3433036 37.059375,22.2984375 L44.596875,20.3691964 C44.596875,20.4589286 44.6417411,20.5486607 44.6417411,20.5935268 C45.0006696,22.0741071 45.1801339,23.5995536 45.1801339,25.2147321 Z" id="路径" fill="#E5F1FF"></path>
                            <path d="M88.7899554,13.5495536 L51.4165179,13.5495536 C50.1154018,13.5495536 49.0386161,12.4727679 49.0386161,11.1716518 L49.0386161,11.1716518 C49.0386161,9.87053571 50.1154018,8.79375 51.4165179,8.79375 L88.7899554,8.79375 C90.0910714,8.79375 91.1678571,9.87053571 91.1678571,11.1716518 L91.1678571,11.1716518 C91.1678571,12.5176339 90.0910714,13.5495536 88.7899554,13.5495536 Z" id="路径" fill="#D5E0FF"></path>
                            <path d="M88.7899554,27.5477679 L51.4165179,27.5477679 C50.1154018,27.5477679 49.0386161,26.4709821 49.0386161,25.1698661 L49.0386161,25.1698661 C49.0386161,23.86875 50.1154018,22.7919643 51.4165179,22.7919643 L88.7899554,22.7919643 C90.0910714,22.7919643 91.1678571,23.86875 91.1678571,25.1698661 L91.1678571,25.1698661 C91.1678571,26.5158482 90.0910714,27.5477679 88.7899554,27.5477679 Z" id="路径" fill="#D5E0FF"></path>
                            <path d="M88.7899554,41.5908482 L51.4165179,41.5908482 C50.1154018,41.5908482 49.0386161,40.5140625 49.0386161,39.2129464 L49.0386161,39.2129464 C49.0386161,37.9118304 50.1154018,36.8350446 51.4165179,36.8350446 L88.7899554,36.8350446 C90.0910714,36.8350446 91.1678571,37.9118304 91.1678571,39.2129464 L91.1678571,39.2129464 C91.1678571,40.5140625 90.0910714,41.5908482 88.7899554,41.5908482 Z" id="路径" fill="#D5E0FF"></path>
                            <path d="M88.7899554,56.5761161 L7.08883929,56.5761161 C5.78772321,56.5761161 4.7109375,55.4993304 4.7109375,54.1982143 L4.7109375,54.1982143 C4.7109375,52.8970982 5.78772321,51.8203125 7.08883929,51.8203125 L88.7899554,51.8203125 C90.0910714,51.8203125 91.1678571,52.8970982 91.1678571,54.1982143 L91.1678571,54.1982143 C91.1678571,55.5441964 90.0910714,56.5761161 88.7899554,56.5761161 Z" id="路径" fill="#D5E0FF"></path>
                            <path d="M75.8685268,70.6191964 L7.08883929,70.6191964 C5.78772321,70.6191964 4.7109375,69.5424107 4.7109375,68.2412946 L4.7109375,68.2412946 C4.7109375,66.9401786 5.78772321,65.8633929 7.08883929,65.8633929 L75.8685268,65.8633929 C77.1696429,65.8633929 78.2464286,66.9401786 78.2464286,68.2412946 L78.2464286,68.2412946 C78.2464286,69.5424107 77.1696429,70.6191964 75.8685268,70.6191964 Z" id="路径" fill="#D5E0FF"></path>
                            <path d="M46.7055804,84.6174107 L7.08883929,84.6174107 C5.78772321,84.6174107 4.7109375,83.540625 4.7109375,82.2395089 L4.7109375,82.2395089 C4.7109375,80.9383929 5.78772321,79.8616071 7.08883929,79.8616071 L46.7055804,79.8616071 C48.0066964,79.8616071 49.0834821,80.9383929 49.0834821,82.2395089 L49.0834821,82.2395089 C49.0834821,83.540625 48.0066964,84.6174107 46.7055804,84.6174107 Z" id="路径" fill="#D5E0FF"></path>
                        </g>
                        <path d="M316.260938,160.934598 L232.047321,160.934598 L244.789286,99.5129464 C245.148214,97.8977679 246.583929,96.6863839 248.243973,96.6863839 L328.464509,96.6863839 C329.541295,96.6863839 330.528348,97.1799107 331.201339,97.9875 C331.87433,98.7950893 332.143527,99.871875 331.919196,100.948661 L320.11942,157.749107 C319.760491,159.588616 318.100446,160.934598 316.260938,160.934598 Z M232.989509,160.171875 L316.260938,160.171875 C317.786384,160.171875 319.0875,159.095089 319.401563,157.614509 L331.201339,100.814062 C331.380804,100.006473 331.156473,99.1540179 330.61808,98.4810268 C330.079688,97.8080357 329.316964,97.4491071 328.464509,97.4491071 L248.243973,97.4491071 C246.942857,97.4491071 245.776339,98.3912946 245.507143,99.6475446 L232.989509,160.171875 Z" id="形状" fill="#4C6AFD" fill-rule="nonzero"></path>
                        <polygon id="路径" stroke="#FFFFFF" stroke-width="1.6691" stroke-linejoin="round" points="315.632812 156.80692 236.668527 156.80692 248.647768 100.858929 327.65692 100.858929"></polygon>
                        <g id="编组" opacity="0.4" transform="translate(236.444196, 100.500000)" fill="#FFFFFF" fill-rule="nonzero">
                            <polygon id="路径" points="79.1886161 56.3069196 0.224330357 56.3069196 12.2035714 0.358928571 91.2127232 0.358928571"></polygon>
                        </g>
                        <path d="M312.447321,115.530134 C311.191071,115.530134 310.204018,114.498214 310.204018,113.28683 C310.204018,112.075446 311.235937,111.043527 312.447321,111.043527 C313.703571,111.043527 314.690625,112.075446 314.690625,113.28683 C314.690625,114.498214 313.703571,115.530134 312.447321,115.530134 Z M312.447321,111.895982 C311.684598,111.895982 311.101339,112.524107 311.101339,113.241964 C311.101339,113.959821 311.729464,114.587946 312.447321,114.587946 C313.210045,114.587946 313.793304,113.959821 313.793304,113.241964 C313.793304,112.524107 313.210045,111.895982 312.447321,111.895982 Z" id="形状" fill="#FF303D" fill-rule="nonzero"></path>
                        <path d="M289.116964,135.89933 C287.860714,135.89933 286.873661,134.867411 286.873661,133.656027 C286.873661,132.444643 287.90558,131.412723 289.116964,131.412723 C290.328348,131.412723 291.360268,132.444643 291.360268,133.656027 C291.360268,134.867411 290.373214,135.89933 289.116964,135.89933 Z M289.116964,132.265179 C288.354241,132.265179 287.770982,132.893304 287.770982,133.611161 C287.770982,134.329018 288.399107,134.957143 289.116964,134.957143 C289.834821,134.957143 290.462946,134.329018 290.462946,133.611161 C290.462946,132.893304 289.879687,132.265179 289.116964,132.265179 Z" id="形状" fill="#FF303D" fill-rule="nonzero"></path>
                        <path d="M274.266295,121.587054 C273.010045,121.587054 272.022991,120.555134 272.022991,119.34375 C272.022991,118.132366 273.054911,117.100446 274.266295,117.100446 C275.477679,117.100446 276.509598,118.132366 276.509598,119.34375 C276.509598,120.555134 275.522545,121.587054 274.266295,121.587054 Z M274.266295,117.952902 C273.503571,117.952902 272.920313,118.581027 272.920313,119.298884 C272.920313,120.016741 273.548437,120.644866 274.266295,120.644866 C274.984152,120.644866 275.612277,120.016741 275.612277,119.298884 C275.612277,118.581027 274.984152,117.952902 274.266295,117.952902 Z" id="形状" fill="#FF303D" fill-rule="nonzero"></path>
                        <path d="M251.653795,141.014063 C250.397545,141.014063 249.410491,139.982143 249.410491,138.770759 C249.410491,137.559375 250.442411,136.527455 251.653795,136.527455 C252.865179,136.527455 253.897098,137.559375 253.897098,138.770759 C253.897098,139.982143 252.910045,141.014063 251.653795,141.014063 Z M251.653795,137.379911 C250.891071,137.379911 250.307813,138.008036 250.307813,138.725893 C250.307813,139.488616 250.935938,140.071875 251.653795,140.071875 C252.371652,140.071875 252.999777,139.44375 252.999777,138.725893 C252.999777,138.008036 252.416518,137.379911 251.653795,137.379911 Z" id="形状" fill="#FF303D" fill-rule="nonzero"></path>
                        <path d="M291.808929,131.547321 C291.67433,131.547321 291.539732,131.502455 291.45,131.412723 C291.270536,131.233259 291.315402,130.964062 291.494866,130.784598 L309.351563,115.305804 C309.531027,115.126339 309.800223,115.171205 309.979688,115.35067 C310.159152,115.530134 310.114286,115.79933 309.934821,115.978795 L292.078125,131.457589 C291.988393,131.502455 291.898661,131.547321 291.808929,131.547321 Z" id="路径" fill="#4B6BFE" fill-rule="nonzero"></path>
                        <path d="M286.604464,131.412723 C286.514732,131.412723 286.380134,131.367857 286.290402,131.278125 L276.59933,122.035714 C276.419866,121.85625 276.419866,121.587054 276.59933,121.407589 C276.778795,121.228125 277.047991,121.228125 277.227455,121.407589 L286.918527,130.65 C287.097991,130.829464 287.097991,131.098661 286.918527,131.278125 C286.873661,131.367857 286.739062,131.412723 286.604464,131.412723 Z" id="路径" fill="#4B6BFE" fill-rule="nonzero"></path>
                        <path d="M254.121429,136.617188 C253.98683,136.617188 253.852232,136.572321 253.7625,136.482589 C253.583036,136.303125 253.627902,136.033929 253.807366,135.854464 L270.901339,121.048661 C271.080804,120.869196 271.35,120.914062 271.529464,121.093527 C271.708929,121.272991 271.664063,121.542188 271.484598,121.721652 L254.390625,136.527455 C254.345759,136.572321 254.256027,136.617188 254.121429,136.617188 Z" id="路径" fill="#4B6BFE" fill-rule="nonzero"></path>
                        <path d="M94.4879464,283.463839 C94.4879464,283.463839 54.5122768,261.434598 57.2491071,248.827232 C57.5183036,247.615848 58.7745536,245.507143 59.5821429,244.699554 C77.6631696,226.663393 103.999554,279.470759 105.928795,283.463839 L94.4879464,283.463839 L94.4879464,283.463839 Z" id="路径" fill="#95CBFB" fill-rule="nonzero"></path>
                        <path d="M67.5234375,252.192187 C67.5234375,252.192187 91.3921875,264.799554 100.5,283.239509" id="路径" stroke="#FFFFFF" stroke-width="2" stroke-linecap="round"></path>
                        <path d="M110.101339,283.239509 C110.101339,283.239509 109.787277,259.595089 83.8098214,234.380357 C74.8366071,225.676339 60.0308036,217.914509 49.6667411,205.307143 C37.2837054,190.232143 36.9696429,179.464286 51.3716518,169.145089 C64.2033482,159.947545 145.635268,160.396205 116.382589,283.508705 L110.101339,283.239509 Z" id="路径" fill="#95CBFB" fill-rule="nonzero"></path>
                        <path d="M73.1316964,191.219196 C73.1316964,191.219196 114.767411,223.433036 113.421429,283.418973" id="路径" stroke="#FFFFFF" stroke-width="2" stroke-linecap="round"></path>
                        <path d="M116.068527,226.842857 C116.068527,226.842857 117.324777,241.603795 110.370536,253.448437" id="路径" stroke="#FFFFFF" stroke-width="2" stroke-linecap="round"></path>
                        <path d="M78.9194196,217.645312 C78.9194196,217.645312 95.3852679,222.490848 103.595759,232.944643" id="路径" stroke="#FFFFFF" stroke-width="2" stroke-linecap="round"></path>
                        <path d="M193.013839,108.127232 C193.013839,108.127232 190.097545,107.633705 188.168304,99.9167411 C186.239063,92.1997768 186.418527,89.6872768 186.418527,89.6872768 C186.418527,89.6872768 182.604911,81.5665179 186.822321,72.7727679 C191.084598,64.0238839 207.28125,58.1912946 211.633259,71.1127232 C211.633259,71.1127232 217.600446,67.4785714 221.279464,72.6381696 C224.913616,77.7977679 221.32433,83.2714286 217.824777,87.9375 C214.370089,92.6035714 193.013839,108.127232 193.013839,108.127232 Z" id="路径" fill="#883D00" fill-rule="nonzero"></path>
                        <path d="M287.68125,205.576339 C286.155804,207.954241 284.585491,210.107813 283.060045,212.126786 C282.611384,212.710045 282.207589,213.248438 281.758929,213.78683 C280.547545,215.267411 279.336161,216.613393 278.124777,217.869643 C272.740848,223.343304 266.908259,226.708259 259.684821,227.60558 C248.064509,229.086161 240.302679,222.894643 240.302679,222.894643 L240.257812,220.696205 L238.418304,205.576339 L287.68125,205.576339 L287.68125,205.576339 Z" id="路径" fill="#E75B37" fill-rule="nonzero"></path>
                        <path d="M240.257813,220.382143 L238.373437,205.576339 L253.807366,205.576339 C239.809152,207.146652 240.257813,220.382143 240.257813,220.382143 Z" id="路径" fill="#CB3914" fill-rule="nonzero"></path>
                        <path d="M238.597768,206.383929 C241.648661,217.286384 240.078348,251.653795 240.078348,251.653795 C198.756696,268.074777 151.871652,247.660714 151.871652,247.660714 L154.967411,238.866964 C132.758705,239.225893 128.182366,224.958482 127.015848,216.389062 C126.65692,213.652232 126.522321,210.915402 126.65692,208.133705 C127.419643,191.937054 132.893304,172.10625 132.893304,172.10625 C141.73192,143.661161 156.672321,135.046875 171.119196,131.861384 C173.452232,131.367857 175.65067,130.919196 177.490179,130.605134 C180.630804,130.066741 182.784375,129.797545 182.784375,129.797545 C182.784375,129.797545 208.043973,128.675893 219.709152,131.053795 C220.830804,131.278125 221.952455,131.547321 223.029241,131.816518 C225.003348,132.310045 226.887723,132.848437 228.592634,133.431696 C228.86183,133.521429 229.131027,133.611161 229.355357,133.700893 C237.117187,136.347991 241.738393,139.309152 241.738393,139.309152 C249.99375,145.276339 256.723661,153.980357 261.434598,161.383259 C266.459598,169.324554 269.241295,175.785268 269.241295,175.785268 L238.597768,206.383929 Z" id="路径" fill="#E75B37" fill-rule="nonzero"></path>
                        <path d="M229.355357,133.656027 C221.010268,134.822545 206.653125,153.711161 206.428795,154.025223 L209.255357,147.20558 L214.549554,136.482589 L223.029241,131.816518 C225.317411,132.399777 227.470982,133.027902 229.355357,133.656027 Z" id="路径" fill="#CB3914" fill-rule="nonzero"></path>
                        <path d="M261.434598,161.383259 L260.402679,162.774107 C246.897991,138.636161 227.560714,134.19442 227.560714,134.19442 L228.592634,133.431696 C228.86183,133.521429 229.131027,133.611161 229.355357,133.700893 C237.117188,136.347991 241.738393,139.309152 241.738393,139.309152 C250.038616,145.231473 256.723661,153.935491 261.434598,161.383259 Z" id="路径" fill="#E97121" fill-rule="nonzero"></path>
                        <polygon id="路径" fill="#CB3914" fill-rule="nonzero" points="165.017411 195.616071 149.000223 215.85067 177.490179 212.08192"></polygon>
                        <path d="M177.490179,130.605134 C177.490179,130.605134 204.813616,150.52567 206.473661,154.025223 L201.717857,126.118527 L177.490179,130.605134 Z" id="路径" fill="#CB3914" fill-rule="nonzero"></path>
                        <path d="M224.86875,123.695759 C224.86875,123.695759 224.86875,123.695759 224.86875,123.695759 L223.118973,131.816518 C218.856696,134.64308 214.639286,139.892411 214.639286,139.892411 L206.518527,154.025223 C206.518527,154.025223 194.180357,139.623214 193.507366,137.783705 C190.546205,133.611161 182.739509,129.797545 182.739509,129.797545 L181.572991,123.022768 L181.572991,123.022768 C181.572991,123.022768 186.014732,117.145312 204.679018,118.625893 C221.234598,119.882143 223.298438,121.63192 224.86875,123.695759 Z" id="路径" fill="#E65939" fill-rule="nonzero"></path>
                        <path d="M224.86875,123.695759 C224.86875,123.695759 224.86875,123.695759 224.86875,123.695759 C223.074107,126.208259 219.888616,128.406696 217.286384,129.932143 C215.04308,131.233259 213.248438,132.040848 213.248438,132.040848 C213.248438,132.040848 206.204464,149.987277 206.204464,149.987277 L194.808482,130.739732 C192.385714,129.707812 190.321875,128.720759 188.616964,127.823437 C185.072545,125.939062 182.874107,124.279018 181.572991,123.067634 L181.572991,123.067634 C181.572991,123.067634 183.771429,120.151339 191.578125,118.939955 C194.853348,118.446429 199.160491,118.222098 204.679018,118.625893 C208.582366,118.939955 211.678125,119.254018 214.190625,119.612946 C222.176786,120.734598 223.657366,122.125446 224.86875,123.695759 Z" id="路径" fill="#470F00" fill-rule="nonzero"></path>
                        <path d="M287.68125,205.576339 C286.155804,207.954241 284.585491,210.107813 283.060045,212.126786 C282.611384,212.710045 282.207589,213.248438 281.758929,213.78683 C281.17567,213.472768 280.637277,213.068973 280.054018,212.710045 C279.291295,212.216518 278.483705,211.633259 277.720982,211.05 C275.477679,209.300223 273.503571,207.460714 271.978125,205.576339 L287.68125,205.576339 Z" id="路径" fill="#FFC6A7" fill-rule="nonzero"></path>
                        <path d="M287.68125,205.576339 C286.155804,207.954241 284.585491,210.107813 283.060045,212.126786 C282.611384,212.710045 282.207589,213.248438 281.758929,213.78683 C281.17567,213.472768 280.637277,213.068973 280.054018,212.710045 C282.297321,210.332143 284.181696,207.595313 285.482813,205.576339 L287.68125,205.576339 L287.68125,205.576339 Z" id="路径" fill="#FFB797" fill-rule="nonzero"></path>
                        <rect id="矩形" fill="#991C00" fill-rule="nonzero" x="205.935268" y="154.025223" width="1.07678571" height="103.954687"></rect>
                        <g id="编组" transform="translate(226.125000, 156.582589)">
                            <path d="M66.8055804,49.9359375 L0.269196429,49.9359375 L9.7359375,1.92924107 C9.91540179,0.9421875 10.8127232,0.224330357 11.7997768,0.224330357 L76.3171875,0.224330357 C77.3939732,0.224330357 78.2015625,1.21138393 77.9772321,2.24330357 L68.9142857,48.1412946 C68.7796875,49.1732143 67.8375,49.9359375 66.8055804,49.9359375 Z" id="路径" fill="#18004C" fill-rule="nonzero"></path>
                            <path d="M67.8823661,42.2638393 L67.0747768,46.4363839 C66.8953125,47.4234375 66.0428571,48.0964286 65.0558036,48.0964286 L59.04375,48.0964286" id="路径" stroke="#ACD3FE" stroke-width="1.3983" stroke-linecap="round"></path>
                            <path d="M10.9473214,10.2743304 L12.2484375,3.63415179 C12.4279018,2.73683036 13.2354911,2.06383929 14.1776786,2.06383929 L73.9392857,2.06383929 C74.9263393,2.06383929 75.6890625,2.96116071 75.4647321,3.94821429 L74.7917411,7.44776786" id="路径" stroke="#ACD3FE" stroke-width="1.3983" stroke-linecap="round"></path>
                        </g>
                        <polygon id="路径" fill="#FFF5A0" fill-rule="nonzero" points="206.473661 154.025223 206.653125 161.02433 210.287277 159.184821"></polygon>
                        <g id="编组" transform="translate(126.073661, 172.285714)">
                            <path d="M115.036607,29.9256696 C114.54308,30.2397321 113.870089,30.778125 112.972768,31.4511161 L112.972768,31.4511161 C109.877009,33.7841518 104.179018,38.0464286 94.3533482,41.5908482 C92.1549107,42.5330357 89.19375,44.1033482 86.2325893,45.7633929 C81.65625,48.365625 76.9901786,51.1473214 75.0609375,52.134375 C74.8366071,52.2689732 74.6571429,52.3587054 74.5225446,52.4035714 C72.2792411,53.390625 52.3587054,66.2223214 30.2397321,67.2991071 C30.2397321,67.2991071 8.12075893,70.7089286 1.48058036,47.9169643 C-3.00602679,34.1430804 5.60825893,3.54441964 6.72991071,0.269196429 L39.4372768,16.5555804 C39.4372768,16.5555804 39.6616071,29.7462054 34.546875,37.3734375 C34.546875,37.3734375 55.275,34.6814732 75.1058036,32.8419643 C77.7977679,32.5727679 80.4448661,32.3484375 83.0470982,32.1241071 C83.8546875,31.9895089 84.6622768,31.8549107 85.4698661,31.7203125 C86.1877232,31.5857143 86.8607143,31.40625 87.5337054,31.2267857 C91.6165179,30.15 94.6225446,28.6245536 95.2506696,27.5477679 C96.103125,26.0671875 103.191964,11.2613839 104.717411,11.30625 C105.659598,11.5305804 102.922768,21.2665179 102.922768,21.2665179 C102.922768,21.2665179 109.024554,20.8627232 108.710491,15.075 C108.934821,13.2803571 109.383482,11.1267857 110.729464,11.1267857 C111.716518,11.1267857 111.492188,15.6133929 111.492188,15.6133929 C111.492188,15.6133929 112.883036,11.6651786 113.870089,11.7997768 C115.081473,11.934375 114.587946,16.2863839 114.587946,16.5555804 C114.677679,16.33125 116.203125,13.190625 117.279911,13.5944196 C118.446429,14.0430804 117.279911,19.8756696 117.279911,19.8756696 C117.279911,19.8756696 119.612946,17.1388393 120.510268,17.9912946 C121.362723,18.84375 117.190179,28.5796875 115.036607,29.9256696 Z" id="路径" fill="#FFC6A7" fill-rule="nonzero"></path>
                            <path d="M111.80625,16.3761161 C111.80625,16.3761161 112.075446,21.5805804 108.531027,23.4200893" id="路径" stroke="#FB8F5A" stroke-width="1.3983" stroke-linecap="round"></path>
                            <path d="M114.31875,18.1707589 C114.31875,18.1707589 114.09442,22.0741071 110.864062,25.3493304" id="路径" stroke="#FB8F5A" stroke-width="1.3983" stroke-linecap="round"></path>
                            <path d="M116.83125,20.8627232 C116.83125,20.8627232 115.664732,24.9455357 113.421429,26.5158482" id="路径" stroke="#FB8F5A" stroke-width="1.3983" stroke-linecap="round"></path>
                        </g>
                        <path d="M212.261384,218.049107 C212.261384,218.093973 212.261384,218.093973 212.261384,218.049107 C211.453795,218.497768 210.646205,218.946429 209.883482,219.395089 C209.704018,219.529687 209.479688,219.61942 209.300223,219.754018 C207.595313,220.741071 205.935268,221.683259 204.54442,222.490848 C204.454688,222.535714 204.364955,222.58058 204.275223,222.670312 C204.050893,222.804911 203.871429,222.894643 203.647098,223.029241 C203.602232,223.029241 203.602232,223.074107 203.557366,223.074107 C203.422768,223.118973 203.333036,223.208705 203.198438,223.253571 C202.929241,223.38817 202.704911,223.522768 202.48058,223.657366 C202.301116,223.747098 202.166518,223.83683 201.987054,223.926562 C201.672991,224.106027 201.358929,224.285491 201.134598,224.375223 C200.910268,224.509821 200.730804,224.599554 200.596205,224.64442 C198.352902,225.631473 178.432366,238.46317 156.313393,239.539955 C156.313393,239.539955 137.649107,242.411384 129.438616,225.182813 C128.720759,223.657366 128.092634,221.997321 127.554241,220.157812 C123.067634,206.383929 131.68192,175.785268 132.803571,172.510045 L165.510938,188.796429 C165.510938,188.796429 165.735268,201.987054 160.620536,209.614286 C160.620536,209.614286 181.348661,206.922321 201.179464,205.082812 C203.871429,204.813616 206.518527,204.589286 209.120759,204.364955 C209.928348,204.230357 210.735938,204.095759 211.543527,203.961161 L212.126786,214.370089 L212.261384,218.049107 Z" id="路径" fill="#E75B37" fill-rule="nonzero"></path>
                        <path d="M239.001563,203.73683 L239.001563,203.73683 C235.905804,206.069866 230.207813,210.332143 220.382143,213.876562 C218.183705,214.81875 215.222545,216.389062 212.261384,218.049107 L211.453795,203.961161 C212.171652,203.826562 212.844643,203.647098 213.517634,203.467634 L214.145759,214.459821 C214.190625,214.504687 233.124107,207.864509 239.001563,203.73683 Z" id="路径" fill="#FFB797" fill-rule="nonzero"></path>
                        <circle id="椭圆形" fill="#F5F5F6" fill-rule="nonzero" cx="268.074777" cy="181.662723" r="3.4546875"></circle>
                        <path d="M186.104464,87.9823661 C186.104464,87.8029018 185.207143,72.0997768 194.359821,65.2801339 L194.539286,65.5493304 C185.521205,72.234375 186.373661,87.8029018 186.373661,87.9375 L186.104464,87.9823661 Z" id="路径" fill="#AE5700" fill-rule="nonzero"></path>
                        <path d="M188.616963,88.2964286 C188.616963,88.1169643 188.572098,69.3629464 202.929241,66.1774554 C204.095759,66.0428571 206.294196,66.0877232 208.223437,67.5683036 C210.107812,68.9591518 211.27433,71.3370536 211.767857,74.5674107 C212.261384,73.7149554 213.697098,71.8305804 216.658259,71.2921875 C218.497768,70.978125 220.337277,72.0997768 220.830804,73.8944196 C221.638393,76.7209821 220.471875,81.3870536 218.183705,84.7071429 L217.914509,84.5276786 C220.157812,81.2524554 221.279464,76.6761161 220.516741,73.9392857 C220.06808,72.3241071 218.36317,71.2921875 216.703125,71.5613839 C212.979241,72.1895089 211.812723,75.0609375 211.812723,75.0609375 L211.588393,75.6441964 L211.498661,75.0609375 C210.421875,66.6261161 205.172545,66.2223214 202.929241,66.4466518 C188.841295,69.5424107 188.886161,88.0720982 188.886161,88.2515625 L188.616963,88.2964286 Z" id="路径" fill="#AE5700" fill-rule="nonzero"></path>
                        <path d="M192.654911,87.1747768 L192.340848,87.1747768 C192.340848,87.0401786 193.148437,74.5225446 200.77567,71.1575893 C204.006027,69.7667411 206.608259,69.5872768 208.492634,70.7089286 C210.197545,71.6959821 210.915402,73.5354911 211.05,74.7917411 L210.735937,74.8366071 C210.646205,73.6700893 209.928348,71.9203125 208.358036,70.978125 C206.563393,69.9013393 204.050893,70.0808036 200.910268,71.4267857 C193.4625,74.7020089 192.654911,87.0401786 192.654911,87.1747768 Z" id="路径" fill="#AE5700" fill-rule="nonzero"></path>
                        <path d="M195.885268,82.7330357 L195.616071,82.5984375 C195.795536,82.2395089 199.788616,73.9392857 204.76875,73.0419643 C206.428795,72.7279018 207.954241,73.3111607 209.389955,74.7020089 L209.165625,74.9263393 C207.819643,73.6252232 206.339062,73.0868304 204.813616,73.3560268 C200.012946,74.2084821 195.930134,82.6433036 195.885268,82.7330357 Z" id="路径" fill="#AE5700" fill-rule="nonzero"></path>
                        <path d="M216.568527,79.4578125 L216.29933,79.3232143 C217.690179,76.2723214 217.420982,75.4198661 217.10692,75.1955357 C216.433929,74.6571429 214.504688,75.8685268 213.78683,76.3620536 L213.607366,76.0928571 C213.876563,75.8685268 216.344196,74.11875 217.286384,74.9263393 C217.959375,75.5095982 217.690179,76.9901786 216.568527,79.4578125 Z" id="路径" fill="#AE5700" fill-rule="nonzero"></path>
                        <path d="M218.093973,113.690625 C218.049107,113.780357 217.959375,113.870089 217.914509,113.959821 C217.196652,114.946875 216.344196,116.023661 215.312277,117.05558 C214.998214,117.414509 214.639286,117.504241 214.280357,117.86317 C214.280357,117.86317 214.190625,119.164286 214.145759,119.612946 C214.100893,120.914062 214.145759,122.88817 214.59442,124.862277 C214.908482,126.208259 215.402009,127.599107 216.164732,128.720759 C216.478795,129.16942 216.837723,129.61808 217.286384,129.977009 C215.04308,131.278125 213.248438,132.085714 213.248438,132.085714 L206.204464,150.032143 L203.826563,145.994196 L194.808482,130.784598 C192.385714,129.752679 190.321875,128.765625 188.616964,127.868304 C188.931027,127.015848 190.501339,122.843304 191.578125,118.984821 C192.20625,116.786384 192.654911,114.722545 192.699777,113.376562 C192.744643,109.428348 193.4625,102.833036 188.572098,100.948661 C183.995759,99.1988839 180.9,93.0970982 184.803348,88.7899554 C185.431473,88.0720982 186.283929,87.5337054 187.18125,87.3542411 C190.95,86.6363839 192.116518,91.9305804 192.475446,97.7183036 C192.520313,98.3912946 192.520313,99.9616071 192.520313,100.72433 C192.520313,100.858929 192.520313,100.993527 192.520313,101.128125 L194.180357,98.3912946 C194.180357,98.3912946 194.090625,97.8080357 194.000893,96.5966518 C193.911161,95.6095982 193.68683,94.2636161 193.641964,92.7381696 C193.552232,90.0462054 193.866295,86.8607143 196.019866,84.8417411 C200.596205,80.5345982 200.685938,79.3680804 202.211384,77.7977679 C204.095759,75.8685268 209.748884,71.7857143 215.04308,77.4837054 C216.747991,79.3232143 217.824777,81.6113839 218.273438,84.0341518 C218.497768,85.3352679 218.766964,87.0401786 218.946429,89.1040179 C219.036161,90.0013393 219.081027,90.9435268 219.125893,91.9754464 C219.260491,95.1609375 220.741071,98.4361607 221.234598,102.115179 C221.279464,102.339509 221.279464,102.563839 221.32433,102.78817 C221.503795,106.018527 220.965402,109.562946 218.093973,113.690625 Z" id="路径" fill="#F7D2C2" fill-rule="nonzero"></path>
                        <path d="M218.81183,89.1040179 C217.869643,83.3611607 214.011161,77.3491071 210.377009,76.9004464 C204.589286,76.1825893 198.577232,83.6303571 198.577232,83.6303571 C196.154464,85.2455357 194.49442,90.2705357 193.552232,92.6933036 C193.4625,90.0013393 193.776563,86.8158482 195.930134,84.796875 C200.506473,80.4897321 200.596205,79.3232143 202.121652,77.7529018 C204.006027,75.8236607 209.659152,71.7408482 214.953348,77.4388393 C216.658259,79.2783482 217.735045,81.5665179 218.183705,83.9892857 C218.408036,85.2904018 218.677232,86.9953125 218.81183,89.1040179 Z" id="路径" fill="#FCB09C" fill-rule="nonzero"></path>
                        <path d="M213.5625,84.796875 C213.5625,84.796875 217.017188,84.1238839 217.779911,85.2006696 L217.779911,86.3671875 C217.779911,86.3671875 216.030134,85.2006696 213.741964,85.6941964 L213.5625,84.796875 Z" id="路径" fill="#481701" fill-rule="nonzero"></path>
                        <path d="M200.461607,98.9745536 C197.320982,98.9745536 194.71875,96.6415179 194.404687,93.5008929 L193.911161,88.5207589 C193.911161,88.4310268 193.911161,88.3412946 194.000893,88.2964286 C194.045759,88.2515625 194.135491,88.2066964 194.225223,88.2066964 L206.697991,88.2066964 C206.787723,88.2066964 206.877455,88.2515625 206.922321,88.2964286 C206.967187,88.3412946 207.012054,88.4310268 207.012054,88.5207589 L206.518527,93.5008929 C206.204464,96.5966518 203.602232,98.9745536 200.461607,98.9745536 Z M194.584152,88.7899554 L195.077679,93.4111607 C195.346875,96.1928571 197.679911,98.3015625 200.506473,98.3015625 C203.333036,98.3015625 205.621205,96.1928571 205.935268,93.4111607 L206.428795,88.7899554 L194.584152,88.7899554 Z" id="形状" fill="#481701" fill-rule="nonzero"></path>
                        <path d="M216.613393,97.6285714 C213.876562,97.6285714 211.588393,95.5647321 211.319196,92.8279018 L210.870536,88.5207589 C210.870536,88.4310268 210.870536,88.3412946 210.960268,88.2964286 C211.005134,88.2515625 211.094866,88.2066964 211.184598,88.2066964 L222.042188,88.2066964 C222.13192,88.2066964 222.221652,88.2515625 222.266518,88.2964286 C222.311384,88.3412946 222.35625,88.4310268 222.35625,88.5207589 L221.907589,92.8279018 C221.638393,95.5647321 219.350223,97.6285714 216.613393,97.6285714 Z M211.543527,88.7899554 L211.947321,92.7830357 C212.171652,95.2058036 214.190625,97.0004464 216.613393,97.0004464 C219.036161,97.0004464 221.055134,95.2058036 221.279464,92.7830357 L221.683259,88.7899554 L211.543527,88.7899554 Z" id="形状" fill="#481701" fill-rule="nonzero"></path>
                        <path d="M208.76183,101.75625 C208.178571,101.75625 207.685045,101.666518 207.640179,101.666518 C207.370982,101.621652 207.236384,101.352455 207.28125,101.128125 C207.326116,100.903795 207.595313,100.72433 207.819643,100.769196 C207.864509,100.769196 210.242411,101.217857 211.005134,99.9167411 C211.408929,99.1988839 209.838616,93.7252232 208.088839,89.0591518 C207.999107,88.8348214 208.133705,88.565625 208.358036,88.4758929 C208.582366,88.3861607 208.851563,88.5207589 208.941295,88.7450893 C209.838616,91.1229911 212.620313,98.9745536 211.767857,100.410268 C211.139732,101.53192 209.748884,101.75625 208.76183,101.75625 Z" id="路径" fill="#FB8D54" fill-rule="nonzero"></path>
                        <rect id="矩形" fill="#481701" fill-rule="nonzero" x="206.653125" y="90.0462054" width="4.75580357" height="1"></rect>
                        <path d="M214.145759,119.56808 C214.100893,120.869196 214.145759,122.843304 214.59442,124.817411 C202.570312,125.131473 197.993973,116.651786 197.993973,116.651786 L217.914509,113.914955 C217.196652,114.902009 216.344196,115.978795 215.312277,117.010714 C214.998214,117.369643 214.639286,117.459375 214.280357,117.818304 C214.280357,117.86317 214.145759,119.164286 214.145759,119.56808 Z" id="路径" fill="#FFB69F" fill-rule="nonzero"></path>
                        <path d="M218.093973,113.690625 C218.049107,113.780357 217.959375,113.870089 217.914509,113.959821 C217.151786,114.991741 216.29933,116.023661 215.312277,117.05558 C215.312277,117.05558 215.312277,117.05558 215.312277,117.05558 C214.639286,117.773438 213.741964,118.222098 212.754911,118.31183 C209.704018,118.715625 202.839509,118.939955 197.993973,116.60692 C191.847321,113.690625 192.43058,106.108259 192.475446,101.53192 C192.475446,101.352455 192.475446,101.172991 192.475446,100.993527 C192.475446,100.858929 192.475446,100.72433 192.475446,100.589732 C192.475446,98.6604911 192.475446,97.3145089 192.475446,97.3145089 L194.090625,98.2566964 C194.539286,106.512054 198.218304,105.794196 202.03192,105.345536 C207.05692,104.807143 208.76183,101.038393 211.902455,101.128125 C213.876563,101.172991 215.985268,102.967634 218.632366,102.78817 C219.395089,102.743304 220.292411,102.384375 221.055134,102.025446 C221.1,102.249777 221.1,102.474107 221.144866,102.698438 C221.503795,106.018527 220.965402,109.562946 218.093973,113.690625 Z" id="路径" fill="#883D00" fill-rule="nonzero"></path>
                        <path d="M208.088839,105.614732 C208.088839,105.614732 208.582366,113.600893 214.639286,107.588839 C214.639286,107.588839 209.883482,107.319643 208.088839,105.614732 Z" id="路径" fill="#FFFFFF" fill-rule="nonzero"></path>
                        <path d="M201.897321,93.3214286 C201.897321,93.3662946 201.897321,93.4560268 201.897321,93.5008929 C201.852455,94.9814732 201.22433,96.1479911 200.506473,96.1479911 C199.788616,96.1479911 199.160491,94.9814732 199.115625,93.5457589 C199.115625,93.5008929 199.115625,93.4111607 199.115625,93.3662946 C199.115625,91.8408482 199.74375,90.5845982 200.506473,90.5845982 C201.269196,90.5845982 201.897321,91.7511161 201.897321,93.3214286 Z" id="路径" fill="#FEFBDF" fill-rule="nonzero"></path>
                        <path d="M201.897321,93.5008929 C201.852455,94.9814732 201.22433,96.1479911 200.506473,96.1479911 C199.788616,96.1479911 199.160491,94.9814732 199.115625,93.5457589 C199.429688,92.8279018 199.923214,92.334375 200.506473,92.334375 C201.044866,92.2895089 201.583259,92.7381696 201.897321,93.5008929 Z" id="路径" fill="#2A0D03" fill-rule="nonzero"></path>
                        <path d="M217.869643,92.8279018 C217.869643,92.8727679 217.869643,92.9176339 217.869643,92.9625 C217.824777,94.1290179 217.33125,95.0263393 216.747991,95.0263393 C216.164732,95.0263393 215.671205,94.1290179 215.626339,92.9625 C215.626339,92.9176339 215.626339,92.8727679 215.626339,92.8279018 C215.626339,91.6165179 216.119866,90.6294643 216.747991,90.6294643 C217.376116,90.6294643 217.869643,91.6165179 217.869643,92.8279018 Z" id="路径" fill="#FEFBDF" fill-rule="nonzero"></path>
                        <path d="M217.869643,92.9625 C217.824777,94.1290179 217.33125,95.0263393 216.747991,95.0263393 C216.164732,95.0263393 215.671205,94.1290179 215.626339,92.9625 C215.85067,92.3792411 216.254464,92.0203125 216.747991,92.0203125 C217.241518,92.0203125 217.645313,92.3792411 217.869643,92.9625 Z" id="路径" fill="#2A0D03" fill-rule="nonzero"></path>
                        <path d="M189.738616,98.0323661 C189.514286,98.0323661 189.334821,97.8977679 189.289955,97.6734375 C189.245089,97.5388393 188.4375,94.2636161 185.566071,94.21875 C185.296875,94.21875 185.117411,93.9944196 185.117411,93.7252232 C185.117411,93.4560268 185.341741,93.2316964 185.610938,93.2765625 C187.360714,93.3214286 188.482366,94.3084821 189.200223,95.2955357 C188.66183,92.0203125 186.418527,91.3024554 186.283929,91.2575893 C186.014732,91.1678571 185.880134,90.9435268 185.969866,90.6743304 C186.059598,90.4051339 186.283929,90.2705357 186.553125,90.3602679 C186.732589,90.4051339 190.591071,91.5716518 190.232143,97.5837054 C190.187277,97.8080357 190.007812,98.0323661 189.738616,98.0323661 C189.783482,98.0323661 189.738616,98.0323661 189.738616,98.0323661 Z" id="路径" fill="#FFB69F" fill-rule="nonzero"></path>
                        <path d="M211.678125,75.1955357 C210.511607,75.3301339 209.345089,75.5993304 208.178571,75.9582589 C207.05692,76.3171875 205.980134,76.7209821 204.948214,77.3491071 C204.454687,77.6631696 203.961161,77.9772321 203.5125,78.3361607 C203.063839,78.6950893 202.615179,79.0988839 202.211384,79.5026786 C201.358929,80.3551339 200.641071,81.2524554 199.923214,82.2395089 L199.833482,82.1946429 C200.327009,81.0729911 201,80.0410714 201.762723,79.0988839 C202.570312,78.1566964 203.5125,77.3491071 204.54442,76.6761161 C205.621205,76.003125 206.787723,75.5544643 207.999107,75.2852679 C209.210491,75.0160714 210.421875,74.8814732 211.678125,74.9712054 L211.678125,75.1955357 Z" id="路径" fill="#B25B1C" fill-rule="nonzero"></path>
                        <path d="M196.154464,86.8607143 L197.410714,85.0660714 C197.410714,85.0660714 202.615179,83.6752232 204.54442,84.5276786 L204.54442,85.5595982 C204.589286,85.5147321 197.949107,85.7390625 196.154464,86.8607143 Z" id="路径" fill="#481701" fill-rule="nonzero"></path>
                        <path d="M217.286384,129.932143 C215.04308,131.233259 213.248437,132.040848 213.248437,132.040848 L206.204464,149.987277 L203.826562,145.94933 L211.722991,130.919196 L216.209598,128.675893 C216.523661,129.16942 216.882589,129.573214 217.286384,129.932143 Z" id="路径" fill="#FFB69F" fill-rule="nonzero"></path>
                        <path d="M174.349554,207.954241 C174.349554,207.954241 176.637723,212.979241 211.722991,207.954241 L211.498661,204.006027 L174.349554,207.954241 Z" id="路径" fill="#E97121" fill-rule="nonzero"></path>
                        <path d="M212.261384,218.093973 C211.453795,218.542634 210.691071,218.991295 209.883482,219.439955 C209.704018,219.574554 209.479688,219.664286 209.300223,219.798884 C207.595313,220.785938 205.935268,221.728125 204.54442,222.535714 C204.454688,222.58058 204.364955,222.625446 204.275223,222.715179 C204.050893,222.849777 203.871429,222.939509 203.647098,223.074107 C203.602232,223.074107 203.602232,223.118973 203.557366,223.118973 C203.422768,223.163839 203.333036,223.253571 203.198438,223.298438 C202.929241,223.433036 202.704911,223.567634 202.48058,223.702232 C202.301116,223.791964 202.166518,223.881696 201.987054,223.971429 C201.672991,224.150893 201.358929,224.330357 201.134598,224.420089 C200.910268,224.554688 200.730804,224.64442 200.596205,224.689286 C198.352902,225.676339 178.432366,238.508036 156.313393,239.584821 C156.313393,239.584821 137.649107,242.45625 129.438616,225.227679 C174.214955,238.6875 212.08192,214.370089 212.08192,214.370089 L212.261384,218.093973 Z" id="路径" fill="#CB3914" fill-rule="nonzero"></path>
                        <path d="M126.65692,208.088839 C127.419643,191.892187 132.893304,172.061384 132.893304,172.061384 C141.73192,143.616295 156.672321,135.002009 171.119196,131.816518 C173.452232,131.322991 175.65067,130.87433 177.490216,130.560268 C177.535045,130.605134 137.424777,135.540402 126.65692,208.088839 Z" id="路径" fill="#EA781F" fill-rule="nonzero"></path>
                        <rect id="矩形" fill="#FFF5A0" fill-rule="nonzero" x="217.196652" y="149.71808" width="20.1897321" height="5.653125"></rect>
                        <text id="CECP" fill="#E75B37" font-family="Helvetica" font-size="10.2457592" font-weight="normal">
                            <tspan x="220.545141" y="160.936872">C</tspan>
                            <tspan x="220.545141" y="174.976895">E</tspan>
                            <tspan x="220.545141" y="189.016917">C</tspan>
                            <tspan x="220.545141" y="203.05694">P</tspan>
                        </text>
                        <path d="M236.444196,282.028125 L146.98125,282.028125 C145.590402,262.33192 151.871652,247.615848 151.871652,247.615848 C156.851786,249.589955 161.787054,251.205134 166.542857,252.551116 C166.767187,252.595982 166.946652,252.640848 167.126116,252.73058 C168.023437,252.954911 168.920759,253.224107 169.81808,253.448437 C170.042411,253.493304 170.221875,253.53817 170.446205,253.583036 C171.253795,253.7625 172.016518,253.941964 172.824107,254.121429 C173.048437,254.166295 173.227902,254.211161 173.452232,254.256027 C211.767857,262.690848 240.078348,251.653795 240.078348,251.653795 C241.648661,258.114509 236.444196,282.028125 236.444196,282.028125 Z" id="路径" fill="#1B1B25" fill-rule="nonzero"></path>
                        <path d="M167.170982,252.685714 C166.318527,255.826339 161.472991,273.907366 160.755134,282.028125 L160.127009,282.028125 C160.844866,273.8625 165.690402,255.736607 166.587723,252.551116 C166.767188,252.595982 166.946652,252.640848 167.170982,252.685714 Z" id="路径" fill="#FFFFFF" fill-rule="nonzero"></path>
                        <path d="M170.446205,253.53817 C169.234821,257.396652 164.389286,273.503571 163.716295,282.028125 L163.08817,282.028125 C163.761161,273.503571 168.606696,257.351786 169.862946,253.403571 C170.042411,253.448437 170.266741,253.493304 170.446205,253.53817 Z" id="路径" fill="#FFFFFF" fill-rule="nonzero"></path>
                        <path d="M173.452232,254.256027 C172.465179,257.53125 167.08125,276.105804 166.677455,282.028125 L166.04933,282.028125 C166.453125,275.881473 171.792188,257.576116 172.824107,254.121429 C173.048438,254.166295 173.227902,254.211161 173.452232,254.256027 Z" id="路径" fill="#FFFFFF" fill-rule="nonzero"></path>
                        <polygon id="路径" fill="#481701" fill-rule="nonzero" points="190.501339 88.8796875 194.49442 89.5975446 194.629018 90.9883929 191.084598 90.0462054"></polygon>
                        <path d="M410.56942,95.2058036 C410.56942,95.2058036 403.660045,85.6941964 413.216518,77.259375 C413.216518,77.259375 417.344196,72.7279018 429.547768,74.0738839 L432.553795,74.4776786 C434.752232,74.7917411 436.905804,75.4647321 438.924777,76.4966518 C442.2,78.1566964 446.552009,81.2973214 449.468304,86.8607143 C454.179241,95.9236607 451.935938,103.685491 451.21808,105.74933 C451.083482,106.153125 450.99375,106.601786 450.99375,107.050446 C451.038616,109.697545 451.980804,118.491295 463.242188,122.08058 C470.375893,124.996875 483.88058,138.950223 471.138616,145.545536 C466.248214,146.622321 407.114732,141.148661 407.114732,141.148661 C407.114732,141.148661 403.03192,130.694866 405.99308,123.875223 C408.954241,117.05558 412.543527,112.434375 411.691071,104.313616 C410.973214,102.698437 410.704018,100.72433 410.704018,100.72433 C410.704018,100.72433 410.075893,97.0004464 410.838616,95.8787946 L410.56942,95.2058036 Z" id="路径" fill="#251A6B" fill-rule="nonzero"></path>
                        <path d="M480.201563,121.990848 C480.066964,121.990848 479.977232,121.945982 479.8875,121.85625 C475.580357,117.952902 470.510491,116.113393 464.722768,116.427455 C464.318973,116.427455 463.960045,116.472321 463.601116,116.562054 C462.703795,116.696652 461.761607,116.786384 459.832366,116.517187 C450.589955,115.216071 450.948884,102.833036 450.948884,102.698437 C450.948884,102.429241 451.173214,102.249777 451.442411,102.249777 C451.711607,102.249777 451.891071,102.474107 451.891071,102.743304 C451.891071,102.877902 451.577009,114.408482 459.966964,115.619866 C461.761607,115.889062 462.569196,115.754464 463.466518,115.619866 C463.825446,115.575 464.229241,115.530134 464.677902,115.485268 C470.734821,115.171205 476.073884,117.100446 480.560491,121.138393 C480.739955,121.317857 480.784821,121.63192 480.605357,121.811384 C480.470759,121.945982 480.336161,121.990848 480.201563,121.990848 Z" id="路径" fill="#251A6B" fill-rule="nonzero"></path>
                        <path d="M477.105804,135.226339 C476.881473,135.226339 476.657143,135.046875 476.657143,134.822545 C475.176562,121.452455 466.427679,120.510268 460.595089,119.882143 C454.7625,119.11942 450.99375,113.376562 450.814286,113.107366 C450.679688,112.883036 450.724554,112.613839 450.948884,112.479241 C451.173214,112.344643 451.442411,112.389509 451.577009,112.613839 C451.621875,112.658705 455.256027,118.222098 460.639955,118.939955 C466.382812,119.56808 475.939286,120.6 477.509598,134.687946 C477.554464,134.957143 477.330134,135.181473 477.105804,135.226339 C477.15067,135.226339 477.15067,135.226339 477.105804,135.226339 Z" id="路径" fill="#251A6B" fill-rule="nonzero"></path>
                        <path d="M442.020536,127.599107 C442.020536,127.599107 439.283705,136.078795 430.131027,137.290179 C420.978348,138.501562 421.651339,127.778571 421.651339,127.778571 C421.651339,127.778571 422.414063,127.150446 423.087054,126.118527 C423.35625,125.714732 423.625446,125.266071 423.849777,124.772545 C424.567634,123.022768 424.208705,121.048661 424.208705,121.003795 L426.09308,120.285937 L430.983482,118.491295 L439.732366,112.703571 C439.732366,112.703571 439.238839,116.741518 439.283705,119.882143 C439.283705,123.875223 440.450223,123.920089 440.629688,124.189286 C441.257813,125.310937 440.94375,127.419643 442.020536,127.599107 Z" id="路径" fill="#F6C7C1" fill-rule="nonzero"></path>
                        <path d="M437.713393,116.517188 C435.335491,123.606027 425.913616,125.625 423.042188,126.073661 C423.311384,125.669866 423.58058,125.221205 423.804911,124.727679 C424.522768,122.977902 424.163839,121.003795 424.163839,120.958929 L426.048214,120.241071 L437.713393,116.517188 Z" id="路径" fill="#F09087" fill-rule="nonzero"></path>
                        <path d="M448.526116,102.922768 C447.942857,109.473214 442.065402,108.575893 442.065402,108.575893 C435.425223,125.310937 425.86875,122.125446 425.86875,122.125446 C413.08192,118.222098 412.947321,100.365402 413.171652,95.6544643 C413.216518,94.9366071 413.261384,94.4879464 413.261384,94.4879464 C415.100893,86.5017857 419.228571,83.9892857 419.228571,83.9892857 C419.228571,83.9892857 421.337277,87.9375 427.573661,89.3283482 C430.89375,90.0462054 433.092188,91.4819196 434.393304,92.6484375 C435.290625,93.4560268 435.91875,94.4879464 436.322545,95.6544643 C436.681473,96.7761161 437.264732,97.7631696 437.937723,98.6604911 C438.117188,98.8848214 438.296652,99.1091518 438.520982,99.3334821 C439.777232,100.634598 440.988616,100.27567 440.988616,100.27567 C441.616741,97.4042411 448.885045,97.0453125 448.526116,102.922768 Z" id="路径" fill="#F6C7C1" fill-rule="nonzero"></path>
                        <polygon id="路径" fill="#FFC8B0" fill-rule="nonzero" points="443.994643 101.621652 444.084375 103.820089 442.42433 103.147098"></polygon>
                        <path d="M444.218973,104.26875 C444.174107,104.26875 444.084375,104.26875 444.039509,104.223884 L442.155134,103.371429 C442.020536,103.326563 441.930804,103.191964 441.885937,103.057366 C441.841071,102.922768 441.885937,102.743304 442.020536,102.653571 L443.725446,100.814063 C443.904911,100.634598 444.218973,100.634598 444.398437,100.814063 C444.577902,100.993527 444.577902,101.307589 444.398437,101.487054 L443.142187,102.833036 L444.398437,103.416295 C444.622768,103.506027 444.757366,103.820089 444.622768,104.04442 C444.533036,104.179018 444.398438,104.26875 444.218973,104.26875 Z" id="路径" fill="#FB744C" fill-rule="nonzero"></path>
                        <path d="M413.53058,98.1220982 C413.53058,98.1220982 414.113839,96.8658482 415.370089,96.73125 C416.581473,96.5966518 416.805804,97.4042411 416.805804,97.4042411 C416.805804,97.4042411 417.075,98.1220982 415.325223,98.1669643 C413.53058,98.2118304 413.53058,98.1220982 413.53058,98.1220982 Z" id="路径" fill="#292F37" fill-rule="nonzero"></path>
                        <path d="M431.342411,95.8787946 C431.252679,95.8787946 431.162946,95.8787946 431.073214,95.8339286 C429.143973,94.9814732 427.618527,95.7890625 427.618527,95.7890625 C427.304464,95.9685268 426.945536,95.8339286 426.766071,95.5198661 C426.586607,95.2058036 426.721205,94.846875 427.035268,94.6674107 C427.125,94.6225446 429.099107,93.590625 431.611607,94.6674107 C431.92567,94.8020089 432.060268,95.1609375 431.92567,95.475 C431.791071,95.7441964 431.566741,95.8787946 431.342411,95.8787946 Z" id="路径" fill="#292F37" fill-rule="nonzero"></path>
                        <path d="M417.344196,105.345536 L417.344196,105.345536 C416.805804,105.435268 416.357143,105.076339 416.267411,104.537946 L415.908482,102.070313 C415.81875,101.53192 416.177679,101.038393 416.716071,100.993527 L416.716071,100.993527 C417.254464,100.903795 417.703125,101.262723 417.792857,101.801116 L418.151786,104.26875 C418.241518,104.762277 417.882589,105.255804 417.344196,105.345536 Z" id="路径" fill="#30353D" fill-rule="nonzero"></path>
                        <path d="M428.740179,104.089286 L428.740179,104.089286 C428.112054,104.134152 427.573661,103.640625 427.528795,103.0125 L427.34933,100.320536 C427.304464,99.6924107 427.797991,99.1540179 428.426116,99.1091518 L428.426116,99.1091518 C429.054241,99.0642857 429.592634,99.5578125 429.6375,100.185938 L429.816964,102.877902 C429.86183,103.506027 429.368304,104.04442 428.740179,104.089286 Z" id="路径" fill="#30353D" fill-rule="nonzero"></path>
                        <path d="M422.189732,109.607812 C421.427009,109.607812 420.84375,109.338616 420.439955,108.845089 C419.004241,106.960714 421.023214,102.384375 421.247545,101.845982 C421.337277,101.621652 421.651339,101.487054 421.87567,101.621652 C422.1,101.711384 422.234598,102.025446 422.1,102.249777 C421.292411,103.999554 420.350223,107.229911 421.157813,108.26183 C421.247545,108.396429 421.561607,108.800223 422.728125,108.620759 C422.997321,108.575893 423.221652,108.755357 423.266518,109.024554 C423.311384,109.29375 423.13192,109.51808 422.862723,109.562946 C422.638393,109.607812 422.414062,109.607812 422.189732,109.607812 Z" id="路径" fill="#EF8078" fill-rule="nonzero"></path>
                        <ellipse id="椭圆形" fill="#FFB7A6" fill-rule="nonzero" transform="translate(414.883788, 107.187584) rotate(-1.185302) translate(-414.883788, -107.187584) " cx="414.883788" cy="107.187584" rx="1.74980125" ry="1.79466795"></ellipse>
                        <ellipse id="椭圆形" fill="#FFB7A6" fill-rule="nonzero" transform="translate(434.239572, 105.083698) rotate(-3.752088) translate(-434.239572, -105.083698) " cx="434.239572" cy="105.083698" rx="2.24340128" ry="1.83958905"></ellipse>
                        <path d="M430.983482,112.389509 C430.714286,114.363616 429.682366,116.60692 426.586607,117.369643 C424.118973,117.952902 422.548661,115.754464 421.696205,114.049554 C421.202679,113.0625 420.978348,112.254911 420.978348,112.254911 L430.89375,109.248884 C430.89375,109.204018 431.207812,110.684598 430.983482,112.389509 Z" id="路径" fill="#FFFFFF" fill-rule="nonzero"></path>
                        <path d="M430.983482,112.389509 C430.714286,114.363616 429.682366,116.60692 426.586607,117.369643 C424.118973,117.952902 422.548661,115.754464 421.696205,114.049554 L430.983482,112.389509 Z" id="路径" fill="#F73944" fill-rule="nonzero"></path>
                        <path d="M414.831696,108.710491 C414.78683,108.710491 414.697098,108.710491 414.652232,108.710491 C411.511607,108.575893 409.178571,106.467187 408.909375,103.595759 C408.774777,101.890848 409.088839,100.589732 409.851562,99.6924107 C410.704018,98.7053571 412.005134,98.2118304 413.979241,98.0772321 C415.59442,97.9875 417.030134,98.3912946 418.10692,99.2886161 C419.138839,100.141071 419.766964,101.442187 419.856696,102.922768 C419.946429,104.49308 419.36317,106.108259 418.286384,107.229911 C417.344196,108.172098 416.132812,108.710491 414.831696,108.710491 Z M414.517634,98.7053571 C414.383036,98.7053571 414.203571,98.7053571 414.068973,98.7053571 C412.27433,98.8399554 411.107813,99.24375 410.434821,100.096205 C409.76183,100.858929 409.492634,101.98058 409.627232,103.506027 C409.851563,106.108259 411.870536,107.902902 414.697098,107.992634 C415.863616,108.0375 416.940402,107.588839 417.792857,106.691518 C418.779911,105.704464 419.273438,104.26875 419.183705,102.877902 C419.093973,101.576786 418.600446,100.455134 417.658259,99.7372768 C416.895536,99.0642857 415.773884,98.7053571 414.517634,98.7053571 Z" id="形状" fill="#FFFFFF" fill-rule="nonzero"></path>
                        <path d="M429.592634,107.140179 C428.201786,107.140179 426.810938,106.601786 425.734152,105.614732 C424.567634,104.582812 423.849777,103.102232 423.715179,101.576786 C423.625446,100.141071 424.118973,98.7502232 425.061161,97.6734375 C426.09308,96.5069196 427.618527,95.7890625 429.188839,95.6993304 C431.162946,95.5647321 432.822991,96.0582589 433.899777,97.0901786 C434.797098,97.8977679 435.245759,99.0642857 435.245759,100.410268 L435.245759,100.410268 C435.245759,103.461161 433.226786,106.915848 429.86183,107.095312 C429.816964,107.140179 429.727232,107.140179 429.592634,107.140179 Z M429.772098,96.3723214 C429.592634,96.3723214 429.41317,96.3723214 429.233705,96.3723214 C427.797991,96.4620536 426.452009,97.0901786 425.554688,98.1220982 C424.702232,99.0642857 424.298438,100.27567 424.38817,101.53192 C424.477902,102.877902 425.106027,104.179018 426.182813,105.076339 C427.214732,106.018527 428.560714,106.512054 429.906696,106.422321 C432.867857,106.242857 434.6625,103.147098 434.617634,100.410268 L434.617634,100.410268 C434.617634,99.24375 434.213839,98.2566964 433.451116,97.5837054 C432.598661,96.8209821 431.297545,96.3723214 429.772098,96.3723214 Z" id="形状" fill="#FFFFFF" fill-rule="nonzero"></path>
                        <path d="M419.677232,102.429241 L419.183705,101.98058 C419.766964,101.352455 420.574554,100.993527 421.471875,100.903795 L423.804911,100.769196 L423.849777,101.442187 L421.516741,101.576786 C420.798884,101.621652 420.125893,101.935714 419.677232,102.429241 Z" id="路径" fill="#FFFFFF" fill-rule="nonzero"></path>
                        <path d="M479.304241,282.88058 C474.8625,282.970313 462.344866,282.970313 448.526116,282.925446 C448.346652,282.925446 448.167188,282.925446 447.942857,282.925446 C425.554688,282.88058 400.025893,282.790848 400.025893,282.790848 C399.352902,274.580357 402.448661,254.211161 402.897321,250.397545 L402.897321,250.397545 C402.942188,250.038616 402.987054,249.859152 402.987054,249.859152 L403.704911,237.386384 L478.496652,247.032589 L478.63125,249.904018 L478.765848,255.512277 L478.765848,256.185268 L479.304241,282.88058 Z" id="路径" fill="#4D2F22" fill-rule="nonzero"></path>
                        <path d="M478.676116,249.904018 C460.774554,261.344866 416.402009,254.300893 416.402009,254.300893 L415.325223,247.570982 L412.319196,254.121429 L402.942187,250.397545 L402.942187,250.397545 C402.987054,250.038616 402.987054,249.859152 402.987054,249.859152 L403.704911,237.386384 L478.496652,247.032589 L478.676116,249.904018 Z" id="路径" fill="#371C10" fill-rule="nonzero"></path>
                        <path d="M479.304241,237.386384 C478.900446,243.93683 478.496652,247.032589 478.496652,247.032589 C461.582143,256.768527 417.075,253.941964 417.075,253.941964 L415.504687,244.834152 L411.735937,252.685714 L398.904241,247.974777 L402.672991,241.065402 L402.672991,205.307143 C402.672991,205.307143 375.39442,198.397768 374.452232,198.083705 C365.34442,195.257143 355.025223,186.777455 355.025223,186.777455 C355.025223,186.777455 353.858705,185.925 352.243527,184.66875 C351.884598,184.399554 351.52567,184.130357 351.166741,183.816295 L351.166741,183.816295 C350.045089,182.963839 348.788839,181.976786 347.577455,181.034598 C347.577455,181.034598 347.577455,181.034598 347.577455,181.034598 C345.648214,179.509152 343.718973,178.028571 342.552455,177.041518 C339.725893,173.900893 335.957143,173.272768 335.957143,173.272768 C331.560268,173.272768 323.170312,167.574777 320.927009,166.04933 C319.042634,164.79308 321.241071,162.908705 321.241071,162.908705 C319.042634,161.02433 321.555134,159.454018 321.555134,159.454018 C321.241071,155.685268 323.439509,155.685268 323.439509,155.685268 C326.580134,148.775893 334.117634,154.74308 334.117634,154.74308 C334.117634,154.74308 335.373884,150.032143 336.944196,147.519643 C338.514509,145.007143 340.398884,145.94933 340.398884,146.263393 C337.258259,159.723214 343.853571,162.235714 344.481696,163.491964 C348.878571,166.542857 353.095982,168.875893 356.909598,170.62567 C358.704241,171.478125 360.454018,172.195982 362.02433,172.779241 L362.02433,172.779241 C362.293527,172.868973 362.562723,173.003571 362.83192,173.093304 C368.260714,175.112277 371.805134,175.695536 371.805134,175.695536 C391.366741,175.157143 397.244196,159.902679 399.577232,152.813839 C400.115625,151.198661 400.788616,149.628348 401.641071,148.147768 C407.832589,137.200446 411.646205,135.226339 415.773884,132.579241 C416.132812,132.354911 416.491741,132.13058 416.85067,131.861384 C416.895536,131.861384 416.895536,131.816518 416.940402,131.816518 C418.286384,130.919196 421.785938,127.599107 421.785938,127.599107 C421.785938,127.599107 423.35625,131.457589 426.227679,131.816518 C426.362277,131.816518 426.496875,131.861384 426.631473,131.861384 C426.676339,131.861384 426.766071,131.861384 426.810938,131.816518 C431.566741,131.008929 440.71942,124.009821 440.71942,124.009821 L445.699554,125.894196 L445.699554,125.894196 C445.834152,125.939062 445.96875,125.983929 446.103348,126.028795 C459.204241,131.008929 465.261161,137.065848 468.491518,141.283259 C471.362946,145.052009 473.426786,149.314286 474.772768,153.845759 C478.362054,166.004464 479.573438,181.797321 479.573438,183.547098 C480.425893,210.287277 479.8875,227.695313 479.304241,237.386384 Z" id="路径" fill="#F73944" fill-rule="nonzero"></path>
                        <path d="M356.775,170.805134 L355.967411,171.702455 L347.532589,181.12433 C347.442857,181.034598 347.218527,180.9 346.859598,180.67567 C344.43683,179.150223 336.675,174.529018 333.758705,173.452232 C326.490402,170.715402 321.914063,167.036384 320.702679,166.228795 C320.298884,165.959598 320.11942,165.690402 320.029688,165.376339 C319.984821,165.241741 319.984821,165.107143 319.984821,165.017411 C320.029688,164.299554 320.657813,163.581696 320.971875,163.222768 C321.106473,163.08817 321.196205,163.043304 321.196205,163.043304 C321.106473,162.953571 321.016741,162.908705 320.971875,162.818973 C320.971875,162.818973 320.971875,162.818973 320.971875,162.818973 C319.491295,161.338393 320.882143,160.037277 321.37567,159.678348 C321.465402,159.633482 321.510268,159.588616 321.510268,159.588616 C321.510268,159.498884 321.510268,159.454018 321.510268,159.364286 C321.330804,156.492857 322.676786,155.954464 323.215179,155.819866 C323.349777,155.775 323.439509,155.775 323.439509,155.775 C323.439509,155.730134 323.484375,155.685268 323.484375,155.640402 C326.669866,148.955357 334.072768,154.832813 334.072768,154.832813 C334.072768,154.832813 335.329018,150.121875 336.89933,147.609375 C338.469643,145.096875 340.354018,146.039063 340.354018,146.353125 C337.213393,159.812946 343.808705,162.325446 344.43683,163.581696 C348.115848,166.139063 351.660268,168.158036 354.935491,169.81808 C355.51875,170.177009 356.146875,170.491071 356.775,170.805134 L356.775,170.805134 Z" id="路径" fill="#F6C7C1" fill-rule="nonzero"></path>
                        <path d="M334.745759,160.620536 C334.656027,161.02433 334.207366,161.248661 333.399777,161.293527 C333.310045,161.293527 333.175446,161.293527 333.040848,161.293527 C332.995982,161.293527 332.951116,161.293527 332.90625,161.293527 C332.771652,161.293527 332.592188,161.293527 332.457589,161.293527 C326.086607,161.02433 323.574107,156.582589 323.170313,155.819866 C323.304911,155.775 323.394643,155.775 323.394643,155.775 C323.394643,155.730134 323.439509,155.685268 323.439509,155.640402 C323.574107,155.909598 324.157366,157.03125 325.413616,158.152902 C326.714732,159.31942 329.002902,160.8 332.502455,160.934598 C334.117634,161.02433 334.431696,160.665402 334.521429,160.485937 C334.790625,159.31942 329.541295,156.133929 329.002902,155.909598 C328.91317,155.864732 328.868304,155.775 328.91317,155.685268 C328.958036,155.595536 329.047768,155.55067 329.1375,155.595536 C329.1375,155.685268 335.104688,159.050223 334.745759,160.620536 Z" id="路径" fill="#EF958D" fill-rule="nonzero"></path>
                        <path d="M333.579241,163.671429 C333.265179,164.120089 332.68192,164.34442 331.784598,164.34442 C331.694866,164.34442 331.560268,164.34442 331.470536,164.34442 C331.380804,164.34442 331.246205,164.34442 331.156473,164.299554 C330.797545,164.254687 330.39375,164.209821 329.989955,164.120089 C325.054688,163.043304 321.914062,160.216741 321.330804,159.678348 C321.420536,159.633482 321.465402,159.588616 321.465402,159.588616 C321.465402,159.498884 321.465402,159.454018 321.465402,159.364286 C321.510268,159.409152 324.695759,162.639509 330.079688,163.806027 C330.573214,163.895759 330.977009,163.985491 331.380804,163.985491 L331.380804,163.985491 C332.367857,164.075223 333.040848,163.895759 333.354911,163.491964 C333.848437,162.818973 333.265179,161.607589 333.085714,161.293527 C333.040848,161.248661 333.040848,161.203795 333.040848,161.203795 C332.995982,161.114062 333.040848,161.02433 333.085714,160.979464 C333.175446,160.934598 333.265179,160.979464 333.310045,161.02433 C333.310045,161.02433 333.354911,161.114062 333.444643,161.248661 C333.624107,161.787054 334.117634,162.908705 333.579241,163.671429 Z" id="路径" fill="#EF958D" fill-rule="nonzero"></path>
                        <path d="M331.515402,164.164955 C331.515402,164.164955 331.515402,164.209821 331.470536,164.299554 C331.42567,164.56875 331.246205,165.062277 330.752679,165.466071 C330.438616,165.735268 329.989955,165.914732 329.496429,166.004464 C329.406696,166.004464 329.272098,166.04933 329.182366,166.04933 C329.047768,166.04933 328.91317,166.04933 328.733705,166.04933 C328.419643,166.04933 328.10558,166.004464 327.746652,165.959598 C324.33683,165.466071 321.689732,163.716295 320.971875,163.177902 C321.106473,163.043304 321.196205,162.998437 321.196205,162.998437 C321.106473,162.908705 323.843304,165.062277 327.791518,165.645536 C329.047768,165.825 329.989955,165.690402 330.573214,165.196875 C330.977009,164.882812 331.111607,164.479018 331.201339,164.254687 C331.201339,164.164955 331.246205,164.120089 331.246205,164.120089 C331.246205,164.030357 331.291071,163.985491 331.380804,163.985491 L331.380804,163.985491 C331.470536,163.985491 331.515402,164.075223 331.515402,164.164955 Z" id="路径" fill="#EF958D" fill-rule="nonzero"></path>
                        <path d="M446.058482,126.387723 C441.885938,139.44375 427.977455,144.558482 427.977455,144.558482 L426.003348,134.912277 L422.593527,142.135714 C419.228571,140.655134 416.402009,133.566295 415.953348,132.579241 C416.312277,132.354911 416.357143,132.310045 416.716071,132.085714 C416.760938,132.085714 416.760938,132.040848 416.805804,132.040848 C418.151786,131.143527 421.651339,127.823438 421.651339,127.823438 C421.651339,127.823438 423.221652,131.68192 426.09308,132.040848 C426.227679,132.040848 426.362277,132.085714 426.496875,132.085714 C426.541741,132.085714 426.631473,132.085714 426.676339,132.040848 C431.432143,131.233259 440.584821,124.234152 440.584821,124.234152 L445.564955,126.118527 L445.564955,126.118527 C445.699554,126.163393 445.834152,126.208259 445.96875,126.253125 L446.058482,126.387723 Z" id="路径" fill="#D10F22" fill-rule="nonzero"></path>
                        <path d="M328.868304,167.350446 C328.464509,167.619643 327.970982,167.754241 327.297991,167.754241 C325.682813,167.754241 323.260045,166.946652 320.029688,165.331473 C319.984821,165.196875 319.984821,165.062277 319.984821,164.972545 C325.637946,167.799107 327.836384,167.709375 328.688839,167.08125 C329.182366,166.722321 329.227232,166.183929 329.182366,166.04933 C329.182366,166.004464 329.182366,166.004464 329.182366,166.004464 C329.182366,165.914732 329.227232,165.825 329.316964,165.825 C329.406696,165.825 329.496429,165.869866 329.496429,165.959598 C329.496429,165.959598 329.496429,165.959598 329.496429,166.004464 C329.496429,166.183929 329.496429,166.901786 328.868304,167.350446 Z" id="路径" fill="#EF958D" fill-rule="nonzero"></path>
                        <path d="M426.09308,131.951116 L422.1,141.058929 C419.5875,139.488616 417.613393,134.598214 416.671205,132.040848 C416.716071,132.040848 416.716071,131.995982 416.760938,131.995982 C418.10692,131.098661 421.606473,127.778571 421.606473,127.778571 C421.606473,127.778571 423.221652,131.637054 426.09308,131.951116 Z" id="路径" fill="#FFFFFF" fill-rule="nonzero"></path>
                        <path d="M445.609821,126.028795 C440.225893,135.675 428.695312,141.73192 428.695312,141.73192 L426.676339,131.995982 C431.432143,131.188393 440.584821,124.189286 440.584821,124.189286 L445.609821,126.028795 Z" id="路径" fill="#FFFFFF" fill-rule="nonzero"></path>
                        <path d="M361.844866,172.958705 L351.121875,183.906027 L351.121875,183.906027 C350.000223,183.053571 348.743973,182.066518 347.532589,181.12433 L356.775,170.805134 C358.569643,171.612723 360.274554,172.33058 361.844866,172.958705 Z" id="路径" fill="#FFFFFF" fill-rule="nonzero"></path>
                        <path d="M362.652455,173.227902 L352.198661,184.713616 C351.839732,184.44442 351.480804,184.175223 351.121875,183.861161 L361.844866,172.913839 L361.844866,172.913839 C362.114062,173.048437 362.383259,173.13817 362.652455,173.227902 Z" id="路径" fill="#CA472B" fill-rule="nonzero"></path>
                        <path d="M366.869866,185.610938 L370.548884,182.560045 L384.950893,192.968973 L384.008705,194.584152 C384.008705,194.629018 375.887946,193.866295 366.869866,185.610938 Z" id="路径" fill="#FFC756" fill-rule="nonzero"></path>
                        <path d="M418.55558,186.95692 C418.55558,186.95692 418.017188,189.783482 417.254464,193.23817 C417.209598,193.507366 417.119866,193.776562 417.075,194.045759 L407.967187,194.045759 L409.31317,202.749777 L407.697991,202.25625 L381.541071,194.404687 C381.541071,194.404687 374.183036,190.72567 366.60067,181.752455 C366.60067,181.752455 372.657589,179.329687 378.983705,163.222768 C378.938839,163.267634 405.499554,184.354687 418.55558,186.95692 Z" id="路径" fill="#FFEFD2" fill-rule="nonzero"></path>
                        <path d="M382.034598,172.958705 C382.034598,172.958705 377.009598,182.15625 374.856027,184.130357" id="路径" stroke="#FFBF48" stroke-width="1.3974" stroke-linecap="round"></path>
                        <line x1="385.89308" y1="176.189063" x2="379.3875" y2="186.463393" id="路径" stroke="#FFBF48" stroke-width="1.3974" stroke-linecap="round"></line>
                        <line x1="390.155357" y1="178.522098" x2="385.085491" y2="187.495313" id="路径" stroke="#FFBF48" stroke-width="1.3974" stroke-linecap="round"></line>
                        <line x1="394.911161" y1="180.630804" x2="389.123438" y2="192.295982" id="路径" stroke="#FFBF48" stroke-width="1.3974" stroke-linecap="round"></line>
                        <line x1="399.038839" y1="183.008705" x2="394.507366" y2="194.270089" id="路径" stroke="#FFBF48" stroke-width="1.3974" stroke-linecap="round"></line>
                        <line x1="403.884375" y1="184.758482" x2="399.26317" y2="195.122545" id="路径" stroke="#FFBF48" stroke-width="1.3974" stroke-linecap="round"></line>
                        <path d="M402.987054,207.864509 L400.115625,207.012054 L385.085491,202.525446 C375.035491,201.269196 370.997545,194.673884 370.997545,194.673884 C366.914732,188.706696 369.11317,187.450446 369.11317,187.450446 C377.90692,193.731696 379.477232,192.789509 381.047545,192.475446 C382.617857,192.161384 384.18817,190.277009 383.560045,188.078571 C383.15625,186.687723 383.290848,185.655804 383.38058,185.117411 C383.470312,184.758482 383.784375,184.534152 384.143304,184.623884 C384.906027,184.803348 385.534152,185.476339 386.072545,186.194196 C386.431473,186.732589 386.70067,187.270982 386.925,187.899107 C389.21317,194.180357 398.00692,194.045759 401.057812,193.821429 C401.685937,193.776562 402.089732,193.731696 402.089732,193.731696 L402.403795,193.731696 L402.987054,206.787723 L402.987054,207.864509 Z" id="路径" fill="#F6C7C1" fill-rule="nonzero"></path>
                        <polygon id="路径" fill="#FFFFFF" fill-rule="nonzero" points="402.179464 193.283036 403.121652 210.511607 408.146652 211.767857 407.204464 193.283036"></polygon>
                        <path d="M479.393973,181.887054 C476.657143,204.723884 472.888393,213.472768 468.850446,220.696205 C465.306027,226.932589 455.79442,225.362277 453.326786,224.86875 C452.833259,224.779018 452.339732,224.64442 451.846205,224.554687 C435.604688,221.414062 408.191518,210.646205 408.191518,210.646205 L407.742857,202.301116 L407.24933,193.283036 C410.255357,193.417634 413.754911,193.417634 417.29933,193.283036 C428.336384,192.834375 440.091295,191.398661 440.091295,191.398661 C445.520089,190.456473 446.596875,179.374554 446.596875,179.374554 C446.282813,195.032812 441.257813,194.090625 441.257813,194.090625 L408.012054,194.090625 L409.358036,202.794643 L410.524554,210.377009 C457.858259,226.035268 460.684821,221.997321 462.569196,221.683259 C471.004018,220.696205 479.393973,181.887054 479.393973,181.887054 Z" id="路径" fill="#D10F22" fill-rule="nonzero"></path>
                        <path d="M478.765848,255.512277 C478.676116,255.512277 478.586384,255.512277 478.541518,255.602009 C478.003125,256.140402 477.330134,256.589062 476.567411,257.037723 C476.432812,257.127455 476.34308,257.30692 476.432812,257.486384 C476.477679,257.576116 476.612277,257.665848 476.702009,257.665848 C476.746875,257.665848 476.791741,257.665848 476.881473,257.620982 C477.59933,257.217187 478.227455,256.768527 478.765848,256.275 L478.765848,255.512277 Z M474.727902,258.249107 C474.683036,258.069643 474.503571,258.024777 474.324107,258.069643 C473.60625,258.338839 472.798661,258.608036 471.946205,258.7875 C471.766741,258.832366 471.677009,259.01183 471.721875,259.146429 C471.766741,259.281027 471.901339,259.370759 472.035937,259.370759 C472.080804,259.370759 472.080804,259.370759 472.12567,259.370759 C472.978125,259.146429 473.785714,258.877232 474.548438,258.608036 C474.727902,258.56317 474.817634,258.383705 474.727902,258.249107 Z M469.523438,259.281027 C468.087723,259.505357 467.055804,259.550223 467.055804,259.550223 C466.876339,259.550223 466.741741,259.684821 466.741741,259.864286 C466.741741,260.04375 466.876339,260.178348 467.055804,260.178348 L467.055804,260.178348 C467.10067,260.178348 468.087723,260.133482 469.61317,259.909152 C469.792634,259.864286 469.882366,259.729687 469.882366,259.550223 C469.882366,259.370759 469.702902,259.281027 469.523438,259.281027 Z" id="形状" fill="#34170D" fill-rule="nonzero"></path>
                        <path d="M430.66942,257.30692 C430.66942,257.30692 437.39933,266.818527 447.853125,264.126563" id="路径" stroke="#34170D" stroke-width="1.2612" stroke-linecap="round"></path>
                        <line x1="414.5625" y1="264.261161" x2="412.902455" y2="283.508705" id="路径" stroke="#34170D" stroke-width="1.3974" stroke-linecap="round" stroke-dasharray="5.5895"></line>
                        <path d="M479.304241,237.386384 C479.259375,237.835045 479.259375,238.283705 479.214509,238.6875 C478.85558,244.340625 478.496652,246.987723 478.496652,246.987723 C461.582143,256.723661 417.075,253.897098 417.075,253.897098 L415.684152,245.821205 L415.504687,244.789286 L415.056027,245.731473 L411.735937,252.640848 L398.904241,247.929911 L401.820536,242.545982 L402.628125,241.020536 C409.986161,244.161161 435.963616,252.416518 479.304241,237.386384 Z" id="路径" fill="#FFFFFF" fill-rule="nonzero"></path>
                        <path d="M479.304241,237.386384 C479.259375,237.835045 479.259375,238.283705 479.214509,238.6875 C471.632143,242.142188 464.543304,244.161161 450.814286,246.494196 C436.771205,248.243973 424.6125,247.301786 415.639286,245.821205 C415.414955,245.776339 415.235491,245.731473 415.011161,245.731473 C408.864509,244.654688 404.28817,243.353571 401.77567,242.545982 L402.583259,241.020536 C409.986161,244.161161 435.963616,252.416518 479.304241,237.386384 Z" id="路径" fill="#CA472B" fill-rule="nonzero"></path>
                        <g id="编组" transform="translate(334.700893, 117.100446)" fill-rule="nonzero">
                            <path d="M46.1223214,17.5875 C46.1223214,25.9774554 38.7194196,32.7970982 29.6116071,32.7970982 C27.2337054,32.7970982 24.9904018,32.3484375 22.9714286,31.4959821 L19.8308036,32.8868304 C18.84375,33.3354911 17.7220982,32.5727679 17.7220982,31.4959821 L17.7669643,28.1310268 C14.8955357,25.3941964 13.1457589,21.6703125 13.1457589,17.5426339 C13.1457589,9.15267857 20.5486607,2.33303571 29.6564732,2.33303571 C38.7194196,2.37790179 46.1223214,9.19754464 46.1223214,17.5875 Z" id="路径" fill="#FF827C"></path>
                            <path d="M44.3725446,16.33125 C44.3725446,24.7212054 36.9696429,31.5408482 27.8618304,31.5408482 C25.4839286,31.5408482 23.240625,31.0921875 21.2216518,30.2397321 L18.0810268,31.6305804 C17.0939732,32.0792411 15.9723214,31.3165179 15.9723214,30.2397321 L16.0171875,26.8747768 C13.1457589,24.1379464 11.3959821,20.4140625 11.3959821,16.2863839 C11.3959821,7.89642857 18.7988839,1.07678571 27.9066964,1.07678571 C37.0145089,1.12165179 44.3725446,7.94129464 44.3725446,16.33125 Z" id="路径" fill="#F73944"></path>
                            <path d="M23.7341518,11.6651786 C24.0930804,10.7678571 24.6763393,10.3191964 25.5287946,10.2743304 C26.38125,10.2743304 27.009375,10.7229911 27.4131696,11.6651786 L30.7332589,20.9524554 C30.8229911,21.2216518 30.8678571,21.4459821 30.8678571,21.6254464 C30.8229911,22.2984375 30.4191964,22.6125 29.6564732,22.6125 C29.0283482,22.6125 28.6245536,22.3433036 28.4002232,21.8049107 L27.9515625,20.1897321 L23.1957589,20.1897321 L22.6573661,21.8049107 C22.4330357,22.3433036 22.0292411,22.6125 21.4011161,22.6125 C20.6383929,22.6125 20.2345982,22.2535714 20.1897321,21.5357143 C20.1897321,21.4011161 20.1897321,21.2665179 20.2345982,21.0870536 L20.2345982,20.9524554 L23.7341518,11.6651786 Z M25.5287946,12.9214286 L23.9136161,17.8566964 L27.0991071,17.8566964 L25.5287946,12.9214286 Z" id="形状" fill="#FFFFFF"></path>
                            <path d="M32.3484375,12.0689732 L32.3484375,10.4089286 C32.3933036,9.96026786 32.6176339,9.7359375 33.0662946,9.69107143 C33.4700893,9.7359375 33.6944196,9.96026786 33.7392857,10.4089286 L33.7392857,12.0689732 L35.3993304,12.0689732 C35.8479911,12.1138393 36.0723214,12.3381696 36.1171875,12.7419643 C36.0723214,13.190625 35.8479911,13.4149554 35.3993304,13.4598214 L33.7392857,13.4598214 L33.7392857,15.1198661 C33.7392857,15.5236607 33.5149554,15.703125 33.0662946,15.703125 C32.6176339,15.703125 32.3933036,15.5236607 32.3484375,15.1198661 L32.3484375,13.4598214 L30.6883929,13.4598214 C30.2845982,13.4149554 30.0602679,13.190625 30.0154018,12.7419643 C30.0602679,12.3381696 30.2845982,12.1138393 30.6883929,12.0689732 L32.3484375,12.0689732 Z" id="路径" fill="#FFFFFF"></path>
                            <path d="M6.68504464,8.4796875 L6.68504464,8.4796875 C6.37098214,9.15267857 5.56339286,9.421875 4.89040179,9.15267857 L0.987053571,7.35803571 C0.3140625,7.04397321 0.0448660714,6.23638393 0.3140625,5.56339286 L0.3140625,5.56339286 C0.628125,4.89040179 1.43571429,4.62120536 2.10870536,4.89040179 L6.01205357,6.68504464 C6.68504464,6.99910714 6.99910714,7.80669643 6.68504464,8.4796875 Z" id="路径" fill="#3465FF"></path>
                            <path d="M9.64620536,6.05691964 L9.64620536,6.05691964 C8.97321429,6.37098214 8.165625,6.10178571 7.8515625,5.42879464 L6.28125,2.10870536 C5.9671875,1.43571429 6.23638393,0.628125 6.909375,0.3140625 L6.909375,0.3140625 C7.58236607,2.54796184e-14 8.38995536,0.269196429 8.70401786,0.9421875 L10.2743304,4.26227679 C10.5883929,4.93526786 10.3191964,5.74285714 9.64620536,6.05691964 Z" id="路径" fill="#3465FF"></path>
                        </g>
                        <path d="M356.775,170.760268 L355.967411,171.657589 L347.532589,181.079464 C347.442857,180.989732 347.218527,180.855134 346.859598,180.630804 L354.890625,169.862946 C355.51875,170.177009 356.146875,170.491071 356.775,170.760268 Z" id="路径" fill="#FD858D" fill-rule="nonzero"></path>
                        <path d="M402.987054,207.864509 L400.115625,207.012054 L401.012946,193.866295 C401.641071,193.821429 402.044866,193.776563 402.044866,193.776563 L402.22433,193.776563 L402.942187,206.832589 L402.987054,207.864509 Z" id="路径" fill="#FD858D" fill-rule="nonzero"></path>
                        <path d="M437.892857,98.615625 C436.816071,97.9875 435.470089,97.0004464 434.6625,95.6993304 C433.092187,93.1419643 430.265625,91.2575893 426.317411,90.7640625 C422.32433,90.2256696 419.004241,85.6493304 419.004241,85.6493304 C418.017187,85.8287946 414.517634,92.8727679 413.171652,95.6544643 C413.216518,94.9366071 413.261384,94.4879464 413.261384,94.4879464 C415.100893,86.5017857 419.228571,83.9892857 419.228571,83.9892857 C419.228571,83.9892857 421.337277,87.9375 427.573661,89.3283482 C430.89375,90.0462054 433.092187,91.4819196 434.393304,92.6484375 C435.290625,93.4560268 435.91875,94.4879464 436.322545,95.6544643 C436.636607,96.73125 437.219866,97.7631696 437.892857,98.615625 Z" id="路径" fill="#F09089" fill-rule="nonzero"></path>
                        <path d="M449.423438,257.217188 C449.243973,257.217188 449.154241,257.351786 449.109375,257.486384 L448.974777,260.492411 C448.974777,260.627009 449.109375,260.761607 449.243973,260.806473 L449.243973,260.806473 C449.378571,260.806473 449.51317,260.671875 449.51317,260.537277 L449.647768,257.53125 C449.692634,257.351786 449.602902,257.217188 449.423438,257.217188 Z M449.154241,263.274107 C449.019643,263.274107 448.885045,263.408705 448.840179,263.543304 L448.70558,266.54933 C448.70558,266.728795 448.840179,266.818527 448.974777,266.863393 L448.974777,266.863393 C449.109375,266.863393 449.243973,266.728795 449.243973,266.594196 L449.378571,263.58817 C449.423438,263.408705 449.288839,263.274107 449.154241,263.274107 Z M448.885045,269.286161 C448.70558,269.286161 448.615848,269.420759 448.570982,269.555357 L448.436384,272.561384 C448.436384,272.695982 448.570982,272.83058 448.70558,272.875446 L448.70558,272.875446 C448.840179,272.875446 448.974777,272.740848 448.974777,272.60625 L449.109375,269.600223 C449.154241,269.420759 449.019643,269.286161 448.885045,269.286161 Z M448.570982,275.298214 C448.436384,275.298214 448.301786,275.432813 448.25692,275.567411 L448.122321,278.573438 C448.122321,278.708036 448.25692,278.842634 448.391518,278.8875 L448.391518,278.8875 C448.526116,278.8875 448.660714,278.752902 448.660714,278.618304 L448.795312,275.612277 C448.885045,275.477679 448.750446,275.34308 448.570982,275.298214 Z M448.301786,281.355134 C448.122321,281.355134 448.032589,281.489732 447.987723,281.62433 L447.942857,282.925446 C448.122321,282.925446 448.301786,282.925446 448.526116,282.925446 L448.570982,281.62433 C448.570982,281.489732 448.48125,281.355134 448.301786,281.355134 Z" id="形状" fill="#34170D" fill-rule="nonzero"></path>
                        <line x1="0.0897321429" y1="283.374107" x2="602.955134" y2="283.374107" id="路径" stroke="#95CBFB" stroke-width="6" stroke-linecap="round"></line>
                        <g id="编组" transform="translate(225.227679, 37.687500)" fill-rule="nonzero">
                            <path d="M67.7477679,24.6314732 L12.3830357,24.6314732 C5.69799107,24.6314732 0.269196429,19.2026786 0.269196429,12.5176339 L0.269196429,12.5176339 C0.269196429,5.83258929 5.69799107,0.403794643 12.3830357,0.403794643 L67.7477679,0.403794643 C74.4328125,0.403794643 79.8616071,5.83258929 79.8616071,12.5176339 L79.8616071,12.5176339 C79.8616071,19.2026786 74.4328125,24.6314732 67.7477679,24.6314732 Z" id="路径" fill="#4C69FF"></path>
                            <polygon id="路径" fill="#4C69FF" points="14.5366071 29.2526786 14.5366071 24.3622768 20.6383929 24.3622768"></polygon>
                            <path d="M54.1982143,17.9464286 C53.0316964,17.9464286 51.9100446,17.4080357 50.878125,15.8377232 C48.5002232,12.1138393 46.5709821,11.7100446 45.6736607,11.7997768 C44.6417411,11.8895089 44.0136161,12.6522321 43.7892857,13.2803571 C42.5779018,16.4209821 40.7832589,17.0491071 39.8410714,17.1388393 C38.5848214,17.2734375 37.3734375,16.6004464 36.5658482,15.3890625 L36.5209821,15.2993304 C35.4441964,13.5495536 33.6046875,10.6332589 31.8100446,10.678125 C30.8678571,10.7229911 29.8808036,11.6203125 28.9386161,13.4149554 C27.6375,15.8377232 26.0223214,17.2285714 24.0930804,17.5426339 C22.5227679,17.8118304 20.7729911,17.3631696 18.7988839,16.1517857 C15.2095982,18.2604911 10.0051339,17.7669643 9.78080357,17.7220982 C9.421875,17.6772321 9.15267857,17.3631696 9.19754464,16.959375 C9.24241071,16.6004464 9.55647321,16.33125 9.91540179,16.3761161 C9.96026786,16.3761161 14.3571429,16.8247768 17.5426339,15.2993304 C16.6004464,14.6263393 15.6133929,13.7738839 14.6263393,12.8316964 C12.1138393,10.4537946 12.8765625,8.43482143 13.3252232,7.67209821 C14.3571429,5.87745536 16.959375,4.89040179 19.1129464,5.51852679 C20.1,5.78772321 22.3433036,6.81964286 22.2087054,10.5435268 C22.1189732,12.5176339 21.4011161,14.1328125 20.0551339,15.3441964 C21.4908482,16.1517857 22.7919643,16.4209821 23.9136161,16.2415179 C25.4390625,16.0171875 26.6953125,14.8955357 27.7720982,12.8316964 C28.9834821,10.5435268 30.2845982,9.421875 31.7651786,9.37700893 C34.3225446,9.28727679 36.3415179,12.4727679 37.6426339,14.6263393 L37.6875,14.7160714 C38.1810268,15.5236607 38.94375,15.9274554 39.6616071,15.8377232 C40.7383929,15.7479911 41.7703125,14.6263393 42.4881696,12.8316964 C42.9816964,11.5305804 44.1482143,10.6332589 45.4941964,10.4986607 C47.0196429,10.3640625 49.3526786,11.0370536 51.9997768,15.1198661 C53.4354911,17.3183036 54.7366071,16.8247768 57.5631696,15.4339286 C60.7037946,13.9084821 64.9660714,11.8446429 70.6640625,15.7928571 C70.978125,16.0171875 71.0229911,16.4209821 70.8435268,16.7350446 C70.6191964,17.0491071 70.2154018,17.0939732 69.9013393,16.9145089 C64.8314732,13.4149554 61.2870536,15.1198661 58.1464286,16.6453125 C56.8453125,17.2734375 55.4993304,17.9464286 54.1982143,17.9464286 Z M17.7669643,6.64017857 C16.4658482,6.64017857 15.075,7.31316964 14.4917411,8.30022321 C13.7290179,9.64620536 14.6712054,10.9473214 15.5685268,11.8446429 C16.7350446,12.9662946 17.8118304,13.8636161 18.84375,14.5366071 C18.9334821,14.4917411 19.0232143,14.4020089 19.1129464,14.3122768 C20.2345982,13.3252232 20.8178571,12.0689732 20.8627232,10.4089286 C20.9524554,8.43482143 20.1897321,7.13370536 18.7540179,6.72991071 C18.3950893,6.68504464 18.0810268,6.64017857 17.7669643,6.64017857 Z" id="形状" fill="#FFFFFF"></path>
                        </g>
                        <g id="编组" transform="translate(357.133929, 61.915179)" fill-rule="nonzero">
                            <path d="M25.753125,15.7928571 L25.753125,29.1180804 C25.753125,30.4191964 24.6763393,31.4959821 23.3752232,31.4959821 L8.4796875,31.4959821 L4.17254464,34.6814732 L4.17254464,31.4959821 L2.69196429,31.4959821 C1.39084821,31.4959821 0.3140625,30.4191964 0.3140625,29.1180804 L0.3140625,15.7928571 C0.3140625,14.4917411 1.39084821,13.4149554 2.69196429,13.4149554 L23.3752232,13.4149554 C24.6763393,13.4149554 25.753125,14.446875 25.753125,15.7928571 Z" id="路径" fill="#4155F2"></path>
                            <path d="M6.95424107,3.58928571 L6.95424107,21.984375 C6.95424107,23.7790179 8.43482143,25.2595982 10.2294643,25.2595982 L30.778125,25.2595982 L36.7004464,29.6564732 L36.7004464,25.2595982 L38.7194196,25.2595982 C40.5140625,25.2595982 41.9946429,23.7790179 41.9946429,21.984375 L41.9946429,3.58928571 C41.9946429,1.79464286 40.5140625,0.3140625 38.7194196,0.3140625 L10.2294643,0.3140625 C8.43482143,0.3140625 6.95424107,1.79464286 6.95424107,3.58928571 Z" id="路径" stroke="#FFFFFF" stroke-width="1.8275" fill="#98CAFD"></path>
                            <g transform="translate(12.113839, 9.421875)" fill="#FEFFFF" id="椭圆形">
                                <circle cx="2.78169643" cy="3.05089286" r="2.73683036"></circle>
                                <circle cx="12.3830357" cy="3.05089286" r="2.73683036"></circle>
                                <circle cx="21.984375" cy="3.05089286" r="2.73683036"></circle>
                            </g>
                        </g>
                    </g>
                </g>
            </g>
        </g>
    </g>
</svg>