<?xml version="1.0" encoding="UTF-8"?>
<svg width="609px" height="287px" viewBox="0 0 609 287" version="1.1" xmlns="http://www.w3.org/2000/svg" xmlns:xlink="http://www.w3.org/1999/xlink">
    <title>img</title>
    <g id="页面-1" stroke="none" stroke-width="1" fill="none" fill-rule="evenodd">
        <g id="生涯模式" transform="translate(-951.000000, -322.000000)">
            <g id="talent" transform="translate(360.000000, 310.000000)">
                <g id="img-" transform="translate(594.000000, 12.000000)">
                    <g id="img">
                        <path d="M42.4433036,283.374107 C42.4433036,283.374107 -1.61517857,232.720312 86.68125,160.620536 C174.977679,88.5207589 199.115625,0.269196429 295.802009,0.179432201 C359.781027,0.134598214 392.308929,47.1542411 425.240625,78.4707589 C446.686607,98.8848214 469.478571,115.664732 492.180804,126.791518 C551.448884,155.954464 583.707589,186.463393 539.828571,283.329241 L42.4433036,283.329241 L42.4433036,283.374107 Z" id="路径" fill="#E5F1FF" fill-rule="nonzero"></path>
                        <g id="编组" transform="translate(281.310268, 80.310268)">
                            <path d="M81.3870536,114.049554 C80.3102679,114.812277 78.7399554,115.305804 76.5415179,115.575 C57.5631696,117.773437 41.0973214,106.646652 41.0973214,106.646652 L43.9238839,86.3671875 C54.5122768,93.9944196 60.8383929,95.475 64.5622768,94.8020089 C64.8314732,94.7571429 65.0558036,94.7122768 65.2801339,94.6225446 C66.58125,94.2636161 67.4785714,93.6354911 68.1964286,92.9625 C69.5872768,91.5716518 69.9013393,89.9564732 69.9013393,89.9564732 L83.8098214,97.0453125 C83.7649554,106.736384 84.6174107,111.716518 81.3870536,114.049554 Z" id="路径" fill="#FFC6A7" fill-rule="nonzero"></path>
                            <path d="M81.3870536,114.049554 C81.2524554,111.178125 82.3292411,107.274777 79.771875,102.78817 C77.3042411,98.5258929 70.6640625,94.3982143 68.1515625,93.0073661 C69.5424107,91.6165179 69.8564732,90.0013393 69.8564732,90.0013393 L83.7649554,97.0901786 C83.7649554,106.736384 84.6174107,111.716518 81.3870536,114.049554 Z" id="路径" fill="#FF896F" fill-rule="nonzero"></path>
                            <path d="M68.7348214,104.582812 C68.6899554,104.717411 68.5553571,104.807143 68.4207589,104.807143 C68.3758929,104.807143 68.3310268,104.807143 68.3310268,104.807143 C68.1515625,104.762277 68.0618304,104.537946 68.1066964,104.403348 C69.3629464,100.769196 65.5044643,95.9685268 64.5622768,94.846875 C64.8314732,94.8020089 65.0558036,94.7571429 65.2801339,94.6674107 C66.5363839,96.1928571 70.0359375,100.814062 68.7348214,104.582812 Z" id="路径" fill="#FF896F" fill-rule="nonzero"></path>
                            <path d="M153.172768,202.390848 L116.113393,202.390848 L113.645759,186.732589 L113.600893,186.95692 L109.787277,202.390848 L79.14375,202.390848 C79.14375,202.390848 78.515625,184.66875 78.515625,178.836161 C78.515625,172.689509 78.9642857,156.447991 79.0988839,151.153795 C79.14375,150.077009 79.14375,149.448884 79.14375,149.448884 L87.4888393,142.494643 L157.973437,152.634375 C158.152902,154.473884 158.242634,156.447991 158.242634,158.466964 C158.466964,177.400446 153.172768,202.390848 153.172768,202.390848 Z" id="路径" fill="#3D81F6" fill-rule="nonzero"></path>
                            <path d="M158.2875,158.556696 C111.447321,168.56183 87.8477679,157.25558 79.14375,151.198661 C79.1886161,150.121875 79.1886161,149.49375 79.1886161,149.49375 L87.5337054,142.539509 L158.018304,152.679241 C158.197768,154.51875 158.242634,156.492857 158.2875,158.556696 Z" id="路径" fill="#2575FD" fill-rule="nonzero"></path>
                            <path d="M143.975223,202.390848 L142.629241,202.390848 C145.141741,186.732589 144.872545,155.954464 144.872545,155.595536 L146.173661,155.595536 C146.218527,156.986384 146.487723,186.687723 143.975223,202.390848 Z" id="路径" fill="#90BBFC" fill-rule="nonzero"></path>
                            <g transform="translate(69.542411, 48.006696)" fill-rule="nonzero" id="路径">
                                <path d="M109.338616,50.25 C109.29375,50.6537946 109.29375,51.0127232 109.248884,51.3716518 C108.979687,53.9290179 108.665625,55.4544643 108.665625,55.4544643 C90.9435268,60.6589286 79.2783482,54.8712054 79.2783482,54.8712054 L80.2654018,58.9540179 L80.5345982,60.0756696 L82.3292411,67.6580357 L82.5984375,68.7796875 L84.3930804,76.3620536 L84.6622768,77.4837054 L86.4569196,85.0660714 L86.7261161,86.1877232 L87.6234375,89.9116071 L87.8926339,93.7700893 L87.9823661,94.8917411 L88.565625,103.147098 L88.6553571,104.26875 L88.7002232,104.807143 C51.9997768,115.260938 27.009375,108.710491 16.0171875,104.26875 C15.0301339,103.864955 14.1776786,103.506027 13.4149554,103.147098 C10.9473214,102.025446 9.64620536,101.217857 9.64620536,101.217857 C9.55647321,100.455134 9.64620536,98.1220982 9.82566964,94.8917411 C9.82566964,94.5328125 9.87053571,94.1738839 9.91540179,93.7700893 C10.05,91.5267857 10.2743304,88.9694196 10.4986607,86.1877232 C10.5435268,85.8287946 10.5435268,85.4698661 10.5883929,85.0660714 C10.8127232,82.6433036 11.0370536,80.0410714 11.2613839,77.4837054 C11.30625,77.1247768 11.3511161,76.7658482 11.3511161,76.3620536 C11.5754464,73.8046875 11.8446429,71.2473214 12.0689732,68.7796875 C12.1138393,68.4207589 12.1587054,68.0169643 12.1587054,67.6580357 C12.4279018,64.9660714 12.6522321,62.3638393 12.8765625,60.0756696 C12.9214286,59.7167411 12.9662946,59.3129464 12.9662946,58.9540179 C13.2803571,55.5890625 13.5944196,52.8970982 13.7290179,51.3716518 C13.7738839,50.878125 13.81875,50.5191964 13.81875,50.25 C13.81875,50.0256696 13.8636161,49.9359375 13.8636161,49.9359375 C13.8636161,49.9359375 13.8636161,49.9359375 13.81875,49.9359375 C12.2035714,49.5770089 9.19754464,48.0066964 6.41584821,46.48125 C3.09575893,44.596875 0.0897321429,42.7125 0.0897321429,42.7125 L0.0897321429,42.6227679 C0.0897321429,42.2638393 0.0897321429,41.8600446 0.134598214,41.5011161 C0.224330357,38.5848214 0.538392857,35.8479911 0.987053571,33.3354911 C1.03191964,32.9765625 1.12165179,32.5727679 1.21138393,32.2138393 C1.74977679,29.4770089 2.5125,26.9645089 3.40982143,24.6763393 C3.63415179,24.1379464 3.85848214,23.5995536 4.0828125,23.1060268 C5.24933036,20.4589286 6.64017857,18.0810268 8.12075893,16.0171875 C8.52455357,15.4787946 8.92834821,14.9404018 9.33214286,14.446875 C11.7100446,11.5305804 14.3571429,9.19754464 17.0042411,7.35803571 C17.8566964,6.77477679 18.6642857,6.23638393 19.471875,5.78772321 C26.7401786,1.48058036 33.290625,0.762723214 33.290625,0.762723214 L69.9910714,0.269196429 C75.9582589,1.66004464 81.028125,3.58928571 85.3801339,5.83258929 C86.3671875,6.32611607 87.309375,6.86450893 88.2066964,7.40290179 C91.7959821,9.55647321 94.7571429,11.934375 97.2696429,14.4917411 C97.8080357,15.0301339 98.3015625,15.5236607 98.7502232,16.0620536 C100.769196,18.3502232 102.429241,20.728125 103.775223,23.1508929 C104.089286,23.6892857 104.358482,24.2276786 104.627679,24.7212054 C105.883929,27.2337054 106.870982,29.7910714 107.543973,32.2587054 C107.633705,32.6176339 107.768304,33.0214286 107.858036,33.3803571 C108.620759,36.2517857 109.024554,38.9886161 109.248884,41.5459821 C109.29375,41.9049107 109.29375,42.3087054 109.338616,42.6676339 C109.562946,45.5839286 109.473214,48.1412946 109.338616,50.25 Z" fill="#FAFBFC"></path>
                                <path d="M88.2515625,7.35803571 L17.0491071,7.35803571 C17.9015625,6.77477679 18.7091518,6.23638393 19.5167411,5.78772321 L85.425,5.78772321 C86.4120536,6.28125 87.3542411,6.81964286 88.2515625,7.35803571 Z" fill="#BBDBFE"></path>
                                <path d="M98.7950893,16.0620536 L8.165625,16.0620536 C8.56941964,15.5236607 8.97321429,14.9852679 9.37700893,14.4917411 L97.3145089,14.4917411 C97.8529018,14.9852679 98.3464286,15.5236607 98.7950893,16.0620536 Z" fill="#BBDBFE"></path>
                                <path d="M104.672545,24.7212054 L3.4546875,24.7212054 C3.67901786,24.1828125 3.90334821,23.6444196 4.12767857,23.1508929 L103.820089,23.1508929 C104.134152,23.6444196 104.403348,24.1828125 104.672545,24.7212054 Z" fill="#BBDBFE"></path>
                                <path d="M107.902902,33.3803571 L1.03191964,33.3803571 C1.07678571,33.0214286 1.16651786,32.6176339 1.25625,32.2587054 L107.633705,32.2587054 C107.723437,32.6176339 107.81317,32.9765625 107.902902,33.3803571 Z" fill="#BBDBFE"></path>
                                <path d="M109.383482,42.6227679 L0.134598214,42.6227679 C0.134598214,42.2638393 0.134598214,41.8600446 0.179464286,41.5011161 L109.338616,41.5011161 C109.338616,41.9049107 109.338616,42.2638393 109.383482,42.6227679 Z" fill="#BBDBFE"></path>
                                <path d="M109.338616,50.25 C109.29375,50.6537946 109.29375,51.0127232 109.248884,51.3716518 L13.7290179,51.3716518 C13.7738839,50.878125 13.81875,50.5191964 13.81875,50.25 L109.338616,50.25 Z" fill="#BBDBFE"></path>
                                <path d="M80.4897321,60.0756696 L12.8765625,60.0756696 C12.9214286,59.7167411 12.9662946,59.3129464 12.9662946,58.9540179 L80.2205357,58.9540179 L80.4897321,60.0756696 Z" fill="#BBDBFE"></path>
                                <path d="M82.5535714,68.7796875 L12.0241071,68.7796875 C12.0689732,68.4207589 12.1138393,68.0169643 12.1138393,67.6580357 L82.284375,67.6580357 L82.5535714,68.7796875 Z" fill="#BBDBFE"></path>
                                <path d="M84.6174107,77.4837054 L11.2165179,77.4837054 C11.2613839,77.1247768 11.30625,76.7658482 11.30625,76.3620536 L84.3482143,76.3620536 L84.6174107,77.4837054 Z" fill="#BBDBFE"></path>
                                <path d="M86.68125,86.2325893 L10.4537946,86.2325893 C10.4986607,85.8736607 10.4986607,85.5147321 10.5435268,85.1109375 L86.4120536,85.1109375 L86.68125,86.2325893 Z" fill="#BBDBFE"></path>
                                <path d="M87.8926339,94.9366071 L9.7359375,94.9366071 C9.7359375,94.5776786 9.78080357,94.21875 9.82566964,93.8149554 L87.8029018,93.8149554 L87.8926339,94.9366071 Z" fill="#BBDBFE"></path>
                                <path d="M88.6104911,104.313616 L15.9274554,104.313616 C14.9404018,103.909821 14.0879464,103.550893 13.3252232,103.191964 L88.5207589,103.191964 L88.6104911,104.313616 Z" fill="#BBDBFE"></path>
                            </g>
                            <path d="M117.324777,202.390848 L116.158259,202.390848 L113.690625,186.732589 L113.645759,186.95692 L110.77433,168.023437 C110.729464,167.664509 110.953795,167.350446 111.312723,167.260714 C111.671652,167.215848 111.985714,167.440179 112.03058,167.799107 L117.324777,202.390848 Z" id="路径" fill="#1B59E1" fill-rule="nonzero"></path>
                            <polygon id="路径" fill="#5999F7" fill-rule="nonzero" points="52.5381696 111.357589 29.0283482 115.978795 27.9515625 116.203125 26.4709821 115.305804 9.69107143 105.121205 4.62120536 70.3051339 23.1957589 79.14375 24.496875 79.7270089 25.7082589 79.4129464 48.1412946 72.9522321"></polygon>
                            <path d="M87.9823661,77.1247768 L83.4060268,97.8977679 C81.7908482,97.5388393 78.7848214,95.9685268 76.003125,94.4430804 C79.3232143,93.8149554 87.7131696,77.6631696 87.9823661,77.1247768 Z" id="路径" fill="#D9E7FF" fill-rule="nonzero"></path>
                            <path d="M145.096875,89.4629464 C145.096875,89.4629464 142.494643,100.230804 143.571429,104.448214 C144.648214,108.665625 138.995089,122.484375 138.995089,122.484375 L157.25558,128.675893 L148.641295,102.429241 L148.596429,99.6475446 L145.096875,89.4629464 Z" id="路径" fill="#D9E7FF" fill-rule="nonzero"></path>
                            <path d="M88.3861607,76.1377232 C88.3861607,76.1377232 83.8098214,86.4120536 83.4060268,97.8977679" id="路径" fill="#79B6FA" fill-rule="nonzero"></path>
                            <path d="M178.16317,103.461161 C178.16317,103.640625 178.16317,103.820089 178.16317,103.999554 C177.714509,114.587946 173.945759,122.394643 173.272768,124.862277 C166.04933,143.257366 152.903571,140.161607 145.366071,139.129687 C130.42567,136.258259 112.254911,114.049554 112.254911,114.049554 C112.254911,114.049554 107.81317,109.024554 106.691518,108.845089 C105.659598,108.620759 99.0642857,106.197991 95.3404018,104.627679 C94.9366071,104.49308 94.5776786,104.26875 94.1738839,104.089286 C90.6294643,102.339509 84.9314732,101.172991 84.5276786,99.9167411 C84.16875,98.615625 92.4241071,99.1091518 92.4241071,99.1091518 C91.2127232,97.1799107 81.2524554,94.8917411 82.3292411,93.4111607 C82.9573661,92.5587054 86.6363839,93.3214286 89.5975446,94.0841518 C84.6174107,92.4241071 82.9573661,90.7191964 83.6752232,90.4051339 C84.4828125,90.0462054 94.6674107,92.6484375 94.6674107,92.6484375 C89.5975446,90.4948661 87.7580357,89.1040179 87.1747768,88.3861607 C86.9953125,88.1169643 87.1747768,87.7580357 87.4888393,87.8029018 C90.4948661,87.8477679 99.0194196,91.078125 99.0194196,91.078125 C97.4042411,89.4629464 96.4171875,83.2265625 97.6734375,83.8098214 C98.9296875,84.3482143 101.621652,90.1808036 103.102232,91.0332589 C104.582812,91.8857143 111.671652,99.9616071 111.671652,99.9616071 C116.60692,102.653571 139.039955,110.908929 144.827679,113.017634 C145.680134,113.331696 146.173661,113.511161 146.173661,113.511161 L146.263393,113.152232 L147.923437,105.74933 L148.641295,102.563839 L178.16317,103.461161 Z" id="路径" fill="#FFC6A7" fill-rule="nonzero"></path>
                            <path d="M157.793973,122.88817 C157.749107,122.88817 157.704241,122.88817 157.704241,122.88817 C157.569643,122.88817 157.435045,122.798437 157.390179,122.663839 C155.640402,117.549107 148.775893,114.632812 146.128795,113.690625 C145.994196,113.645759 146.128795,113.690625 146.128795,113.690625 L146.218527,113.421429 L146.308259,113.0625 C149.045089,114.004687 156.178795,117.010714 158.06317,122.484375 C158.06317,122.663839 157.973437,122.843304 157.793973,122.88817 Z" id="路径" fill="#FF896F" fill-rule="nonzero"></path>
                            <path d="M178.16317,103.461161 C178.16317,103.640625 178.16317,103.820089 178.16317,103.999554 C165.241741,109.877009 153.890625,107.678571 147.923437,105.704464 L148.641295,102.518973 L178.16317,103.461161 Z" id="路径" fill="#FF896F" fill-rule="nonzero"></path>
                            <path d="M0.807589286,87.5785714 C1.30111607,85.5595982 2.60223214,84.3482143 4.03794643,83.4508929 C5.24933036,82.6881696 6.68504464,82.4189732 8.25535714,82.1946429 C12.3381696,81.6113839 16.3761161,82.284375 16.4658482,82.8676339 C16.6901786,83.9892857 9.96026786,85.2455357 9.96026786,85.2455357 C9.96026786,85.2455357 18.6194196,84.2584821 18.7988839,85.6044643 C19.0232143,87.0401786 10.4537946,88.2066964 10.4537946,88.2066964 C10.4537946,88.2066964 17.2734375,87.6683036 17.4977679,88.7899554 C17.7220982,89.9116071 10.5883929,91.0332589 10.5883929,91.0332589 C10.5883929,91.0332589 16.33125,90.45 16.4209821,91.3921875 C16.5107143,92.334375 13.0560268,93.2316964 9.37700893,94.1290179 C8.21049107,94.3982143 8.74888393,97.2696429 8.74888393,97.2696429 L9.421875,102.698437 C9.421875,102.698437 3.00602679,98.7502232 1.07678571,93.8149554 C0.134598214,91.6165179 0.358928571,89.2834821 0.807589286,87.5785714 Z" id="路径" fill="#FFC6A7" fill-rule="nonzero"></path>
                            <polygon id="路径" fill="#FFFFFF" fill-rule="nonzero" points="29.0283482 115.978795 27.9515625 116.203125 26.4709821 115.305804 23.1957589 79.14375 24.496875 79.7270089 25.7082589 79.4129464"></polygon>
                            <path d="M132.803571,23.5098214 C130.470536,26.6504464 125.535268,31.3165179 125.535268,31.3165179 C125.535268,31.3165179 122.798437,23.3303571 123.381696,21.5357143 C123.964955,19.6962054 127.733705,15.2993304 120.37567,14.8058036 C115.889062,14.4917411 114.31875,17.8566964 109.114286,11.9792411 L106.826116,16.1966518 C106.870982,15.9274554 108.172098,7.80669643 108.082366,6.37098214 L107.947768,3.49955357 L107.902902,2.64709821 L107.768304,0.224320212 C107.768304,0.224320212 107.81317,0.224320212 107.902902,0.224320212 C109.562946,0.224320212 125.983929,0.179464286 130.919196,6.05691964 C131.457589,6.72991071 131.861384,7.44776786 132.085714,8.25535714 L132.085714,10.2294643 C132.085714,10.1397321 139.44375,14.3122768 132.803571,23.5098214 Z" id="路径" fill="#021B3F" fill-rule="nonzero"></path>
                            <path d="M130.919196,5.9671875 C129.752679,8.70401786 124.727679,9.28727679 120.555134,7.98616071 C112.927902,6.10178571 109.428348,2.5125 107.902902,0.134588069 C109.562946,0.134588069 125.983929,0.0897321429 130.919196,5.9671875 Z" id="路径" fill="#02396D" fill-rule="nonzero"></path>
                            <path d="M132.085714,8.30022321 L132.085714,9.06294643 C130.021875,10.2743304 127.823437,10.7678571 125.580134,10.7678571 C118.625893,10.7678571 111.357589,6.01205357 107.947768,3.40982143 L107.902902,2.55736607 C112.03058,5.78772321 123.695759,13.6841518 132.085714,8.30022321 Z" id="路径" fill="#02396D" fill-rule="nonzero"></path>
                            <path d="M129.752679,12.9214286 C129.752679,12.9214286 131.367857,16.33125 129.752679,18.0810268" id="路径" stroke="#02396D" stroke-width="1.4576" stroke-linecap="round"></path>
                            <path d="M131.412723,12.5176339 C131.412723,12.5176339 134.014955,14.8506696 132.175446,18.0810268" id="路径" stroke="#02396D" stroke-width="1.4576" stroke-linecap="round"></path>
                            <path d="M139.578348,48.2310268 C139.578348,48.2310268 137.873437,51.7754464 125.714732,54.7366071 C108.396429,58.9540179 102.877902,48.7694196 102.877902,48.7694196 C105.076339,47.9169643 107.050446,46.2120536 108.575893,44.5520089 C110.729464,42.2189732 112.03058,39.9308036 112.03058,39.9308036 L126.297991,32.6176339 C125.669866,38.1810268 129.124554,42.1292411 132.624107,44.6866071 C136.078795,47.109375 139.578348,48.2310268 139.578348,48.2310268 Z" id="路径" fill="#F8A5A5" fill-rule="nonzero"></path>
                            <path d="M132.624107,44.6417411 C122.977902,41.5908482 114.09442,42.9816964 108.575893,44.5071429 C110.729464,42.1741071 112.03058,39.8859375 112.03058,39.8859375 L126.387723,32.1241071 C125.804464,37.7772321 129.124554,42.1292411 132.624107,44.6417411 Z" id="路径" fill="#F57B8C" fill-rule="nonzero"></path>
                            <path d="M132.534375,27.7272321 C132.13058,31.1370536 126.432589,32.1689732 126.432589,32.1689732 C122.618973,41.5011161 108.934821,43.5200893 104.896875,34.5020089 C103.506027,31.3613839 103.595759,27.5926339 104.313616,23.9584821 C104.582812,22.7022321 104.896875,21.4459821 105.255804,20.2794643 C106.646652,15.8377232 108.575893,12.2484375 109.06942,11.3511161 C109.06942,11.30625 109.114286,11.30625 109.114286,11.30625 C112.658705,13.8636161 118.805357,13.5944196 121.497321,13.9084821 C124.234152,14.2225446 126.701786,14.4917411 124.862277,19.1129464 C124.323884,20.5037946 124.099554,21.5805804 124.054687,22.4330357 L121.497321,21.1767857 L121.003795,22.7022321 L124.234152,23.9584821 C124.279018,24.0482143 124.279018,24.1379464 124.323884,24.1828125 C124.413616,24.3622768 124.458482,24.5417411 124.548214,24.6763393 C124.727679,24.9455357 125.086607,25.0352679 125.40067,24.8558036 C125.580134,24.7660714 125.714732,24.6763393 125.894196,24.5866071 C126.342857,24.3174107 126.746652,24.1379464 127.150446,23.9584821 C131.188393,22.3433036 132.848437,24.7660714 132.534375,27.7272321 Z" id="路径" fill="#FBB5B5" fill-rule="nonzero"></path>
                            <path d="M124.279018,23.9584821 L121.048661,22.7022321 L121.542187,21.1767857 L124.099554,22.4330357 C124.099554,23.0611607 124.189286,23.5995536 124.279018,23.9584821 Z" id="路径" fill="#F9B2B3" fill-rule="nonzero"></path>
                            <path d="M124.907143,19.1129464 C123.875223,21.7151786 124.14442,23.2854911 124.36875,24.1828125 C123.33683,23.4649554 122.663839,23.4649554 122.933036,21.8497768 C124.413616,15.1198661 122.08058,15.9274554 115.844196,14.9404018 C112.120312,14.3571429 110.101339,12.6522321 109.114286,11.3511161 C109.204018,11.2165179 109.159152,11.30625 109.159152,11.30625 C112.703571,13.8636161 118.850223,13.5944196 121.542187,13.9084821 C124.234152,14.2225446 126.746652,14.4917411 124.907143,19.1129464 Z" id="路径" fill="#F88C98" fill-rule="nonzero"></path>
                            <path d="M129.752679,25.9774554 C127.509375,25.2147321 125.939062,28.2207589 125.939062,28.2207589 C125.939062,28.2207589 127.240179,26.9196429 129.214286,27.4580357" id="路径" stroke="#FD888C" stroke-width="1.4576" stroke-linecap="round" stroke-linejoin="round"></path>
                            <path d="M108.665625,14.8955357 C108.665625,14.8955357 110.011607,14.4020089 110.908929,15.703125" id="路径" stroke="#000037" stroke-width="1.4576" stroke-linecap="round"></path>
                            <ellipse id="椭圆形" fill="#FD888C" fill-rule="nonzero" transform="translate(117.984254, 26.302008) rotate(-77.642721) translate(-117.984254, -26.302008) " cx="117.984254" cy="26.3020075" rx="1.92917764" ry="3.14052173"></ellipse>
                            <path d="M115.485268,16.8247768 C115.485268,16.8247768 118.0875,15.9723214 119.478348,17.8118304" id="路径" stroke="#000037" stroke-width="1.4576" stroke-linecap="round"></path>
                            <ellipse id="椭圆形" fill="#061346" fill-rule="nonzero" transform="translate(108.359100, 18.842628) rotate(-82.576497) translate(-108.359100, -18.842628) " cx="108.3591" cy="18.8426283" rx="1.30109213" ry="1"></ellipse>
                            <path d="M108.172098,22.8816964 C107.947768,23.9136161 106.377455,24.4520089 104.672545,24.0930804 C104.537946,24.0482143 104.403348,24.0482143 104.313616,24.0033482 C104.582812,22.7470982 104.896875,21.4908482 105.255804,20.3243304 C105.345536,20.3243304 105.390402,20.3691964 105.480134,20.3691964 C107.185045,20.728125 108.396429,21.8497768 108.172098,22.8816964 Z" id="路径" fill="#FD888C" fill-rule="nonzero"></path>
                            <ellipse id="椭圆形" fill="#061346" fill-rule="nonzero" transform="translate(116.521800, 20.963430) rotate(-82.576497) translate(-116.521800, -20.963430) " cx="116.5218" cy="20.9634296" rx="1.43568787" ry="1.12163115"></ellipse>
                            <path d="M112.524107,18.4848214 L109.338616,23.7790179 C109.338616,23.7790179 108.0375,26.0223214 111.178125,26.5607143" id="路径" stroke="#F14F49" stroke-width="1.4576" stroke-linecap="round" stroke-linejoin="round"></path>
                            <path d="M108.710491,29.521875 C108.979687,29.9705357 109.29375,30.3294643 109.51808,30.5986607 C111.58192,32.8868304 112.83817,31.0473214 113.376562,29.7013393 C113.600893,29.1180804 113.735491,28.6694196 113.735491,28.6694196 L108.710491,29.521875 Z" id="路径" fill="#EC6081" fill-rule="nonzero"></path>
                            <path d="M109.562946,30.5986607 C111.626786,32.8868304 112.883036,31.0473214 113.421429,29.7013393 C112.927902,29.6116071 112.344643,29.6116071 111.761384,29.7013393 C110.819196,29.8359375 110.056473,30.1948661 109.562946,30.5986607 Z" id="路径" fill="#FD9599" fill-rule="nonzero"></path>
                            <path d="M145.994196,81.9703125 L146.173661,87.2196429 C146.263393,88.9694196 146.353125,90.6743304 146.622321,92.3792411 C146.667187,92.7830357 146.801786,93.1868304 146.891518,93.590625 C146.936384,93.7700893 147.026116,93.9944196 147.070982,94.1738839 C147.115848,94.3982143 147.20558,94.5328125 147.295312,94.7122768 L147.429911,94.9814732 C147.474777,95.0712054 147.519643,95.1609375 147.609375,95.2955357 C147.699107,95.5198661 147.833705,95.6993304 147.923437,95.9236607 C148.147768,96.3274554 148.282366,96.7761161 148.416964,97.1799107 C148.686161,98.0323661 148.865625,98.9296875 148.910491,99.8270089 C148.955357,100.27567 148.955357,100.72433 148.910491,101.172991 C148.865625,101.621652 148.820759,102.070312 148.686161,102.518973 L148.596429,102.474107 C148.596429,101.621652 148.506696,100.72433 148.327232,99.9167411 C148.147768,99.0642857 147.878571,98.2566964 147.564509,97.4939732 C147.385045,97.0901786 147.20558,96.73125 147.026116,96.3723214 C146.936384,96.1928571 146.801786,96.0133929 146.712054,95.8339286 C146.622321,95.6544643 146.487723,95.475 146.353125,95.2506696 C145.859598,94.3982143 145.680134,93.5008929 145.50067,92.6035714 C145.186607,90.8089286 145.141741,89.0142857 145.186607,87.2645089 C145.276339,85.5147321 145.455804,83.7200893 145.859598,82.0151786 L145.994196,81.9703125 Z" id="路径" fill="#79B6FA" fill-rule="nonzero"></path>
                        </g>
                        <g id="编组" transform="translate(140.430804, 79.861607)">
                            <path d="M101.128125,130.111607 C101.128125,130.111607 98.7950893,190.591071 97.6285714,202.839509 L69.5872768,203.108705 L64.06875,203.198437 L62.9470982,197.45558 L59.4475446,179.912946 L51.8203125,203.243304 L18.5745536,203.243304 C18.5745536,203.243304 17.9015625,198.352902 16.2863839,190.097545 C13.4149554,175.695536 9.64620536,152.365179 14.8955357,135.719866 C15.5236607,133.745759 16.2415179,131.90625 17.0939732,130.156473 L101.128125,130.156473 L101.128125,130.111607 Z" id="路径" fill="#4F6AFF" fill-rule="nonzero"></path>
                            <path d="M14.9404018,135.675 C21.6703125,138.052902 34.9506696,139.44375 44.8660714,138.725893 C80.7140625,136.168527 88.8348214,134.553348 96.3723214,130.605134 L17.1388393,130.156473 C16.2863839,131.861384 15.5236607,133.745759 14.9404018,135.675 Z" id="路径" fill="#1B42E9" fill-rule="nonzero"></path>
                            <path d="M36.7901786,136.078795 C36.7901786,136.078795 34.1879464,147.070982 16.0620536,147.429911" id="路径" stroke="#1D1A27" stroke-width="1.4922" stroke-linecap="round"></path>
                            <path d="M29.1180804,203.198437 L28.4450893,203.198437 C24.5866071,181.12433 26.6953125,145.769866 26.6953125,145.410937 C26.6953125,145.231473 26.8747768,145.096875 27.0542411,145.096875 C27.2337054,145.096875 27.3683036,145.276339 27.3683036,145.455804 C27.3683036,145.814732 25.2147321,181.258929 29.1180804,203.198437 Z" id="路径" fill="#1D1A27" fill-rule="nonzero"></path>
                            <polygon id="路径" fill="#1B42E9" fill-rule="nonzero" points="59.3129464 178.746429 62.9470982 197.45558 64.1136161 203.198437 69.6321429 203.108705 64.4276786 161.293527"></polygon>
                            <line x1="65.5044643" y1="156.492857" x2="51.4165179" y2="203.198437" id="路径" stroke="#FFFFFF" stroke-width="2.2383" stroke-linecap="round"></line>
                            <g>
                                <path d="M86.2325893,4.44174107 C86.2325893,4.44174107 84.4828125,2.28816964 81.4319196,1.12165179 C76.4966518,-0.717857143 68.6002232,-0.762723214 62.5881696,9.28727679 C62.5881696,9.28727679 58.9540179,18.84375 50.0256696,19.9205357 C41.0973214,20.9973214 35.2198661,22.8368304 31.9895089,29.7910714 C28.7591518,36.7453125 26.6055804,43.0265625 22.0741071,46.3915179 C17.5426339,49.7564732 2.64709821,54.5122768 0.3140625,67.9720982 C-0.224330357,71.2921875 0.672991071,76.5415179 2.87142857,80.1756696 C2.87142857,80.1756696 -1.39084821,71.6959821 3.05089286,62.9919643 C3.05089286,62.9919643 -1.884375,73.5803571 9.24241071,86.5017857 C11.2613839,87.309375 115.978795,74.7917411 115.978795,74.7917411 L117.414509,69.4975446 C117.414509,69.4975446 120.016741,58.7296875 112.344643,51.5959821 C104.672545,44.4622768 103.0125,43.9238839 103.191964,37.3285714 C103.326562,30.778125 97.7631696,27.1888393 97.0004464,26.38125 C96.2377232,25.6185268 93.1419643,23.8238839 94.3084821,17.3631696 C95.475,10.9024554 91.8857143,4.75580357 86.2325893,4.44174107 Z" id="路径" fill="#3B39B3" fill-rule="nonzero"></path>
                                <path d="M63.5752232,17.5875 C63.5752232,17.5875 60.1654018,18.0810268 60.3448661,24.0930804 C60.5243304,30.1051339 64.06875,31.4511161 55.0955357,34.7263393 C46.1223214,38.0015625 40.9627232,32.9765625 29.2078125,51.5959821 C28.0861607,55.8133929 105.525,55.1852679 105.525,55.1852679 C105.525,55.1852679 101.935714,49.9808036 99.1988839,48.7245536 C96.4620536,47.4683036 93.7252232,43.6995536 94.4430804,38.1810268 C95.1609375,32.6625 94.6674107,33.0662946 92.1997768,29.9256696 C89.7321429,26.7850446 91.7959821,18.6194196 91.9305804,17.9912946 C91.9305804,17.9912946 93.5008929,10.9921875 87.9823661,11.0819196 L70.4845982,24.8558036 L63.5752232,17.5875 Z" id="路径" fill="#0C0B89" fill-rule="nonzero"></path>
                                <path d="M10.7229911,57.1145089 C10.7229911,57.1145089 3.49955357,64.0238839 5.3390625,73.9392857" id="路径" stroke="#6164DC" stroke-width="1.4922" stroke-linecap="round"></path>
                                <path d="M113.376562,125.939062 C105.704464,128.586161 101.711384,123.920089 100.72433,122.529241 C100.679464,122.484375 100.679464,122.439509 100.634598,122.394643 C101.172991,123.875223 101.128125,130.560268 101.128125,130.560268 L16.959375,130.560268 L17.1388393,123.1125 L17.1388393,122.843304 C10.1845982,118.715625 8.79375,102.833036 8.79375,100.006473 C8.52455357,96.6863839 8.52455357,93.5457589 8.65915179,90.6294643 C8.70401786,89.8667411 8.74888393,89.1040179 8.83861607,88.3412946 C8.88348214,87.9823661 8.92834821,87.6234375 8.92834821,87.2645089 C10.8575893,69.9013393 19.2924107,61.1075893 20.2345982,59.5372768 C31.1370536,44.9558036 56.53125,41.7254464 56.53125,41.7254464 C56.53125,41.7254464 56.6658482,41.7254464 56.9350446,41.7703125 C56.9350446,41.7703125 56.9799107,41.7703125 56.9799107,41.7703125 C60.3897321,41.9946429 76.7209821,42.4881696 79.5475446,42.8470982 C95.0712054,44.7314732 103.550893,53.8392857 103.550893,53.8392857 L108.486161,53.6598214 L110.639732,53.6598214 C116.651786,55.3647321 114.722545,65.1006696 114.677679,65.3698661 L114.677679,65.3698661 C120.465402,73.490625 122.843304,82.4189732 123.875223,87.0850446 C123.964955,87.4439732 124.009821,87.8029018 124.099554,88.1169643 C124.323884,89.1488839 124.458482,89.8667411 124.548214,90.1808036 C124.548214,90.1808036 124.548214,90.1808036 124.548214,90.1808036 C125.266071,103.775223 122.933036,122.663839 113.376562,125.939062 Z" id="路径" fill="#E0603D" fill-rule="nonzero"></path>
                                <path d="M36.3863839,37.7323661 C36.3863839,37.7323661 38.5399554,30.15 44.8660714,28.265625" id="路径" stroke="#6164DC" stroke-width="1.4922" stroke-linecap="round"></path>
                                <path d="M97.0004464,30.3294643 C97.0004464,30.3294643 100.141071,33.7392857 99.6924107,40.1102679 C99.24375,46.4363839 102.608705,48.0964286 102.608705,48.0964286" id="路径" stroke="#6164DC" stroke-width="1.4922" stroke-linecap="round"></path>
                                <path d="M84.2584821,5.3390625 C84.2584821,5.3390625 76.4517857,-1.43571429 68.1515625,6.64017857 C68.1515625,6.64017857 63.0368304,17.6323661 56.4863839,20.8178571 C56.0825893,21.0421875 55.6339286,21.2216518 55.2301339,21.4459821 C53.8841518,22.2087054 50.5640625,23.6892857 45.225,24.6314732 C38.7194196,25.753125 33.9636161,32.7073661 32.4830357,37.8669643 C31.9446429,39.0334821 29.6564732,45.5390625 24.9904018,48.365625" id="路径" stroke="#6164DC" stroke-width="1.4922" stroke-linecap="round"></path>
                                <path d="M84.0790179,8.21049107 C84.0790179,8.21049107 79.771875,6.05691964 77.1247768,10.7229911 C74.4776786,15.3890625 75.3301339,15.4339286 72.0997768,17.4080357" id="路径" stroke="#6164DC" stroke-width="1.4922" stroke-linecap="round"></path>
                                <path d="M89.9564732,14.0430804 C89.9564732,14.0430804 88.1169643,24.6763393 87.8029018,26.7401786 C86.2325893,37.2837054 77.8426339,36.2517857 77.8426339,36.2517857 C76.8555804,37.5977679 77.3939732,40.2897321 77.3939732,40.2897321 C77.5285714,40.5589286 77.7080357,40.7832589 77.8875,41.0075893 C79.8616071,43.4303571 80.0859375,44.4174107 80.0859375,44.4174107 L83.8546875,51.8203125 C65.4595982,57.5631696 55.8133929,48.99375 55.8133929,48.99375 L56.53125,41.8600446 C62.4984375,39.2578125 65.4147321,36.4761161 66.3120536,32.5727679 C66.8055804,30.4191964 66.8504464,28.4450893 66.8055804,27.2785714 C66.8055804,27.2785714 66.8055804,27.2785714 66.8055804,27.2785714 C66.8055804,27.1888393 66.8055804,27.0991071 66.8055804,27.009375 C66.8055804,27.009375 66.8055804,27.009375 66.8055804,27.009375 C66.7607143,26.5158482 66.7607143,26.2017857 66.7607143,26.2017857 C65.0109375,25.4390625 62.3638393,23.7790179 62.3189732,20.9524554 C62.3189732,19.3372768 62.7227679,18.215625 63.3957589,17.4529018 C64.2482143,16.4658482 65.6390625,16.1517857 66.8504464,16.5555804 C69.9910714,17.6323661 69.9013393,20.9524554 69.9013393,20.9524554 C70.3051339,20.9524554 70.6640625,20.9524554 70.978125,20.9075893 C75.1955357,20.4589286 75.7787946,17.1388393 79.2334821,12.2933036 C79.2783482,12.2035714 79.3680804,12.1138393 79.4129464,12.0241071 C83.2265625,6.72991071 85.5147321,11.2613839 85.6044643,11.4408482 C85.6044643,11.4408482 85.6044643,11.4408482 85.6044643,11.4408482 C90.45,10.0948661 89.9564732,14.0430804 89.9564732,14.0430804 Z" id="路径" fill="#FAB1B1" fill-rule="nonzero"></path>
                                <path d="M85.6044643,11.4408482 C83.9892857,9.60133929 81.8805804,10.1397321 80.5345982,12.5176339 C79.14375,14.9404018 76.4069196,19.0680804 74.2533482,20.4589286 C72.7727679,21.4011161 70.4397321,21.1767857 69.8564732,20.9524554 C70.2602679,20.9524554 70.6191964,20.9524554 70.9332589,20.9075893 C75.1506696,20.4589286 75.7339286,17.1388393 79.1886161,12.2933036 C79.2334821,12.2035714 79.3232143,12.1138393 79.3680804,12.0241071 C83.2265625,6.72991071 85.5147321,11.2165179 85.6044643,11.4408482 Z" id="路径" fill="#FB7A8E" fill-rule="nonzero"></path>
                                <path d="M82.5535714,20.8178571 C82.5535714,20.8178571 83.0919643,26.2017857 82.1049107,28.0861607 C81.7908482,28.7142857 80.9832589,28.5796875 80.0859375,27.9964286" id="路径" stroke="#FF7C8B" stroke-width="1.1192" stroke-linecap="round"></path>
                                <path d="M76.0479911,29.4321429 C76.0479911,29.4321429 75.9582589,30.0154018 76.0479911,30.6435268 C76.1377232,31.4959821 76.5415179,32.5279018 77.7977679,32.6625 C78.6053571,32.7522321 79.2334821,32.5727679 79.6372768,32.3035714 C80.3102679,31.8549107 80.5345982,31.1819196 80.5345982,31.1819196 L76.0479911,29.4321429 Z" id="路径" fill="#FFFFFF" fill-rule="nonzero"></path>
                                <path d="M76.0479911,30.6435268 C76.1377232,31.4959821 76.5415179,32.5279018 77.7977679,32.6625 C78.6053571,32.7522321 79.2334821,32.5727679 79.6372768,32.3035714 C78.9642857,31.6305804 77.8426339,30.8678571 76.0479911,30.6435268 Z" id="路径" fill="#F73944" fill-rule="nonzero"></path>
                                <ellipse id="椭圆形" fill="#FF7563" fill-rule="nonzero" transform="translate(75.507023, 24.880184) rotate(-66.095688) translate(-75.507023, -24.880184) " cx="75.5070229" cy="24.8801838" rx="1.61513713" ry="2.51243553"></ellipse>
                                <ellipse id="椭圆形" fill="#FF7563" fill-rule="nonzero" transform="translate(86.088650, 28.483279) rotate(-66.095688) translate(-86.088650, -28.483279) " cx="86.08865" cy="28.4832793" rx="1.61513713" ry="2.51243553"></ellipse>
                                <path d="M78.7399554,17.0042411 C78.7399554,17.0042411 80.8935268,16.4658482 82.0151786,18.3950893" id="路径" stroke="#1D0B16" stroke-width="1.4922" stroke-linecap="round"></path>
                                <path d="M65.6390625,18.6642857 C65.6390625,18.6642857 67.1645089,19.5616071 67.3439732,22.2984375 C67.3439732,22.2984375 66.8953125,20.5037946 65.1904018,20.1897321" id="路径" stroke="#FF7C8B" stroke-width="0.7461" stroke-linecap="round"></path>
                                <path d="M86.2325893,19.6513393 C86.2325893,19.6513393 87.8029018,19.1129464 88.7002232,20.2794643" id="路径" stroke="#1D0B16" stroke-width="1.4922" stroke-linecap="round"></path>
                                <circle id="椭圆形" stroke="#FEFEFE" stroke-width="1.1192" stroke-linecap="round" cx="77.4837054" cy="21.2216518" r="4.0828125"></circle>
                                <circle id="椭圆形" stroke="#FEFEFE" stroke-width="1.1192" stroke-linecap="round" cx="87.5785714" cy="24.6314732" r="4.0828125"></circle>
                                <line x1="81.2973214" y1="22.7022321" x2="83.4957589" y2="23.4649554" id="路径" stroke="#FEFEFE" stroke-width="1.1192" stroke-linecap="round"></line>
                                <polygon id="路径" fill="#FEFEFE" fill-rule="nonzero" points="69.0040179 18.0361607 73.8944196 19.2924107 73.490625 20.3243304 69.5424107 18.8886161"></polygon>
                                <ellipse id="椭圆形" fill="#1D0B16" fill-rule="nonzero" transform="translate(78.215072, 21.684997) rotate(-72.998370) translate(-78.215072, -21.684997) " cx="78.2150717" cy="21.6849972" rx="1.1665222" ry="1"></ellipse>
                                <ellipse id="椭圆形" fill="#1D0B16" fill-rule="nonzero" transform="translate(86.672900, 24.097711) rotate(-72.998370) translate(-86.672900, -24.097711) " cx="86.6729004" cy="24.0977105" rx="1.1665222" ry="1"></ellipse>
                                <path d="M74.2533482,39.6167411 C69.5872768,37.2388393 68.2861607,34.7263393 66.3569196,32.3484375 C66.8055804,30.1948661 66.8504464,28.4899554 66.8055804,27.3234375 C66.8953125,28.6694196 67.9720982,34.4571429 77.8875,36.2517857 C77.3939732,37.1042411 77.3042411,37.9118304 77.3042411,38.94375 C77.3042411,39.7962054 77.6631696,40.6037946 77.9772321,41.0524554 C77.9772321,41.0075893 75.9582589,40.4691964 74.2533482,39.6167411 Z" id="路径" fill="#FD8A99" fill-rule="nonzero"></path>
                                <path d="M35.3095982,89.9116071 C35.2198661,90.0910714 35.0404018,90.1808036 34.8609375,90.1808036 C34.7712054,90.1808036 34.6814732,90.1808036 34.6366071,90.1359375 C28.2207589,86.7261161 21.5357143,86.4569196 17.0939732,86.8607143 C12.6970982,87.2196429 9.51160714,88.2515625 8.88348214,88.4758929 C8.92834821,88.1169643 8.97321429,87.7580357 8.97321429,87.3991071 C10.1397321,87.0401786 13.0560268,86.2325893 16.959375,85.8736607 C21.5805804,85.4698661 28.4899554,85.7839286 35.0852679,89.2834821 C35.3095982,89.3732143 35.4441964,89.6872768 35.3095982,89.9116071 Z" id="路径" fill="#CA472B" fill-rule="nonzero"></path>
                                <path d="M35.175,98.4810268 C35.175,98.4810268 34.1879464,87.1747768 39.1232143,75.6890625" id="路径" stroke="#CA472B" stroke-width="1.4922" stroke-linecap="round"></path>
                                <path d="M61.2421875,95.8339286 C61.2421875,94.8917411 61.2421875,93.9495536 61.2421875,93.0522321 L61.2421875,92.7830357 C61.2421875,91.8408482 61.2421875,90.8986607 61.2421875,90.0013393 C61.2421875,89.9116071 61.2421875,89.821875 61.2421875,89.7321429 C61.2421875,88.7899554 61.1973214,87.8477679 61.1973214,86.9504464 C61.1973214,86.8607143 61.1973214,86.7709821 61.1973214,86.68125 C61.1973214,85.7390625 61.1524554,84.796875 61.1075893,83.8995536 C61.1075893,83.8098214 61.1075893,83.7200893 61.1075893,83.6303571 C61.0627232,82.7779018 61.0627232,81.9254464 61.0178571,81.1178571 C61.0178571,81.028125 61.0178571,80.9383929 61.0178571,80.8486607 C60.9729911,79.8616071 60.928125,78.9194196 60.8832589,77.9772321 C60.8832589,77.8875 60.8832589,77.7977679 60.8832589,77.7080357 C60.8383929,76.7209821 60.7486607,75.7787946 60.7037946,74.8366071 C60.7037946,74.746875 60.7037946,74.6571429 60.7037946,74.5674107 C60.6140625,73.5803571 60.5243304,72.6381696 60.4345982,71.6959821 C60.4345982,71.60625 60.4345982,71.5165179 60.3897321,71.4267857 C60.3,70.4845982 60.1654018,69.5872768 60.0756696,68.7348214 C60.0756696,68.6450893 60.0756696,68.5553571 60.0308036,68.465625 C59.8962054,67.4785714 59.7616071,66.58125 59.6270089,65.7287946 C59.6270089,65.6390625 59.5821429,65.5493304 59.5821429,65.4595982 C59.4026786,64.4276786 59.2680804,63.5303571 59.0886161,62.6779018 C59.0886161,62.5881696 59.04375,62.4984375 59.04375,62.4087054 C58.8642857,61.4216518 58.6399554,60.5243304 58.415625,59.7167411 C58.415625,59.6270089 58.3707589,59.5372768 58.3707589,59.4475446 C58.1015625,58.3258929 57.8323661,57.3837054 57.5631696,56.4863839 C57.5183036,56.3966518 57.5183036,56.3069196 57.4734375,56.2171875 C57.159375,55.2301339 56.8901786,54.3328125 56.7107143,53.4803571 L56.6658482,53.2111607 C56.6658482,53.2111607 56.6658482,53.1662946 56.6658482,53.1662946 C56.5761161,52.7625 56.4863839,52.3587054 56.3966518,51.9549107 C56.1723214,50.8332589 56.0377232,49.7564732 55.9479911,48.7694196 C55.5890625,44.1930804 56.6658482,41.6357143 56.6658482,41.6357143 C60.0756696,50.2051339 65.9979911,51.0127232 71.60625,50.0705357 C77.2145089,49.1283482 79.8167411,43.6098214 79.8167411,43.6098214 C80.0410714,43.8341518 80.2654018,44.0584821 80.4897321,44.3276786 C80.4897321,44.3276786 80.4897321,44.3276786 80.4897321,44.3276786 C82.3292411,46.48125 83.9444196,49.621875 85.425,53.4354911 C85.4698661,53.5252232 85.4698661,53.6149554 85.5147321,53.7046875 C85.8287946,54.6020089 86.1428571,55.4993304 86.4569196,56.4415179 C86.5017857,56.53125 86.5017857,56.6209821 86.5466518,56.7107143 C86.8607143,57.6529018 87.1747768,58.6399554 87.4439732,59.671875 C87.4888393,59.7616071 87.4888393,59.8513393 87.5337054,59.9410714 C87.8029018,60.7935268 88.0272321,61.6908482 88.2515625,62.6330357 C88.2515625,62.7227679 88.2964286,62.8125 88.2964286,62.9022321 C88.5207589,63.7995536 88.7450893,64.7417411 88.9694196,65.6839286 C88.9694196,65.7736607 89.0142857,65.8633929 89.0142857,65.953125 C89.2386161,66.8504464 89.4180804,67.7477679 89.5975446,68.6899554 C89.5975446,68.7796875 89.6424107,68.8694196 89.6424107,68.9591518 C89.821875,69.8564732 90.0013393,70.7537946 90.1808036,71.6511161 C90.1808036,71.7408482 90.2256696,71.8305804 90.2256696,71.9203125 C90.4051339,72.8625 90.5845982,73.8046875 90.7640625,74.7917411 C90.7640625,74.8814732 90.8089286,74.9712054 90.8089286,75.0609375 C90.9883929,76.003125 91.1229911,76.9453125 91.3024554,77.9323661 C91.3024554,78.0220982 91.3473214,78.1118304 91.3473214,78.2015625 C91.5267857,79.1886161 91.6613839,80.1756696 91.8408482,81.1627232 C91.8408482,81.2524554 91.8857143,81.3421875 91.8857143,81.4319196 C92.0203125,82.2395089 92.1100446,83.0470982 92.2446429,83.8546875 C92.2446429,83.9444196 92.2895089,84.0341518 92.2895089,84.1238839 C92.4241071,85.0660714 92.5587054,85.9633929 92.6933036,86.9055804 C92.6933036,86.9953125 92.7381696,87.0850446 92.7381696,87.1747768 C92.8727679,88.1169643 93.0073661,89.0142857 93.0970982,89.9564732 C93.0970982,90.0462054 93.0970982,90.1359375 93.1419643,90.2256696 C93.2765625,91.1678571 93.3662946,92.0651786 93.5008929,93.0073661 C93.5008929,93.0970982 93.5008929,93.1868304 93.5457589,93.2765625 C93.6354911,94.21875 93.7700893,95.1160714 93.8598214,96.0582589 C93.8598214,96.1479911 93.8598214,96.2377232 93.9046875,96.3274554 C93.9944196,97.2696429 94.1290179,98.1669643 94.21875,99.1091518 C94.21875,99.1988839 94.21875,99.2886161 94.2636161,99.3783482 C94.3533482,100.051339 94.3982143,100.72433 94.4879464,101.397321 C94.5328125,101.666518 94.5328125,101.935714 94.5776786,102.160045 C94.5776786,102.249777 94.5776786,102.339509 94.6225446,102.429241 C94.7122768,103.371429 94.8020089,104.313616 94.8917411,105.210937 C94.8917411,105.30067 94.8917411,105.390402 94.9366071,105.480134 C95.0263393,106.422321 95.1160714,107.364509 95.1609375,108.26183 C95.1609375,108.351562 95.1609375,108.441295 95.1609375,108.531027 C95.2506696,109.473214 95.3404018,110.415402 95.3852679,111.312723 C95.3852679,111.402455 95.3852679,111.492187 95.3852679,111.58192 C95.475,112.524107 95.5198661,113.466295 95.6095982,114.363616 C95.6095982,114.453348 95.6095982,114.54308 95.6095982,114.632812 C95.6993304,115.575 95.7441964,116.517187 95.7890625,117.414509 C95.7890625,117.504241 95.7890625,117.593973 95.7890625,117.683705 C95.8339286,118.670759 95.9236607,119.56808 95.9685268,120.465402 C95.9685268,120.555134 95.9685268,120.644866 95.9685268,120.734598 C96.0133929,121.721652 96.103125,122.663839 96.1479911,123.516295 C96.1479911,123.606027 96.1479911,123.695759 96.1479911,123.785491 C96.1928571,124.817411 96.2377232,125.714732 96.2825893,126.567187 C96.2825893,126.65692 96.2825893,126.746652 96.2825893,126.836384 C96.3274554,127.958036 96.3723214,128.900223 96.4171875,129.61808 C96.4171875,129.707812 96.4171875,129.797545 96.4171875,129.887277 C96.4171875,130.156473 96.4620536,130.42567 96.4620536,130.65 L60.1205357,130.65 C60.1205357,130.291071 60.1654018,129.932143 60.1654018,129.573214 C60.1654018,129.483482 60.1654018,129.39375 60.1654018,129.304018 C60.2102679,128.36183 60.2551339,127.419643 60.3,126.522321 C60.3,126.432589 60.3,126.342857 60.3,126.253125 C60.3448661,125.310937 60.3897321,124.36875 60.4345982,123.471429 C60.4345982,123.381696 60.4345982,123.291964 60.4345982,123.202232 C60.4794643,122.260045 60.5243304,121.317857 60.5691964,120.420536 C60.5691964,120.330804 60.5691964,120.241071 60.5691964,120.151339 C60.6140625,119.209152 60.6589286,118.266964 60.7037946,117.369643 C60.7037946,117.279911 60.7037946,117.190179 60.7037946,117.100446 C60.7486607,116.158259 60.7935268,115.216071 60.8383929,114.31875 C60.8383929,114.229018 60.8383929,114.139286 60.8383929,114.049554 C60.8832589,113.107366 60.928125,112.165179 60.928125,111.267857 C60.928125,111.178125 60.928125,111.088393 60.928125,110.998661 C60.9729911,110.056473 60.9729911,109.114286 61.0178571,108.216964 C61.0178571,108.127232 61.0178571,108.0375 61.0178571,107.947768 C61.0627232,107.00558 61.0627232,106.063393 61.1075893,105.166071 C61.1075893,105.076339 61.1075893,104.986607 61.1075893,104.896875 C61.1075893,103.954687 61.1524554,103.0125 61.1524554,102.115179 C61.1524554,102.025446 61.1524554,101.935714 61.1524554,101.845982 C61.1524554,100.903795 61.1973214,99.9616071 61.1973214,99.0642857 C61.1973214,98.9745536 61.1973214,98.8848214 61.1973214,98.7950893 C61.1973214,97.8529018 61.1973214,96.9107143 61.2421875,96.0133929 L61.2421875,95.8339286 L61.2421875,95.8339286 Z" id="路径" fill="#F7CB82" fill-rule="nonzero"></path>
                                <path d="M94.3084821,101.397321 L82.4638393,57.5183036 L80.7589286,53.5700893 L78.4707589,58.415625 C76.4069196,55.3647321 71.3819196,51.6857143 71.3819196,51.6857143 C67.9272321,53.0316964 64.2482143,60.6589286 64.2482143,60.6589286 C60.1654018,59.04375 57.3837054,53.2560268 57.3837054,53.2560268 L55.8133929,48.99375 C55.4544643,44.4174107 56.53125,41.8600446 56.53125,41.8600446 C59.9410714,50.4294643 65.8633929,51.2370536 71.4716518,50.2948661 C77.0799107,49.3526786 79.6821429,43.8341518 79.6821429,43.8341518 C79.9064732,44.0584821 80.1308036,44.2828125 80.3551339,44.5520089 C80.3551339,44.5520089 80.3551339,44.5520089 80.3551339,44.5520089 C88.0272321,53.6149554 92.1549107,80.0410714 94.3084821,101.397321 Z" id="路径" fill="#D39846" fill-rule="nonzero"></path>
                                <ellipse id="椭圆形" fill="#D29846" fill-rule="nonzero" cx="71.9651786" cy="55.3647321" rx="1" ry="1"></ellipse>
                                <ellipse id="椭圆形" fill="#D29846" fill-rule="nonzero" cx="72.5933036" cy="58.8642857" rx="1" ry="1"></ellipse>
                                <path d="M85.3352679,53.8841518 L56.6209821,53.6149554 L56.5761161,53.3457589 L85.2455357,53.6149554 C85.2904018,53.7046875 85.2904018,53.7944196 85.3352679,53.8841518 Z" id="路径" fill="#D29846" fill-rule="nonzero"></path>
                                <path d="M86.3671875,56.8901786 L57.4734375,56.6209821 C57.4285714,56.53125 57.4285714,56.4415179 57.3837054,56.3517857 L86.2774554,56.6209821 C86.3223214,56.7107143 86.3671875,56.8004464 86.3671875,56.8901786 Z" id="路径" fill="#D29846" fill-rule="nonzero"></path>
                                <path d="M87.3542411,60.1205357 L58.3707589,59.8513393 C58.3707589,59.7616071 58.3258929,59.671875 58.3258929,59.5821429 L87.309375,59.8513393 C87.309375,59.9410714 87.3542411,60.0308036 87.3542411,60.1205357 Z" id="路径" fill="#D29846" fill-rule="nonzero"></path>
                                <path d="M88.1618304,63.0368304 L59.04375,62.7676339 C59.04375,62.6779018 58.9988839,62.5881696 58.9988839,62.4984375 L88.1169643,62.7676339 C88.1169643,62.8573661 88.1169643,62.9470982 88.1618304,63.0368304 Z" id="路径" fill="#D29846" fill-rule="nonzero"></path>
                                <path d="M88.8796875,66.0877232 L59.5821429,65.8185268 C59.5821429,65.7287946 59.5372768,65.6390625 59.5372768,65.5493304 L88.8348214,65.8185268 C88.8796875,65.953125 88.8796875,66.0428571 88.8796875,66.0877232 Z" id="路径" fill="#D29846" fill-rule="nonzero"></path>
                                <path d="M89.5526786,69.09375 L59.9859375,68.8245536 C59.9859375,68.7348214 59.9859375,68.6450893 59.9410714,68.5553571 L89.4629464,68.8245536 C89.5078125,68.9142857 89.5526786,69.0040179 89.5526786,69.09375 Z" id="路径" fill="#D29846" fill-rule="nonzero"></path>
                                <path d="M90.1808036,72.0549107 L60.3448661,71.7857143 C60.3448661,71.6959821 60.3448661,71.60625 60.3,71.5165179 L90.0910714,71.7857143 C90.1359375,71.8754464 90.1359375,71.9651786 90.1808036,72.0549107 Z" id="路径" fill="#D29846" fill-rule="nonzero"></path>
                                <path d="M90.7640625,75.1506696 L60.6140625,74.8814732 C60.6140625,74.7917411 60.6140625,74.7020089 60.6140625,74.6122768 L90.7191964,74.8814732 C90.7191964,75.0160714 90.7191964,75.1058036 90.7640625,75.1506696 Z" id="路径" fill="#D29846" fill-rule="nonzero"></path>
                                <path d="M91.3024554,78.2912946 L60.8383929,78.0220982 C60.8383929,77.9323661 60.8383929,77.8426339 60.8383929,77.7529018 L91.2575893,78.0220982 C91.2575893,78.1118304 91.2575893,78.2015625 91.3024554,78.2912946 Z" id="路径" fill="#D29846" fill-rule="nonzero"></path>
                                <path d="M91.7959821,81.5216518 L60.9729911,81.1627232 C60.9729911,81.0729911 60.9729911,80.9832589 60.9729911,80.8935268 L91.7511161,81.2524554 C91.7959821,81.3421875 91.7959821,81.4319196 91.7959821,81.5216518 Z" id="路径" fill="#D29846" fill-rule="nonzero"></path>
                                <path d="M92.1997768,84.16875 L61.1075893,83.8995536 C61.1075893,83.8098214 61.1075893,83.7200893 61.1075893,83.6303571 L92.1997768,83.8995536 C92.1997768,83.9892857 92.1997768,84.0790179 92.1997768,84.16875 Z" id="路径" fill="#D29846" fill-rule="nonzero"></path>
                                <path d="M92.6484375,87.2196429 L61.1973214,86.9504464 C61.1973214,86.8607143 61.1973214,86.7709821 61.1973214,86.68125 L92.6035714,86.9504464 C92.6035714,87.0401786 92.6484375,87.1299107 92.6484375,87.2196429 Z" id="路径" fill="#D29846" fill-rule="nonzero"></path>
                                <path d="M93.0522321,90.2705357 L61.2421875,90.0013393 C61.2421875,89.9116071 61.2421875,89.821875 61.2421875,89.7321429 L93.0073661,90.0013393 C93.0073661,90.0910714 93.0073661,90.1808036 93.0522321,90.2705357 Z" id="路径" fill="#D29846" fill-rule="nonzero"></path>
                                <path d="M93.4111607,93.3214286 L61.2421875,93.0522321 L61.2421875,92.7830357 L93.3662946,93.0522321 C93.4111607,93.1419643 93.4111607,93.2316964 93.4111607,93.3214286 Z" id="路径" fill="#D29846" fill-rule="nonzero"></path>
                                <path d="M93.7700893,96.3723214 L61.2421875,96.103125 L61.2421875,95.8339286 L93.7252232,96.103125 C93.7252232,96.1928571 93.7700893,96.2825893 93.7700893,96.3723214 Z" id="路径" fill="#D29846" fill-rule="nonzero"></path>
                                <path d="M94.0841518,99.4232143 L61.2421875,99.1540179 C61.2421875,99.0642857 61.2421875,98.9745536 61.2421875,98.8848214 L94.0841518,99.1540179 C94.0841518,99.24375 94.0841518,99.3334821 94.0841518,99.4232143 Z" id="路径" fill="#D29846" fill-rule="nonzero"></path>
                                <path d="M94.3982143,102.429241 L61.1973214,102.160045 C61.1973214,102.070313 61.1973214,101.98058 61.1973214,101.890848 L94.3982143,102.160045 C94.3982143,102.294643 94.3982143,102.384375 94.3982143,102.429241 Z" id="路径" fill="#D29846" fill-rule="nonzero"></path>
                                <path d="M94.6674107,105.480134 L61.1075893,105.210937 C61.1075893,105.121205 61.1075893,105.031473 61.1075893,104.941741 L94.6225446,105.210937 C94.6674107,105.30067 94.6674107,105.390402 94.6674107,105.480134 Z" id="路径" fill="#D29846" fill-rule="nonzero"></path>
                                <path d="M94.9366071,108.531027 L61.0178571,108.216964 C61.0178571,108.127232 61.0178571,108.0375 61.0178571,107.947768 L94.8917411,108.26183 C94.9366071,108.351562 94.9366071,108.441295 94.9366071,108.531027 Z" id="路径" fill="#D29846" fill-rule="nonzero"></path>
                                <path d="M95.2058036,111.58192 L60.928125,111.267857 C60.928125,111.178125 60.928125,111.088393 60.928125,110.998661 L95.1609375,111.312723 C95.2058036,111.402455 95.2058036,111.492188 95.2058036,111.58192 Z" id="路径" fill="#D29846" fill-rule="nonzero"></path>
                                <path d="M95.4301339,114.632813 L60.8383929,114.31875 C60.8383929,114.229018 60.8383929,114.139286 60.8383929,114.049554 L95.4301339,114.363616 C95.4301339,114.453348 95.4301339,114.54308 95.4301339,114.632813 Z" id="路径" fill="#D29846" fill-rule="nonzero"></path>
                                <path d="M95.6544643,117.638839 L60.7037946,117.324777 C60.7037946,117.235045 60.7037946,117.145313 60.7037946,117.05558 L95.6095982,117.369643 C95.6544643,117.504241 95.6544643,117.549107 95.6544643,117.638839 Z" id="路径" fill="#D29846" fill-rule="nonzero"></path>
                                <path d="M95.8339286,120.689732 L60.5691964,120.37567 C60.5691964,120.285937 60.5691964,120.196205 60.5691964,120.106473 L95.8339286,120.420536 C95.8339286,120.510268 95.8339286,120.6 95.8339286,120.689732 Z" id="路径" fill="#D29846" fill-rule="nonzero"></path>
                                <path d="M96.0133929,123.740625 L60.3897321,123.426562 C60.3897321,123.33683 60.3897321,123.247098 60.3897321,123.157366 L95.9685268,123.471429 C96.0133929,123.561161 96.0133929,123.650893 96.0133929,123.740625 Z" id="路径" fill="#D29846" fill-rule="nonzero"></path>
                                <path d="M96.1928571,126.791518 L60.2551339,126.477455 C60.2551339,126.387723 60.2551339,126.297991 60.2551339,126.208259 L96.1479911,126.522321 C96.1928571,126.612054 96.1928571,126.701786 96.1928571,126.791518 Z" id="路径" fill="#D29846" fill-rule="nonzero"></path>
                                <path d="M96.3274554,129.842411 L60.0756696,129.528348 C60.0756696,129.438616 60.0756696,129.348884 60.0756696,129.259152 L96.2825893,129.573214 C96.3274554,129.662946 96.3274554,129.752679 96.3274554,129.842411 Z" id="路径" fill="#D29846" fill-rule="nonzero"></path>
                                <path d="M64.6520089,82.3292411 L62.7227679,83.6303571 L55.0506696,72.8176339 C54.5571429,72.0997768 54.7366071,71.1127232 55.4544643,70.6640625 L55.4544643,70.6640625 C56.1723214,70.1705357 57.159375,70.3948661 57.6080357,71.1127232 L64.6520089,82.3292411 Z" id="路径" fill="#FFFFFF" fill-rule="nonzero"></path>
                                <path d="M71.4716518,50.25 C67.7926339,51.6857143 63.440625,58.9540179 63.440625,58.9540179 C60.8383929,57.6977679 58.2810268,54.7814732 56.3069196,52.0895089 C55.0058036,45.5390625 56.5761161,41.7703125 56.5761161,41.7703125 C59.9410714,50.3845982 65.8633929,51.1921875 71.4716518,50.25 Z" id="路径" fill="#F7CC82" fill-rule="nonzero"></path>
                                <path d="M80.6243304,57.0696429 C77.9323661,52.3587054 71.4716518,50.2948661 71.4716518,50.2948661 C77.0799107,49.3526786 79.6821429,43.8341518 79.6821429,43.8341518 C79.9064732,44.0584821 80.1308036,44.2828125 80.3551339,44.5520089 C80.3551339,44.5520089 80.3551339,44.5520089 80.3551339,44.5520089 C84.7071429,53.7495536 80.6243304,57.0696429 80.6243304,57.0696429 Z" id="路径" fill="#F7CC82" fill-rule="nonzero"></path>
                                <path d="M72.0549107,84.3930804 L69.4078125,96.0133929 C62.1395089,92.7381696 57.159375,99.9167411 55.4095982,103.0125 C54.1533482,105.255804 52.8073661,107.454241 51.2819196,109.51808 C40.3794643,124.548214 31.0024554,125.580134 28.265625,125.580134 C25.2595982,125.580134 20.5935268,125.310938 17.1388393,122.88817 C7.17857143,115.933929 8.52455357,97.5837054 8.56941964,95.6095982 C8.56941964,94.5328125 8.61428571,91.7511161 8.65915179,90.7191964 C26.4709821,87.0850446 34.6814732,92.7381696 34.6814732,92.7381696 L34.7263393,93.1419643 L35.0852679,97.8529018 L35.1301339,98.5258929 C35.1301339,98.5258929 35.7133929,98.1669643 36.6555804,97.5837054 C39.7513393,95.6993304 46.6607143,91.4370536 48.2758929,90.7191964 C50.3397321,89.7321429 54.1084821,87.0401786 58.6848214,83.1368304 C63.2611607,79.2334821 72.0549107,84.3930804 72.0549107,84.3930804 Z" id="路径" fill="#FFD3D3" fill-rule="nonzero"></path>
                                <path d="M25.3044643,105.883929 C25.2595982,105.928795 25.1698661,105.973661 25.0801339,105.973661 C24.9904018,105.973661 24.9006696,105.928795 24.8558036,105.883929 C24.7212054,105.74933 24.7212054,105.525 24.8558036,105.390402 C25.125,105.121205 30.9127232,99.6475446 35.1301339,97.8080357 L35.175,98.4810268 C35.175,98.4810268 34.2328125,99.0642857 35.175,98.4810268" id="路径" fill="#FF7C8B" fill-rule="nonzero"></path>
                                <path d="M34.7712054,93.1419643 C23.0162946,89.0142857 11.5754464,92.6933036 8.61428571,93.8149554 C8.61428571,92.7381696 8.65915179,91.70625 8.70401786,90.7191964 C26.5158482,87.0850446 34.7263393,92.7381696 34.7263393,92.7381696 L34.7712054,93.1419643 Z" id="路径" fill="#F9929B" fill-rule="nonzero"></path>
                                <path d="M65.5493304,85.7390625 C65.5493304,85.7390625 69.4526786,86.1428571 70.7537946,87.309375" id="路径" stroke="#FF7C8B" stroke-width="1.1192" stroke-linecap="round"></path>
                                <path d="M64.8763393,88.3412946 C64.8763393,88.3412946 67.6131696,88.2964286 70.1705357,89.5526786" id="路径" stroke="#FF7C8B" stroke-width="1.1192" stroke-linecap="round"></path>
                                <path d="M64.6520089,91.3473214 C64.6520089,91.3473214 68.1515625,91.5267857 69.3629464,92.334375" id="路径" stroke="#FF7C8B" stroke-width="1.1192" stroke-linecap="round"></path>
                                <path d="M100.993527,100.410268 L68.1066964,100.410268 C67.3888393,100.410268 66.8504464,99.7372768 67.0299107,99.0194196 L77.2145089,61.0178571 C77.4837054,59.9859375 78.4258929,59.2680804 79.4578125,59.2680804 L112.524107,58.9091518 L100.993527,100.410268 Z" id="路径" fill="#3465FF" fill-rule="nonzero"></path>
                                <line x1="78.8745536" y1="61.9151786" x2="69.3629464" y2="96.6863839" id="路径" stroke="#FFFFFF" stroke-width="1.4922" stroke-linecap="round"></line>
                                <path d="M79.5924107,59.2232143 C79.5924107,59.2232143 79.9513393,56.7107143 82.1946429,55.1852679 C84.2136161,53.7944196 88.565625,53.5252232 88.565625,59.1334821 L79.5924107,59.2232143 Z" id="路径" fill="#DFE5ED" fill-rule="nonzero"></path>
                                <path d="M114.722545,65.4147321 L114.722545,65.4147321 L113.197098,72.1895089 C113.197098,72.1895089 96.5966518,70.9332589 85.1558036,72.5484375 C85.1558036,72.5484375 93.1419643,54.4225446 84.796875,54.3328125 L108.531027,53.7046875 L110.684598,53.7046875 C116.651786,55.4095982 114.767411,65.1904018 114.722545,65.4147321 Z" id="路径" fill="#FFFFFF" fill-rule="nonzero"></path>
                                <line x1="91.1678571" y1="57.1145089" x2="110.415402" y2="56.8004464" id="路径" stroke="#9BCEFD" stroke-width="1.4922" stroke-linecap="round"></line>
                                <line x1="91.3024554" y1="60.2102679" x2="110.819196" y2="59.8064732" id="路径" stroke="#9BCEFD" stroke-width="1.4922" stroke-linecap="round"></line>
                                <line x1="91.3921875" y1="63.3060268" x2="110.684598" y2="62.8573661" id="路径" stroke="#9BCEFD" stroke-width="1.4922" stroke-linecap="round"></line>
                                <path d="M124.099554,88.1618304 C114.273884,87.2196429 108.396429,90.9883929 108.351562,91.0332589 C108.26183,91.078125 108.172098,91.1229911 108.082366,91.1229911 C107.902902,91.1229911 107.768304,91.0332589 107.678571,90.8986607 C107.543973,90.6743304 107.588839,90.3602679 107.81317,90.1808036 C108.082366,90.0013393 113.914955,86.2325893 123.920089,87.1299107 C123.964955,87.4888393 124.054687,87.8477679 124.099554,88.1618304 Z" id="路径" fill="#CA472B" fill-rule="nonzero"></path>
                                <polyline id="路径" stroke="#FDF0ED" stroke-width="0.7461" stroke-linecap="round" stroke-linejoin="round" points="65.5941964 22.7919643 60.5243304 28.1310268 64.696875 29.7910714 65.2352679 26.8747768"></polyline>
                                <path d="M113.376562,125.939062 C105.704464,128.586161 101.711384,123.920089 100.72433,122.529241 L100.320536,121.676786 C100.320536,121.676786 99.4232143,119.209152 98.9296875,116.651786 C98.1220982,112.613839 98.7502232,100.27567 98.7502232,100.27567 C98.7502232,100.27567 90.7640625,98.7950893 88.3861607,93.7700893 C87.8926339,92.8727679 89.1040179,93.0522321 89.5975446,93.3214286 C89.0591518,92.8727679 87.3991071,91.2127232 87.8029018,90.2256696 C88.3412946,89.0142857 90.8537946,91.5267857 91.1229911,91.70625 C91.3921875,91.8408482 87.2645089,88.3861607 88.0720982,87.0401786 C88.6104911,86.1428571 91.70625,88.8796875 91.9754464,89.0142857 C92.2446429,89.1488839 88.6104911,86.0979911 90.0013393,85.0660714 C91.078125,84.2584821 92.6933036,88.3861607 100.410268,88.3861607 C103.102232,88.3861607 104.537946,87.9823661 105.659598,83.6303571 C105.659598,83.6303571 107.050446,85.0660714 107.364509,87.2196429 C107.364509,87.2196429 108.531027,92.2446429 108.486161,93.0522321 C108.486161,93.0522321 114.857143,88.5207589 124.548214,90.2256696 C124.548214,90.2256696 124.548214,90.2256696 124.548214,90.2256696 C124.59308,90.6743304 124.59308,91.1229911 124.59308,91.5716518 C125.131473,104.986607 122.618973,122.798437 113.376562,125.939062 Z" id="路径" fill="#FFD3D3" fill-rule="nonzero"></path>
                                <path d="M110.101339,96.0133929 C110.101339,96.0133929 111.716518,103.954687 117.728571,106.960714 C117.549107,106.915848 111.178125,106.018527 108.486161,93.0970982 C108.486161,93.0970982 114.857143,88.565625 124.548214,90.2705357 C124.548214,90.2705357 124.548214,90.2705357 124.548214,90.2705357 C124.59308,90.7191964 124.59308,91.1678571 124.59308,91.6165179 C122.260045,91.3024554 114.991741,90.8986607 110.101339,96.0133929 Z" id="路径" fill="#FD858D" fill-rule="nonzero"></path>
                                <path d="M92.4241071,89.2386161 C92.4241071,89.2386161 94.1290179,90.7191964 98.1669643,91.2575893" id="路径" stroke="#FB7A8C" stroke-width="0.7461" stroke-linecap="round"></path>
                                <path d="M91.3921875,91.8408482 C91.3921875,91.8408482 94.5776786,93.9495536 97.5837054,94.1290179" id="路径" stroke="#FB7A8C" stroke-width="0.7461" stroke-linecap="round"></path>
                                <path d="M90.0013393,93.6354911 C90.0013393,93.6354911 91.8857143,95.6993304 95.1160714,96.3723214" id="路径" stroke="#FB7A8C" stroke-width="0.7461" stroke-linecap="round"></path>
                            </g>
                        </g>
                        <path d="M94.4879464,283.463839 C94.4879464,283.463839 54.5122768,261.434598 57.2491071,248.827232 C57.5183036,247.615848 58.7745536,245.507143 59.5821429,244.699554 C77.6631696,226.663393 103.999554,279.470759 105.928795,283.463839 L94.4879464,283.463839 L94.4879464,283.463839 Z" id="路径" fill="#95CBFB" fill-rule="nonzero"></path>
                        <path d="M67.5234375,252.192187 C67.5234375,252.192187 91.3921875,264.799554 100.5,283.239509" id="路径" stroke="#FFFFFF" stroke-width="2" stroke-linecap="round"></path>
                        <path d="M110.101339,283.239509 C110.101339,283.239509 109.787277,259.595089 83.8098214,234.380357 C74.8366071,225.676339 60.0308036,217.914509 49.6667411,205.307143 C37.2837054,190.232143 36.9696429,179.464286 51.3716518,169.145089 C64.2033482,159.947545 145.635268,160.396205 116.382589,283.508705 L110.101339,283.239509 Z" id="路径" fill="#95CBFB" fill-rule="nonzero"></path>
                        <path d="M73.1316964,191.219196 C73.1316964,191.219196 114.767411,223.433036 113.421429,283.418973" id="路径" stroke="#FFFFFF" stroke-width="2" stroke-linecap="round"></path>
                        <path d="M116.068527,226.842857 C116.068527,226.842857 117.324777,241.603795 110.370536,253.448438" id="路径" stroke="#FFFFFF" stroke-width="2" stroke-linecap="round"></path>
                        <path d="M78.9194196,217.645312 C78.9194196,217.645312 95.3852679,222.490848 103.595759,232.944643" id="路径" stroke="#FFFFFF" stroke-width="2" stroke-linecap="round"></path>
                        <line x1="0.0897321429" y1="283.374107" x2="602.955134" y2="283.374107" id="路径" stroke="#95CBFB" stroke-width="6" stroke-linecap="round"></line>
                        <g id="编组" transform="translate(470.645089, 201.897321)">
                            <path d="M29.7462054,26.1120536 L8.38995536,26.1120536 C6.81964286,26.1120536 5.56339286,24.8558036 5.56339286,23.2854911 L5.56339286,7.94129464 C5.56339286,6.37098214 6.81964286,5.11473214 8.38995536,5.11473214 L29.7462054,5.11473214 C31.3165179,5.11473214 32.5727679,6.37098214 32.5727679,7.94129464 L32.5727679,23.2854911 C32.5727679,24.8558036 31.3165179,26.1120536 29.7462054,26.1120536 Z" id="路径" fill="#FDFFFF" fill-rule="nonzero"></path>
                            <path d="M87.7580357,50.2948661 L4.57633929,50.2948661 C2.10870536,50.2948661 0.134598214,48.3207589 0.134598214,45.853125 L0.134598214,4.75580357 C0.134598214,2.28816964 2.10870536,0.3140625 4.57633929,0.3140625 L87.7580357,0.3140625 C90.2256696,0.3140625 92.1997768,2.28816964 92.1997768,4.75580357 L92.1997768,45.853125 C92.1997768,48.3207589 90.2256696,50.2948661 87.7580357,50.2948661 Z" id="路径" fill="#9ACEFF" fill-rule="nonzero"></path>
                            <path d="M8.56941964,5.11473214 L29.6116071,5.11473214 C31.2716518,5.11473214 32.6176339,6.32611607 32.6176339,7.8515625 L32.6176339,7.8515625 L32.6176339,21.5357143 C32.6176339,23.0611607 31.2716518,24.2725446 29.6116071,24.2725446 L29.6116071,24.2725446 L8.56941964,24.2725446 C6.909375,24.2725446 5.56339286,23.0611607 5.56339286,21.5357143 L5.56339286,7.8515625 C5.56339286,6.32611607 6.909375,5.11473214 8.56941964,5.11473214 L8.56941964,5.11473214 Z" id="路径" stroke="#FDFFFF" stroke-width="2.8"></path>
                            <path d="M19.0680804,14.7609375 L27.6823661,9.7359375 C28.0412946,9.51160714 28.4899554,9.64620536 28.7142857,10.0051339 C28.9386161,10.3640625 28.8040179,10.8127232 28.4450893,11.0370536 L19.4270089,16.2863839 C19.2026786,16.4209821 18.8886161,16.4209821 18.6642857,16.2863839 L9.64620536,11.0370536 C9.28727679,10.8127232 9.15267857,10.3640625 9.37700893,10.0051339 C9.60133929,9.64620536 10.05,9.51160714 10.4089286,9.7359375 L19.0680804,14.7609375 Z" id="路径" fill="#FDFFFF" fill-rule="nonzero"></path>
                            <line x1="38.5848214" y1="8.43482143" x2="72.9073661" y2="8.43482143" id="路径" stroke="#4D68FD" stroke-width="2" stroke-linecap="round"></line>
                            <line x1="38.5848214" y1="13.7290179" x2="64.2482143" y2="13.7290179" id="路径" stroke="#4D68FD" stroke-width="2" stroke-linecap="round"></line>
                            <line x1="38.5848214" y1="18.9783482" x2="60.0756696" y2="18.9783482" id="路径" stroke="#4D68FD" stroke-width="2" stroke-linecap="round"></line>
                            <line x1="5.56339286" y1="30.0154018" x2="71.2473214" y2="30.0154018" id="路径" stroke="#FFFFFF" stroke-width="2" stroke-linecap="round"></line>
                            <line x1="5.56339286" y1="35.7582589" x2="83.9444196" y2="35.7582589" id="路径" stroke="#FFFFFF" stroke-width="2" stroke-linecap="round"></line>
                            <line x1="5.56339286" y1="41.5011161" x2="32.5727679" y2="41.5011161" id="路径" stroke="#FFFFFF" stroke-width="2" stroke-linecap="round"></line>
                        </g>
                        <g id="编组" transform="translate(222.535714, 51.147321)">
                            <path d="M50.0256696,21.0870536 L10.7678571,21.0870536 C4.98013393,21.0870536 0.3140625,16.4209821 0.3140625,10.6332589 L0.3140625,10.6332589 C0.3140625,4.84553571 4.98013393,0.179464286 10.7678571,0.179464286 L50.0256696,0.179464286 C55.8133929,0.179464286 60.4794643,4.84553571 60.4794643,10.6332589 L60.4794643,10.6332589 C60.4794643,16.4209821 55.8133929,21.0870536 50.0256696,21.0870536 Z" id="路径" fill="#4B69FD" fill-rule="nonzero"></path>
                            <g transform="translate(12.113839, 6.281250)" id="路径" stroke="#FFFFFF" stroke-linecap="round" stroke-width="2">
                                <line x1="0.269196429" y1="0.628125" x2="36.3415179" y2="0.628125"></line>
                                <line x1="0.269196429" y1="4.396875" x2="28.7591518" y2="4.396875"></line>
                                <line x1="0.269196429" y1="8.12075893" x2="28.7591518" y2="8.12075893"></line>
                            </g>
                            <polygon id="路径" fill="#4B69FD" fill-rule="nonzero" points="12.7868304 20.8627232 12.7868304 25.125 17.2285714 20.6832589"></polygon>
                        </g>
                        <g id="编组" transform="translate(297.910714, 75.375000)">
                            <path d="M67.7029018,23.3752232 L11.7100446,23.3752232 C5.29419643,23.3752232 0.0897321429,18.1707589 0.0897321429,11.7549107 L0.0897321429,11.7549107 C0.0897321429,5.3390625 5.29419643,0.134598214 11.7100446,0.134598214 L67.7029018,0.134598214 C74.11875,0.134598214 79.3232143,5.3390625 79.3232143,11.7549107 L79.3232143,11.7549107 C79.3232143,18.215625 74.11875,23.3752232 67.7029018,23.3752232 Z" id="路径" fill="#4B69FD" fill-rule="nonzero"></path>
                            <polygon id="路径" fill="#4B69FD" fill-rule="nonzero" points="65.1904018 22.3881696 65.1904018 27.6823661 60.2102679 22.2087054"></polygon>
                            <g transform="translate(9.870536, 4.935268)" id="路径" stroke="#FFFFFF" stroke-linecap="round" stroke-width="2">
                                <line x1="0.179464286" y1="0.628125" x2="59.4475446" y2="0.628125"></line>
                                <line x1="0.179464286" y1="4.80066964" x2="47.0196429" y2="4.80066964"></line>
                                <line x1="0.179464286" y1="8.92834821" x2="47.0196429" y2="8.92834821"></line>
                                <line x1="0.179464286" y1="13.0560268" x2="26.6953125" y2="13.0560268"></line>
                            </g>
                        </g>
                    </g>
                </g>
            </g>
        </g>
    </g>
</svg>