<?xml version="1.0" encoding="UTF-8"?>
<svg width="626px" height="419px" viewBox="0 0 626 419" version="1.1" xmlns="http://www.w3.org/2000/svg" xmlns:xlink="http://www.w3.org/1999/xlink">
    <title>img</title>
    <g id="页面-1" stroke="none" stroke-width="1" fill="none" fill-rule="evenodd">
        <g id="生涯模式" transform="translate(-360.000000, -1859.000000)" fill-rule="nonzero">
            <g id="personal" transform="translate(360.000000, 1859.000000)">
                <g id="img-">
                    <g id="img">
                        <rect id="矩形" fill="#FFDEC0" x="0" y="338.3" width="626" height="80"></rect>
                        <rect id="矩形" fill="#F9EFE5" x="0" y="0.5" width="626" height="338"></rect>
                        <polygon id="路径" fill="#FFFFFF" points="459.1 300.6 130.3 300.6 130.3 274.1 132.3 274.1 132.3 298.6 457.1 298.6 457.1 241.2 459.1 241.2"></polygon>
                        <polygon id="路径" fill="#FFFFFF" points="132.3 201.8 130.3 201.8 130.3 102.2 459.1 102.2 459.1 182.3 457.1 182.3 457.1 104.2 132.3 104.2"></polygon>
                        <path d="M540.6,241.6 L449,241.6 C446.8,241.6 445,239.8 445,237.6 L445,176.8 C445,174.6 446.8,172.8 449,172.8 L540.6,172.8 C542.8,172.8 544.6,174.6 544.6,176.8 L544.6,237.6 C544.6,239.8 542.8,241.6 540.6,241.6 Z M449,174.9 C447.9,174.9 447,175.8 447,176.9 L447,237.7 C447,238.8 447.9,239.7 449,239.7 L540.6,239.7 C541.7,239.7 542.6,238.8 542.6,237.7 L542.6,176.9 C542.6,175.8 541.7,174.9 540.6,174.9 L449,174.9 L449,174.9 Z" id="形状" fill="#FFFFFF"></path>
                        <rect id="矩形" fill="#FFFFFF" x="130.4" y="132.1" width="339.5" height="2"></rect>
                        <path d="M560.8,50.2 L560.8,129.2 C560.8,132.3 558.3,134.8 555.2,134.8 L453.6,134.8 C450.5,134.8 448,132.3 448,129.2 L448,50.2 C448,47.1 450.5,44.6 453.6,44.6 L555.2,44.6 C558.3,44.6 560.8,47.1 560.8,50.2 Z" id="路径" fill="#FFFFFF"></path>
                        <path d="M560.8,50.2 L560.8,64.7 L448,64.7 L448,50.2 C448,47.1 450.5,44.6 453.6,44.6 L555.2,44.6 C558.3,44.6 560.8,47.1 560.8,50.2 Z" id="路径" fill="#69B1E2"></path>
                        <g id="编组" transform="translate(484.000000, 40.000000)" fill="#FFB319">
                            <path d="M2.3,16.6 L2.3,16.6 C1,16.6 0,15.6 0,14.3 L0,2.7 C0,1.4 1,0.4 2.3,0.4 L2.3,0.4 C3.6,0.4 4.6,1.4 4.6,2.7 L4.6,14.3 C4.6,15.5 3.6,16.6 2.3,16.6 Z" id="路径"></path>
                            <path d="M38.5,16.6 L38.5,16.6 C37.2,16.6 36.2,15.6 36.2,14.3 L36.2,2.7 C36.2,1.4 37.2,0.4 38.5,0.4 L38.5,0.4 C39.8,0.4 40.8,1.4 40.8,2.7 L40.8,14.3 C40.9,15.5 39.8,16.6 38.5,16.6 Z" id="路径"></path>
                        </g>
                        <path d="M478.9,96 L461,96 L461,78.2 L478.8,78.2 L478.8,96 L478.9,96 Z M462,95 L477.8,95 L477.8,79.2 L462,79.2 L462,95 Z" id="形状" fill="#FFF1E9"></path>
                        <path d="M501.3,96 L483.5,96 L483.5,78.2 L501.3,78.2 L501.3,96 Z M484.5,95 L500.3,95 L500.3,79.2 L484.5,79.2 L484.5,95 Z" id="形状" fill="#FFF1E9"></path>
                        <path d="M523.8,96 L506,96 L506,78.2 L523.8,78.2 L523.8,96 Z M506.9,95 L522.7,95 L522.7,79.2 L506.9,79.2 L506.9,95 Z" id="形状" fill="#FFF1E9"></path>
                        <path d="M546.2,96 L528.4,96 L528.4,78.2 L546.2,78.2 L546.2,96 Z M529.4,95 L545.2,95 L545.2,79.2 L529.4,79.2 L529.4,95 Z" id="形状" fill="#FFF1E9"></path>
                        <path d="M478.9,117.3 L461,117.3 L461,99.5 L478.8,99.5 L478.8,117.3 L478.9,117.3 Z M462,116.3 L477.8,116.3 L477.8,100.5 L462,100.5 L462,116.3 Z" id="形状" fill="#FFF1E9"></path>
                        <rect id="矩形" fill="#69B1E2" x="484" y="99.9" width="16.8" height="16.8"></rect>
                        <path d="M523.8,117.3 L506,117.3 L506,99.5 L523.8,99.5 L523.8,117.3 Z M506.9,116.3 L522.7,116.3 L522.7,100.5 L506.9,100.5 L506.9,116.3 Z" id="形状" fill="#FFF1E9"></path>
                        <path d="M546.2,117.3 L528.4,117.3 L528.4,99.5 L546.2,99.5 L546.2,117.3 Z M529.4,116.3 L545.2,116.3 L545.2,100.5 L529.4,100.5 L529.4,116.3 Z" id="形状" fill="#FFF1E9"></path>
                        <polygon id="路径" fill="#FEB103" points="246.7 233.1 337.9 220 356.6 225.4 354.8 338.3 227.4 338.3"></polygon>
                        <path d="M267.9,245.7 C260.6,243.6 254.8,238 252.4,230.7 C247.8,216.5 245.2,191.9 279.2,185 C327.8,175.1 359,204.2 354.4,224.2 C349.9,243.8 336,251.4 318,239.4 C318,239.5 293.2,253.1 267.9,245.7 Z" id="路径" fill="#F99B06"></path>
                        <path d="M288.3,205.8 C288.3,205.8 261.4,215.7 285.8,227 L288.3,205.8 Z" id="路径" fill="#1E0F2E"></path>
                        <path d="M343.6,163.7 C343.6,163.7 361.4,168.9 343.6,183.7 L343.6,163.7 Z" id="路径" fill="#8E3900"></path>
                        <path d="M270.9,168 C270.9,168 259.7,167 266.1,153.6 C266.1,153.6 245.6,151.4 264.9,137.1 C264.9,137.1 252.5,119.5 285.6,117.1 C285.6,117.1 287.5,92.9 305.4,110.1 C305.4,110.1 316.8,88.9 325.6,108.6 C325.6,108.6 350.4,93.8 343,118.4 C343,118.4 354.7,126.8 346.3,138.5 C346.3,138.5 370.5,140.4 347.7,156.9 C347.7,156.9 348.4,166.1 340.9,164.8 L291.8,177.1 L270.9,168 Z" id="路径" fill="#1F131D"></path>
                        <path d="M344.3,172.8 C344.3,172.8 345.4,213.4 325.6,220.4 C325.6,220.4 325.6,220.4 325.6,220.4 C325.6,220.9 325.3,231.2 313.6,233 C307.8,233.9 299.3,232.8 286.7,227.5 C286,227.2 285.4,226.5 285.4,225.7 L283.2,195.7 C283.1,194.7 282.4,193.9 281.5,193.7 C278.4,193.1 273.7,193.1 270.9,179.4 C270.4,177.2 270.3,174.4 270.8,171.7 C271.1,169.9 271.9,168.2 273.7,166.8 C277.8,163.6 283.9,165.1 286.4,169.6 C288.1,172.7 289.7,175.8 292.6,175.4 C297.1,174.7 293.1,155.1 296.4,150.4 C299.7,145.7 310.4,140.1 320.2,146.8 C324.2,149.5 329.1,146.8 331.5,145.1 C332.4,144.5 333.6,144.6 334.3,145.4 C337.5,148.8 344.7,158.3 344.3,172.8 Z" id="路径" fill="#B24C00"></path>
                        <ellipse id="椭圆形" fill="#1F131D" transform="translate(310.716110, 161.846270) rotate(-16.200388) translate(-310.716110, -161.846270) " cx="310.71611" cy="161.84627" rx="8.10006921" ry="4.00003418"></ellipse>
                        <ellipse id="椭圆形" fill="#1F131D" transform="translate(332.792620, 160.196240) rotate(-82.206966) translate(-332.792620, -160.196240) " cx="332.79262" cy="160.19624" rx="4.000144" ry="8.10029159"></ellipse>
                        <circle id="椭圆形" fill="#3C0E00" cx="313.9" cy="173.9" r="3.7"></circle>
                        <circle id="椭圆形" fill="#3C0E00" cx="334.3" cy="174.5" r="3.7"></circle>
                        <path d="M324.2,189.1 C323.8,189.1 323.5,188.9 323.3,188.5 C323.1,188 323.3,187.5 323.8,187.3 C326,186.4 327.3,185.3 327.7,184 C328,182.8 327.6,181.4 326.5,179.8 C323.7,175.9 322.1,171.6 321.7,167.3 L321.6,165.7 C321.6,165.2 321.9,164.8 322.5,164.7 C323,164.7 323.4,165 323.5,165.6 L323.6,167.2 C323.9,171.2 325.4,175.1 328,178.8 C329.5,180.9 330,182.8 329.5,184.6 C329,186.5 327.3,188 324.6,189.1 C324.4,189 324.3,189.1 324.2,189.1 Z" id="路径" fill="#1E0300"></path>
                        <ellipse id="椭圆形" fill="#753600" transform="translate(301.429389, 181.598791) rotate(-86.256839) translate(-301.429389, -181.598791) " cx="301.429389" cy="181.598791" rx="3.10010338" ry="7.60025345"></ellipse>
                        <ellipse id="椭圆形" fill="#753600" transform="translate(339.472513, 184.416602) rotate(-86.256839) translate(-339.472513, -184.416602) " cx="339.472513" cy="184.416602" rx="2.80009338" ry="7.30024344"></ellipse>
                        <path d="M309.3,191.8 C311.3,196.5 320.1,213.7 331.3,195.2 C331.5,194.8 331.3,194.3 330.8,194.2 L310,190.9 C309.5,190.8 309.1,191.3 309.3,191.8 Z" id="路径" fill="#FFFFFF"></path>
                        <path d="M285,183.9 C284.7,183.9 284.4,183.7 284.2,183.4 C283.3,181.8 282.2,180.8 280.9,180.5 C279,180 277.2,181.2 277.1,181.2 C276.7,181.5 276.1,181.4 275.8,180.9 C275.5,180.5 275.6,179.9 276,179.6 C276.1,179.5 278.5,178 281.2,178.6 C281.6,178.7 282,178.8 282.3,179 C279.4,174.5 274.6,174.8 274.3,174.8 C273.8,174.8 273.4,174.4 273.3,173.9 C273.3,173.4 273.7,173 274.2,172.9 C274.3,172.9 283.4,172.5 285.8,182.6 C285.9,183 285.7,183.5 285.2,183.7 C285.2,183.9 285.1,183.9 285,183.9 Z" id="路径" fill="#290400"></path>
                        <path d="M325.6,220.4 C325.6,220.9 325.3,231.2 313.6,233 C301.7,226.3 295.6,215.4 295.6,215.4 C300.7,218.1 306.1,219.9 312.2,220.4 C316.6,221 321.9,220.6 325.6,220.4 Z" id="路径" fill="#29100C"></path>
                        <path d="M232.7,336.9 C232.6,336.9 232.5,336.9 232.4,336.9 C231.9,336.7 231.6,336.2 231.7,335.7 C237.6,315.4 236.5,297.2 236.4,297 C236.4,296.4 236.8,296 237.3,295.9 C237.8,295.9 238.3,296.3 238.4,296.8 C238.4,297 239.5,315.5 233.6,336.1 C233.5,336.7 233.1,336.9 232.7,336.9 Z" id="路径" fill="#E28508"></path>
                        <path d="M455.4,157.1 L408.3,225.3 L406.7,225.4 C389.3,226.5 371.8,226.1 354.4,224.2 L354.4,224.2 L351.5,265.7 L427.7,255.4 C427.7,255.4 431.3,255.3 438.6,239.8 C445.6,224.8 475.3,170.8 475.3,170.8 L462.5,154.5 L455.4,157.1 Z" id="路径" fill="#FDB103"></path>
                        <path d="M309.2,355.8 C309.2,355.8 287,355.7 263.9,355.9 C247.6,356 231,355.6 221.4,355.7 C198.5,356 150.1,362.3 148,341.1 C145.8,318.7 156,316.3 184.2,279.4 C215.5,238.5 252.3,230.7 252.3,230.7 L256.6,279.6 L204.7,326.4 L265.5,338 C265.6,338 265.8,338 265.9,337.9 C302.5,331.8 309.2,355.8 309.2,355.8 Z" id="路径" fill="#FDB103"></path>
                        <path d="M468.5,133.9 C461.5,130.9 453.8,136.2 453.8,143.8 C453.8,149.7 454.7,158.1 458.5,165.3 C465.3,178 483.8,173.5 489.1,158.8 C489.1,158.8 507.8,154 491.6,148.7 C491.6,148.7 499.4,138 487,139 C487,139 495.8,127.7 481,131.9 C481,131.9 492.7,113.2 488,110.2 C484,107.7 468.8,133.9 468.8,133.9 C468.8,133.9 468.7,134 468.5,133.9 Z" id="路径" fill="#A95100"></path>
                        <path d="M469.8,147.9 C467.5,147.9 463.6,146.9 457,142.5 C456.6,142.3 456.5,141.8 456.8,141.4 C457.1,141 457.5,140.9 457.9,141.2 C462.4,144.2 469.6,147.6 471.4,146 C472,145.5 472.9,143.4 468.5,135.3 C468.3,134.9 468.4,134.4 468.8,134.2 C469.2,134 469.7,134.1 469.9,134.5 C473.6,141.3 474.4,145.3 472.4,147.1 C472.2,147.3 471.5,147.9 469.8,147.9 Z" id="路径" fill="#7C2E00"></path>
                        <path d="M468.5,165.9 C468.3,165.9 468,165.8 467.9,165.6 C465.4,162.2 464.7,158.7 465.7,155.2 C468.5,145.6 483.8,139.5 484.5,139.3 C484.9,139.1 485.4,139.3 485.5,139.7 C485.7,140.1 485.5,140.6 485.1,140.7 C484.9,140.8 469.9,146.7 467.3,155.6 C466.4,158.6 467.1,161.6 469.3,164.6 C469.6,165 469.5,165.4 469.1,165.7 C468.8,165.8 468.7,165.9 468.5,165.9 Z" id="路径" fill="#7C2E00"></path>
                        <path d="M479.5,150.8 C478.3,150.8 477.2,150.6 476.4,150.1 C474.9,149.2 474.2,147.6 474.2,145.4 C474.2,145 474.6,144.6 475,144.6 C475,144.6 475,144.6 475,144.6 C475.4,144.6 475.8,145 475.8,145.4 C475.8,147.1 476.3,148.2 477.2,148.7 C480.1,150.5 487.1,147.4 489.5,146.1 C489.9,145.9 490.4,146 490.6,146.4 C490.8,146.8 490.7,147.3 490.3,147.5 C489.9,147.6 484.1,150.8 479.5,150.8 Z" id="路径" fill="#7C2E00"></path>
                        <path d="M486,159.7 C483.8,159.7 480.7,159.3 479.6,157.3 C478.5,155.5 479.3,152.9 481.9,149.6 C482.2,149.3 482.7,149.2 483,149.5 C483.3,149.8 483.4,150.3 483.1,150.6 C481,153.3 480.3,155.4 480.9,156.5 C482,158.4 486.7,158.2 488.2,158 C488.6,157.9 489,158.2 489.1,158.7 C489.2,159.1 488.9,159.5 488.4,159.6 C488.2,159.6 487.2,159.7 486,159.7 Z" id="路径" fill="#7C2E00"></path>
                        <path d="M309.2,355.8 C309.2,355.8 287,355.7 263.9,355.9 C264,348.1 264.9,342.3 266,338 C302.5,331.8 309.2,355.8 309.2,355.8 Z" id="路径" fill="#A95100"></path>
                        <path d="M289.8,355.4 C289.5,355.4 289.2,355.3 289.1,355 C286.6,350.5 274.8,347.7 274.6,347.6 C274.2,347.5 273.9,347.1 274,346.7 C274.1,346.3 274.5,346 274.9,346.1 C275.4,346.2 287.6,349.1 290.4,354.2 C290.6,354.6 290.5,355.1 290.1,355.3 C290.1,355.4 289.9,355.4 289.8,355.4 Z" id="路径" fill="#7C2E00"></path>
                        <path d="M301.2,355.7 C300.9,355.7 300.6,355.5 300.5,355.2 C297.3,348.2 286.2,345.2 286.1,345.2 C285.7,345.1 285.4,344.7 285.5,344.2 C285.6,343.8 286,343.5 286.5,343.6 C287,343.7 298.4,346.8 301.9,354.5 C302.1,354.9 301.9,355.4 301.5,355.5 C301.4,355.6 301.3,355.7 301.2,355.7 Z" id="路径" fill="#7C2E00"></path>
                        <path d="M203.8,327 C203.7,327 203.5,327 203.4,326.9 C203.4,326.9 203.1,326.8 202.7,326.5 C199.6,325.2 185.4,323.2 172.3,321.8 C171.8,321.7 171.4,321.3 171.4,320.7 C171.5,320.2 171.9,319.8 172.5,319.8 C176.3,320.2 191.7,321.8 199.8,323.6 C198.2,321.4 197,317.9 198.7,313 C198.9,312.5 199.4,312.2 200,312.4 C200.5,312.6 200.8,313.1 200.6,313.7 C198.3,320.6 202.5,323.9 203.9,324.8 C204.2,324.9 204.4,325.1 204.6,325.2 C205,325.5 205,326.1 204.8,326.5 C204.4,326.8 204.1,327 203.8,327 Z" id="路径" fill="#E28508"></path>
                        <polygon id="路径" fill="#EB8402" points="342.7 293.9 274.9 296.9 276.9 278.8 346.6 275.4"></polygon>
                        <path d="M310.8,267.6 C290.2,267.6 273.9,254.9 273.7,254.7 C272.8,254 272.7,252.8 273.4,251.9 C274.1,251 275.3,250.9 276.2,251.6 C276.3,251.7 285.3,258.8 298.1,262 C315,266.3 330.1,262.3 343,249.9 C343.8,249.1 345.1,249.2 345.8,250 C346.6,250.8 346.5,252.1 345.7,252.8 C334,264 321.8,267.6 310.8,267.6 Z" id="路径" fill="#EB8402"></path>
                        <path d="M289.8,322.2 C289.8,322.2 289.8,322.2 289.8,322.2 C289.2,322.2 288.8,321.7 288.8,321.2 C290.2,291.9 288.8,248.2 288.8,247.7 C288.8,247.1 289.2,246.7 289.8,246.7 C290.3,246.6 290.8,247.1 290.8,247.7 C290.8,248.1 292.2,291.9 290.8,321.3 C290.8,321.8 290.4,322.2 289.8,322.2 Z" id="路径" fill="#FFFFFF"></path>
                        <path d="M337.4,319.4 C337.4,319.4 337.4,319.4 337.4,319.4 C336.8,319.4 336.4,318.9 336.4,318.4 C337.8,289.1 336.4,245.4 336.4,244.9 C336.4,244.3 336.8,243.9 337.4,243.9 C337.9,243.8 338.4,244.3 338.4,244.9 C338.4,245.3 339.8,289.1 338.4,318.5 C338.4,319 337.9,319.4 337.4,319.4 Z" id="路径" fill="#FFFFFF"></path>
                        <path d="M235.2,299.9 C234.9,299.9 234.7,299.8 234.5,299.6 C234.1,299.2 234.1,298.6 234.5,298.2 L255.6,277.2 C256,276.8 256.6,276.8 257,277.2 C257.4,277.6 257.4,278.2 257,278.6 L235.9,299.6 C235.7,299.8 235.5,299.9 235.2,299.9 Z" id="路径" fill="#E28508"></path>
                        <path d="M261.4,286.3 C261.3,286.3 261.1,286.3 261,286.2 C258.3,285 255.4,284.4 252.4,284.4 L250.8,284.4 C250.2,284.4 249.8,284 249.8,283.4 C249.8,282.8 250.2,282.4 250.8,282.4 L252.4,282.4 C255.6,282.4 258.8,283 261.8,284.3 C262.3,284.5 262.5,285.1 262.3,285.6 C262.1,286.1 261.8,286.3 261.4,286.3 Z" id="路径" fill="#E28508"></path>
                        <path d="M405.9,245 C405.4,245 405,244.7 404.9,244.2 C404.1,239.5 405.7,232.3 406.7,228.5 C403.5,230.8 399,235.3 397.3,237.2 C396.9,237.6 396.3,237.6 395.9,237.3 C395.5,236.9 395.5,236.3 395.8,235.9 C396.1,235.5 404,227 408,225.5 C408.4,225.4 408.8,225.4 409,225.7 C409.3,226 409.4,226.4 409.3,226.7 C409.3,226.8 405.8,237.9 406.8,243.9 C406.9,244.4 406.5,245 406,245.1 C406,245 405.9,245 405.9,245 Z" id="路径" fill="#E28508"></path>
                        <circle id="椭圆形" fill="#FFFFFF" cx="385.6" cy="94" r="30.3"></circle>
                        <path d="M401.2,84.4 C401.1,84.4 401.1,84.4 401.2,84.4 L398,86.5 C389.5,92.2 385.3,95.1 385.2,95.1 L372.4,86.3 L370.2,84.8 L370.2,84.3 C370.2,83.2 371.1,82.4 372.1,82.4 L399.3,82.4 C400.3,82.3 401.2,83.2 401.2,84.4 L401.2,84.4 L401.2,84.4 Z M401.2,86.7 L401.2,103.7 C401.2,104.8 400.3,105.6 399.3,105.6 C399.3,105.6 399.3,105.6 399.3,105.6 L372.1,105.6 C371,105.6 370.2,104.7 370.2,103.7 C370.2,103.7 370.2,103.7 370.2,103.7 L370.2,87.2 L371.3,88 L384.1,96.8 C384.8,97.3 385.7,97.3 386.3,96.8 L399,88.2 L401.2,86.7 L401.2,86.7 Z" id="形状" fill="#69B1E2"></path>
                        <g id="编组" transform="translate(342.000000, 57.000000)">
                            <circle id="椭圆形" fill="#FFA466" cx="14.2" cy="13.7" r="13.4"></circle>
                            <path d="M21.9,10.2 L13.3,18.9 C13.1,19.1 12.7,19.3 12.4,19.3 C12.1,19.3 11.8,19.2 11.5,18.9 L6.6,14 C6.1,13.5 6.1,12.7 6.6,12.3 C7.1,11.8 7.9,11.8 8.3,12.3 L12.4,16.4 L20.2,8.6 C20.7,8.1 21.5,8.1 21.9,8.6 C22.3,9.1 22.4,9.7 21.9,10.2 Z" id="路径" fill="#FFFFFF"></path>
                        </g>
                        <path d="M516.6,205.5 C516.6,217.5 506.8,227.3 494.8,227.3 C485.6,227.3 477.6,221.5 474.5,213.4 C473.5,210.9 473,208.3 473,205.5 C473,202 473.8,198.7 475.3,195.8 L475.3,195.8 C475.3,195.8 475.3,195.8 475.3,195.7 C478.9,188.6 486.3,183.7 494.8,183.7 C499.1,183.7 503.2,185 506.6,187.2 C512.6,191 516.6,197.8 516.6,205.5 Z" id="路径" fill="#FFFFFF"></path>
                        <path d="M506.5,187.1 L495.2,205.5 L475.3,195.7 C478.9,188.6 486.3,183.7 494.8,183.7 C499.1,183.7 503.2,185 506.5,187.1 Z" id="路径" fill="#FFC050"></path>
                        <path d="M495.2,205.5 L474.4,213.4 C473.4,210.9 472.9,208.3 472.9,205.5 C472.9,202 473.7,198.7 475.2,195.8 L495.2,205.5 Z" id="路径" fill="#BFE2B0"></path>
                        <g id="编组" transform="translate(220.000000, 255.000000)">
                            <path d="M105.6,108.6 L4.6,108.6 C2.4,108.6 0.6,106.8 0.6,104.6 L0.6,104.6 C0.6,102.4 2.4,100.6 4.6,100.6 L105.6,100.6 L105.6,108.6 Z" id="路径" fill="#B1BECF"></path>
                            <path d="M98.3,100.6 L122.7,5 C122.7,5 126.1,-0.5 134.8,0.4 L114.2,100.5 L98.3,100.5 L98.3,100.6 Z" id="路径" fill="#B1BECF"></path>
                            <path d="M237.5,108.6 L102.5,108.6 L131.5,0.5 L257.6,0.5 C260.9,0.5 263.4,3.6 262.6,6.8 L237.5,108.6 Z" id="路径" fill="#D4D7DE"></path>
                            <ellipse id="椭圆形" fill="#FFFFFE" transform="translate(188.376860, 54.541020) rotate(-82.206966) translate(-188.376860, -54.541020) " cx="188.37686" cy="54.54102" rx="13.1004716" ry="12.1004356"></ellipse>
                        </g>
                        <path d="M564.8,276.9 L521,276.9 C519.4,276.9 518.1,275.6 518.1,274 L518.1,233.4 C518.1,231.8 519.4,230.5 521,230.5 L564.8,230.5 C566.4,230.5 567.7,231.8 567.7,233.4 L567.7,274 C567.8,275.6 566.5,276.9 564.8,276.9 Z" id="路径" fill="#F9E3C2"></path>
                        <path d="M552.8,251.6 L551,251.2 L550.5,249.9 L551.5,248.3 C551.9,247.7 551.9,246.9 551.5,246.3 L550.5,245.3 C550.1,245 549.8,244.9 549.4,244.9 C549,244.9 548.7,245 548.3,245.3 L546.7,246.3 L545.4,245.8 L545,243.9 C544.9,243.1 544.3,242.6 543.5,242.5 L542.1,242.5 C541.3,242.5 540.9,243.2 540.7,243.9 L540.3,245.7 C539.9,245.9 539.4,246.1 539,246.3 L537.4,245.3 C537,245 536.7,244.9 536.3,244.9 C535.9,244.9 535.6,245 535.3,245.3 L534.3,246.3 C533.9,246.9 533.9,247.7 534.3,248.3 L535.4,250 C535.2,250.4 535,250.8 534.9,251.2 L533.1,251.6 C532.3,251.7 531.8,252.3 531.7,253.1 L531.7,254.5 C531.7,255.3 532.4,255.7 533.1,255.9 L534.9,256.3 C535,256.7 535.2,257.1 535.3,257.5 L534.2,259.2 C533.8,259.8 533.8,260.6 534.2,261.2 L535.2,262.2 C535.6,262.5 535.9,262.6 536.3,262.6 C536.7,262.6 537,262.5 537.4,262.2 L539,261.1 C539.4,261.4 539.9,261.5 540.4,261.7 L540.8,263.5 C541,264.2 541.4,264.9 542.2,264.9 L543.6,264.9 C544.4,264.8 544.9,264.3 545.1,263.5 L545.5,261.6 C545.9,261.4 546.4,261.2 546.7,261.1 L548.3,262.1 C548.6,262.3 549,262.5 549.4,262.5 C549.8,262.5 550.1,262.4 550.4,262.1 L551.4,261.1 C551.8,260.5 551.8,259.7 551.4,259.1 L550.4,257.5 C550.6,257.1 550.8,256.7 550.9,256.3 L552.8,255.9 C553.5,255.7 554.2,255.3 554.2,254.5 L554.2,253 C554.2,252.3 553.5,251.7 552.8,251.6 L552.8,251.6 Z M542.9,257.2 C541,257.2 539.5,255.7 539.5,253.7 C539.5,251.7 541,250.3 543,250.3 C544.9,250.3 546.4,251.8 546.4,253.7 C546.3,255.6 544.8,257.2 542.9,257.2 Z" id="形状" fill="#FFC050"></path>
                        <path d="M162.3,174 L48,174 C45.7,174 43.8,172.1 43.8,169.8 L43.8,88.8 C43.8,86.5 45.7,84.6 48,84.6 L162.3,84.6 C164.6,84.6 166.5,86.5 166.5,88.8 L166.5,169.8 C166.5,172.1 164.6,174 162.3,174 Z" id="路径" fill="#FFDEC0"></path>
                        <path d="M148.5,125.4 L61.8,125.4 C60.5,125.4 59.5,124.4 59.5,123.1 L59.5,101.1 C59.5,99.8 60.5,98.8 61.8,98.8 L148.5,98.8 C149.8,98.8 150.8,99.8 150.8,101.1 L150.8,123.1 C150.8,124.3 149.8,125.4 148.5,125.4 Z" id="路径" fill="#FFFFFF"></path>
                        <g id="编组" transform="translate(92.000000, 108.000000)" fill="#FFF0E6">
                            <path d="M44.5,1.7 L1.5,1.7 C1.1,1.7 0.7,1.4 0.7,0.9 L0.7,0.9 C0.7,0.5 1,0.1 1.5,0.1 L44.5,0.1 C44.9,0.1 45.3,0.4 45.3,0.9 L45.3,0.9 C45.3,1.3 44.9,1.7 44.5,1.7 Z" id="路径"></path>
                            <path d="M29.1,7.9 L1.6,7.9 C1.2,7.9 0.8,7.6 0.8,7.1 L0.8,7.1 C0.8,6.7 1.1,6.3 1.6,6.3 L29.1,6.3 C29.5,6.3 29.9,6.6 29.9,7.1 L29.9,7.1 C29.8,7.5 29.5,7.9 29.1,7.9 Z" id="路径"></path>
                        </g>
                        <g id="编组" transform="translate(68.000000, 103.000000)">
                            <circle id="椭圆形" fill="#FFA466" cx="8.9" cy="9" r="8.8"></circle>
                            <path d="M14,6.7 L8.3,12.4 C8.1,12.6 7.9,12.6 7.7,12.6 C7.5,12.6 7.3,12.5 7.1,12.4 L3.9,9.2 C3.6,8.9 3.6,8.4 3.9,8.1 C4.2,7.8 4.7,7.8 5,8.1 L7.7,10.8 L12.8,5.7 C13.1,5.4 13.6,5.4 13.9,5.7 C14.3,5.9 14.3,6.4 14,6.7 Z" id="路径" fill="#FFFFFF"></path>
                        </g>
                        <path d="M148.5,159.8 L61.8,159.8 C60.5,159.8 59.5,158.8 59.5,157.5 L59.5,135.5 C59.5,134.2 60.5,133.2 61.8,133.2 L148.5,133.2 C149.8,133.2 150.8,134.2 150.8,135.5 L150.8,157.5 C150.8,158.8 149.8,159.8 148.5,159.8 Z" id="路径" fill="#FFFFFF"></path>
                        <g id="编组" transform="translate(92.000000, 142.000000)" fill="#FFF0E6">
                            <path d="M44.5,2.1 L1.5,2.1 C1.1,2.1 0.7,1.8 0.7,1.3 L0.7,1.3 C0.7,0.9 1,0.5 1.5,0.5 L44.5,0.5 C44.9,0.5 45.3,0.8 45.3,1.3 L45.3,1.3 C45.3,1.8 44.9,2.1 44.5,2.1 Z" id="路径"></path>
                            <path d="M29.1,8.4 L1.6,8.4 C1.2,8.4 0.8,8.1 0.8,7.6 L0.8,7.6 C0.8,7.2 1.1,6.8 1.6,6.8 L29.1,6.8 C29.5,6.8 29.9,7.1 29.9,7.6 L29.9,7.6 C29.8,8 29.5,8.4 29.1,8.4 Z" id="路径"></path>
                        </g>
                        <g id="编组" transform="translate(68.000000, 137.000000)">
                            <circle id="椭圆形" fill="#FFA466" cx="8.9" cy="9.5" r="8.8"></circle>
                            <path d="M14,7.2 L8.3,12.9 C8.1,13.1 7.9,13.1 7.7,13.1 C7.5,13.1 7.3,13 7.1,12.9 L3.9,9.7 C3.6,9.4 3.6,8.9 3.9,8.6 C4.2,8.3 4.7,8.3 5,8.6 L7.7,11.3 L12.8,6.2 C13.1,5.9 13.6,5.9 13.9,6.2 C14.3,6.4 14.3,6.9 14,7.2 Z" id="路径" fill="#FFFFFF"></path>
                        </g>
                        <path d="M175.4,263.1 L93.8,263.1 C91.6,263.1 89.8,261.3 89.8,259.1 L89.8,204.8 C89.8,202.6 91.6,200.8 93.8,200.8 L175.4,200.8 C177.6,200.8 179.4,202.6 179.4,204.8 L179.4,259.1 C179.4,261.3 177.6,263.1 175.4,263.1 Z M93.9,202.8 C92.8,202.8 91.9,203.7 91.9,204.8 L91.9,259.1 C91.9,260.2 92.8,261.1 93.9,261.1 L175.5,261.1 C176.6,261.1 177.5,260.2 177.5,259.1 L177.5,204.8 C177.5,203.7 176.6,202.8 175.5,202.8 L93.9,202.8 Z" id="形状" fill="#FFFFFF"></path>
                        <path d="M154.6,272.7 L71.1,272.7 C69.4,272.7 68.1,271.4 68.1,269.7 L68.1,215.1 C68.1,213.4 69.4,212.1 71.1,212.1 L154.6,212.1 C156.3,212.1 157.6,213.4 157.6,215.1 L157.6,269.7 C157.6,271.4 156.2,272.7 154.6,272.7 Z" id="路径" fill="#98CAFD"></path>
                        <rect id="矩形" fill="#FFD3AE" x="91.8" y="240.7" width="7.4" height="19.5"></rect>
                        <rect id="矩形" fill="#FFD3AE" x="103.7" y="232.9" width="7.4" height="27.3"></rect>
                        <rect id="矩形" fill="#FFFFFF" x="115.5" y="226.7" width="7.4" height="33.5"></rect>
                        <rect id="矩形" fill="#FFFFFF" x="127.3" y="248.1" width="7.4" height="12.1"></rect>
                        <path d="M142.2,261.2 L84.8,261.2 L84.8,226.7 C84.8,226.1 85.2,225.7 85.8,225.7 C86.4,225.7 86.8,226.1 86.8,226.7 L86.8,259.2 L142.2,259.2 C142.8,259.2 143.2,259.6 143.2,260.2 C143.2,260.8 142.7,261.2 142.2,261.2 Z" id="路径" fill="#FFFFFF"></path>
                        <g id="编组" transform="translate(195.000000, 21.000000)">
                            <path d="M1.2,8.3 L1.2,47 C1.2,50.8 4.3,53.9 8.1,53.9 L51.4,53.9 L63.9,63.2 L63.9,53.9 L68.2,53.9 C72,53.9 75.1,50.8 75.1,47 L75.1,8.3 C75.1,4.5 72,1.4 68.2,1.4 L8.2,1.4 C4.3,1.4 1.2,4.5 1.2,8.3 Z" id="路径" fill="#66BAFF"></path>
                            <path d="M63.9,64 C63.7,64 63.5,63.9 63.4,63.8 L51.1,54.7 L8.1,54.7 C3.8,54.7 0.3,51.2 0.3,46.9 L0.3,8.2 C0.3,3.9 3.8,0.4 8.1,0.4 L68.1,0.4 C72.4,0.4 75.9,3.9 75.9,8.2 L75.9,47 C75.9,51.3 72.4,54.8 68.1,54.8 L64.7,54.8 L64.7,63.1 C64.7,63.4 64.5,63.8 64.2,63.9 C64.1,64 64,64 63.9,64 Z M8.1,2.3 C4.8,2.3 2.1,5 2.1,8.3 L2.1,47 C2.1,50.3 4.8,53 8.1,53 L51.4,53 C51.6,53 51.8,53.1 51.9,53.2 L62.9,61.4 L62.9,54 C62.9,53.5 63.3,53.1 63.8,53.1 L68.1,53.1 C71.4,53.1 74.1,50.4 74.1,47.1 L74.1,8.4 C74.1,5.1 71.4,2.4 68.1,2.4 L8.1,2.4 L8.1,2.3 Z" id="形状" fill="#FFFFFF"></path>
                        </g>
                        <g id="编组" transform="translate(207.000000, 42.000000)" fill="#FEFFFF">
                            <circle id="椭圆形" cx="5.9" cy="6" r="5.7"></circle>
                            <circle id="椭圆形" cx="26.1" cy="6" r="5.7"></circle>
                            <circle id="椭圆形" cx="46.3" cy="6" r="5.7"></circle>
                        </g>
                    </g>
                </g>
            </g>
        </g>
    </g>
</svg>