<?xml version="1.0" encoding="UTF-8"?>
<svg width="627px" height="482px" viewBox="0 0 627 482" version="1.1" xmlns="http://www.w3.org/2000/svg" xmlns:xlink="http://www.w3.org/1999/xlink">
    <title>img</title>
    <defs>
        <linearGradient x1="-0.014258312%" y1="49.9691979%" x2="99.9703964%" y2="49.9691979%" id="linearGradient-1">
            <stop stop-color="#F780CD" offset="0%"></stop>
            <stop stop-color="#FFD5BE" offset="100%"></stop>
        </linearGradient>
    </defs>
    <g id="页面-1" stroke="none" stroke-width="1" fill="none" fill-rule="evenodd">
        <g id="生涯模式" transform="translate(-933.000000, -2398.000000)">
            <g id="school-and-institutional" transform="translate(360.000000, 2398.000000)">
                <g id="img-" transform="translate(573.000000, 0.000000)">
                    <g id="img">
                        <ellipse id="椭圆形" fill="#D4ECFF" fill-rule="nonzero" cx="403.1" cy="470" rx="57.9" ry="11.6"></ellipse>
                        <path d="M613.1,404 L14.8,404 C7.1,404 0.9,397.8 0.9,390.1 L0.9,14.4 C0.9,6.7 7.1,0.5 14.8,0.5 L613,0.5 C620.7,0.5 626.901174,6.7 626.901174,14.4 L626.901174,390.1 C627,397.7 620.7,404 613.1,404 Z" id="路径" fill="#4835C7" fill-rule="nonzero"></path>
                        <path d="M619.1,35.6 L619.1,387.8 C619.1,390.9 616.6,393.3 613.5,393.3 L14.4,393.3 C11.3,393.3 8.8,390.8 8.8,387.8 L8.8,35.6 C8.8,32.5 11.3,30 14.4,30 L613.5,30 C616.6,30 619.1,32.5 619.1,35.6 Z" id="路径" fill="#5538E9" fill-rule="nonzero"></path>
                        <circle id="椭圆形" fill="#FF4249" fill-rule="nonzero" cx="13.8" cy="15.2" r="5"></circle>
                        <circle id="椭圆形" fill="#FFA214" fill-rule="nonzero" cx="32.3" cy="15.2" r="5"></circle>
                        <circle id="椭圆形" fill="#65C779" fill-rule="nonzero" cx="50.8" cy="15.2" r="5"></circle>
                        <path d="M53.1,52.9 L30.6,52.9 C28.5,52.9 26.9,51.2 26.9,49.2 L26.9,49.2 C26.9,47.1 28.6,45.5 30.6,45.5 L53.1,45.5 C55.2,45.5 56.8,47.2 56.8,49.2 L56.8,49.2 C56.8,51.3 55.1,52.9 53.1,52.9 Z" id="路径" fill="#798CFF" fill-rule="nonzero"></path>
                        <path d="M103.2,52.9 L80.7,52.9 C78.6,52.9 77,51.2 77,49.2 L77,49.2 C77,47.1 78.7,45.5 80.7,45.5 L103.2,45.5 C105.3,45.5 106.9,47.2 106.9,49.2 L106.9,49.2 C106.9,51.3 105.2,52.9 103.2,52.9 Z" id="路径" fill="#5E4DFF" fill-rule="nonzero"></path>
                        <path d="M153.3,52.9 L130.8,52.9 C128.7,52.9 127.1,51.2 127.1,49.2 L127.1,49.2 C127.1,47.1 128.8,45.5 130.8,45.5 L153.3,45.5 C155.4,45.5 157,47.2 157,49.2 L157,49.2 C157,51.3 155.3,52.9 153.3,52.9 Z" id="路径" fill="#5E4DFF" fill-rule="nonzero"></path>
                        <path d="M203.3,52.9 L180.8,52.9 C178.7,52.9 177.1,51.2 177.1,49.2 L177.1,49.2 C177.1,47.1 178.8,45.5 180.8,45.5 L203.3,45.5 C205.4,45.5 207,47.2 207,49.2 L207,49.2 C207.1,51.3 205.4,52.9 203.3,52.9 Z" id="路径" fill="#5E4DFF" fill-rule="nonzero"></path>
                        <path d="M570.8,52.9 L548.3,52.9 C546.2,52.9 544.6,51.2 544.6,49.2 L544.6,49.2 C544.6,47.1 546.3,45.5 548.3,45.5 L570.8,45.5 C572.9,45.5 574.5,47.2 574.5,49.2 L574.5,49.2 C574.5,51.3 572.9,52.9 570.8,52.9 Z" id="路径" fill="#5E4DFF" fill-rule="nonzero"></path>
                        <circle id="椭圆形" fill="#5E4DFF" fill-rule="nonzero" cx="594.7" cy="49.2" r="10.1"></circle>
                        <rect id="矩形" fill="#5E4DFF" fill-rule="nonzero" x="8.8" y="68.2" width="137.1" height="62.8"></rect>
                        <circle id="椭圆形" fill="#6666FD" fill-rule="nonzero" cx="34" cy="99.6" r="7.3"></circle>
                        <path d="M123.4,103.2 L55.8,103.2 C53.8,103.2 52.2,101.6 52.2,99.6 L52.2,99.6 C52.2,97.6 53.8,96 55.8,96 L123.4,96 C125.4,96 127,97.6 127,99.6 L127,99.6 C127.1,101.6 125.4,103.2 123.4,103.2 Z" id="路径" fill="#798CFF" fill-rule="nonzero"></path>
                        <rect id="矩形" fill="#6666FF" fill-rule="nonzero" x="8.8" y="131" width="137.1" height="42"></rect>
                        <rect id="矩形" fill="#5538E9" fill-rule="nonzero" x="8.8" y="173" width="137.1" height="75.4"></rect>
                        <path d="M145.9,250 L145.9,393.4 L14.4,393.4 C11.3,393.4 8.8,390.9 8.8,387.9 L8.8,250 L145.9,250 Z" id="路径" fill="#5E4DFF" fill-rule="nonzero"></path>
                        <path d="M619.1,68.2 L619.1,387.8 C619.1,390.9 616.6,393.3 613.5,393.3 L145.9,393.3 L145.9,68.2 L619.1,68.2 Z" id="路径" fill="#D4ECFF" fill-rule="nonzero"></path>
                        <path d="M405.6,273.3 L183.8,273.3 C179.2,273.3 175.5,269.6 175.5,265 L175.5,106.2 C175.5,101.6 179.2,97.9 183.8,97.9 L405.6,97.9 C410.2,97.9 413.9,101.6 413.9,106.2 L413.9,265 C413.9,269.6 410.2,273.3 405.6,273.3 Z" id="路径" fill="#FFFFFF" fill-rule="nonzero"></path>
                        <path d="M581.2,198.5 L437,198.5 C432.4,198.5 428.7,194.8 428.7,190.2 L428.7,106.3 C428.7,101.7 432.4,98 437,98 L581.2,98 C585.8,98 589.5,101.7 589.5,106.3 L589.5,190.2 C589.5,194.8 585.8,198.5 581.2,198.5 Z" id="路径" fill="#FFFFFF" fill-rule="nonzero"></path>
                        <path d="M581.2,273.3 L437,273.3 C432.4,273.3 428.7,269.6 428.7,265 L428.7,221.4 C428.7,216.8 432.4,213.1 437,213.1 L581.2,213.1 C585.8,213.1 589.5,216.8 589.5,221.4 L589.5,265 C589.5,269.6 585.8,273.3 581.2,273.3 Z" id="路径" fill="#FFFFFF" fill-rule="nonzero"></path>
                        <circle id="椭圆形" fill="#FFD6BE" fill-rule="nonzero" cx="194.8" cy="113.5" r="7.4"></circle>
                        <path d="M239.7,116.1 L214.9,116.1 C213.4,116.1 212.2,114.9 212.2,113.4 L212.2,113.4 C212.2,111.9 213.4,110.7 214.9,110.7 L239.7,110.7 C241.2,110.7 242.4,111.9 242.4,113.4 L242.4,113.4 C242.4,115 241.2,116.1 239.7,116.1 Z" id="路径" fill="#ADCDF6" fill-rule="nonzero"></path>
                        <path d="M226.1,136.2 L188.5,136.2 C187.8,136.2 187.3,135.6 187.3,135 L187.3,135 C187.3,134.3 187.9,133.8 188.5,133.8 L226.1,133.8 C226.8,133.8 227.3,134.4 227.3,135 L227.3,135 C227.3,135.6 226.8,136.2 226.1,136.2 Z" id="路径" fill="#ADCDF6" fill-rule="nonzero"></path>
                        <path d="M226.1,143.7 L188.5,143.7 C187.8,143.7 187.3,143.1 187.3,142.5 L187.3,142.5 C187.3,141.8 187.9,141.3 188.5,141.3 L226.1,141.3 C226.8,141.3 227.3,141.9 227.3,142.5 L227.3,142.5 C227.3,143.1 226.8,143.7 226.1,143.7 Z" id="路径" fill="#ADCDF6" fill-rule="nonzero"></path>
                        <path d="M216.1,151.1 L188.5,151.1 C187.8,151.1 187.3,150.5 187.3,149.9 L187.3,149.9 C187.3,149.2 187.9,148.7 188.5,148.7 L216.1,148.7 C216.8,148.7 217.3,149.3 217.3,149.9 L217.3,149.9 C217.4,150.6 216.8,151.1 216.1,151.1 Z" id="路径" fill="#ADCDF6" fill-rule="nonzero"></path>
                        <path d="M398.8,254.9 L187.1,254.9 L187.1,159.7 C187.1,158.9 187.7,158.3 188.5,158.3 C189.3,158.3 189.9,158.9 189.9,159.7 L189.9,252.1 L398.7,252.1 C399.5,252.1 400.1,252.7 400.1,253.5 C400.1,254.3 399.5,254.9 398.8,254.9 Z" id="路径" fill="#E6F3FF" fill-rule="nonzero"></path>
                        <circle id="椭圆形" fill="#BEFFEF" fill-rule="nonzero" cx="509.1" cy="121.7" r="9.6"></circle>
                        <circle id="椭圆形" stroke="#ECFBFF" stroke-width="2.7766" cx="509.1" cy="121.7" r="13.9"></circle>
                        <path d="M531.8,149.6 L486.9,149.6 C485.5,149.6 484.4,148.5 484.4,147.1 L484.4,147.1 C484.4,145.7 485.5,144.6 486.9,144.6 L531.8,144.6 C533.2,144.6 534.3,145.7 534.3,147.1 L534.3,147.1 C534.3,148.5 533.2,149.6 531.8,149.6 Z" id="路径" fill="#ADCDF6" fill-rule="nonzero"></path>
                        <path d="M568.2,164.8 L450.7,164.8 C449.9,164.8 449.3,164.2 449.3,163.4 L449.3,163.4 C449.3,162.6 449.9,162 450.7,162 L568.2,162 C569,162 569.6,162.6 569.6,163.4 L569.6,163.4 C569.6,164.2 569,164.8 568.2,164.8 Z" id="路径" fill="#CAE5FF" fill-rule="nonzero"></path>
                        <path d="M568.2,172.4 L450.7,172.4 C449.9,172.4 449.3,171.8 449.3,171 L449.3,171 C449.3,170.2 449.9,169.6 450.7,169.6 L568.2,169.6 C569,169.6 569.6,170.2 569.6,171 L569.6,171 C569.6,171.8 569,172.4 568.2,172.4 Z" id="路径" fill="#CAE5FF" fill-rule="nonzero"></path>
                        <path d="M537.9,180.1 L481,180.1 C480.2,180.1 479.6,179.5 479.6,178.7 L479.6,178.7 C479.6,177.9 480.2,177.3 481,177.3 L537.9,177.3 C538.7,177.3 539.3,177.9 539.3,178.7 L539.3,178.7 C539.3,179.4 538.7,180.1 537.9,180.1 Z" id="路径" fill="#CAE5FF" fill-rule="nonzero"></path>
                        <path d="M570.6,247.3 L447.9,247.3 C447.1,247.3 446.5,246.7 446.5,245.9 L446.5,245.9 C446.5,245.1 447.1,244.5 447.9,244.5 L570.6,244.5 C571.4,244.5 572,245.1 572,245.9 L572,245.9 C572,246.6 571.4,247.3 570.6,247.3 Z" id="路径" fill="#CAE5FF" fill-rule="nonzero"></path>
                        <path d="M570.6,254.9 L447.9,254.9 C447.1,254.9 446.5,254.3 446.5,253.5 L446.5,253.5 C446.5,252.7 447.1,252.1 447.9,252.1 L570.6,252.1 C571.4,252.1 572,252.7 572,253.5 L572,253.5 C572,254.3 571.4,254.9 570.6,254.9 Z" id="路径" fill="#CAE5FF" fill-rule="nonzero"></path>
                        <path d="M514.9,262.5 L447.9,262.5 C447.1,262.5 446.5,261.9 446.5,261.1 L446.5,261.1 C446.5,260.3 447.1,259.7 447.9,259.7 L514.9,259.7 C515.7,259.7 516.3,260.3 516.3,261.1 L516.3,261.1 C516.3,261.9 515.7,262.5 514.9,262.5 Z" id="路径" fill="#CAE5FF" fill-rule="nonzero"></path>
                        <circle id="椭圆形" fill="#D1FFBE" fill-rule="nonzero" cx="454.2" cy="230.8" r="7.7"></circle>
                        <path d="M499.6,233.3 L474.1,233.3 C472.8,233.3 471.7,232.2 471.7,230.9 L471.7,230.9 C471.7,229.6 472.8,228.5 474.1,228.5 L499.6,228.5 C500.9,228.5 502,229.6 502,230.9 L502,230.9 C502,232.2 500.9,233.3 499.6,233.3 Z" id="路径" fill="#ADCDF6" fill-rule="nonzero"></path>
                        <g id="编组" transform="translate(364.000000, 230.000000)" fill-rule="nonzero">
                            <path d="M44,238.6 L37.7,242.2 L35.5,242.2 C35,242.2 34.4,242 33.9,241.8 C32.3,241 31.3,241.3 30.7,241.8 C30.1,242.3 29.4,242.6 28.7,242.6 L18.3,242.6 L18.4,240.5 C18.4,240.5 18.4,240.5 18.4,240.5 C17.3,235.5 19.3,231 19.3,231 L19.4,230 L35.6,229.3 L36.1,232.4 C36.2,232.8 36.3,233.1 36.5,233.3 C37.6,234.6 40,234.6 40,234.6 L44,238.6 Z" id="路径" fill="#5B4306"></path>
                            <path d="M44,238.6 L37.7,242.2 L35.5,242.2 C35,242.2 34.4,242 33.9,241.8 C32.3,241 31.3,241.3 30.7,241.8 C30.1,242.3 29.4,242.6 28.7,242.6 L18.3,242.6 L18.4,240.5 C18.4,240.5 18.4,240.5 18.4,240.4 L29,240.4 C29,240.4 31.5,238.1 33.9,240.1 C33.9,240.1 34.9,235.7 36.5,233.2 C37.6,234.5 40,234.5 40,234.5 L44,238.6 Z" id="路径" fill="#392800"></path>
                            <path d="M66.4,246.1 L51.7,246.1 C50.8,246.1 49.9,245.8 49,245.4 C48.2,245 47.6,245.1 47.1,245.3 C46.1,245.7 44.9,245.9 43.8,245.5 L35.6,243.1 C35.3,242.8 35.2,241.8 35.4,240.4 C35.7,237.7 36.9,233.7 38.9,231.7 C40.3,230.3 40,228.3 40,228.3 L50.2,230.5 L55.7,232.7 C55.4,237.4 56.9,239.7 56.9,239.7 C64.6,239.2 66.1,242.7 66.4,244.7 C66.5,245.5 66.4,246.1 66.4,246.1 Z" id="路径" fill="#6F4C06"></path>
                            <path d="M66.4,246.1 L51.7,246.1 C50.8,246.1 49.9,245.8 49,245.4 C48.2,245 47.6,245.1 47.1,245.3 C46.1,245.7 44.9,245.9 43.8,245.5 L35.6,243.1 C35.3,242.8 35.2,241.8 35.4,240.4 L45.5,243.7 C45.5,243.7 48.2,241.7 51.5,244.7 L66.5,244.7 C66.5,245.5 66.4,246.1 66.4,246.1 Z" id="路径" fill="#392800"></path>
                            <path d="M66.6,199.3 L61.7,217.1 C60.9,221.4 59,224.8 57.5,226.9 C56.9,227.8 56.4,228.7 56.1,229.7 C55.8,230.7 55.6,231.7 55.6,232.7 C54.6,233.2 52.4,232.7 50.6,232.2 C49.3,231.8 48.1,231.1 47,230.3 C44.7,228.5 39.9,228.2 39.9,228.2 C39.8,227.8 39.8,227.3 39.8,226.8 C39.8,221.9 43.7,212.6 43.7,212.6 C44,207.4 44.7,202.2 46,197.2 L51.3,176 C51.3,176 43.2,158.2 41.8,155 C41.9,155.3 41.9,155.6 42,156 L42,156 C43.4,165.7 38.4,196.6 35.8,211.3 C34.9,216.7 35.8,223.6 35.8,229.1 C33.1,234.5 19.5,230.8 19.5,230.8 C17.9,230.1 16.6,224.2 16.5,219.3 C16.4,215.9 16.7,212.6 17.1,209.3 C17.4,207.1 17.6,204.1 17.7,201.1 C18,194.7 17.7,188.2 16.8,181.9 C14.6,166.5 16.2,134.8 16.2,134.8 C11.6,128.8 12.8,118.4 14.7,110.6 C15,109.5 15.2,108.5 15.5,107.5 C16.7,103.3 17.9,100.5 17.9,100.5 L29,100.3 L57.6,99.8 C57.3,101.5 57.5,103.7 57.9,106 C58.1,107 58.3,108 58.5,109.1 C59.6,113.9 61.1,118.4 61.1,118.4 C73.6,138.6 72.7,161.9 72.7,161.9 C72.7,161.9 74.1,170 74.5,175.2 C74.7,180.3 66.6,199.3 66.6,199.3 Z" id="路径" fill="#090651"></path>
                            <path d="M55.2,178.8 L50.9,200.1 L56.7,186.1 C56.7,186.1 57.9,179.7 55.2,178.8 Z" id="路径" fill="#090650"></path>
                            <path d="M66.6,199.3 L61.7,217.1 C60.9,221.4 59,224.8 57.5,226.9 C56.9,227.8 56.4,228.7 56.1,229.7 C55.8,230.7 55.6,231.7 55.6,232.7 C54.6,233.2 52.4,232.7 50.6,232.2 C49.3,231.8 48.1,231.1 47,230.3 C45.9,229.5 44.3,229.6 42.9,229.3 C41.2,228.9 39.9,228.3 39.9,228.3 C39.8,227.9 39.8,227.4 39.8,226.9 C39.8,222 43.7,212.7 43.7,212.7 C44,207.5 44.7,202.3 46,197.3 L51.3,176.1 C51.3,176.1 43.2,158.3 41.8,155.1 C41.9,155.4 41.9,155.7 42,156.1 L41.8,155.1 L41.8,155 C40.7,147.7 37.2,140.6 34.1,135.7 C28.5,126.6 31.5,114.3 37.6,106.6 C38.7,105.2 28.6,101.7 28.9,100.3 L57.5,99.8 C56.6,105.8 61,118.3 61,118.3 C73.5,138.5 72.6,161.8 72.6,161.8 C72.6,161.8 74,169.9 74.4,175.1 C74.7,180.3 66.6,199.3 66.6,199.3 Z" id="路径" fill="#0B0A92"></path>
                            <path d="M48.6,18.9 C48.6,19 48.5,19 48.5,19.1 C47.5,20.4 48,21.7 48,21.7 L48.1,26.8 L43.9,27.4 C43.6,27.4 43.4,27.8 43.5,28.1 L46.8,35 L40.9,34.6 L30.4,35.2 C31.1,29.9 30,26.3 30,26.3 L34,13.2 L35.7,7.8 L36.1,6.6 C36.1,6.6 40,7.1 42.3,7.5 C43.2,7.7 43.8,7.8 43.9,7.9 C44,8 44,8 44.1,8.1 C44.8,8.9 45.9,11.1 46.3,12.4 C46.4,12.8 46.4,13.2 46.3,13.6 C46,15.3 47.8,16.3 48,16.5 C48.2,16.6 49.8,17.5 48.6,18.9 Z" id="路径" fill="#F78F8E"></path>
                            <path d="M43.5,28 L46.8,34.9 L40.5,35.3 C35.5,31.2 33.6,21.4 33.6,21.4 L34,13.1 L35.7,7.7 L42.3,7.5 L44.3,7.4 C44.2,7.6 44.1,7.8 44.1,8.1 C44,8.9 44.1,10.1 45.2,11.5 C46.6,13.4 44.7,12.8 45.1,13.9 C45.2,18.5 48.5,19 48.5,19 C47.5,20.3 48,21.6 48,21.6 L48.1,26.7 L43.9,27.3 C43.6,27.4 43.4,27.7 43.5,28 Z" id="路径" fill="#F2727D"></path>
                            <path d="M47,34.9 L46.2,39 L40.6,37.6 L36.6,36.6 L30.6,35.1 C30.6,35.1 30.8,31.5 33.7,31.1 C34.5,31 35.7,30.9 37.1,30.9 L37.1,30.9 C40.5,30.9 45,31.7 47,34.9 Z" id="路径" fill="#FFFFFF"></path>
                            <path d="M48.2,26.7 C46.8,27.5 43.9,26.1 42.8,23.7 C40.8,17.4 38.8,15.6 37.4,15.7 C36,15.8 35.6,17.5 35.8,18.8 C36,19.7 36.3,23.1 35,25.4 C34.6,26.2 34,26.9 33.2,27.3 C30.5,28.7 26.9,23.1 25.5,21.2 C24.2,19.4 19.5,12.5 23.5,6 C28.2,-1.3 36.6,0.3 41.3,2.4 C42.2,2.8 43,3.1 43.6,3.3 C44.3,3.5 45,3.6 45.7,3.6 C45.8,3.6 45.9,3.6 46,3.6 C46,3.6 46,3.6 46,3.6 C49.6,4.1 44,8.1 44,8.1 C41,7.1 41.5,9.1 41.5,9.1 C41.5,9.1 42.9,16.3 44,19.3 C45.1,22.3 47.9,21.7 47.9,21.7 C47.9,21.7 49.8,25.7 48.2,26.7 Z" id="路径" fill="#3B0A75"></path>
                            <path d="M48.2,26.7 C46.8,27.5 43.9,26.1 42.8,23.7 C40.8,17.4 38.8,15.6 37.4,15.7 C36,15.8 35.5,17.5 35.8,18.8 C36.2,20.7 36.3,23.1 35,25.4 C32.7,20 30.2,10.4 30.2,10.4 C29,5.2 34.2,4.3 37.2,4 C38.6,3.9 43.1,3.7 46,3.6 C46,3.6 46,3.6 46,3.6 C49.6,4.1 44,8.1 44,8.1 C41,7.1 41.5,9.1 41.5,9.1 C41.5,9.1 42.9,16.3 44,19.3 C45.1,22.3 47.9,21.7 47.9,21.7 C47.9,21.7 49.8,25.7 48.2,26.7 Z" id="路径" fill="#000000"></path>
                            <path d="M101.2,12.5 C100.1,16.6 98,17.9 98,17.9 C98,17.9 96.7,25.8 95.7,31.6 C95.7,31.7 95.7,31.8 95.6,31.9 C95.5,32.6 95.3,33.3 95.2,34 C95.1,34.7 95,35.3 94.8,35.8 C93.8,40.6 91.9,45.7 88.4,48.4 C87.6,49 86.8,49.5 85.9,49.8 C82.9,50.9 79.1,52.2 75.3,53.5 C68.2,56 59.8,58 59.7,60.7 C59.7,60.7 59.8,62.4 60,65.9 C60,65.9 60,65.9 60,65.9 C60.1,69.5 60.2,75.1 60,82.7 C59.7,94.5 57.7,106.2 57.7,106.2 C57.7,106.2 54.4,107.1 49.1,107.4 C47.3,107.5 41.6,106.8 37.6,106.7 C37.1,106.7 36.6,106.7 36.2,106.7 C32.2,106.7 28.7,108.1 24.2,108 C19.7,107.8 16.6,107.9 15.7,108 C15.5,108 15.4,108 15.4,108 L18.9,86.7 C18.9,86.7 7.4,83.6 9.1,58.5 C9.1,58.5 10.9,44.9 29,39.9 C31.6,39.2 33.4,34.8 36.9,34.7 C37.1,34.7 37.4,34.7 37.6,34.7 C38.1,34.7 38.7,34.7 39.2,34.7 C52.7,34.8 78.9,39.2 82.9,37.9 C84.7,37.4 86.4,31.8 86.4,31.8 L87.3,29.8 L87.4,29.6 L92.7,17.7 C92.7,17.7 88.9,14.2 90.7,9.3 L91.4,5.9 C91.6,4.7 93.4,4.8 93.5,6 C93.5,6 93.5,6 93.5,6.1 C93.5,6.1 92.7,11.7 93.8,8.5 C94.7,6 95.7,2.7 96.1,1.4 C96.2,0.9 96.6,0.5 97,0.4 C97.4,0.2 97.9,0.3 98.1,1.2 C98.2,1.6 98.1,2 98,2.4 L96.8,6.8 C96.6,6.7 102.3,8.4 101.2,12.5 Z" id="路径" fill="#A7D0FF"></path>
                            <path d="M101.2,12.5 C100.1,16.6 98,17.9 98,17.9 L98,17.9 C98,18.1 96.7,25.9 95.7,31.6 C95.7,31.6 95.7,31.7 95.7,31.7 C95.7,31.8 95.7,31.8 95.7,31.9 L87.2,29.7 L88,27.8 L92.5,17.6 C92.5,17.6 88.7,14.1 90.5,9.2 L91.1,5.8 C91.3,5 92.1,4.8 92.7,5.1 C92.9,5.2 93,5.4 93.1,5.6 C93.1,5.7 93.2,5.8 93.2,5.9 C93.2,5.9 93.2,5.9 93.2,6 C93.2,6 92.4,11.6 93.5,8.4 C93.6,8.2 93.7,7.9 93.8,7.7 C93.9,7.6 93.9,7.4 94,7.3 C94.1,7 94.2,6.6 94.4,6.2 C95.1,4.3 95.7,2.3 96,1.4 C96.1,0.9 96.5,0.5 96.9,0.4 C97.2,0.3 97.5,0.3 97.7,0.5 C97.8,0.6 97.9,0.8 97.9,1.1 C97.9,1.1 97.9,1.1 97.9,1.1 C98,1.5 97.9,1.9 97.8,2.2 L96.6,6.6 C96.6,6.6 96.9,6.7 97.2,6.8 C97.4,6.9 97.6,7 97.8,7.1 C97.8,7.1 97.8,7.1 97.8,7.1 C99.5,8 101.9,9.7 101.2,12.5 Z" id="路径" fill="#FFADAD"></path>
                            <path d="M95.6,31.5 C95.6,31.6 95.6,31.7 95.5,31.8 C95.4,32.5 95.2,33.2 95.1,33.9 L86.1,31.7 L87,29.7 L87.1,29.5 L95.6,31.5 Z" id="路径" fill="#FFFFFF"></path>
                            <path d="M40.6,37.6 L36.6,36.6 L30.2,36 C30.2,36 30.6,31.4 33.7,31 C34.5,30.9 35.7,30.8 37.1,30.8 L37.1,30.8 C37.8,32.3 39.4,35.1 40.6,37.6 Z" id="路径" fill="#97BAFF"></path>
                            <path d="M40.9,92 C40.9,97.5 40,103.5 37.5,106.6 C37,106.6 36.5,106.6 36.1,106.6 C32.1,106.6 28.6,108 24.1,107.9 C19.6,107.7 16.5,107.8 15.6,107.9 C15.5,107.9 15.4,107.9 15.3,107.9 L18.4,89 L18.4,89 L18.8,86.6 C18.8,86.6 18.8,86.6 18.7,86.6 C18.2,86.7 14.8,87.2 11,87 C6.4,86.9 1.4,85.8 0.8,82 C0.4,79.3 2.9,62.4 8.8,45.5 C10.6,40.3 15.1,39.5 22,38.3 C26.3,37.6 30.6,35.5 36.7,34.5 C36.9,34.5 37.2,34.5 37.4,34.5 C37.9,34.5 38.5,34.5 39,34.5 C40.5,37.3 42.1,40.6 42.5,41.8 C45,50.2 40.4,53.2 38.8,63.5 C36.4,78.3 41,83.4 40.9,92 Z" id="路径" fill="#7FA4FF"></path>
                            <g transform="translate(14.000000, 106.000000)" fill="#000000" id="路径">
                                <path d="M2.4,2.2 L2.4,5.6 L0.6,5.6 C0.9,4.3 1.1,3 1.4,1.8 L1.3,2.2 C1.3,2.2 1.4,2.2 1.6,2.2 C1.8,2.2 2,2.2 2.4,2.2 Z"></path>
                                <path d="M10,2.2 L10,5.6 L4.5,5.6 L4.5,2.1 C5.9,2.1 7.7,2.1 10,2.2 Z"></path>
                                <path d="M32.5,1.5 L32.5,4.5 L27,4.5 L27,1 C29,1.2 31,1.4 32.5,1.5 Z"></path>
                                <path d="M40,1 L40,4 L34.5,4 L34.5,1.6 C34.7,1.6 34.9,1.6 35.1,1.6 C37,1.5 38.7,1.3 40,1 Z"></path>
                                <path d="M44.2,3.7 L41.5,3.7 L41.5,0.7 C42.9,0.4 43.7,0.1 43.7,0.1 C43.8,1.4 44,2.6 44.2,3.7 Z"></path>
                                <path d="M25.1,0.8 L25.1,4.3 L19.6,4.3 L19.6,0.9 C20.4,0.8 21.3,0.7 22.1,0.7 C22.5,0.7 23,0.7 23.5,0.7 C24,0.8 24.6,0.8 25.1,0.8 Z"></path>
                                <path d="M17.6,1.3 L17.6,5.3 L12.1,5.3 L12.1,2.3 C14,2.1 15.8,1.7 17.6,1.3 Z"></path>
                            </g>
                            <path d="M24,48.4 L18.7,86.5 C18.2,86.6 14.8,87.1 11,86.9 C12.6,73.6 24,48.4 24,48.4 Z" id="路径" fill="#7187F8"></path>
                            <polygon id="路径" fill="#3939D3" points="45.9 125.9 53 114.6 54.2 115.6 47.7 128.1"></polygon>
                            <path d="M88.5,48.3 C87.7,48.9 86.9,49.4 86,49.7 C83,50.8 79.2,52.1 75.4,53.4 C68.3,55.9 59.9,57.9 59.8,60.6 C59.8,60.6 59.9,62.3 60.1,65.8 C60.1,65.6 58.5,52 62.3,51.4 C65.2,50.9 81.4,49.1 88.5,48.3 Z" id="路径" fill="#7EB6ED"></path>
                            <path d="M54.8,77.5 C54.8,77.5 52.2,86.2 50.1,89.6 C48.5,92.3 47.4,98.9 48.7,102.9 C49.6,106 55.5,81.5 54.8,77.5 Z" id="路径" fill="#E1EBFC"></path>
                            <path d="M98,17.9 C98,18.1 96.7,25.9 95.7,31.6 C95.7,31.6 95.7,31.7 95.7,31.7 C95.7,31.8 95.7,31.8 95.7,31.9 L87.2,29.7 L87.9,28.1 L94,29.8 L98,17.9 Z" id="路径" fill="#F57C83"></path>
                        </g>
                        <circle id="椭圆形" fill="#FF8DD8" fill-rule="nonzero" cx="34" cy="152" r="7.3"></circle>
                        <path d="M123.4,155.6 L55.8,155.6 C53.8,155.6 52.2,154 52.2,152 L52.2,152 C52.2,150 53.8,148.4 55.8,148.4 L123.4,148.4 C125.4,148.4 127,150 127,152 L127,152 C127.1,154 125.4,155.6 123.4,155.6 Z" id="路径" fill="#CDE7FF" fill-rule="nonzero"></path>
                        <g id="编组" transform="translate(52.000000, 192.000000)" fill="#798CFF" fill-rule="nonzero">
                            <path d="M56.1,7.3 L3.8,7.3 C1.8,7.3 0.2,5.7 0.2,3.7 L0.2,3.7 C0.2,1.7 1.8,0.1 3.8,0.1 L56.1,0.1 C58.1,0.1 59.7,1.7 59.7,3.7 L59.7,3.7 C59.8,5.7 58.1,7.3 56.1,7.3 Z" id="路径"></path>
                            <path d="M56.1,37.4 L3.8,37.4 C1.8,37.4 0.2,35.8 0.2,33.8 L0.2,33.8 C0.2,31.8 1.8,30.2 3.8,30.2 L56.1,30.2 C58.1,30.2 59.7,31.8 59.7,33.8 L59.7,33.8 C59.8,35.7 58.1,37.4 56.1,37.4 Z" id="路径"></path>
                        </g>
                        <g id="编组" transform="translate(26.000000, 269.000000)" fill="#798CFF" fill-rule="nonzero">
                            <circle id="椭圆形" cx="8" cy="7.9" r="7.3"></circle>
                            <path d="M97.4,11.5 L29.8,11.5 C27.8,11.5 26.2,9.9 26.2,7.9 L26.2,7.9 C26.2,5.9 27.8,4.3 29.8,4.3 L97.4,4.3 C99.4,4.3 101,5.9 101,7.9 L101,7.9 C101.1,9.9 99.4,11.5 97.4,11.5 Z" id="路径"></path>
                        </g>
                        <polygon id="路径" fill="url(#linearGradient-1)" fill-rule="nonzero" points="219 233 215.7 228.6 241.9 208.6 271.7 176.8 303.9 183.9 330.9 149.4 370.7 139.5 372.1 144.9 334.1 154.4 306.1 190.1 273.6 182.9 245.6 212.8"></polygon>
                        <g id="编组" transform="translate(213.000000, 138.000000)" fill="#FFCCA9" fill-rule="nonzero">
                            <circle id="椭圆形" cx="4.4" cy="92.8" r="4"></circle>
                            <circle id="椭圆形" cx="30.7" cy="72.7" r="4"></circle>
                            <circle id="椭圆形" cx="59.6" cy="41.9" r="4"></circle>
                            <circle id="椭圆形" cx="92" cy="49" r="4"></circle>
                            <circle id="椭圆形" cx="119.5" cy="13.9" r="4"></circle>
                            <circle id="椭圆形" cx="158.4" cy="4.2" r="4"></circle>
                        </g>
                    </g>
                </g>
            </g>
        </g>
    </g>
</svg>