<?xml version="1.0" encoding="UTF-8"?>
<svg width="60px" height="60px" viewBox="0 0 60 60" version="1.1" xmlns="http://www.w3.org/2000/svg" xmlns:xlink="http://www.w3.org/1999/xlink">
    <title>icon_track</title>
    <defs>
        <linearGradient x1="50%" y1="0%" x2="50%" y2="100%" id="linearGradient-1">
            <stop stop-color="#FFA724" offset="0%"></stop>
            <stop stop-color="#FFD83D" offset="100%"></stop>
        </linearGradient>
    </defs>
    <g id="页面-1" stroke="none" stroke-width="1" fill="none" fill-rule="evenodd">
        <g id="首页" transform="translate(-1120.000000, -5092.000000)" fill="url(#linearGradient-1)">
            <g id="track" transform="translate(1090.000000, 5049.000000)">
                <g id="icon_track-" transform="translate(30.000000, 43.000000)">
                    <path d="M30,22.0002727 C25.5826667,22.0002727 22,25.5829394 22,30.0002727 C22,34.4176061 25.5826667,38.0002727 30,38.0002727 C34.4173333,38.0002727 38,34.4176061 38,30.0002727 C38,25.5829394 34.4173333,22.0002727 30,22.0002727 M32.7272727,48.8727273 L32.7272727,46.3636364 C32.7272727,44.8581818 31.5054545,43.6363636 30,43.6363636 C28.4945455,43.6363636 27.2727273,44.8581818 27.2727273,46.3636364 L27.2727273,48.8727273 C18.93,47.6713636 12.3286364,41.07 11.1272727,32.7272727 L13.6363636,32.7272727 C15.1418182,32.7272727 16.3636364,31.5068182 16.3636364,30 C16.3636364,28.4945455 15.1418182,27.2727273 13.6363636,27.2727273 L11.1272727,27.2727273 C12.3286364,18.93 18.93,12.3286364 27.2727273,11.1272727 L27.2727273,13.6363636 C27.2727273,15.1431818 28.4945455,16.3636364 30,16.3636364 C31.5054545,16.3636364 32.7272727,15.1431818 32.7272727,13.6363636 L32.7272727,11.1272727 C41.07,12.3286364 47.6713636,18.93 48.8727273,27.2727273 L46.3636364,27.2727273 C44.8581818,27.2727273 43.6363636,28.4945455 43.6363636,30 C43.6363636,31.5068182 44.8581818,32.7272727 46.3636364,32.7272727 L48.8727273,32.7272727 C47.6713636,41.07 41.07,47.6713636 32.7272727,48.8727273 M57.2727273,27.2727273 L54.3845455,27.2727273 C53.1218182,15.915 44.085,6.87818182 32.7272727,5.61545455 L32.7272727,2.72727273 C32.7272727,1.22181818 31.5054545,0 30,0 C28.4945455,0 27.2727273,1.22181818 27.2727273,2.72727273 L27.2727273,5.61545455 C15.915,6.87818182 6.87818182,15.915 5.61545455,27.2727273 L2.72727273,27.2727273 C1.22181818,27.2727273 0,28.4945455 0,30 C0,31.5068182 1.22181818,32.7272727 2.72727273,32.7272727 L5.61545455,32.7272727 C6.87818182,44.0836364 15.9163636,53.1218182 27.2727273,54.3845455 L27.2727273,57.2727273 C27.2727273,58.7795455 28.4945455,60 30,60 C31.5054545,60 32.7272727,58.7795455 32.7272727,57.2727273 L32.7272727,54.3845455 C44.0836364,53.1218182 53.1218182,44.0836364 54.3845455,32.7272727 L57.2727273,32.7272727 C58.7781818,32.7272727 60,31.5068182 60,30 C60,28.4945455 58.7781818,27.2727273 57.2727273,27.2727273" id="icon_track"></path>
                </g>
            </g>
        </g>
    </g>
</svg>