<?xml version="1.0" encoding="UTF-8"?>
<svg width="18px" height="20px" viewBox="0 0 18 20" version="1.1" xmlns="http://www.w3.org/2000/svg" xmlns:xlink="http://www.w3.org/1999/xlink">
    <title>icon_top</title>
    <g id="页面-1" stroke="none" stroke-width="1" fill="none" fill-rule="evenodd">
        <g id="首页" transform="translate(-1811.000000, -5875.000000)" fill="#013047">
            <g id="btn_top" transform="translate(1780.000000, 5856.000000)">
                <g id="icon_top-" transform="translate(31.000000, 19.000000)">
                    <g id="icon_top" transform="translate(0.000000, -0.000000)">
                        <path d="M17,0 L1,0 C0.448,0 0,0.448 0,1 C0,1.552 0.448,2 1,2 L17,2 C17.552,2 18,1.552 18,1 C18,0.448 17.552,0 17,0" id="Fill-1"></path>
                        <path d="M9.70705,4.29295 C9.31655,3.90245 8.68355,3.90245 8.29305,4.29295 L3.29305,9.29295 C2.90255,9.68345 2.90255,10.31645 3.29305,10.70695 C3.68355,11.09745 4.31655,11.09745 4.70705,10.70695 L8.00005,7.41445 L8.00005,18.99995 C8.00005,19.55245 8.44755,19.99995 9.00005,19.99995 C9.55205,19.99995 10.00005,19.55245 10.00005,18.99995 L10.00005,7.41445 L13.29305,10.70695 C13.48805,10.90245 13.74405,10.99995 14.00005,10.99995 C14.25605,10.99995 14.51155,10.90245 14.70705,10.70695 C15.09755,10.31645 15.09755,9.68345 14.70705,9.29295 L9.70705,4.29295 Z" id="Fill-3"></path>
                    </g>
                </g>
            </g>
        </g>
    </g>
</svg>