<?xml version="1.0" encoding="UTF-8"?>
<svg width="60px" height="66px" viewBox="0 0 60 66" version="1.1" xmlns="http://www.w3.org/2000/svg" xmlns:xlink="http://www.w3.org/1999/xlink">
    <title>icon_talent</title>
    <defs>
        <linearGradient x1="50%" y1="0%" x2="50%" y2="100%" id="linearGradient-1">
            <stop stop-color="#FFA724" offset="0%"></stop>
            <stop stop-color="#FFD83D" offset="100%"></stop>
        </linearGradient>
    </defs>
    <g id="页面-1" stroke="none" stroke-width="1" fill="none" fill-rule="evenodd">
        <g id="首页" transform="translate(-1120.000000, -4736.000000)" fill="url(#linearGradient-1)">
            <g id="talent" transform="translate(1090.000000, 4695.000000)">
                <g id="icon_talent-" transform="translate(30.000000, 41.000000)">
                    <path d="M30,27 C26.6865,27 24,29.6865 24,33 C24,36.3135 26.6865,39 30,39 C33.3135,39 36,36.3135 36,33 C36,29.6865 33.3135,27 30,27 M53.3536526,46.4985 C52.1896565,48.513 49.3807855,49.6785 45.5532306,49.824 C45.632628,49.572 45.6910526,49.299 45.7659558,49.044 C45.9457235,48.4335 46.1150048,47.814 46.2723016,47.184 C46.3876526,46.725 46.4970113,46.266 46.6003777,45.7965 C46.7426939,45.15 46.8715274,44.4885 46.9913726,43.821 C47.0453029,43.5225 47.11721,43.2375 47.1666461,42.936 C47.4078345,42.738 47.6205597,42.531 47.8557558,42.333 C48.3725881,41.895 48.8804319,41.4555 49.368801,41.007 C49.7253403,40.6815 50.0728913,40.3515 50.4129519,40.0215 C50.8863403,39.5625 51.3417519,39.099 51.785179,38.634 C51.9634487,38.4465 52.1641894,38.265 52.3364668,38.076 C54.1251558,41.4675 54.5176487,44.4825 53.3536526,46.4985 L53.3536526,46.4985 Z M30.0003248,60 C26.9532615,60 23.7459054,56.8005 21.4269015,51.4485 C21.1332809,50.763 20.8621312,50.0385 20.601468,49.299 C20.5370512,49.1175 20.4756306,48.933 20.4127119,48.747 C20.345299,48.5445 20.2883725,48.33 20.2224577,48.123 C20.4726344,48.273 20.7213131,48.42 20.9744861,48.567 L21.0868409,48.6345 C21.7759506,49.032 22.4860332,49.38 23.2110964,49.6785 C23.2830035,49.7085 23.3609028,49.7235 23.4328099,49.7535 C24.0874641,50.013 24.7511067,50.2455 25.4252357,50.424 C25.5750422,50.463 25.7278448,50.4765 25.8761532,50.5125 C26.4828693,50.655 27.0895854,50.79 27.7037919,50.871 C27.8850577,50.895 28.0693196,50.889 28.2520835,50.9055 C28.8363287,50.9655 29.4205738,51.021 30.0078151,51.021 L30.0153054,51.021 C30.3328951,51.021 30.6474887,50.976 30.9650783,50.9595 C31.4129996,50.9355 31.8594229,50.931 32.304348,50.874 C32.7238061,50.82 33.1372719,50.715 33.5522358,50.6295 C33.8893003,50.562 34.230859,50.52 34.5649274,50.4315 C35.137188,50.28 35.6959661,50.076 36.251748,49.866 C36.4195313,49.803 36.5933067,49.764 36.76109,49.695 C37.4786629,49.401 38.1797571,49.056 38.8598784,48.663 L39.038148,48.5595 C39.2868267,48.4155 39.5325093,48.27 39.7781919,48.123 C39.7152732,48.3285 39.6568487,48.5415 39.5894358,48.7425 C39.5280151,48.9315 39.4635984,49.119 39.3991816,49.3035 C39.1400164,50.04 38.8688667,50.76 38.5767442,51.4425 C36.2547442,56.8005 33.047388,60 30.0003248,60 L30.0003248,60 Z M6.64699698,46.4985 C5.48150279,44.4795 5.87848988,41.463 7.67167311,38.073 C7.84395053,38.262 8.04469118,38.442 8.22146279,38.6295 C8.66488989,39.096 9.1203015,39.558 9.59219183,40.0185 C9.93375054,40.3485 10.2768073,40.6755 10.6318486,41.0025 C11.127708,41.457 11.6370499,41.8995 12.1583764,42.342 C12.3875802,42.5355 12.5988073,42.741 12.8340034,42.9345 C12.8834396,43.2345 12.9538486,43.518 13.0077789,43.8135 C13.1291222,44.484 13.2564576,45.147 13.4017699,45.798 C13.5036383,46.266 13.6144951,46.728 13.729846,47.1855 C13.8856447,47.814 14.0564241,48.4305 14.2346938,49.0395 C14.3110951,49.296 14.3695196,49.5705 14.4474189,49.824 C10.6213622,49.6785 7.81249118,48.513 6.64699698,46.4985 L6.64699698,46.4985 Z M6.64549892,19.503 C7.81249118,17.487 10.6213622,16.3215 14.4474189,16.176 C14.3710176,16.425 14.3110951,16.6935 14.239188,16.947 C14.0579222,17.5605 13.8856447,18.1845 13.7268499,18.8205 C13.6144951,19.275 13.5036383,19.734 13.4017699,20.199 C13.2579557,20.85 13.1291222,21.5115 13.0077789,22.182 C12.9553467,22.479 12.8834396,22.7625 12.8340034,23.064 C12.5898189,23.2635 12.3755957,23.472 12.1374034,23.6745 C11.6250654,24.1095 11.1202176,24.546 10.6348447,24.99 C10.2708151,25.323 9.91727183,25.659 9.56972086,25.998 C9.11131312,26.442 8.66788602,26.892 8.23943957,27.3435 C8.05517763,27.5385 7.84694666,27.726 7.66867698,27.921 C5.87848988,24.534 5.48150279,21.519 6.64549892,19.503 L6.64549892,19.503 Z M30.0003248,6 C33.047388,6 36.2547442,9.1995 38.573748,14.553 C38.8673687,15.2355 39.1385184,15.9585 39.3991816,16.695 C39.4650964,16.881 39.5280151,17.07 39.5894358,17.259 C39.6568487,17.46 39.7152732,17.673 39.7781919,17.877 C39.5295132,17.727 39.2793364,17.5815 39.0276616,17.4345 L38.8329132,17.3205 C33.3649777,14.199 26.6012164,14.2035 21.1392731,17.337 L20.9610035,17.4405 C20.7123248,17.586 20.4681402,17.73 20.2224577,17.877 C20.2868744,17.673 20.3438009,17.46 20.4112138,17.259 C20.4741325,17.07 20.5385493,16.881 20.602966,16.695 C20.8621312,15.9585 21.1332809,15.237 21.4269015,14.5545 C23.7474035,9.198 26.9547596,6 30.0003248,6 L30.0003248,6 Z M53.3536526,19.5015 C54.5176487,21.5175 54.1251558,24.5325 52.3379648,27.924 C52.1611932,27.7305 51.9559584,27.546 51.7746926,27.354 C51.3327635,26.8905 50.8818461,26.4315 50.4114539,25.9755 C50.0758874,25.65 49.7328306,25.326 49.3822835,25.005 C48.8849261,24.549 48.3695919,24.102 47.8437713,23.6565 C47.6130693,23.4615 47.4033403,23.2575 47.1666461,23.064 C47.11721,22.7625 47.0453029,22.479 46.9928706,22.182 C46.8715274,21.513 46.7426939,20.85 46.5988797,20.199 C46.4970113,19.7325 46.3876526,19.2735 46.2723016,18.816 C46.1150048,18.1845 45.9457235,17.5635 45.7659558,16.9515 C45.6895545,16.698 45.632628,16.428 45.5532306,16.176 C49.3792874,16.3215 52.1896565,17.487 53.3536526,19.5015 L53.3536526,19.5015 Z M48.3126655,33.5625 C47.9096861,34.014 47.4932242,34.464 47.0572874,34.911 C46.8565468,35.1165 46.6498139,35.3205 46.443081,35.523 C46.0281171,35.9295 45.5996706,36.3345 45.1592397,36.732 C44.9540048,36.9195 44.750268,37.1085 44.5375429,37.293 C43.8993674,37.8525 43.2447132,38.4045 42.5615958,38.94 C42.5496113,38.949 42.5391248,38.9595 42.5271403,38.967 L42.5151558,38.9775 C40.570668,40.5195 38.4194474,41.979 36.1199183,43.3185 L35.9176796,43.437 C32.304348,45.525 27.8206409,45.546 24.1339041,43.467 L23.9316654,43.347 C22.5174925,42.5265 21.182717,41.6475 19.8943815,40.743 C19.0644538,40.1595 18.2390202,39.5745 17.4660189,38.9625 C16.7679209,38.415 16.098286,37.851 15.446628,37.2795 C15.2458873,37.104 15.052637,36.924 14.8563906,36.7455 C14.4039751,36.336 13.9635441,35.922 13.5395918,35.5035 C13.3418473,35.31 13.1441028,35.115 12.9538486,34.9185 C12.5044293,34.4595 12.0759828,33.996 11.6640151,33.5295 C11.5426718,33.393 11.4138383,33.258 11.2954912,33.1215 C11.2610357,33.081 11.2340705,33.0405 11.198117,33 C11.2340705,32.9595 11.2625338,32.9175 11.2984873,32.877 C11.4123402,32.7435 11.5411738,32.61 11.6595209,32.475 C12.0699905,32.01 12.4999351,31.545 12.9508525,31.0845 C13.1441028,30.885 13.3448435,30.6885 13.5455841,30.4905 C13.9650422,30.0765 14.4009789,29.6655 14.8489002,29.259 C15.0496409,29.079 15.2458873,28.896 15.4496241,28.716 C16.1012822,28.1475 16.7679209,27.585 17.4660189,27.0375 L17.4929841,27.018 C19.4614409,25.4595 21.6351325,23.985 23.9586306,22.6365 L24.130908,22.5345 C27.7592203,20.4615 32.2519158,20.463 35.880228,22.542 L36.0689842,22.6515 C38.387988,23.9985 40.5571855,25.47 42.5346306,27.0375 C43.2342268,27.585 43.9038616,28.1505 44.5585158,28.722 C44.7517661,28.893 44.9375261,29.064 45.1262822,29.2365 C45.5876861,29.655 46.0356074,30.0765 46.4700461,30.5025 C46.6617984,30.6915 46.8535506,30.8805 47.0408087,31.071 C47.4917261,31.533 47.9231687,31.998 48.3381326,32.4675 C48.4609739,32.6055 48.5943016,32.7435 48.7141468,32.883 C48.7486022,32.922 48.7740693,32.961 48.8085248,33 C48.7770655,33.0375 48.7515984,33.0735 48.720139,33.111 C48.5898074,33.2625 48.4459932,33.411 48.3126655,33.5625 L48.3126655,33.5625 Z M56.381241,33 L56.3318048,32.934 C60.2642242,26.817 61.0911558,20.9115 58.539952,16.497 C55.9857519,12.0795 50.4354229,9.8655 43.1518332,10.2315 C39.8186396,3.705 35.1027325,0 30.0003248,0 C24.897917,0 20.183508,3.7035 16.8503144,10.2315 C9.5637286,9.864 4.01639569,12.078 1.45919955,16.4985 C-1.09350239,20.919 -0.263574648,26.829 3.68682149,32.943 L3.64337762,33 L3.68682149,33.057 C-0.262076583,39.171 -1.09350239,45.0825 1.45919955,49.503 C3.83363181,53.61 8.78323699,55.8375 15.3133002,55.8375 C15.818148,55.8375 16.3364783,55.8165 16.8608009,55.7895 C20.1924964,62.3025 24.9024112,66 30.0003248,66 C35.0967403,66 39.8051571,62.3055 43.1413468,55.7895 C43.6626732,55.8165 44.1825016,55.8375 44.6873493,55.8375 C51.2159145,55.8375 56.1670178,53.61 58.54145,49.503 L58.54145,49.5015 C61.0896578,45.0885 60.2642242,39.1815 56.3303068,33.066 L56.381241,33 Z" id="icon_talent"></path>
                </g>
            </g>
        </g>
    </g>
</svg>