<?xml version="1.0" encoding="UTF-8"?>
<svg width="60px" height="54px" viewBox="0 0 60 54" version="1.1" xmlns="http://www.w3.org/2000/svg" xmlns:xlink="http://www.w3.org/1999/xlink">
    <title>icon_travel</title>
    <defs>
        <linearGradient x1="50%" y1="0%" x2="50%" y2="100%" id="linearGradient-1">
            <stop stop-color="#FFA724" offset="0%"></stop>
            <stop stop-color="#FFD83D" offset="100%"></stop>
        </linearGradient>
    </defs>
    <g id="页面-1" stroke="none" stroke-width="1" fill="none" fill-rule="evenodd">
        <g id="首页" transform="translate(-1120.000000, -4919.000000)" fill="url(#linearGradient-1)">
            <g id="travel" transform="translate(1090.000000, 4872.000000)">
                <g id="icon_travel-" transform="translate(30.000000, 47.000000)">
                    <path d="M54,41.9142994 L42,46.6048772 L42,12.0848042 L54,7.39272636 L54,41.9142994 Z M24,7.39272636 L36,12.0848042 L36,46.6048772 L24,41.9142994 L24,7.39272636 Z M6,12.0848042 L18,7.39272636 L18,41.9142994 L6,46.6048772 L6,12.0848042 Z M58.692,0.5211123 C57.873,-0.0368969627 56.8305,-0.153898905 55.9065,0.204607046 L39,6.81521678 L22.0935,0.204607046 C22.083,0.200106971 22.0725,0.200106971 22.0635,0.197106922 C21.954,0.155106224 21.8385,0.13860595 21.7245,0.110105477 C21.6015,0.0801049794 21.4815,0.0381042822 21.357,0.0231040332 C21.255,0.011103834 21.1515,0.0231040332 21.0465,0.0201039834 C20.91,0.0186039585 20.7735,0.00810378424 20.6385,0.0231040332 C20.5335,0.0366042573 20.433,0.0726048549 20.331,0.0966052533 C20.1975,0.128105776 20.064,0.149106125 19.935,0.197106922 C19.926,0.200106971 19.9155,0.200106971 19.9065,0.204607046 L1.9065,7.24122385 C0.7575,7.69123132 0,8.79974972 0,10.0357702 L0,50.9999502 C0,51.9914667 0.489,52.918482 1.308,53.4764913 C1.8135,53.821497 2.406,54 3,54 C3.369,54 3.7395,53.9324989 4.0935,53.7929966 L21,47.1838869 L37.9065,53.7929966 C37.9545,53.8124969 38.004,53.818497 38.052,53.8334972 C38.106,53.8529976 38.16,53.8679978 38.2185,53.8829981 C38.475,53.9519992 38.736,54 39,54 C39.264,54 39.525,53.9519992 39.7815,53.8829981 C39.84,53.8679978 39.894,53.8529976 39.948,53.8334972 C39.996,53.818497 40.0455,53.8124969 40.0935,53.7929966 L58.0935,46.7563798 C59.2425,46.3063723 60,45.1963539 60,43.9618334 L60,2.99915343 C60,2.00763697 59.511,1.07912156 58.692,0.5211123 L58.692,0.5211123 Z" id="icon_travel"></path>
                </g>
            </g>
        </g>
    </g>
</svg>