<?xml version="1.0" encoding="UTF-8"?>
<svg width="278px" height="62px" viewBox="0 0 278 62" version="1.1" xmlns="http://www.w3.org/2000/svg" xmlns:xlink="http://www.w3.org/1999/xlink">
    <title>logo</title>
    <defs>
        <polygon id="path-1" points="0 -0.002 77.1399 -0.002 77.1399 62 0 62"></polygon>
        <polygon id="path-3" points="0.0822 -0.002 39.0582 -0.002 39.0582 47.8773713 0.0822 47.8773713"></polygon>
        <polygon id="path-5" points="0 62.0023 277.284 62.0023 277.284 0.0003 0 0.0003"></polygon>
    </defs>
    <g id="页面-1" stroke="none" stroke-width="1" fill="none" fill-rule="evenodd">
        <g id="首页" transform="translate(-360.000000, -19.000000)">
            <g id="navigation">
                <g id="logo-" transform="translate(360.000000, 19.000000)">
                    <g id="logo">
                        <g id="编组" transform="translate(0.000000, 0.002300)">
                            <mask id="mask-2" fill="white">
                                <use xlink:href="#path-1"></use>
                            </mask>
                            <g id="Clip-2"></g>
                            <path d="M69.4699,-0.0021 L54.5999,-0.0021 C56.5099,-0.0021 58.0599,1.5479 58.0599,3.4479 C58.0599,5.3579 56.5099,6.9079 54.5999,6.9079 L54.5999,6.9479 L69.3699,6.9479 C69.5699,6.9479 69.7699,7.0279 69.9099,7.1679 C70.0599,7.3179 70.1399,7.5079 70.1399,7.7179 L70.2399,49.3079 C70.2399,49.5079 70.1499,49.6979 70.0099,49.8479 C69.8699,49.9879 69.6699,50.0679 69.4699,50.0679 L52.3399,50.0679 C50.9499,50.0679 49.5799,50.4179 48.3599,51.0879 L46.2499,52.2779 C41.7299,54.7879 36.2499,54.8779 31.6399,52.5279 L28.5899,50.9769 C27.4399,50.3779 26.1599,50.0779 24.8699,50.0679 L7.6799,50.0679 C7.4799,50.0679 7.2799,49.9879 7.1399,49.8479 C6.9999,49.6979 6.9199,49.5079 6.9199,49.3079 L6.9199,7.6779 C6.9199,7.2479 7.2599,6.9079 7.6799,6.9079 L22.4899,6.9079 C20.5999,6.8779 19.0799,5.3379 19.0799,3.4479 C19.0799,1.5479 20.6299,-0.0021 22.5399,-0.0021 L7.6799,-0.0021 C3.4399,-0.0021 -0.0001,3.4379 -0.0001,7.6779 L-0.0001,49.3079 C-0.0001,53.5479 3.4399,56.9769 7.6799,56.9769 L23.2199,56.9769 C24.5199,56.9879 25.7899,57.2879 26.9399,57.8779 L31.7399,60.2879 C36.3099,62.6279 41.7399,62.5679 46.2499,60.1179 L50.0799,57.9979 C51.2999,57.3279 52.6699,56.9769 54.0599,56.9879 L69.4699,56.9879 C73.7099,56.9769 77.1399,53.5479 77.1399,49.3079 L77.1399,7.6779 C77.1399,3.4379 73.6999,-0.0021 69.4699,-0.0021" id="Fill-1" fill="#013047" mask="url(#mask-2)"></path>
                        </g>
                        <g id="编组" transform="translate(19.000000, 0.002300)">
                            <mask id="mask-4" fill="white">
                                <use xlink:href="#path-3"></use>
                            </mask>
                            <g id="Clip-4"></g>
                            <path d="M35.6032,-0.0021 L33.3842,-0.0021 C30.6792,-0.0001 28.0472,0.8749 25.8792,2.4929 L23.4682,4.2819 C21.1822,5.9769 18.0562,5.9769 15.7702,4.2799 L13.3652,2.4929 C11.1962,0.8749 8.5642,-0.0001 5.8592,-0.0021 L3.6152,0.0059 C3.5882,0.0049 3.5632,-0.0021 3.5372,-0.0021 C1.6282,-0.0021 0.0822,1.5439 0.0822,3.4529 C0.0822,5.3599 1.6282,6.9069 3.5372,6.9069 C6.2592,6.9119 8.9052,7.7999 11.0802,9.4369 C14.2662,11.8169 16.1402,13.1229 16.1402,17.1139 L16.1402,44.2009 C16.0862,45.9439 17.2922,47.4749 18.9992,47.8289 C20.0042,47.9989 21.0332,47.7169 21.8102,47.0589 C22.5872,46.3989 23.0342,45.4319 23.0312,44.4119 L23.0312,17.1179 C23.0312,13.1459 24.9502,11.8209 28.0982,9.4409 C30.2662,7.8239 32.8982,6.9489 35.6032,6.9459 L35.6032,6.9069 C37.5112,6.9069 39.0582,5.3599 39.0582,3.4529 C39.0582,1.5439 37.5112,-0.0021 35.6032,-0.0021" id="Fill-3" fill="#FFB706" mask="url(#mask-4)"></path>
                        </g>
                        <path d="M253.8713,56.9582 L249.7673,56.9582 L249.7673,45.3732 L253.8713,45.3732 C256.0013,45.3732 257.7333,43.6412 257.7333,41.5122 L257.7333,27.0312 C257.7333,18.5142 264.6623,11.5842 273.1803,11.5842 L277.2833,11.5842 L277.2833,23.1692 L273.1803,23.1692 C271.0503,23.1692 269.3173,24.9012 269.3173,27.0312 L269.3173,41.5122 C269.3173,50.0292 262.3893,56.9582 253.8713,56.9582" id="Fill-5" fill="#FFB706"></path>
                        <path d="M129.5788,34.2716 C129.5788,28.1506 134.5598,23.1696 140.6808,23.1696 C142.1938,23.1696 143.6568,23.4806 144.9958,24.0506 L129.6508,35.5336 C129.6028,35.1186 129.5788,34.6986 129.5788,34.2716 L129.5788,34.2716 Z M151.1018,38.1766 C151.0898,38.1726 151.0768,38.1786 151.0728,38.1906 C149.4498,42.4866 145.2778,45.3736 140.6808,45.3736 C139.3098,45.3736 137.9968,45.1226 136.7828,44.6666 L156.9208,29.5966 L161.7908,25.9546 C160.3288,22.2476 157.9248,19.0566 154.9108,16.6336 C150.9638,13.4526 145.9758,11.5846 140.6808,11.5846 C128.1718,11.5846 117.9938,21.7626 117.9938,34.2716 C117.9938,37.3486 118.6098,40.2836 119.7248,42.9596 C121.2398,46.6046 123.6828,49.7736 126.7548,52.1696 C130.5998,55.1696 135.4358,56.9586 140.6808,56.9586 C150.0858,56.9586 158.6248,51.0426 161.9268,42.2386 L151.1018,38.1766 Z" id="Fill-7" fill="#FFB706"></path>
                        <mask id="mask-6" fill="white">
                            <use xlink:href="#path-5"></use>
                        </mask>
                        <g id="Clip-10"></g>
                        <polygon id="Fill-9" fill="#FFB706" mask="url(#mask-6)" points="166.746 56.9583 178.331 56.9583 178.331 0.0003 166.746 0.0003"></polygon>
                        <polygon id="Fill-11" fill="#FFB706" mask="url(#mask-6)" points="183.158 56.9583 194.742 56.9583 194.742 0.0003 183.158 0.0003"></polygon>
                        <path d="M228.5314,56.9582 L222.5514,56.9582 C210.2314,56.9582 199.7284,46.8852 199.5714,34.5662 C199.4084,21.8242 209.8084,11.4242 222.5514,11.5862 C234.8694,11.7442 244.9424,22.2472 244.9424,34.5662 L244.9424,56.9582 L233.3584,56.9582 L233.3584,34.4702 C233.3584,28.2822 228.3824,23.1352 222.1944,23.1692 C216.1214,23.2032 211.1874,28.1372 211.1544,34.2092 C211.1204,40.3972 216.2664,45.3732 222.4554,45.3732 L228.5314,45.3732 L228.5314,56.9582 Z" id="Fill-12" fill="#FFB706" mask="url(#mask-6)"></path>
                        <path d="M107.1335,11.5846 L113.1675,11.5846 L113.1675,0.0006 L107.1335,0.0006 C95.9545,0.0006 86.8605,9.0946 86.8605,20.2726 L86.8605,56.9586 L98.4445,56.9586 L98.4455,33.5466 L113.1675,33.5466 L113.1675,21.9626 L98.4455,21.9626 L98.4455,20.2726 C98.4455,15.4816 102.3425,11.5846 107.1335,11.5846" id="Fill-13" fill="#FFB706" mask="url(#mask-6)"></path>
                    </g>
                </g>
            </g>
        </g>
    </g>
</svg>