<?xml version="1.0" encoding="UTF-8"?>
<svg width="16px" height="16px" viewBox="0 0 16 16" version="1.1" xmlns="http://www.w3.org/2000/svg" xmlns:xlink="http://www.w3.org/1999/xlink">
    <title>checkbox_pre</title>
    <g id="学生端-生涯辅导" stroke="none" stroke-width="1" fill="none" fill-rule="evenodd">
        <g id="生涯辅导-在线评测" transform="translate(-824.000000, -296.000000)" fill="#53C41B">
            <g id="topic-1" transform="translate(264.000000, 232.000000)">
                <g id="checkbox_pre" transform="translate(560.000000, 64.000000)">
                    <path d="M12.76564,5.76564 L7.16564,11.36564 C7.00924,11.52204 6.80484,11.60004 6.60004,11.60004 C6.39524,11.60004 6.19084,11.52204 6.03444,11.36564 L3.23444,8.56564 C2.92204,8.25324 2.92204,7.74684 3.23444,7.43444 C3.54684,7.12204 4.05324,7.12204 4.36564,7.43444 L6.60004,9.66884 L11.63444,4.63444 C11.94684,4.32204 12.45324,4.32204 12.76564,4.63444 C13.07804,4.94684 13.07804,5.45324 12.76564,5.76564 M8.00004,4e-05 C3.58884,4e-05 4e-05,3.58884 4e-05,8.00004 C4e-05,12.41124 3.58884,16.00004 8.00004,16.00004 C12.41124,16.00004 16.00004,12.41124 16.00004,8.00004 C16.00004,3.58884 12.41124,4e-05 8.00004,4e-05"></path>
                </g>
            </g>
        </g>
    </g>
</svg>