<?xml version="1.0" encoding="UTF-8"?>
<svg width="16px" height="16px" viewBox="0 0 16 16" version="1.1" xmlns="http://www.w3.org/2000/svg" xmlns:xlink="http://www.w3.org/1999/xlink">
    <title>checkbox</title>
    <g id="学生端-生涯辅导" stroke="none" stroke-width="1" fill="none" fill-rule="evenodd">
        <g id="生涯辅导-在线评测" transform="translate(-824.000000, -328.000000)" fill="#D9D9D9">
            <g id="topic-1" transform="translate(264.000000, 232.000000)">
                <g id="checkbox-" transform="translate(560.000000, 96.000000)">
                    <path d="M8,1.6 C4.4712,1.6 1.6,4.4712 1.6,8 C1.6,11.5288 4.4712,14.4 8,14.4 C11.5288,14.4 14.4,11.5288 14.4,8 C14.4,4.4712 11.5288,1.6 8,1.6 M8,16 C3.5888,16 0,12.4112 0,8 C0,3.5888 3.5888,0 8,0 C12.4112,0 16,3.5888 16,8 C16,12.4112 12.4112,16 8,16" id="checkbox"></path>
                </g>
            </g>
        </g>
    </g>
</svg>