<?xml version="1.0" encoding="UTF-8"?>
<svg width="16px" height="16px" viewBox="0 0 16 16" version="1.1" xmlns="http://www.w3.org/2000/svg" xmlns:xlink="http://www.w3.org/1999/xlink">
    <title>checkbox_pre</title>
    <g id="课程管理" stroke="none" stroke-width="1" fill="none" fill-rule="evenodd">
        <g id="课程管理-新建服务-付费" transform="translate(-396.000000, -605.000000)" fill="#53C41B">
            <g id="service-tab" transform="translate(298.000000, 603.000000)">
                <g id="replay" transform="translate(98.000000, 0.000000)">
                    <g id="checkbox_pre-" transform="translate(0.000000, 2.000000)">
                        <path d="M12.2581818,6.02254545 L7.26581818,11.0061818 C7.12363636,11.148 6.93781818,11.2189091 6.75163636,11.2189091 C6.56581818,11.2189091 6.38,11.1483636 6.23781818,11.0061818 L3.74181818,8.51454545 C3.45781818,8.23054545 3.45709091,7.77054545 3.74109091,7.48581818 C4.02472727,7.20145455 4.48509091,7.20072727 4.76945455,7.48509091 L6.75163636,9.464 L11.2305455,4.99345455 C11.5145455,4.71018182 11.9749091,4.70945455 12.2589091,4.99418182 C12.5429091,5.27854545 12.5421818,5.73890909 12.2581818,6.02254545 M8,4.70734562e-14 C3.58872727,4.70734562e-14 0,3.58872727 0,7.99963636 C0,12.4109091 3.58872727,15.9996364 8,15.9996364 C12.4112727,15.9996364 16,12.4109091 16,7.99963636 C16,3.58872727 12.4112727,4.70734562e-14 8,4.70734562e-14" id="checkbox_pre"></path>
                    </g>
                </g>
            </g>
        </g>
    </g>
</svg>