<?xml version="1.0" encoding="UTF-8"?>
<svg width="177px" height="170px" viewBox="0 0 177 170" version="1.1" xmlns="http://www.w3.org/2000/svg" xmlns:xlink="http://www.w3.org/1999/xlink">
    <title>img</title>
    <defs>
        <linearGradient x1="27.6975238%" y1="99.4574689%" x2="55.4500793%" y2="19.030083%" id="linearGradient-1">
            <stop stop-color="#C0D7FF" offset="0%"></stop>
            <stop stop-color="#619AFF" offset="100%"></stop>
        </linearGradient>
        <linearGradient x1="221.845616%" y1="0.598277281%" x2="174.819593%" y2="65.0890014%" id="linearGradient-2">
            <stop stop-color="#C0D7FF" offset="0%"></stop>
            <stop stop-color="#619AFF" offset="100%"></stop>
        </linearGradient>
        <linearGradient x1="49.7283346%" y1="93.680271%" x2="62.6915075%" y2="3.94417173%" id="linearGradient-3">
            <stop stop-color="#C0D7FF" offset="0%"></stop>
            <stop stop-color="#619AFF" offset="100%"></stop>
        </linearGradient>
        <linearGradient x1="52.0323225%" y1="53.3042817%" x2="46.760184%" y2="47.8182668%" id="linearGradient-4">
            <stop stop-color="#C0D7FF" offset="0%"></stop>
            <stop stop-color="#85ABFF" offset="100%"></stop>
        </linearGradient>
        <linearGradient x1="97.9105691%" y1="50.0464671%" x2="4.32520325%" y2="49.9560447%" id="linearGradient-5">
            <stop stop-color="#FFFFFF" offset="0%"></stop>
            <stop stop-color="#C0D7FF" offset="100%"></stop>
        </linearGradient>
        <linearGradient x1="15.8066847%" y1="50.3856041%" x2="400.375471%" y2="46.1439589%" id="linearGradient-6">
            <stop stop-color="#FFFFFF" offset="0%"></stop>
            <stop stop-color="#E5EEFF" offset="100%"></stop>
        </linearGradient>
        <linearGradient x1="8.25100284%" y1="50.2999143%" x2="405.656739%" y2="47.4721508%" id="linearGradient-7">
            <stop stop-color="#FFFFFF" offset="0%"></stop>
            <stop stop-color="#E5EEFF" offset="100%"></stop>
        </linearGradient>
        <linearGradient x1="15.9994317%" y1="50.5141388%" x2="415.987977%" y2="44.8157669%" id="linearGradient-8">
            <stop stop-color="#FFFFFF" offset="0%"></stop>
            <stop stop-color="#E5EEFF" offset="100%"></stop>
        </linearGradient>
        <linearGradient x1="0.426080173%" y1="49.3595412%" x2="99.368764%" y2="50.64915%" id="linearGradient-9">
            <stop stop-color="#FFFFFF" offset="0%"></stop>
            <stop stop-color="#E5EEFF" offset="100%"></stop>
        </linearGradient>
        <linearGradient x1="0.43230169%" y1="49.3935932%" x2="98.9899894%" y2="50.6772419%" id="linearGradient-10">
            <stop stop-color="#FFFFFF" offset="0%"></stop>
            <stop stop-color="#E5EEFF" offset="100%"></stop>
        </linearGradient>
        <linearGradient x1="0.433523887%" y1="49.3041115%" x2="100.090886%" y2="50.6065799%" id="linearGradient-11">
            <stop stop-color="#FFFFFF" offset="0%"></stop>
            <stop stop-color="#E5EEFF" offset="100%"></stop>
        </linearGradient>
        <linearGradient x1="50.2895945%" y1="0.481044616%" x2="49.7829286%" y2="97.9082481%" id="linearGradient-12">
            <stop stop-color="#85ABFF" offset="0%"></stop>
            <stop stop-color="#4B78F6" offset="100%"></stop>
        </linearGradient>
        <linearGradient x1="17.5581105%" y1="12.5468633%" x2="81.9670082%" y2="86.9282679%" id="linearGradient-13">
            <stop stop-color="#C0D7FF" offset="0%"></stop>
            <stop stop-color="#5C9EFF" offset="100%"></stop>
        </linearGradient>
        <linearGradient x1="39.4188807%" y1="92.1402936%" x2="54.4734839%" y2="-1.74885914%" id="linearGradient-14">
            <stop stop-color="#FFFFFF" offset="0%"></stop>
            <stop stop-color="#EEF4FF" offset="54%"></stop>
            <stop stop-color="#E5EEFF" offset="100%"></stop>
        </linearGradient>
    </defs>
    <g id="学生端-生涯辅导" stroke="none" stroke-width="1" fill="none" fill-rule="evenodd">
        <g id="生涯辅导-匹配咨询师" transform="translate(-752.000000, -286.000000)" fill-rule="nonzero">
            <g id="img-" transform="translate(752.000000, 286.000000)">
                <g id="img" transform="translate(0.000000, 0.000000)">
                    <path d="M6.36053957,126.083849 C6.36053957,126.083849 10.9701799,118.94018 22.3796763,116.940971 C23.0163669,116.839101 23.6530576,116.743597 24.2897482,116.667194 L18.1711511,101.533058 L15.8854317,101.533058 C13.7110922,101.874112 11.5002041,101.914817 9.31478417,101.654029 L9.09830935,101.622194 L9.06010791,101.622194 C9.06010791,101.622194 -9.37845324,99.323741 6.36053957,126.083849 Z" id="路径" fill="url(#linearGradient-1)"></path>
                    <path d="M21.9339928,115.31741 L22.3669424,116.940971 C24.7991007,126.071115 27.7660791,136.55741 38.2842086,142.459532 C43.8701161,145.529798 50.3317524,146.616089 56.6145324,145.541115 L67.5274101,143.771115 L53.9340647,89.6014748 C53.9340647,89.6014748 30.3001079,99.6993885 15.8663309,101.552158 C13.6919915,101.893213 11.4811033,101.933917 9.29568345,101.673129 C10.8492086,102.010576 18.9606475,104.213525 21.9339928,115.31741 Z" id="路径" fill="url(#linearGradient-2)"></path>
                    <path d="M10.5053957,23.4365827 C10.5053957,23.4365827 -0.165539568,26.8301439 7.16913669,45.4278777 C15.3951799,66.2922302 27.1039209,82.9289568 41.5504317,97.5091727 C55.2329137,111.318993 70.5580576,141.810108 51.9475899,146.139604 C51.9475899,146.139604 93.0778058,141.969281 122.792158,125.179748 C158.281295,105.123993 134.144353,70.6153597 128.707014,63.6117626 C120.652878,53.2464388 100.819964,30.8794964 95.8283094,9.80503597 L10.5053957,23.4365827 Z" id="路径" fill="url(#linearGradient-3)"></path>
                    <path d="M115.693058,15.0513669 C115.693058,15.0513669 106.441942,-2.24115108 94.1410791,1.04417266 L10.5053957,23.4365827 C10.5053957,23.4365827 26.5818345,24.4043525 32.6685971,37.2718705 L115.693058,15.0513669 Z" id="路径" fill="url(#linearGradient-4)"></path>
                    <ellipse id="椭圆形" fill="url(#linearGradient-5)" cx="99.7375899" cy="163.826871" rx="39.1564748" ry="6.04856115"></ellipse>
                    <ellipse id="椭圆形" fill="url(#linearGradient-6)" transform="translate(35.506912, 58.434654) rotate(-34.860000) translate(-35.506912, -58.434654) " cx="35.5069119" cy="58.4346538" rx="6.6852518" ry="7.43017986"></ellipse>
                    <ellipse id="椭圆形" fill="url(#linearGradient-7)" transform="translate(50.076734, 81.242665) rotate(-34.860000) translate(-50.076734, -81.242665) " cx="50.0767342" cy="81.2426652" rx="6.6852518" ry="7.43017986"></ellipse>
                    <ellipse id="椭圆形" fill="url(#linearGradient-8)" transform="translate(66.796930, 102.625663) rotate(-34.860000) translate(-66.796930, -102.625663) " cx="66.7969302" cy="102.625663" rx="6.6852518" ry="7.43017986"></ellipse>
                    <path d="M52.5269784,57.251223 C50.1676469,57.2504128 48.1625512,55.5266576 47.8077439,53.1941574 C47.4529365,50.8616571 48.8547828,48.6196563 51.1071583,47.9173381 L89.1621583,36.0239568 C90.8045208,35.4622794 92.6223276,35.8360347 93.9098595,37.0001213 C95.1973914,38.1642078 95.7518559,39.9352763 95.3579957,41.6257526 C94.9641354,43.3162289 93.6839853,44.6598547 92.0145324,45.135 L53.9531655,57.0347482 C53.491321,57.1780423 53.0105418,57.251223 52.5269784,57.251223 L52.5269784,57.251223 Z" id="路径" fill="url(#linearGradient-9)"></path>
                    <path d="M67.6420144,78.2301822 C65.2814744,78.2325199 63.2734309,76.5097221 62.9168861,74.1762632 C62.5603412,71.8428043 63.9622962,69.5989699 66.2158273,68.896295 L104.270827,57.0029137 C105.932037,56.3565071 107.814984,56.6891791 109.15413,57.8656774 C110.493276,59.0421756 111.065647,60.8666076 110.638538,62.5972252 C110.211428,64.3278429 108.855954,65.6764902 107.123201,66.0948561 L69.0682014,77.9946043 C68.6072368,78.1439075 68.1265066,78.2233139 67.6420144,78.2301822 Z" id="路径" fill="url(#linearGradient-10)"></path>
                    <path d="M83.3364388,100.508028 C80.9771073,100.507175 78.9720116,98.7834202 78.6172043,96.4509199 C78.2623969,94.1184197 79.6642433,91.8764189 81.9166187,91.1741007 L119.971619,79.2743525 C122.436841,78.633172 124.971335,80.039868 125.731307,82.4710977 C126.491278,84.9023275 125.209142,87.5020538 122.817626,88.3790288 L84.7753597,100.285144 C84.3104796,100.434873 83.8248319,100.510083 83.3364388,100.508028 L83.3364388,100.508028 Z" id="路径" fill="url(#linearGradient-11)"></path>
                    <polygon id="矩形" fill="#D2E4FF" transform="translate(150.765815, 88.079574) rotate(-40.520000) translate(-150.765815, -88.079574) " points="147.958009 85.0584771 153.573621 85.0584771 153.573621 91.1006714 147.958009 91.1006714"></polygon>
                    <path d="M159.506443,86.711415 L165.8654,86.711415 C166.96997,86.711415 167.8654,87.6068455 167.8654,88.711415 L167.8654,115.36807 C167.8654,116.472639 166.96997,117.36807 165.8654,117.36807 L159.506443,117.36807 C158.401874,117.36807 157.506443,116.472639 157.506443,115.36807 L157.506443,88.711415 C157.506443,87.6068455 158.401874,86.711415 159.506443,86.711415 Z" id="矩形" fill="url(#linearGradient-12)" transform="translate(162.685922, 102.039742) rotate(-40.520000) translate(-162.685922, -102.039742) "></path>
                    <circle id="椭圆形" fill="url(#linearGradient-13)" cx="132.527158" cy="66.7251799" r="25.4739928"></circle>
                    <path d="M146.273309,82.8079856 C140.970728,87.3446993 133.770732,88.9719649 127.032518,87.1565827 L138.352878,46.4083813 C145.839874,48.5542211 151.542516,54.6399966 153.197673,62.250528 C154.852831,69.8610595 152.19283,77.7655636 146.273309,82.8270863 L146.273309,82.8079856 Z" id="路径" fill="#FFFFFF" opacity="0.95"></path>
                    <path d="M138.352878,46.3892806 L127.032518,87.137482 C119.525073,85.3162183 113.607085,79.5479244 111.594119,72.0895929 C109.581154,64.6312613 111.793253,56.6686985 117.364877,51.3174608 C122.936501,45.9662231 130.981813,44.0771081 138.352878,46.3892806 L138.352878,46.3892806 Z" id="路径" fill="url(#linearGradient-14)"></path>
                </g>
            </g>
        </g>
    </g>
</svg>