<?xml version="1.0" encoding="UTF-8"?>
<svg width="181px" height="181px" viewBox="0 0 181 181" version="1.1" xmlns="http://www.w3.org/2000/svg" xmlns:xlink="http://www.w3.org/1999/xlink">
    <title>img</title>
    <defs>
        <path d="M-4.77396724e-05,6.35124899 C-4.77396724e-05,9.56530202 17.5329443,12.1710923 39.1602576,12.1710923 L39.1602576,12.1710923 C60.7882077,12.1710923 78.3205629,9.56530202 78.3205629,6.35124899 L78.3205629,6.35124899 C78.3205629,3.1378085 60.7882077,0.532630769 39.1602576,0.532630769 L39.1602576,0.532630769 C17.5329443,0.532630769 -4.77396724e-05,3.1378085 -4.77396724e-05,6.35124899" id="path-1"></path>
        <linearGradient x1="97.9073377%" y1="50.0430118%" x2="4.32500455%" y2="49.9588748%" id="linearGradient-3">
            <stop stop-color="#FFFFFF" offset="0%"></stop>
            <stop stop-color="#BFD6FF" offset="100%"></stop>
        </linearGradient>
        <linearGradient x1="-2.90587536%" y1="37.0279469%" x2="100%" y2="38.8320885%" id="linearGradient-4">
            <stop stop-color="#84AAFF" offset="0%"></stop>
            <stop stop-color="#4B77F6" offset="100%"></stop>
        </linearGradient>
        <path d="M148.396899,12.8966 L148.396899,75.1148154 C148.396899,76.2723842 147.458856,77.2095538 146.300209,77.2095538 L57.058474,77.2095538 C55.899827,77.2095538 54.9617843,76.2723842 54.9617843,75.1148154 L54.9617843,12.8966 C54.9617843,11.7390312 55.899827,10.8018615 57.058474,10.8018615 L146.300209,10.8018615 C147.458856,10.8018615 148.396899,11.7390312 148.396899,12.8966" id="path-5"></path>
        <filter x="-16.1%" y="-19.6%" width="136.4%" height="151.2%" filterUnits="objectBoundingBox" id="filter-6">
            <feOffset dx="2" dy="4" in="SourceAlpha" result="shadowOffsetOuter1"></feOffset>
            <feGaussianBlur stdDeviation="5" in="shadowOffsetOuter1" result="shadowBlurOuter1"></feGaussianBlur>
            <feColorMatrix values="0 0 0 0 0.725490196   0 0 0 0 0.788235294   0 0 0 0 1  0 0 0 1 0" type="matrix" in="shadowBlurOuter1"></feColorMatrix>
        </filter>
        <linearGradient x1="100%" y1="50%" x2="0%" y2="50%" id="linearGradient-7">
            <stop stop-color="#BFD7FE" offset="0%"></stop>
            <stop stop-color="#659CFF" offset="100%"></stop>
        </linearGradient>
        <path d="M108.549571,2.95106357 L108.549571,74.790494 C108.549571,76.1266828 107.4659,77.2095538 106.128724,77.2095538 L3.10719454,77.2095538 C1.77001863,77.2095538 0.686975161,76.1266828 0.686975161,74.790494 L0.686975161,2.95106357 C0.686975161,1.61487475 1.77001863,0.532630769 3.10719454,0.532630769 L106.128724,0.532630769 C107.4659,0.532630769 108.549571,1.61487475 108.549571,2.95106357" id="path-8"></path>
        <filter x="-23.2%" y="-19.6%" width="150.1%" height="170.4%" filterUnits="objectBoundingBox" id="filter-9">
            <feOffset dx="2" dy="12" in="SourceAlpha" result="shadowOffsetOuter1"></feOffset>
            <feGaussianBlur stdDeviation="7" in="shadowOffsetOuter1" result="shadowBlurOuter1"></feGaussianBlur>
            <feColorMatrix values="0 0 0 0 0.725490196   0 0 0 0 0.788235294   0 0 0 0 1  0 0 0 1 0" type="matrix" in="shadowBlurOuter1"></feColorMatrix>
        </filter>
        <linearGradient x1="100%" y1="50%" x2="0%" y2="50%" id="linearGradient-10">
            <stop stop-color="#BFD7FE" offset="0%"></stop>
            <stop stop-color="#659CFF" offset="100%"></stop>
        </linearGradient>
        <linearGradient x1="39.5575766%" y1="33.5384119%" x2="53.8940405%" y2="67.2682109%" id="linearGradient-11">
            <stop stop-color="#BFD7FE" offset="0%"></stop>
            <stop stop-color="#659CFF" offset="100%"></stop>
        </linearGradient>
    </defs>
    <g id="学生端-生涯辅导" stroke="none" stroke-width="1" fill="none" fill-rule="evenodd">
        <g id="生涯咨询-输出生涯文档等待" transform="translate(-750.000000, -276.000000)">
            <g id="img-" transform="translate(750.000000, 278.000000)">
                <g id="img">
                    <g>
                        <g id="编组" transform="translate(57.709971, 165.676923)">
                            <mask id="mask-2" fill="white">
                                <use xlink:href="#path-1"></use>
                            </mask>
                            <g id="Clip-22"></g>
                            <path d="M-4.77396724e-05,6.35124899 C-4.77396724e-05,9.56530202 17.5329443,12.1710923 39.1602576,12.1710923 L39.1602576,12.1710923 C60.7882077,12.1710923 78.3205629,9.56530202 78.3205629,6.35124899 L78.3205629,6.35124899 C78.3205629,3.1378085 60.7882077,0.532630769 39.1602576,0.532630769 L39.1602576,0.532630769 C17.5329443,0.532630769 -4.77396724e-05,3.1378085 -4.77396724e-05,6.35124899" id="Fill-21" fill="url(#linearGradient-3)" mask="url(#mask-2)"></path>
                        </g>
                        <path d="M31.0575792,41.0769231 C27.5644435,41.0769231 24.7328722,43.9014133 24.7328722,47.3858136 L24.7328722,47.3858136 L24.7328722,139.661538 L160.763407,139.661538 L160.763407,47.3858136 C160.763407,43.9014133 157.932468,41.0769231 154.438699,41.0769231 L154.438699,41.0769231 L31.0575792,41.0769231 Z" id="Fill-23" fill="url(#linearGradient-4)"></path>
                        <g id="编组" transform="translate(4.122185, 17.800000)">
                            <path d="M175.767701,67.1687816 L156.383281,123.105872 C156.022917,124.146404 154.88619,124.697571 153.842399,124.338114 L73.4831356,96.6303323 C72.4399768,96.2708759 71.8867865,95.136381 72.2477827,94.0958494 L91.6315698,38.1593892 C91.9919337,37.1188575 93.1292929,36.567691 94.1724517,36.9271474 L174.532348,64.6342987 C175.574874,64.9943857 176.128065,66.1282499 175.767701,67.1687816" id="Fill-25" fill="#99BEFF"></path>
                            <path d="M59.8474709,1.38417489 L78.1848697,40.8562341 C78.5256336,41.5904843 78.2025717,42.4595455 77.4622478,42.7975137 L20.4301242,68.8593185 C19.6898003,69.1979138 18.8141824,68.8768753 18.4734185,68.1426251 L0.136019679,28.6705659 C-0.205376472,27.9363157 0.117685441,27.0672545 0.858641531,26.7286592 L57.8901329,0.667481532 C58.6304568,0.328886244 59.5060747,0.649924739 59.8474709,1.38417489" id="Fill-27" fill="#D9EDFF"></path>
                            <g id="Fill-30">
                                <use fill="black" fill-opacity="1" filter="url(#filter-6)" xlink:href="#path-5"></use>
                                <use fill="#FFFFFF" fill-rule="evenodd" xlink:href="#path-5"></use>
                            </g>
                        </g>
                        <path d="M61.1800412,28.0692308 C60.0220184,28.0692308 59.0839695,28.9938373 59.0839695,30.1358884 L59.0839695,30.1358884 L59.0839695,39.0230769 L152.519084,39.0230769 L152.519084,30.1358884 C152.519084,28.9938373 151.581035,28.0692308 150.42238,28.0692308 L150.42238,28.0692308 L61.1800412,28.0692308 Z" id="Fill-36" fill="url(#linearGradient-7)"></path>
                        <g id="编组" transform="translate(26.106918, 0.000000)">
                            <path d="M40.5343034,33.7364769 C40.5343034,34.6816754 39.7652685,35.4480154 38.8167462,35.4480154 C37.8682238,35.4480154 37.0991889,34.6816754 37.0991889,33.7364769 C37.0991889,32.7912784 37.8682238,32.0249385 38.8167462,32.0249385 C39.7652685,32.0249385 40.5343034,32.7912784 40.5343034,33.7364769" id="Fill-38" fill="#C0D7FF"></path>
                            <path d="M46.7175095,33.7364769 C46.7175095,34.6816754 45.9484746,35.4480154 44.9999523,35.4480154 C44.0514299,35.4480154 43.282395,34.6816754 43.282395,33.7364769 C43.282395,32.7912784 44.0514299,32.0249385 44.9999523,32.0249385 C45.9484746,32.0249385 46.7175095,32.7912784 46.7175095,33.7364769" id="Fill-40" fill="#C0D7FF"></path>
                            <path d="M52.9007156,33.7364769 C52.9007156,34.6816754 52.1316807,35.4480154 51.1831584,35.4480154 C50.234636,35.4480154 49.4656011,34.6816754 49.4656011,33.7364769 C49.4656011,32.7912784 50.234636,32.0249385 51.1831584,32.0249385 C52.1316807,32.0249385 52.9007156,32.7912784 52.9007156,33.7364769" id="Fill-42" fill="#C0D7FF"></path>
                            <g id="Fill-45">
                                <use fill="black" fill-opacity="1" filter="url(#filter-9)" xlink:href="#path-8"></use>
                                <use fill="#FFFFFF" fill-rule="evenodd" xlink:href="#path-8"></use>
                            </g>
                            <path d="M70.8863604,32.7095538 L23.9227044,32.7095538 C23.2315289,32.7095538 22.671708,32.1643765 22.671708,31.4926401 L22.671708,25.711083 C22.671708,25.0393466 23.2315289,24.4941692 23.9227044,24.4941692 L70.8863604,24.4941692 C71.5769105,24.4941692 72.1373568,25.0393466 72.1373568,25.711083 L72.1373568,31.4926401 C72.1373568,32.1643765 71.5769105,32.7095538 70.8863604,32.7095538" id="Fill-47" fill="#C0D7FF"></path>
                            <path d="M50.2800198,46.4018615 L23.918358,46.4018615 C23.2302072,46.4018615 22.671708,45.8572523 22.671708,45.1848577 L22.671708,39.4034808 C22.671708,38.7310862 23.2302072,38.1864769 23.918358,38.1864769 L50.2800198,38.1864769 C50.9681706,38.1864769 51.5266698,38.7310862 51.5266698,39.4034808 L51.5266698,45.1848577 C51.5266698,45.8572523 50.9681706,46.4018615 50.2800198,46.4018615" id="Fill-49" fill="#C0D7FF"></path>
                        </g>
                        <path d="M28.5431701,0.684615385 C27.1968535,0.684615385 26.106918,1.72494949 26.106918,3.00939444 L26.106918,3.00939444 L26.106918,13.0076923 L134.656536,13.0076923 L134.656536,3.00939444 C134.656536,1.72494949 133.565969,0.684615385 132.219653,0.684615385 L132.219653,0.684615385 L28.5431701,0.684615385 Z" id="Fill-51" fill="url(#linearGradient-10)"></path>
                        <g id="编组" transform="translate(30.229055, 5.476923)" fill="#C0D7FF">
                            <path d="M4.12208966,1.55955385 C4.12208966,2.50495255 3.35325571,3.27109231 2.40453241,3.27109231 C1.45580912,3.27109231 0.686975161,2.50495255 0.686975161,1.55955385 C0.686975161,0.614155138 1.45580912,-0.151984615 2.40453241,-0.151984615 C3.35325571,-0.151984615 4.12208966,0.614155138 4.12208966,1.55955385" id="Fill-53"></path>
                            <path d="M11.6793416,1.55955385 C11.6793416,2.50495255 10.9106405,3.27109231 9.96148753,3.27109231 C9.01352176,3.27109231 8.24422707,2.50495255 8.24422707,1.55955385 C8.24422707,0.614155138 9.01352176,-0.151984615 9.96148753,-0.151984615 C10.9106405,-0.151984615 11.6793416,0.614155138 11.6793416,1.55955385" id="Fill-55"></path>
                            <path d="M18.5495706,1.55955385 C18.5495706,2.50495255 17.7808695,3.27109231 16.8323101,3.27109231 C15.8837508,3.27109231 15.1144561,2.50495255 15.1144561,1.55955385 C15.1144561,0.614155138 15.8837508,-0.151984615 16.8323101,-0.151984615 C17.7808695,-0.151984615 18.5495706,0.614155138 18.5495706,1.55955385" id="Fill-57"></path>
                        </g>
                        <path d="M6.89169452,52.7153846 C2.33070889,52.7153846 -0.970395339,57.0710896 0.259142715,61.4653798 L0.259142715,61.4653798 L21.2643306,136.532027 C23.0280382,142.835338 28.769886,147.192308 35.3114078,147.192308 L35.3114078,147.192308 L153.203562,147.192308 C158.445377,147.192308 162.093533,141.980769 160.302011,137.051979 L160.302011,137.051979 L135.089211,67.6731765 C134.299652,65.4997519 132.235039,64.0524889 129.923887,64.0524889 L129.923887,64.0524889 L70.4831498,64.0524889 L68.206766,57.716918 C67.1289447,54.7161245 64.2855194,52.7153846 61.0988349,52.7153846 L61.0988349,52.7153846 L6.89169452,52.7153846 Z" id="Fill-59" fill="url(#linearGradient-11)"></path>
                    </g>
                </g>
            </g>
        </g>
    </g>
</svg>