<?xml version="1.0" encoding="UTF-8"?>
<svg width="60px" height="60px" viewBox="0 0 60 60" version="1.1" xmlns="http://www.w3.org/2000/svg" xmlns:xlink="http://www.w3.org/1999/xlink">
    <title>icon_success</title>
    <g id="学生端-生涯辅导" stroke="none" stroke-width="1" fill="none" fill-rule="evenodd">
        <g id="生涯辅导-生成评测报告" transform="translate(-810.000000, -330.000000)" fill="#53C41B">
            <g id="icon_success" transform="translate(810.000000, 330.000000)">
                <path d="M46.1885,22.3223 L27.2085,41.6743 C26.6675,42.2243 25.9615,42.5003 25.2545,42.5003 C24.5465,42.5003 23.8405,42.2253 23.3005,41.6743 L13.8115,31.9983 C12.7315,30.8963 12.7285,29.1093 13.8085,28.0053 C14.8875,26.9003 16.6365,26.8973 17.7185,28.0023 L25.2545,35.6853 L42.2815,18.3263 C43.3615,17.2253 45.1115,17.2223 46.1915,18.3283 C47.2715,19.4333 47.2685,21.2203 46.1885,22.3223 M30.0005,0.0003 C13.4585,0.0003 0.0005,13.4583 0.0005,30.0003 C0.0005,46.5423 13.4585,60.0003 30.0005,60.0003 C46.5425,60.0003 60.0005,46.5423 60.0005,30.0003 C60.0005,13.4583 46.5425,0.0003 30.0005,0.0003"></path>
            </g>
        </g>
    </g>
</svg>