<?xml version="1.0" encoding="UTF-8"?>
<svg width="14px" height="14px" viewBox="0 0 14 14" version="1.1" xmlns="http://www.w3.org/2000/svg" xmlns:xlink="http://www.w3.org/1999/xlink">
    <title>checkbox_pre</title>
    <g id="登录&amp;注册" stroke="none" stroke-width="1" fill="none" fill-rule="evenodd">
        <g id="学生-登录" transform="translate(-1140.000000, -636.000000)" fill="#FFB706">
            <g id="login" transform="translate(1140.000000, 352.000000)">
                <g id="remember-password" transform="translate(0.000000, 282.000000)">
                    <g id="checkbox_pre-" transform="translate(0.000035, 2.000035)">
                        <path d="M11.1699,5.0449 L6.2699,9.9449 C6.13305,10.08175 5.9542,10.15 5.775,10.15 C5.5958,10.15 5.41695,10.08175 5.2801,9.9449 L2.8301,7.4949 C2.55675,7.22155 2.55675,6.77845 2.8301,6.5051 C3.10345,6.23175 3.54655,6.23175 3.8199,6.5051 L5.775,8.4602 L10.1801,4.0551 C10.45345,3.78175 10.89655,3.78175 11.1699,4.0551 C11.44325,4.32845 11.44325,4.77155 11.1699,5.0449 M12.6,8.8817842e-16 L1.4,8.8817842e-16 C0.62685,8.8817842e-16 0,0.62685 0,1.4 L0,12.6 C0,13.37315 0.62685,14 1.4,14 L12.6,14 C13.37315,14 14,13.37315 14,12.6 L14,1.4 C14,0.62685 13.37315,8.8817842e-16 12.6,8.8817842e-16" id="checkbox_pre"></path>
                    </g>
                </g>
            </g>
        </g>
    </g>
</svg>