<?xml version="1.0" encoding="UTF-8"?>
<svg width="32px" height="32px" viewBox="0 0 32 32" version="1.1" xmlns="http://www.w3.org/2000/svg" xmlns:xlink="http://www.w3.org/1999/xlink">
    <title>icon_tutor</title>
    <g id="登录&amp;注册" stroke="none" stroke-width="1" fill="none" fill-rule="evenodd">
        <g id="学校-登录" transform="translate(-464.000000, -704.000000)" fill="#999999">
            <g id="tutor" transform="translate(380.000000, 686.000000)">
                <g id="icon_tutor-" transform="translate(84.000000, 18.000000)">
                    <g id="icon_tutor">
                        <path d="M16,16 C20.4176,16 24,12.4184 24,8 C24,3.5816 20.4176,0 16,0 C11.5824,0 8,3.5816 8,8 C8,12.4184 11.5824,16 16,16" id="Fill-1"></path>
                        <path d="M17.6,16 L17.56,16 L19.7512,23.904 C19.904,24.456 19.744,25.056 19.344,25.456 L16.568,28.232 C16.256,28.544 15.744,28.544 15.432,28.232 L12.656,25.456 C12.256,25.056 12.096,24.456 12.248,23.904 L14.44,16 L14.4,16 C10.424,16 6.824,17.616 4.216,20.216 C1.616,22.824 0,26.424 0,30.4 C0,31.28 0.72,32 1.6,32 L30.4,32 C30.84,32 31.24,31.824 31.528,31.528 C31.824,31.24 32,30.84 32,30.4 C32,22.448 25.5512,16 17.6,16" id="Fill-3"></path>
                    </g>
                </g>
            </g>
        </g>
    </g>
</svg>