<?xml version="1.0" encoding="UTF-8"?>
<svg width="30px" height="30px" viewBox="0 0 30 30" version="1.1" xmlns="http://www.w3.org/2000/svg" xmlns:xlink="http://www.w3.org/1999/xlink">
    <title>icon_switch language </title>
    <g id="首页" stroke="none" stroke-width="1" fill="none" fill-rule="evenodd">
        <g id="生涯模式" transform="translate(-1530.000000, -35.000000)" fill="#999999">
            <g id="navigation">
                <g id="icon_switch-language--" transform="translate(1530.000000, 35.000000)">
                    <g id="icon_switch-language-">
                        <path d="M27.2727273,25.9090909 C27.2727273,26.6611364 26.6611364,27.2727273 25.9090909,27.2727273 L4.09090909,27.2727273 C3.33886364,27.2727273 2.72727273,26.6611364 2.72727273,25.9090909 L2.72727273,4.09090909 C2.72727273,3.33886364 3.33886364,2.72727273 4.09090909,2.72727273 L25.9090909,2.72727273 C26.6611364,2.72727273 27.2727273,3.33886364 27.2727273,4.09090909 L27.2727273,25.9090909 Z M25.9090909,0 L4.09090909,0 C1.83477273,0 0,1.83477273 0,4.09090909 L0,25.9090909 C0,28.1652273 1.83477273,30 4.09090909,30 L25.9090909,30 C28.1652273,30 30,28.1652273 30,25.9090909 L30,4.09090909 C30,1.83477273 28.1652273,0 25.9090909,0 L25.9090909,0 Z" id="Fill-1"></path>
                        <path d="M10.9090909,10.9090909 L12.2727273,10.9090909 C13.0254545,10.9090909 13.6363636,10.2981818 13.6363636,9.54545455 C13.6363636,8.79272727 13.0254545,8.18181818 12.2727273,8.18181818 L10.9090909,8.18181818 C7.14954545,8.18181818 4.09090909,11.2404545 4.09090909,15 C4.09090909,18.7595455 7.14954545,21.8181818 10.9090909,21.8181818 L12.2727273,21.8181818 C13.0254545,21.8181818 13.6363636,21.2072727 13.6363636,20.4545455 C13.6363636,19.7018182 13.0254545,19.0909091 12.2727273,19.0909091 L10.9090909,19.0909091 C8.65295455,19.0909091 6.81818182,17.2561364 6.81818182,15 C6.81818182,12.7438636 8.65295455,10.9090909 10.9090909,10.9090909" id="Fill-3"></path>
                        <path d="M24.5454545,8.18181818 C23.7927273,8.18181818 23.1818182,8.79272727 23.1818182,9.54545455 L23.1818182,13.6363636 L17.7272727,13.6363636 L17.7272727,9.54545455 C17.7272727,8.79272727 17.1163636,8.18181818 16.3636364,8.18181818 C15.6109091,8.18181818 15,8.79272727 15,9.54545455 L15,20.4545455 C15,21.2072727 15.6109091,21.8181818 16.3636364,21.8181818 C17.1163636,21.8181818 17.7272727,21.2072727 17.7272727,20.4545455 L17.7272727,16.3636364 L23.1818182,16.3636364 L23.1818182,20.4545455 C23.1818182,21.2072727 23.7927273,21.8181818 24.5454545,21.8181818 C25.2981818,21.8181818 25.9090909,21.2072727 25.9090909,20.4545455 L25.9090909,9.54545455 C25.9090909,8.79272727 25.2981818,8.18181818 24.5454545,8.18181818" id="Fill-5"></path>
                    </g>
                </g>
            </g>
        </g>
    </g>
</svg>