<?xml version="1.0" encoding="UTF-8"?>
<svg width="24px" height="16px" viewBox="0 0 24 16" version="1.1" xmlns="http://www.w3.org/2000/svg" xmlns:xlink="http://www.w3.org/1999/xlink">
    <title>icon_back</title>
    <g id="登录&amp;注册" stroke="none" stroke-width="1" fill="none" fill-rule="evenodd">
        <g id="学生-注册" transform="translate(-1140.000000, -365.000000)" fill="#999999">
            <g id="login" transform="translate(1140.000000, 352.000000)">
                <g id="icon_back-" transform="translate(0.000000, 13.000000)">
                    <path d="M4.55181753,6.66647685 L8.94246895,2.27582543 C9.46313381,1.75516057 9.46313381,0.911163503 8.94246895,0.390498644 C8.42180409,-0.130166215 7.57780702,-0.130166215 7.05714216,0.390498644 L0.390498644,7.05714216 C-0.130166215,7.57780702 -0.130166215,8.42180409 0.390498644,8.94246895 L7.05714216,15.6091125 C7.31780792,15.8697782 7.65847341,15.9997778 7.99980556,15.9997778 C8.3411377,15.9997778 8.68180319,15.8697782 8.94246895,15.6091125 C9.46313381,15.0884476 9.46313381,14.2444505 8.94246895,13.7237857 L4.55181753,9.33313426 L22.6664213,9.33313426 C23.4024187,9.33313426 23.99975,8.735803 23.99975,7.99980556 C23.99975,7.26380811 23.4024187,6.66647685 22.6664213,6.66647685 L4.55181753,6.66647685 Z" id="icon_back"></path>
                </g>
            </g>
        </g>
    </g>
</svg>