<?xml version="1.0" encoding="UTF-8"?>
<svg width="32px" height="32px" viewBox="0 0 32 32" version="1.1" xmlns="http://www.w3.org/2000/svg" xmlns:xlink="http://www.w3.org/1999/xlink">
    <title>icon_school</title>
    <g id="登录&amp;注册" stroke="none" stroke-width="1" fill="none" fill-rule="evenodd">
        <g id="学校-登录" transform="translate(-464.000000, -472.000000)" fill="#FFB706">
            <g id="school" transform="translate(380.000000, 454.000000)">
                <g id="icon_school-" transform="translate(84.000000, 18.000000)">
                    <path d="M16,11.984 C17.768,11.984 19.2,13.416 19.2,15.184 C19.2,16.952 17.768,18.384 16,18.384 C14.232,18.384 12.8,16.952 12.8,15.184 C12.8,13.416 14.232,11.984 16,11.984 M29.888,19.2 L24,19.2 L24,12.1056 C24,11.544 23.7056,11.0232 23.2232,10.7344 L17.6,7.36 L17.6,4.8 L23.2,4.8 C23.6424,4.8 24,4.4416 24,4 L24,0.8 C24,0.3584 23.6424,0 23.2,0 L15.2,0 C14.7576,0 14.4,0.3584 14.4,0.8 L14.4,7.36 L8.7768,10.7344 C8.2944,11.0232 8,11.544 8,12.1056 L8,19.2 L2.112,19.2 C0.944,19.2 0,20.144 0,21.312 L0,29.888 C0,31.056 0.944,32 2.112,32 L12,32 L12,26.4 C12,24.192 13.792,22.4 16,22.4 C17.104,22.4 18.104,22.848 18.832,23.568 C19.552,24.296 20,25.296 20,26.4 L20,32 L29.888,32 C31.056,32 32,31.056 32,29.888 L32,21.312 C32,20.144 31.056,19.2 29.888,19.2" id="icon_school"></path>
                </g>
            </g>
        </g>
    </g>
</svg>