<?xml version="1.0" encoding="UTF-8"?>
<svg width="30px" height="30px" viewBox="0 0 30 30" version="1.1" xmlns="http://www.w3.org/2000/svg" xmlns:xlink="http://www.w3.org/1999/xlink">
    <title>icon_switch language</title>
    <g id="首页" stroke="none" stroke-width="1" fill="none" fill-rule="evenodd">
        <g transform="translate(-1530.000000, -35.000000)" fill="#999999" id="navigation">
            <g>
                <g id="icon_switch-language-" transform="translate(1530.000000, 35.000000)">
                    <g id="icon_switch-language">
                        <path d="M27.2727273,25.9090909 C27.2727273,26.6611364 26.6611364,27.2727273 25.9090909,27.2727273 L4.09090909,27.2727273 C3.33886364,27.2727273 2.72727273,26.6611364 2.72727273,25.9090909 L2.72727273,4.09090909 C2.72727273,3.33886364 3.33886364,2.72727273 4.09090909,2.72727273 L25.9090909,2.72727273 C26.6611364,2.72727273 27.2727273,3.33886364 27.2727273,4.09090909 L27.2727273,25.9090909 Z M25.9090909,0 L4.09090909,0 C1.83477273,0 0,1.83477273 0,4.09090909 L0,25.9090909 C0,28.1652273 1.83477273,30 4.09090909,30 L25.9090909,30 C28.1652273,30 30,28.1652273 30,25.9090909 L30,4.09090909 C30,1.83477273 28.1652273,0 25.9090909,0 L25.9090909,0 Z" id="Fill-1"></path>
                        <path d="M12.2727273,10.2272727 C13.0254545,10.2272727 13.6363636,9.61636364 13.6363636,8.86363636 C13.6363636,8.11090909 13.0254545,7.5 12.2727273,7.5 L5.45454545,7.5 C4.70181818,7.5 4.09090909,8.11090909 4.09090909,8.86363636 L4.09090909,21.1363636 C4.09090909,21.8890909 4.70181818,22.5 5.45454545,22.5 L12.2727273,22.5 C13.0254545,22.5 13.6363636,21.8890909 13.6363636,21.1363636 C13.6363636,20.3836364 13.0254545,19.7727273 12.2727273,19.7727273 L6.81818182,19.7727273 L6.81818182,16.3636364 L12.2727273,16.3636364 C13.0254545,16.3636364 13.6363636,15.7527273 13.6363636,15 C13.6363636,14.2472727 13.0254545,13.6363636 12.2727273,13.6363636 L6.81818182,13.6363636 L6.81818182,10.2272727 L12.2727273,10.2272727 Z" id="Fill-3"></path>
                        <path d="M24.5454545,7.5 C23.7927273,7.5 23.1818182,8.11090909 23.1818182,8.86363636 L23.1818182,16.6329545 L17.4981818,8.1075 C17.1647727,7.60704545 16.5422727,7.38272727 15.9688636,7.55863636 C15.3934091,7.7325 15,8.26295455 15,8.86363636 L15,21.1363636 C15,21.8890909 15.6109091,22.5 16.3636364,22.5 C17.1163636,22.5 17.7272727,21.8890909 17.7272727,21.1363636 L17.7272727,13.3670455 L23.4109091,21.8925 C23.6686364,22.2790909 24.0981818,22.5 24.5454545,22.5 C24.6770455,22.5 24.81,22.4815909 24.9402273,22.4413636 C25.5156818,22.2675 25.9090909,21.7370455 25.9090909,21.1363636 L25.9090909,8.86363636 C25.9090909,8.11090909 25.2981818,7.5 24.5454545,7.5" id="Fill-5"></path>
                    </g>
                </g>
            </g>
        </g>
    </g>
</svg>