<?xml version="1.0" encoding="UTF-8"?>
<svg width="12px" height="10px" viewBox="0 0 12 10" version="1.1" xmlns="http://www.w3.org/2000/svg" xmlns:xlink="http://www.w3.org/1999/xlink">
    <title>icon_email</title>
    <g id="登录&amp;注册" stroke="none" stroke-width="1" fill="none" fill-rule="evenodd">
        <g id="学生-登录" transform="translate(-1160.000000, -499.000000)" fill="#999999">
            <g id="login" transform="translate(1140.000000, 352.000000)">
                <g id="email" transform="translate(0.000000, 132.000000)">
                    <g id="icon_email-" transform="translate(20.000000, 15.000000)">
                        <path d="M10.3636364,8.88888889 L1.63636364,8.88888889 C1.33554545,8.88888889 1.09090909,8.63972222 1.09090909,8.33333333 L1.09090909,3.49361111 L5.24290909,5.77111111 C5.48454545,5.90388889 5.75154545,5.97027778 6.01854545,5.97027778 C6.26918182,5.97027778 6.52009091,5.91166667 6.75054545,5.79444444 L10.9090909,3.67666667 L10.9090909,8.33333333 C10.9090909,8.63972222 10.6644545,8.88888889 10.3636364,8.88888889 M1.63636364,1.11111111 L10.3636364,1.11111111 C10.6644545,1.11111111 10.9090909,1.36027778 10.9090909,1.66666667 L10.9090909,2.43444444 L6.26263636,4.80055556 C6.10418182,4.88083333 5.91572727,4.87861111 5.76,4.79305556 L1.09090909,2.23166667 L1.09090909,1.66666667 C1.09090909,1.36027778 1.33554545,1.11111111 1.63636364,1.11111111 M10.3636364,0 L1.63636364,0 C0.733909091,0 0,0.7475 0,1.66666667 L0,8.33333333 C0,9.2525 0.733909091,10 1.63636364,10 L10.3636364,10 C11.2660909,10 12,9.2525 12,8.33333333 L12,1.66666667 C12,0.7475 11.2660909,0 10.3636364,0" id="icon_email"></path>
                    </g>
                </g>
            </g>
        </g>
    </g>
</svg>