<?xml version="1.0" encoding="UTF-8"?>
<svg width="12px" height="15px" viewBox="0 0 12 15" version="1.1" xmlns="http://www.w3.org/2000/svg" xmlns:xlink="http://www.w3.org/1999/xlink">
    <title>icon_password</title>
    <g id="登录&amp;注册" stroke="none" stroke-width="1" fill="none" fill-rule="evenodd">
        <g id="学生-登录" transform="translate(-1160.000000, -566.000000)" fill="#999999">
            <g id="login" transform="translate(1140.000000, 352.000000)">
                <g id="password" transform="translate(0.000000, 202.000000)">
                    <g id="icon_password-" transform="translate(20.000000, 12.000000)">
                        <g id="icon_password">
                            <path d="M10.6666667,12.2727273 C10.6666667,13.0247727 10.0686667,13.6363636 9.33333333,13.6363636 L2.66666667,13.6363636 C1.93133333,13.6363636 1.33333333,13.0247727 1.33333333,12.2727273 L1.33333333,7.15909091 L10.6666667,7.15909091 L10.6666667,12.2727273 Z M2.66666667,4.77272727 C2.66666667,2.89295455 4.162,1.36363636 6,1.36363636 C7.838,1.36363636 9.33333333,2.89295455 9.33333333,4.77272727 L9.33333333,5.79545455 L2.66666667,5.79545455 L2.66666667,4.77272727 Z M10.6666667,5.79545455 L10.6666667,4.77272727 C10.6666667,2.14090909 8.57333333,0 6,0 C3.42666667,0 1.33333333,2.14090909 1.33333333,4.77272727 L1.33333333,5.79545455 C0.598,5.79545455 0,6.40704545 0,7.15909091 L0,12.2727273 C0,13.7764773 1.19633333,15 2.66666667,15 L9.33333333,15 C10.8036667,15 12,13.7764773 12,12.2727273 L12,7.15909091 C12,6.40704545 11.402,5.79545455 10.6666667,5.79545455 L10.6666667,5.79545455 Z" id="Fill-1"></path>
                            <path d="M7.33333333,10.3977273 C7.33333333,11.1507955 6.73633333,11.7613636 6,11.7613636 C5.26366667,11.7613636 4.66666667,11.1507955 4.66666667,10.3977273 C4.66666667,9.64465909 5.26366667,9.03409091 6,9.03409091 C6.73633333,9.03409091 7.33333333,9.64465909 7.33333333,10.3977273" id="Fill-3"></path>
                        </g>
                    </g>
                </g>
            </g>
        </g>
    </g>
</svg>