<?xml version="1.0" encoding="UTF-8"?>
<svg width="12px" height="11px" viewBox="0 0 12 11" version="1.1" xmlns="http://www.w3.org/2000/svg" xmlns:xlink="http://www.w3.org/1999/xlink">
    <title>icon_account</title>
    <g id="登录&amp;注册" stroke="none" stroke-width="1" fill="none" fill-rule="evenodd">
        <g id="学校-登录" transform="translate(-1160.000000, -499.000000)" fill="#999999">
            <g id="login" transform="translate(1140.000000, 352.000000)">
                <g id="email" transform="translate(0.000000, 132.000000)">
                    <g id="icon_account-" transform="translate(20.000000, 15.000000)">
                        <path d="M1.09090909,7.7 L1.09090909,6.6 L10.9096364,6.6 L10.9099091,7.7 L1.09090909,7.7 Z M10.9090909,1.1 L10.9096364,5.5 L1.09090909,5.5 L1.09090909,1.1 L10.9090909,1.1 Z M10.9090909,0 L1.09090909,0 C0.489272727,0 0,0.49335 0,1.1 L0,7.7 C0,8.30665 0.489272727,8.8 1.09090909,8.8 L5.45454545,8.8 L5.45454545,9.9 L4.09090909,9.9 C3.78981818,9.9 3.54545455,10.1464 3.54545455,10.45 C3.54545455,10.7536 3.78981818,11 4.09090909,11 L7.90909091,11 C8.21018182,11 8.45454545,10.7536 8.45454545,10.45 C8.45454545,10.1464 8.21018182,9.9 7.90909091,9.9 L6.54545455,9.9 L6.54545455,8.8 L10.9090909,8.8 C11.5107273,8.8 12,8.30665 12,7.7 L12,1.1 C12,0.49335 11.5107273,0 10.9090909,0 L10.9090909,0 Z" id="icon_account"></path>
                    </g>
                </g>
            </g>
        </g>
    </g>
</svg>