<?xml version="1.0" encoding="UTF-8"?>
<svg width="32px" height="32px" viewBox="0 0 32 32" version="1.1" xmlns="http://www.w3.org/2000/svg" xmlns:xlink="http://www.w3.org/1999/xlink">
    <title>icon_student</title>
    <g id="登录&amp;注册" stroke="none" stroke-width="1" fill="none" fill-rule="evenodd">
        <g id="学生-登录" transform="translate(-464.000000, -588.000000)" fill="#FFB706">
            <g id="student" transform="translate(380.000000, 570.000000)">
                <g id="icon_student-" transform="translate(84.000000, 18.000000)">
                    <g id="icon_student">
                        <path d="M21.6,5.6 C21.6,2.5072 19.0928,0 16,0 C12.9072,0 10.4,2.5072 10.4,5.6 C10.4,8.6928 12.9072,11.2 16,11.2 C19.0928,11.2 21.6,8.6928 21.6,5.6" id="Fill-1"></path>
                        <path d="M8.67968,11.77576 C6.87968,11.39256 5.04768,11.19976 3.19968,11.19976 C2.32048,11.19976 1.59968,11.91976 1.59968,12.79976 L1.59968,15.19976 C2.92848,15.19976 3.99968,16.27176 3.99968,17.59976 L3.99968,22.39976 C3.99968,23.72776 2.92848,24.79976 1.59968,24.79976 L1.59968,27.19976 C1.59968,27.63976 1.77568,28.03976 2.07168,28.32776 C2.36048,28.62456 2.76048,28.79976 3.19968,28.79976 C6.89648,28.79976 10.54368,29.57576 13.92048,31.07176 L15.19968,31.64776 L15.19968,14.04776 L13.92048,13.47176 C12.23168,12.71976 10.47968,12.15976 8.67968,11.77576" id="Fill-3"></path>
                        <path d="M28,22.4 L28,17.6 C28,16.272 29.072,15.2 30.4,15.2 L30.4,12.8 C30.4,12.36 30.224,11.96 29.928,11.672 C29.64,11.376 29.24,11.2 28.8,11.2 C25.104,11.2 21.456,11.976 18.08,13.472 L16.8,14.048 L16.8,31.648 L18.08,31.072 C21.456,29.576 25.104,28.8 28.8,28.8 C29.68,28.8 30.4,28.08 30.4,27.2 L30.4,24.8 C29.072,24.8 28,23.728 28,22.4" id="Fill-5"></path>
                        <path d="M3.2,22.4 L3.2,17.6 C3.2,16.7168 2.4832,16 1.6,16 C0.7168,16 0,16.7168 0,17.6 L0,22.4 C0,23.2832 0.7168,24 1.6,24 C2.4832,24 3.2,23.2832 3.2,22.4" id="Fill-7"></path>
                        <path d="M30.4,16 C29.5168,16 28.8,16.7168 28.8,17.6 L28.8,22.4 C28.8,23.2832 29.5168,24 30.4,24 C31.2832,24 32,23.2832 32,22.4 L32,17.6 C32,16.7168 31.2832,16 30.4,16" id="Fill-9"></path>
                    </g>
                </g>
            </g>
        </g>
    </g>
</svg>