<?xml version="1.0" encoding="UTF-8"?>
<svg width="108px" height="105px" viewBox="0 0 108 105" version="1.1" xmlns="http://www.w3.org/2000/svg" xmlns:xlink="http://www.w3.org/1999/xlink">
    <title>logo</title>
    <defs>
        <polygon id="path-1" points="0.2467 -0.001 78.2467 -0.001 78.2467 61.9988016 0.2467 61.9988016"></polygon>
        <polygon id="path-3" points="0.542 -0.001 39.952 -0.001 39.952 47.8763644 0.542 47.8763644"></polygon>
        <polygon id="path-5" points="0.3937 0.5084 15.9997 0.5084 15.9997 26 0.3937 26"></polygon>
        <polygon id="path-7" points="0.658 0.5083 25.575 0.5083 25.575 26 0.658 26"></polygon>
    </defs>
    <g id="登录&amp;注册" stroke="none" stroke-width="1" fill="none" fill-rule="evenodd">
        <g id="学校-登录" transform="translate(-426.000000, -290.000000)">
            <g id="logo-" transform="translate(426.000000, 290.000000)">
                <g id="logo">
                    <g id="编组" transform="translate(14.000000, 0.001000)">
                        <mask id="mask-2" fill="white">
                            <use xlink:href="#path-1"></use>
                        </mask>
                        <g id="Clip-2"></g>
                        <path d="M70.4917,-0.0011 L55.4557,-0.0011 C57.3877,-0.0011 58.9547,1.5489 58.9547,3.4489 C58.9547,5.3589 57.3877,6.9089 55.4557,6.9089 L55.4557,6.9489 L70.3907,6.9489 C70.5927,6.9489 70.7947,7.0289 70.9367,7.1679 C71.0887,7.3189 71.1687,7.5089 71.1687,7.7189 L71.2697,49.3069 C71.2697,49.5069 71.1787,49.6969 71.0377,49.8469 C70.8957,49.9869 70.6937,50.0669 70.4917,50.0669 L53.1707,50.0669 C51.7647,50.0669 50.3797,50.4159 49.1467,51.0869 L47.0127,52.2769 C42.4427,54.7869 36.9017,54.8759 32.2397,52.5269 L29.1557,50.9769 C27.9927,50.3769 26.6987,50.0769 25.3947,50.0669 L8.0127,50.0669 C7.8107,50.0669 7.6087,49.9869 7.4667,49.8469 C7.3247,49.6969 7.2437,49.5069 7.2437,49.3069 L7.2437,7.6789 C7.2437,7.2489 7.5877,6.9089 8.0127,6.9089 L22.9877,6.9089 C21.0767,6.8789 19.5397,5.3389 19.5397,3.4489 C19.5397,1.5489 21.1077,-0.0011 23.0387,-0.0011 L8.0127,-0.0011 C3.7257,-0.0011 0.2467,3.4389 0.2467,7.6789 L0.2467,49.3069 C0.2467,53.5469 3.7257,56.9769 8.0127,56.9769 L23.7257,56.9769 C25.0407,56.9869 26.3247,57.2869 27.4877,57.8759 L32.3407,60.2869 C36.9617,62.6259 42.4527,62.5669 47.0127,60.1169 L50.8857,57.9969 C52.1187,57.3269 53.5047,56.9769 54.9097,56.9869 L70.4917,56.9869 C74.7787,56.9769 78.2467,53.5469 78.2467,49.3069 L78.2467,7.6789 C78.2467,3.4389 74.7687,-0.0011 70.4917,-0.0011" id="Fill-1" fill="#013047" mask="url(#mask-2)"></path>
                    </g>
                    <g id="编组" transform="translate(33.000000, 0.001000)">
                        <mask id="mask-4" fill="white">
                            <use xlink:href="#path-3"></use>
                        </mask>
                        <g id="Clip-4"></g>
                        <path d="M36.459,-0.0011 L34.215,-0.0011 C31.48,0.0019 28.819,0.8759 26.626,2.4939 L24.188,4.2819 C21.877,5.9779 18.716,5.9779 16.406,4.2799 L13.973,2.4939 C11.78,0.8759 9.119,0.0019 6.384,-0.0011 L4.114,0.0069 C4.087,0.0059 4.063,-0.0011 4.035,-0.0011 C2.106,-0.0011 0.542,1.5449 0.542,3.4539 C0.542,5.3609 2.106,6.9079 4.035,6.9079 C6.788,6.9129 9.464,7.7999 11.663,9.4379 C14.884,11.8179 16.779,13.1239 16.779,17.1149 L16.779,44.2009 C16.725,45.9439 17.944,47.4739 19.671,47.8279 C20.687,47.9979 21.726,47.7159 22.512,47.0569 C23.298,46.3989 23.75,45.4299 23.747,44.4119 L23.747,17.1189 C23.747,13.1459 25.688,11.8219 28.87,9.4419 C31.063,7.8249 33.724,6.9499 36.459,6.9469 L36.459,6.9079 C38.388,6.9079 39.952,5.3609 39.952,3.4539 C39.952,1.5449 38.388,-0.0011 36.459,-0.0011" id="Fill-3" fill="#FFB706" mask="url(#mask-4)"></path>
                    </g>
                    <g id="编组" transform="translate(92.000000, 78.001000)">
                        <mask id="mask-6" fill="white">
                            <use xlink:href="#path-5"></use>
                        </mask>
                        <g id="Clip-6"></g>
                        <path d="M2.7217,26.0004 L0.3937,26.0004 L0.3937,19.4914 L2.7217,19.4914 C3.9297,19.4914 4.9117,18.5184 4.9117,17.3214 L4.9117,9.1874 C4.9117,4.4014 8.8417,0.5084 13.6727,0.5084 L15.9997,0.5084 L15.9997,7.0174 L13.6727,7.0174 C12.4647,7.0174 11.4827,7.9904 11.4827,9.1874 L11.4827,17.3214 C11.4827,22.1064 7.5527,26.0004 2.7217,26.0004" id="Fill-5" fill="#FFB706" mask="url(#mask-6)"></path>
                    </g>
                    <g id="编组" transform="translate(17.000000, 78.001000)">
                        <mask id="mask-8" fill="white">
                            <use xlink:href="#path-7"></use>
                        </mask>
                        <g id="Clip-8"></g>
                        <path d="M7.228,13.2543 C7.228,9.8163 10.053,7.0173 13.525,7.0173 C14.383,7.0173 15.212,7.1923 15.972,7.5123 L7.269,13.9633 C7.242,13.7303 7.228,13.4943 7.228,13.2543 L7.228,13.2543 Z M19.435,15.4483 C19.428,15.4453 19.421,15.4493 19.418,15.4563 C18.498,17.8693 16.132,19.4913 13.525,19.4913 C12.747,19.4913 12.002,19.3513 11.314,19.0943 L22.735,10.6273 L25.498,8.5813 C24.668,6.4993 23.305,4.7063 21.595,3.3453 C19.357,1.5583 16.528,0.5083 13.525,0.5083 C6.43,0.5083 0.658,6.2263 0.658,13.2543 C0.658,14.9833 1.007,16.6323 1.639,18.1353 C2.499,20.1833 3.884,21.9633 5.626,23.3103 C7.807,24.9953 10.55,26.0003 13.525,26.0003 C18.859,26.0003 23.702,22.6763 25.575,17.7303 L19.435,15.4483 Z" id="Fill-7" fill="#FFB706" mask="url(#mask-8)"></path>
                    </g>
                    <polygon id="Fill-9" fill="#FFB706" points="45.308 104.001 51.878 104.001 51.878 72.001 45.308 72.001"></polygon>
                    <polygon id="Fill-11" fill="#FFB706" points="54.617 104.001 61.187 104.001 61.187 72.001 54.617 72.001"></polygon>
                    <path d="M80.3496,104.0014 L76.9576,104.0014 C69.9716,104.0014 64.0146,98.3414 63.9256,91.4214 C63.8326,84.2624 69.7306,78.4194 76.9576,78.5104 C83.9446,78.5994 89.6576,84.4994 89.6576,91.4214 L89.6576,104.0014 L83.0876,104.0014 L83.0876,91.3664 C83.0876,87.8904 80.2656,84.9984 76.7556,85.0184 C73.3116,85.0364 70.5136,87.8094 70.4946,91.2204 C70.4746,94.6964 73.3936,97.4924 76.9036,97.4924 L80.3496,97.4924 L80.3496,104.0014 Z" id="Fill-12" fill="#FFB706"></path>
                    <path d="M11.498,78.5092 L14.92,78.5092 L14.92,72.0012 L11.498,72.0012 C5.158,72.0012 0,77.1112 0,83.3912 L0,104.0012 L6.57,104.0012 L6.57,90.8482 L14.92,90.8482 L14.92,84.3402 L6.57,84.3402 L6.57,83.3912 C6.57,80.6992 8.781,78.5092 11.498,78.5092" id="Fill-13" fill="#FFB706"></path>
                </g>
            </g>
        </g>
    </g>
</svg>