<?xml version="1.0" encoding="UTF-8"?>
<svg width="108px" height="105px" viewBox="0 0 108 105" version="1.1" xmlns="http://www.w3.org/2000/svg" xmlns:xlink="http://www.w3.org/1999/xlink">
    <title>logo</title>
    <g id="管理员-登录" stroke="none" stroke-width="1" fill="none" fill-rule="evenodd">
        <g id="登录" transform="translate(-636.000000, -290.000000)">
            <g id="cecp" transform="translate(420.000000, 240.000000)">
                <g id="logo-" transform="translate(216.000000, 50.000000)">
                    <g id="logo">
                        <path d="M84.4917,-0.0001 L69.4557,-0.0001 C71.3877,-0.0001 72.9547,1.5499 72.9547,3.4499 C72.9547,5.3599 71.3877,6.9099 69.4557,6.9099 L69.4557,6.9499 L84.3907,6.9499 C84.5927,6.9499 84.7947,7.0299 84.9367,7.1689 C85.0887,7.3199 85.1687,7.5099 85.1687,7.7199 L85.2697,49.3079 C85.2697,49.5079 85.1787,49.6979 85.0377,49.8479 C84.8957,49.9879 84.6937,50.0679 84.4917,50.0679 L67.1707,50.0679 C65.7647,50.0679 64.3797,50.4169 63.1467,51.0879 L61.0127,52.2779 C56.4427,54.7879 50.9017,54.8769 46.2397,52.5279 L43.1557,50.9779 C41.9927,50.3779 40.6987,50.0779 39.3947,50.0679 L22.0127,50.0679 C21.8107,50.0679 21.6087,49.9879 21.4667,49.8479 C21.3247,49.6979 21.2437,49.5079 21.2437,49.3079 L21.2437,7.6799 C21.2437,7.2499 21.5877,6.9099 22.0127,6.9099 L36.9877,6.9099 C35.0767,6.8799 33.5397,5.3399 33.5397,3.4499 C33.5397,1.5499 35.1077,-0.0001 37.0387,-0.0001 L22.0127,-0.0001 C17.7257,-0.0001 14.2467,3.4399 14.2467,7.6799 L14.2467,49.3079 C14.2467,53.5479 17.7257,56.9779 22.0127,56.9779 L37.7257,56.9779 C39.0407,56.9879 40.3247,57.2879 41.4877,57.8769 L46.3407,60.2879 C50.9617,62.6269 56.4527,62.5679 61.0127,60.1179 L64.8857,57.9979 C66.1187,57.3279 67.5047,56.9779 68.9097,56.9879 L84.4917,56.9879 C88.7787,56.9779 92.2467,53.5479 92.2467,49.3079 L92.2467,7.6799 C92.2467,3.4399 88.7687,-0.0001 84.4917,-0.0001" id="Fill-1" fill="#FFFFFF"></path>
                        <path d="M69.459,-0.0001 L67.215,-0.0001 C64.48,0.0029 61.819,0.8769 59.626,2.4949 L57.188,4.2829 C54.877,5.9789 51.716,5.9789 49.406,4.2809 L46.973,2.4949 C44.78,0.8769 42.119,0.0029 39.384,-0.0001 L37.114,0.0079 C37.087,0.0069 37.063,-0.0001 37.035,-0.0001 C35.106,-0.0001 33.542,1.5459 33.542,3.4549 C33.542,5.3619 35.106,6.9089 37.035,6.9089 C39.788,6.9139 42.464,7.8009 44.663,9.4389 C47.884,11.8189 49.779,13.1249 49.779,17.1159 L49.779,44.2019 C49.725,45.9449 50.944,47.4749 52.671,47.8289 C53.687,47.9989 54.726,47.7169 55.512,47.0579 C56.298,46.3999 56.75,45.4309 56.747,44.4129 L56.747,17.1199 C56.747,13.1469 58.688,11.8229 61.87,9.4429 C64.063,7.8259 66.724,6.9509 69.459,6.9479 L69.459,6.9089 C71.388,6.9089 72.952,5.3619 72.952,3.4549 C72.952,1.5459 71.388,-0.0001 69.459,-0.0001" id="Fill-3" fill="#FFB706"></path>
                        <path d="M94.7217,104.0014 L92.3937,104.0014 L92.3937,97.4924 L94.7217,97.4924 C95.9297,97.4924 96.9117,96.5194 96.9117,95.3224 L96.9117,87.1884 C96.9117,82.4024 100.8417,78.5094 105.6727,78.5094 L107.9997,78.5094 L107.9997,85.0184 L105.6727,85.0184 C104.4647,85.0184 103.4827,85.9914 103.4827,87.1884 L103.4827,95.3224 C103.4827,100.1074 99.5527,104.0014 94.7217,104.0014" id="Fill-5" fill="#FFB706"></path>
                        <path d="M24.228,91.2553 C24.228,87.8173 27.053,85.0183 30.525,85.0183 C31.383,85.0183 32.212,85.1933 32.972,85.5133 L24.269,91.9643 C24.242,91.7313 24.228,91.4953 24.228,91.2553 L24.228,91.2553 Z M36.435,93.4493 C36.428,93.4463 36.421,93.4503 36.418,93.4573 C35.498,95.8703 33.132,97.4923 30.525,97.4923 C29.747,97.4923 29.002,97.3523 28.314,97.0953 L39.735,88.6283 L42.498,86.5823 C41.668,84.5003 40.305,82.7073 38.595,81.3463 C36.357,79.5593 33.528,78.5093 30.525,78.5093 C23.43,78.5093 17.658,84.2273 17.658,91.2553 C17.658,92.9843 18.007,94.6333 18.639,96.1363 C19.499,98.1843 20.884,99.9643 22.626,101.3113 C24.807,102.9963 27.55,104.0013 30.525,104.0013 C35.859,104.0013 40.702,100.6773 42.575,95.7313 L36.435,93.4493 Z" id="Fill-7" fill="#FFB706"></path>
                        <polygon id="Fill-9" fill="#FFB706" points="45.308 104.001 51.878 104.001 51.878 72.001 45.308 72.001"></polygon>
                        <polygon id="Fill-11" fill="#FFB706" points="54.617 104.001 61.187 104.001 61.187 72.001 54.617 72.001"></polygon>
                        <path d="M80.3496,104.0014 L76.9576,104.0014 C69.9716,104.0014 64.0146,98.3414 63.9256,91.4214 C63.8326,84.2624 69.7306,78.4194 76.9576,78.5104 C83.9446,78.5994 89.6576,84.4994 89.6576,91.4214 L89.6576,104.0014 L83.0876,104.0014 L83.0876,91.3664 C83.0876,87.8904 80.2656,84.9984 76.7556,85.0184 C73.3116,85.0364 70.5136,87.8094 70.4946,91.2204 C70.4746,94.6964 73.3936,97.4924 76.9036,97.4924 L80.3496,97.4924 L80.3496,104.0014 Z" id="Fill-12" fill="#FFB706"></path>
                        <path d="M11.498,78.5092 L14.92,78.5092 L14.92,72.0012 L11.498,72.0012 C5.158,72.0012 0,77.1112 0,83.3912 L0,104.0012 L6.57,104.0012 L6.57,90.8482 L14.92,90.8482 L14.92,84.3402 L6.57,84.3402 L6.57,83.3912 C6.57,80.6992 8.781,78.5092 11.498,78.5092" id="Fill-13" fill="#FFB706"></path>
                    </g>
                </g>
            </g>
        </g>
    </g>
</svg>